<?xml version="1.0" encoding="utf-8"?>
<!-- Generator: Adobe Illustrator 17.0.0, SVG Export Plug-In . SVG Version: 6.00 Build 0)  -->
<!DOCTYPE svg PUBLIC "-//W3C//DTD SVG 1.1//EN" "http://www.w3.org/Graphics/SVG/1.1/DTD/svg11.dtd">
<svg version="1.1" id="Capa_1" xmlns="http://www.w3.org/2000/svg" xmlns:xlink="http://www.w3.org/1999/xlink" x="0px" y="0px"
	 width="60px" height="24px" viewBox="0 0 60 24" enable-background="new 0 0 60 24" xml:space="preserve">
<g id="ABA">
	<path fill="#1B96AB" d="M34.9709,8.8994c0,2.8681,0,5.7361,0,8.6042c0,0.1476-0.0369,0.1752-0.1752,0.1752
		c-0.8115-0.0092-1.6139-0.0092-2.4254,0c-0.1107,0-0.1291-0.0277-0.1291-0.1383c0-5.7638,0-11.5368,0-17.3006
		c0-0.1107,0.0277-0.1383,0.1383-0.1383c0.8115,0.0092,1.6231,0.0092,2.4438,0c0.1291,0,0.1568,0.0369,0.1568,0.1568
		C34.9709,3.1356,34.9709,6.0221,34.9709,8.8994z"/>
	<path fill="#1B96AB" d="M39.1854,9.3144c0.3781-0.0092,0.7285,0.083,1.0513,0.2951c0.332,0.2306,0.4611,0.5625,0.4611,0.9591
		c0,0.0553-0.0184,0.0738-0.0738,0.0738c-0.1291,0-0.249-0.0092-0.3781,0c-0.083,0-0.0922-0.0461-0.0922-0.1014
		c-0.0738-0.5072-0.3965-0.6917-0.8669-0.7285c-0.1844-0.0092-0.3597,0-0.5349,0.0553c-0.2582,0.083-0.4334,0.3228-0.4519,0.5718
		c-0.0092,0.2767,0.0922,0.4427,0.3504,0.5349c0.3689,0.1291,0.7562,0.2029,1.1343,0.2951c0.1107,0.0277,0.2213,0.0553,0.332,0.1014
		c0.3965,0.1476,0.6455,0.415,0.6917,0.8392c0.0461,0.498-0.0553,0.9499-0.5533,1.1989c-0.6087,0.3135-1.2542,0.3597-1.8813,0.083
		c-0.5072-0.2213-0.7378-0.6455-0.7562-1.1989c0-0.0646,0.0092-0.1014,0.083-0.0922c0.0184,0,0.0369,0,0.0553,0
		c0.1199,0,0.249-0.0369,0.3504,0.0092c0.1107,0.0461,0.0646,0.2029,0.0922,0.3135c0.0922,0.3135,0.2951,0.5072,0.5994,0.5902
		c0.3873,0.1014,0.7654,0.083,1.1251-0.0922c0.2582-0.1291,0.3504-0.3412,0.3412-0.6271c-0.0184-0.249-0.1476-0.3965-0.3689-0.4888
		c-0.3412-0.1476-0.7009-0.1937-1.0513-0.2859c-0.166-0.0461-0.332-0.083-0.4888-0.1476c-0.4611-0.1844-0.6732-0.5718-0.5994-1.0605
		c0.1107-0.6732,0.5902-1.0882,1.2911-1.0974C39.0931,9.3144,39.1392,9.3144,39.1854,9.3144z"/>
	<path fill="#1B96AB" d="M49.7999,13.16c-0.3043,0.3965-0.7009,0.498-1.162,0.4427c-0.4427-0.0553-0.7378-0.3781-0.7378-0.8484
		c-0.0092-0.7101,0-1.4202-0.0092-2.1303c0-0.0738,0.0184-0.0922,0.0922-0.0922c0.1383,0.0092,0.3228-0.0553,0.4058,0.0277
		c0.083,0.0738,0.0277,0.2582,0.0277,0.3965c0,0.5257,0,1.0421,0,1.5677c0,0.1107,0.0092,0.2121,0.0461,0.3135
		c0.0922,0.2859,0.4058,0.4058,0.7562,0.2951c0.3689-0.1199,0.4795-0.415,0.5164-0.7562c0.0646-0.5718,0.0184-1.1343,0.0277-1.7061
		c0-0.1014,0.0184-0.1476,0.1291-0.1383c0.0922,0.0092,0.1937,0.0092,0.2951,0c0.083,0,0.1014,0.0277,0.1014,0.1014
		c0,0.9314,0,1.8721,0,2.8035c0,0.083-0.0277,0.1199-0.1107,0.1107c-0.1199-0.0092-0.2951,0.0553-0.3597-0.0277
		C49.7446,13.4459,49.7999,13.2891,49.7999,13.16z"/>
	<path fill="#1B96AB" d="M43.4183,7.3962c-0.3504,0.498-0.83,0.5625-1.3095,0.4427c-0.3597-0.0922-0.581-0.4242-0.5902-0.8577
		c-0.0092-0.6917,0-1.3833-0.0092-2.075c0-0.0738,0.0184-0.1014,0.0922-0.1014c0.1107,0.0092,0.2121,0.0092,0.3228,0
		c0.0922-0.0092,0.1107,0.0184,0.1107,0.1107c0,0.5902,0,1.1896,0,1.7799c0,0.0369,0,0.0646,0,0.1014
		c0,0.3228,0.1291,0.5441,0.3597,0.6087c0.3135,0.0922,0.6548-0.0369,0.8115-0.2951c0.1383-0.2306,0.166-0.4795,0.1752-0.7378
		c0.0092-0.4795,0.0092-0.9499,0-1.4294c0-0.1014,0.0184-0.1383,0.1291-0.1291c0.1291,0.0092,0.2951-0.0369,0.3689,0.0184
		c0.083,0.0738,0.0277,0.249,0.0277,0.3781c0,0.8208,0,1.6415,0,2.4715c0,0.1014-0.0184,0.1568-0.1383,0.1383
		c-0.1199-0.0184-0.2767,0.0553-0.3412-0.0369C43.3722,7.7005,43.4183,7.553,43.4183,7.3962z"/>
	<path fill="#1B96AB" d="M37.3594,22.4005c0.2306-0.664,0.4519-1.2911,0.664-1.9182c0.0277-0.083,0.0646-0.1199,0.1476-0.1107
		c0.2029,0.0092,0.4058,0,0.6179,0c0.0277,0,0.0738-0.0092,0.083,0.0369c0.0092,0.0553-0.0369,0.0553-0.0738,0.0646
		c-0.2121,0.0553-0.2121,0.0553-0.2121,0.2767c0,0.6732,0,1.3464,0,2.0196c0,0.1476,0.0553,0.2121,0.1937,0.2306
		c0.0461,0,0.1014,0,0.1014,0.0553c0,0.083-0.0738,0.0461-0.1107,0.0461c-0.2674,0-0.5257,0-0.7931,0
		c-0.0369,0-0.1014,0.0184-0.1014-0.0461c0-0.0646,0.0553-0.0646,0.0922-0.0646c0.1476-0.0092,0.1937-0.0922,0.1844-0.2306
		c-0.0092-0.6732,0-1.3464-0.0277-2.0288c-0.1199,0.332-0.2398,0.6732-0.3597,1.0052c-0.1383,0.3965-0.2767,0.7839-0.415,1.1804
		c-0.0184,0.0646-0.0369,0.1199-0.1291,0.1199c-0.1014,0-0.1107-0.0646-0.1291-0.1199c-0.249-0.7009-0.5072-1.4018-0.7562-2.1026
		c-0.0092-0.0184-0.0184-0.0461-0.0553-0.0646c0,0.0369,0,0.0646,0,0.1014c0,0.6179,0,1.2265,0,1.8444
		c0,0.249,0,0.249,0.2398,0.3135c0.0369,0.0092,0.0738,0.0092,0.0738,0.0553c0,0.0553-0.0369,0.0461-0.0738,0.0461
		c-0.2121,0-0.415,0-0.6271,0c-0.0369,0-0.0738,0-0.0738-0.0461s0.0369-0.0553,0.0738-0.0553
		c0.166-0.0092,0.2213-0.0922,0.2213-0.2582c0-0.3873,0.0092-0.7747,0.0092-1.1712c0-0.2951-0.0092-0.581,0-0.8761
		c0-0.1383-0.0461-0.2213-0.2029-0.2213c-0.0369,0-0.1014,0-0.0922-0.0646s0.0646-0.0461,0.1107-0.0461c0.1937,0,0.3781,0,0.5718,0
		c0.0922,0,0.1291,0.0277,0.166,0.1199c0.2121,0.5902,0.4242,1.1712,0.6363,1.7614C37.3133,22.2898,37.3317,22.3267,37.3594,22.4005
		z"/>
	<path fill="#1B96AB" d="M44.8108,6.3357c0-0.3228,0-0.6548,0-0.9775c0-0.083-0.0092-0.1291-0.1199-0.1291
		c-0.2859,0-0.2859,0-0.2859-0.2951c0-0.1107,0.0369-0.1199,0.1291-0.1199c0.2674,0,0.2674,0,0.2674-0.2674
		c0-0.1568,0-0.3228,0-0.4795c0-0.0738,0.0184-0.0922,0.0922-0.0922c0.4334-0.0184,0.4334-0.0277,0.4334,0.415
		c0,0.1199,0,0.2306,0,0.3504c0,0.0646,0.0184,0.0922,0.083,0.083c0.0277,0,0.0553,0,0.083,0c0.332,0,0.332,0,0.3043,0.3412
		c0,0.0646-0.0184,0.083-0.083,0.083c-0.1014,0-0.1937,0-0.2951,0c-0.0738,0-0.1014,0.0184-0.1014,0.0922
		c0,0.6179,0,1.2358,0,1.8536c0,0.1752,0.0922,0.249,0.2951,0.2306c0.1752-0.0184,0.1937,0.0461,0.1844,0.1937
		c-0.0092,0.2398,0,0.2398-0.249,0.249c-0.0738,0-0.1568,0.0092-0.2306,0c-0.332-0.0184-0.5072-0.1937-0.5164-0.5257
		C44.8108,6.9904,44.82,6.6584,44.8108,6.3357L44.8108,6.3357z"/>
	<path fill="#1B96AB" d="M12.5152,21.2662c0.2306-0.1291,0.4611-0.2398,0.7285-0.2306c0.3504,0.0092,0.5072,0.1568,0.5072,0.5257
		c0.0092,0.3965,0.0092,0.8023,0,1.1989c0,0.1291,0.0277,0.2213,0.1752,0.2398c0.0369,0.0092,0.083,0.0092,0.0738,0.0646
		c-0.0092,0.0553-0.0553,0.0369-0.0922,0.0369c-0.2398,0-0.4888,0-0.7285,0c-0.0277,0-0.0738,0.0184-0.083-0.0369
		c-0.0092-0.0553,0.0369-0.0646,0.0738-0.0738c0.1568-0.0184,0.1937-0.1107,0.1844-0.249c-0.0092-0.3689,0-0.7285,0-1.0974
		c0-0.2859-0.083-0.3597-0.3689-0.3504c-0.0092,0-0.0184,0-0.0277,0c-0.4242,0.0184-0.4519,0.0461-0.4519,0.4611
		c0,0.332,0.0092,0.6732,0,1.0052c0,0.1383,0.0369,0.2121,0.1752,0.2306c0.0461,0.0092,0.1014,0.0092,0.083,0.0738
		c-0.0092,0.0553-0.0646,0.0369-0.0922,0.0369c-0.2398,0-0.4795,0-0.7193,0c-0.0369,0-0.083,0.0184-0.0922-0.0369
		c-0.0092-0.0553,0.0369-0.0646,0.0738-0.0646c0.1383-0.0184,0.1752-0.1014,0.1752-0.2306c-0.0092-0.7193-0.0092-1.4386,0-2.1672
		c0-0.1476-0.0277-0.2398-0.1752-0.2859c-0.0461-0.0092-0.1107-0.0277-0.0922-0.0922c0.0184-0.0553,0.0738-0.0277,0.1107-0.0369
		c0.1476-0.0184,0.3043-0.0277,0.4519-0.0553c0.0922-0.0092,0.1199,0.0092,0.1199,0.1107
		C12.506,20.5837,12.5152,20.9249,12.5152,21.2662z"/>
	<path fill="#1B96AB" d="M51.5798,10.9836c0.1014-0.1107,0.1937-0.2121,0.2859-0.3043c0.1568-0.1568,0.3504-0.2213,0.5718-0.2213
		c0.0922,0,0.1476,0.0277,0.1291,0.1383c0,0.0184,0,0.0277,0,0.0461c0,0.1107,0.0369,0.2398-0.0092,0.332
		c-0.0553,0.1014-0.2029,0.0277-0.3043,0.0461c-0.3873,0.0738-0.6363,0.3873-0.6363,0.8208c0,0.5257,0,1.0513,0,1.577
		c0,0.1014-0.0184,0.1568-0.1383,0.1383c-0.1199-0.0092-0.2767,0.0369-0.3504-0.0277c-0.083-0.0738-0.0277-0.2398-0.0277-0.3597
		c0-0.83,0-1.6692,0-2.4992c0-0.1107,0.0277-0.1383,0.1383-0.1383c0.3504,0.0092,0.3504,0,0.3504,0.3597
		C51.5798,10.9098,51.5798,10.9375,51.5798,10.9836z"/>
	<path fill="#1B96AB" d="M15.5769,22.88c-0.2582,0.1568-0.5072,0.2859-0.7931,0.2674c-0.2674-0.0184-0.4519-0.1937-0.4611-0.4611
		c0-0.3873-0.0092-0.7839,0-1.1712c0-0.1476-0.0277-0.2582-0.1844-0.2951c-0.0369-0.0092-0.083-0.0184-0.0738-0.0738
		c0.0092-0.0646,0.0646-0.0369,0.1014-0.0461c0.1291-0.0184,0.2582-0.0277,0.3873-0.0461c0.1199-0.0184,0.166,0.0092,0.166,0.1383
		c-0.0092,0.4519,0,0.9038,0,1.3556c0,0.2674,0.1014,0.3597,0.3689,0.3412c0.0277,0,0.0553,0,0.083-0.0092
		c0.332-0.0369,0.3781-0.083,0.3781-0.415s-0.0092-0.664,0-0.996c0-0.1383-0.0277-0.2213-0.166-0.2582
		c-0.0369-0.0092-0.0922-0.0277-0.083-0.083c0.0092-0.0553,0.0646-0.0277,0.1014-0.0369c0.1383-0.0184,0.2674-0.0277,0.4058-0.0553
		c0.1014-0.0184,0.1476,0.0092,0.1476,0.1291c-0.0092,0.498,0,0.996-0.0092,1.494c0,0.1476,0.0369,0.2582,0.1844,0.3043
		c0.0369,0.0092,0.083,0.0184,0.0738,0.0738c-0.0092,0.0461-0.0646,0.0369-0.1014,0.0461
		c-0.1291,0.0184-0.2582,0.0277-0.3873,0.0553c-0.1199,0.0277-0.1752,0-0.1568-0.1383C15.5769,22.963,15.5769,22.9354,15.5769,22.88
		z"/>
	<path fill="#1B96AB" d="M28.9397,22.88c-0.2582,0.1476-0.4888,0.2767-0.7747,0.2674c-0.2859-0.0184-0.4703-0.1844-0.4795-0.4795
		c0-0.3965-0.0092-0.8023,0-1.1989c0-0.1291-0.0369-0.2121-0.166-0.249c-0.0369-0.0092-0.1107-0.0184-0.1014-0.083
		c0.0092-0.0553,0.0738-0.0369,0.1107-0.0369c0.1291-0.0184,0.2582-0.0277,0.3873-0.0461c0.1107-0.0184,0.1568,0.0092,0.1568,0.1291
		c-0.0092,0.4242,0.0092,0.8577-0.0092,1.2819c-0.0092,0.4334,0.1844,0.4519,0.4795,0.415c0.0184,0,0.0369-0.0092,0.0553-0.0092
		c0.3135-0.0738,0.3135-0.0738,0.3135-0.3965c0-0.3228,0-0.6455,0-0.9683c0-0.1383-0.0184-0.2582-0.1844-0.2951
		c-0.0369-0.0092-0.083-0.0184-0.0738-0.0738c0.0092-0.0553,0.0553-0.0369,0.0922-0.0369c0.1383-0.0184,0.2767-0.0277,0.415-0.0553
		c0.1014-0.0184,0.1383,0.0184,0.1383,0.1199c0,0.4888,0,0.9868,0,1.4755c0,0.1568,0.0277,0.2767,0.1937,0.3228
		c0.0277,0.0092,0.0738,0.0184,0.0646,0.0646c-0.0092,0.0461-0.0461,0.0369-0.083,0.0461
		c-0.1383,0.0184-0.2674,0.0277-0.4058,0.0553c-0.1291,0.0277-0.1844,0-0.1568-0.1476C28.9489,22.963,28.9397,22.9354,28.9397,22.88
		z"/>
	<path fill="#1B96AB" d="M22.3459,23.1567c-0.2121,0-0.415-0.0369-0.6179-0.1014c-0.0553-0.0184-0.1014-0.0369-0.1014-0.1107
		c0-0.166-0.0184-0.332-0.0277-0.498c0-0.0461-0.0553-0.1291,0.0369-0.1476s0.083,0.0738,0.1107,0.1199
		c0.0646,0.1199,0.1199,0.2398,0.1844,0.3597c0.1383,0.249,0.5164,0.249,0.7562,0.1752c0.1844-0.0553,0.2951-0.2398,0.2859-0.4795
		c-0.0092-0.1568-0.083-0.2674-0.2029-0.3597c-0.166-0.1291-0.3597-0.2029-0.5441-0.3043c-0.083-0.0461-0.1752-0.0922-0.249-0.1476
		c-0.2859-0.2029-0.3873-0.4611-0.3135-0.7931c0.0646-0.2674,0.3228-0.5072,0.6179-0.5441
		c0.2582-0.0369,0.5164-0.0277,0.7654,0.0461c0.0461,0.0092,0.0922,0.0092,0.1014,0.083c0.0092,0.1752,0.0184,0.3504,0.0369,0.5257
		c0,0.0277,0.0092,0.0646-0.0277,0.0738c-0.0461,0.0092-0.0738-0.0092-0.0922-0.0553c-0.0461-0.1291-0.1199-0.249-0.1937-0.3597
		c-0.1383-0.2121-0.3504-0.1844-0.5533-0.1568c-0.166,0.0184-0.3043,0.1107-0.3412,0.2951
		c-0.0369,0.2121,0.0184,0.3965,0.2029,0.5164c0.166,0.1107,0.3504,0.1752,0.5257,0.2767c0.0738,0.0369,0.1568,0.083,0.2306,0.1291
		c0.3412,0.2213,0.4519,0.4611,0.3597,0.8115s-0.3781,0.5902-0.7378,0.6179C22.4934,23.1475,22.4197,23.1475,22.3459,23.1567z"/>
	<path fill="#1B96AB" d="M50.4547,23.1567c-0.2121,0-0.4242-0.0369-0.6271-0.1014c-0.0553-0.0184-0.0922-0.0461-0.0922-0.1199
		c0-0.1752-0.0184-0.3597-0.0277-0.5349c0-0.0369-0.0277-0.083,0.0369-0.0922c0.0553-0.0092,0.0738,0.0092,0.0922,0.0646
		c0.0553,0.1476,0.1199,0.2951,0.2121,0.4334c0.166,0.2398,0.415,0.2213,0.6548,0.1937c0.2121-0.0277,0.332-0.166,0.3689-0.3689
		c0.0277-0.1752-0.0184-0.3228-0.1568-0.4427c-0.1383-0.1291-0.3136-0.1937-0.4795-0.2767
		c-0.1199-0.0646-0.2398-0.1199-0.3597-0.1937c-0.2951-0.1937-0.3965-0.4611-0.3228-0.7931
		c0.0646-0.2859,0.3228-0.5164,0.6455-0.5533c0.2398-0.0277,0.4888-0.0184,0.7285,0.0369c0.0922,0.0184,0.1291,0.0646,0.1291,0.1568
		c0,0.1476,0.0184,0.2951,0.0277,0.4334c0,0.0277,0.0277,0.083-0.0369,0.0922c-0.0553,0.0092-0.0738-0.0277-0.0922-0.0738
		c-0.0461-0.1199-0.1107-0.2398-0.1844-0.3412c-0.1383-0.2029-0.3504-0.1844-0.5533-0.1568
		c-0.166,0.0277-0.2951,0.1107-0.332,0.3043c-0.0369,0.2213,0.0277,0.3873,0.2121,0.5164c0.166,0.1107,0.3504,0.1752,0.5257,0.2767
		c0.0738,0.0369,0.1476,0.083,0.2121,0.1199c0.3597,0.2305,0.4519,0.4519,0.3689,0.8208c-0.0738,0.332-0.3597,0.5718-0.7101,0.6179
		C50.6115,23.1475,50.5285,23.1475,50.4547,23.1567z"/>
	<path fill="#1B96AB" d="M9.9884,21.718c0,0.2582,0.0184,0.5072,0.0922,0.747c0.166,0.5533,0.6548,0.5902,1.0421,0.4795
		c0.0922-0.0277,0.1476-0.1014,0.2029-0.1844c0.0922-0.1383,0.1568-0.2859,0.2121-0.4427c0.0184-0.0461,0.0369-0.0738,0.083-0.0553
		c0.0461,0.0092,0.0369,0.0553,0.0277,0.083c-0.0092,0.166-0.0184,0.3412-0.0277,0.5072c0,0.0646,0,0.1199-0.083,0.1476
		c-0.415,0.1568-0.8392,0.2029-1.2726,0.0646c-0.332-0.1014-0.5349-0.3412-0.6455-0.664c-0.1476-0.4242-0.1476-0.8669,0-1.2911
		c0.166-0.4795,0.5257-0.7193,1.0144-0.7747c0.2951-0.0369,0.581-0.0092,0.8669,0.0553c0.0738,0.0184,0.0922,0.0461,0.1014,0.1107
		c0.0092,0.2029,0.0184,0.4058,0.0277,0.6087c0,0.0369,0.0369,0.083-0.0369,0.0922c-0.0461,0.0092-0.0646-0.0277-0.083-0.0646
		c-0.0461-0.1383-0.1199-0.2767-0.1844-0.4058c-0.083-0.166-0.2213-0.2398-0.3965-0.249c-0.5164-0.0369-0.83,0.2121-0.913,0.7285
		C9.9976,21.3768,9.9884,21.552,9.9884,21.718z"/>
	<path fill="#1B96AB" d="M41.952,21.9117c0.1014-0.1937,0.1937-0.3597,0.2859-0.5257c0.0553-0.1014,0.0369-0.1752-0.0922-0.2029
		c-0.0369-0.0092-0.083,0-0.0738-0.0646c0.0092-0.0553,0.0553-0.0277,0.083-0.0277c0.1844,0,0.3689,0,0.5533,0
		c0.0277,0,0.0738-0.0184,0.083,0.0369c0,0.0461-0.0369,0.0553-0.0646,0.0553c-0.166,0.0277-0.2674,0.1476-0.3412,0.2859
		c-0.0922,0.1568-0.1844,0.3043-0.2859,0.4519c-0.0369,0.0553-0.0369,0.0922,0,0.1476c0.166,0.2398,0.332,0.4795,0.498,0.7193
		c0.0646,0.0922,0.1291,0.1844,0.249,0.2121c0.0277,0.0092,0.0461,0.0277,0.0461,0.0646c-0.0092,0.0461-0.0461,0.0369-0.0646,0.0369
		c-0.249,0-0.5072,0-0.7562,0c-0.0277,0-0.0738,0.0092-0.0738-0.0369s0.0369-0.0553,0.0646-0.0553
		c0.1476-0.0184,0.1383-0.1014,0.083-0.1937c-0.1107-0.1844-0.2306-0.3597-0.3597-0.5533c-0.1199,0.1937-0.2213,0.3781-0.332,0.5533
		c-0.0553,0.0922-0.0461,0.166,0.083,0.1937c0.0369,0.0092,0.083,0.0092,0.083,0.0646c0,0.0646-0.0553,0.0369-0.0922,0.0461
		c-0.1844,0-0.3597,0-0.5441,0c-0.0369,0-0.0738,0.0092-0.0738-0.0461c0-0.0461,0.0277-0.0553,0.0646-0.0646
		c0.1568-0.0277,0.249-0.1383,0.332-0.2582c0.1107-0.166,0.2121-0.3228,0.332-0.4795c0.0553-0.0738,0.0461-0.1199,0-0.1937
		c-0.1568-0.2213-0.3043-0.4519-0.4611-0.6732c-0.0646-0.0922-0.1199-0.1844-0.249-0.2121
		c-0.0369-0.0092-0.0461-0.0277-0.0461-0.0646c0.0092-0.0369,0.0369-0.0277,0.0553-0.0277c0.2674,0,0.5257,0,0.7931,0
		c0.0184,0,0.0553,0,0.0553,0.0277c0,0.0369-0.0184,0.0461-0.0461,0.0553c-0.1568,0.0277-0.1476,0.1199-0.083,0.2213
		C41.7306,21.5705,41.8321,21.7273,41.952,21.9117z"/>
	<path fill="#1B96AB" d="M33.4123,22.7509c0-0.0553-0.0092-0.1199,0-0.1752c0-0.0369-0.0369-0.0922,0.0369-0.1014
		c0.0553-0.0092,0.0646,0.0461,0.083,0.083c0.0646,0.1107,0.1291,0.2306,0.2029,0.332c0.083,0.1199,0.3228,0.1568,0.498,0.083
		c0.1568-0.0646,0.2213-0.1844,0.2029-0.3597c-0.0184-0.1476-0.1291-0.2213-0.249-0.2859
		c-0.1844-0.1014-0.3873-0.1568-0.5533-0.2859c-0.3135-0.2398-0.2859-0.6732,0.0369-0.8853
		c0.083-0.0553,0.1844-0.1014,0.2859-0.1107c0.2121-0.0277,0.415-0.0277,0.6179,0.0369c0.0369,0.0092,0.083,0.0092,0.083,0.0646
		c0.0092,0.1383,0.0092,0.2859,0.0092,0.4242c0,0.0277-0.0092,0.0461-0.0369,0.0461c-0.0369,0-0.0461-0.0184-0.0646-0.0461
		c-0.0553-0.083-0.1014-0.1752-0.1568-0.2582c-0.1107-0.1568-0.415-0.1937-0.5625-0.0738
		c-0.1291,0.1014-0.1476,0.2859-0.0277,0.4242c0.0922,0.1107,0.2213,0.1568,0.3412,0.2121c0.1014,0.0461,0.1937,0.083,0.2951,0.1291
		c0.2121,0.1107,0.3689,0.2767,0.3412,0.5441s-0.1752,0.4334-0.415,0.5349c-0.2029,0.083-0.4242,0.0646-0.6363,0.0461
		c-0.0092,0-0.0092,0-0.0184,0C33.4123,23.0737,33.4123,23.0737,33.4123,22.7509z"/>
	<path fill="#1B96AB" d="M45.7146,22.7417c0.0184,0.0646,0.0184,0.1199-0.0461,0.166c-0.2767,0.2029-0.581,0.2859-0.9038,0.2213
		c-0.415-0.083-0.6179-0.3689-0.6917-0.7654c-0.0922-0.4795,0.0738-0.9406,0.4519-1.162c0.2859-0.1752,0.6087-0.2029,0.9314-0.1291
		c0.166,0.0369,0.2582,0.1476,0.2582,0.2951c0,0.1199-0.0738,0.2121-0.2029,0.2213c-0.1199,0.0184-0.2029-0.0369-0.2398-0.1568
		c-0.0277-0.0922,0-0.2121-0.1199-0.2398c-0.1383-0.0277-0.2674-0.0092-0.3873,0.0738c-0.1568,0.1107-0.2213,0.2674-0.249,0.4427
		c-0.0461,0.2398-0.0277,0.4795,0.0277,0.7193c0.083,0.3504,0.3412,0.5257,0.7009,0.4703
		C45.401,22.88,45.5578,22.8247,45.7146,22.7417z"/>
	<path fill="#1B96AB" d="M30.3414,21.2846c0.1844-0.1383,0.3597-0.2582,0.581-0.249c0.1291,0.0092,0.2121,0.0553,0.2398,0.1844
		c0.0184,0.1199-0.0184,0.2213-0.1476,0.2674c-0.1291,0.0369-0.2306,0-0.2767-0.1199c-0.0369-0.0922-0.0922-0.083-0.166-0.0646
		c-0.1752,0.0553-0.2306,0.1291-0.2306,0.3135c0,0.3781,0.0092,0.747,0,1.1251c0,0.1568,0.0369,0.2582,0.2121,0.2582
		c0.0461,0,0.1014,0.0092,0.0922,0.0646c-0.0092,0.0553-0.0646,0.0369-0.0922,0.0369c-0.249,0-0.5072,0-0.7562,0
		c-0.0369,0-0.083,0.0184-0.0922-0.0461c0-0.0553,0.0461-0.0553,0.083-0.0646c0.1383-0.0184,0.1752-0.1014,0.1752-0.2306
		c0-0.4242,0-0.8577,0-1.2819c0-0.1199-0.0461-0.1937-0.1568-0.2306c-0.0461-0.0184-0.1107-0.0277-0.1014-0.083
		c0.0092-0.0646,0.083-0.0461,0.1291-0.0553c0.1383-0.0277,0.2674-0.0369,0.4058-0.0553c0.083-0.0184,0.1199,0.0092,0.1107,0.1014
		C30.3414,21.1832,30.3414,21.2201,30.3414,21.2846z"/>
	<path fill="#1B96AB" d="M43.6488,21.9763c0,0.2582,0.0092,0.5164,0,0.7747c0,0.1383,0.0184,0.2398,0.1844,0.249
		c0.0369,0,0.083,0.0092,0.083,0.0646c-0.0092,0.0646-0.0553,0.0369-0.0922,0.0369c-0.2398,0-0.4888,0-0.7285,0
		c-0.0277,0-0.0738,0.0092-0.083-0.0369c-0.0092-0.0553,0.0277-0.0646,0.0646-0.0738c0.1476-0.0184,0.1844-0.1107,0.1752-0.2398
		c-0.0092-0.415-0.0092-0.83,0-1.245c0-0.1383-0.0277-0.2306-0.166-0.2767c-0.0369-0.0092-0.0922-0.0277-0.0738-0.083
		c0.0092-0.0461,0.0646-0.0369,0.1014-0.0461c0.1568-0.0277,0.3043-0.0369,0.4611-0.0646c0.083-0.0092,0.0922,0.0277,0.0922,0.1014
		c0,0.2767,0,0.5533,0,0.83C43.6488,21.9763,43.6488,21.9763,43.6488,21.9763z"/>
	<path fill="#1B96AB" d="M48.3521,23.0829c-0.0184,0-0.0369,0-0.0553,0c-0.1107,0.0092-0.1937-0.0277-0.2398-0.1291
		c-0.0369-0.0922-0.0277-0.1752,0.0369-0.2398c0.083-0.083,0.1844-0.1107,0.2951-0.0646c0.1291,0.0553,0.1937,0.1568,0.1937,0.2951
		c0.0092,0.2859-0.2306,0.5718-0.5164,0.5994c-0.0277,0-0.0553,0.0092-0.0738-0.0277c-0.0092-0.0369,0.0184-0.0461,0.0461-0.0646
		C48.1953,23.3688,48.3244,23.2766,48.3521,23.0829z"/>
	<path fill="#1B96AB" d="M40.5502,20.4085c0.0092,0.0922-0.0369,0.1568-0.1199,0.1844c-0.2398,0.083-0.4888,0.1568-0.7285,0.2306
		c-0.0277,0.0092-0.0553,0.0092-0.0738-0.0184c-0.0092-0.0277,0.0092-0.0461,0.0277-0.0553
		c0.2121-0.1568,0.415-0.3228,0.6271-0.4703C40.4119,20.1872,40.541,20.261,40.5502,20.4085z"/>
	<path fill="#1B96AB" d="M55.6098,22.8708c0,0.1476-0.0922,0.2398-0.249,0.2398c-0.1475,0-0.249-0.1014-0.249-0.2398
		c0-0.1291,0.1199-0.249,0.249-0.249C55.5084,22.6218,55.6098,22.7325,55.6098,22.8708z"/>
	<path fill="#1B96AB" d="M51.9394,23.1106c-0.1568,0-0.249-0.083-0.2582-0.2306c0-0.1383,0.1014-0.249,0.2398-0.2582
		c0.1383-0.0092,0.249,0.1014,0.2582,0.2398C52.1792,23.0091,52.0778,23.1106,51.9394,23.1106z"/>
	<path fill="#1B96AB" d="M43.4367,20.2702c0.1383,0,0.2398,0.1014,0.2398,0.2398c0,0.1291-0.1107,0.2398-0.2398,0.2398
		s-0.249-0.1107-0.2398-0.2398C43.1877,20.3808,43.2984,20.2702,43.4367,20.2702z"/>
	<path fill="#1B96AB" d="M21.2024,10.2643c-0.0461-0.4611-0.2121-0.8669-0.5533-1.1896c-0.2306-0.2121-0.5072-0.3412-0.8115-0.4427
		c0.6087-0.3781,0.996-0.8853,1.0698-1.5862c0.083-0.7562-0.1937-1.4386-0.8761-1.826c-0.6363-0.3597-1.3372-0.4703-2.0473-0.4795
		C16.5452,4.7218,15.1066,4.731,13.668,4.731c-0.1107,0-0.1199,0.0369-0.1199,0.1291c0,2.6928,0,5.3857,0,8.0785
		c0,0.1107,0.0277,0.1476,0.1476,0.1476c1.4479-0.0092,2.9049,0.0184,4.3528-0.0184c0.498-0.0092,0.996-0.0646,1.4755-0.2121
		c0.5902-0.1844,1.1066-0.4795,1.4202-1.0421C21.2116,11.3248,21.2577,10.7991,21.2024,10.2643z M16.3055,7.3593
		c0-0.1937,0-0.3873,0-0.581c0-0.0646,0-0.1014,0.083-0.1014c0.4427,0.0184,0.8945-0.0277,1.3372,0.0277
		c0.0277,0,0.0461,0,0.0738,0.0092c0.3873,0.083,0.5441,0.2767,0.5349,0.6455c-0.0092,0.3597-0.2121,0.6087-0.581,0.664
		C17.2922,8.0971,16.8311,8.0418,16.37,8.051c-0.083,0-0.0646-0.0553-0.0646-0.1014C16.2962,7.7559,16.3055,7.553,16.3055,7.3593z
		 M18.6202,10.5317c-0.0369,0.2306-0.1844,0.3781-0.3965,0.4703s-0.4334,0.1107-0.6548,0.1014c-0.1568,0-0.3135,0-0.4703,0
		c-0.2306,0-0.4703,0-0.7009,0c-0.083,0-0.1107-0.0184-0.1014-0.1014c0-0.4334,0-0.8669,0-1.3003
		c0-0.0553-0.0092-0.1107,0.0738-0.1014c0.5533,0.0184,1.1066-0.0369,1.66,0.0646C18.4911,9.7386,18.7032,10.0153,18.6202,10.5317z"
		/>
	<path fill="#1B96AB" d="M13.1238,12.9663c-0.1107-0.3043-0.2121-0.5994-0.3228-0.9038c-0.8576-2.3977-1.7153-4.7955-2.573-7.1932
		c-0.0369-0.1107-0.0922-0.1568-0.2121-0.1476c-0.415,0.0092-0.83,0-1.245,0c-0.4242,0-0.8484,0-1.2726,0
		c-0.1014,0-0.1383,0.0277-0.1752,0.1199c-0.3873,1.0974-0.7839,2.1856-1.1804,3.283C5.571,9.7294,4.99,11.334,4.409,12.9387
		c-0.0369,0.1107-0.0277,0.1476,0.1014,0.1476c0.8115-0.0092,1.6231-0.0092,2.4438,0c0.1014,0,0.1476-0.0369,0.166-0.1291
		c0.0738-0.2859,0.1568-0.5718,0.2306-0.8577c0.0184-0.0922,0.0553-0.1199,0.1476-0.1199c0.83,0,1.66,0,2.4807,0
		c0.083,0,0.1199,0.0184,0.1383,0.1014c0.083,0.3043,0.166,0.5994,0.249,0.8945c0.0184,0.0738,0.0553,0.1014,0.1291,0.1014
		c0.8484,0,1.6969,0,2.5453,0C13.1607,13.077,13.1515,13.0401,13.1238,12.9663z M9.4811,10.2366c-0.4888,0-0.9868,0-1.4755,0
		c-0.0553,0-0.1107,0.0092-0.083-0.083C8.1901,9.2314,8.4483,8.3,8.7157,7.3778c0-0.0092,0.0092-0.0277,0.0277-0.0553
		C9.02,8.2631,9.2875,9.1945,9.5641,10.1259C9.5918,10.2182,9.5826,10.2458,9.4811,10.2366z"/>
	<path fill="#1B96AB" d="M29.7604,12.9571c-0.1383-0.3781-0.2767-0.7654-0.415-1.1528c-0.83-2.324-1.6692-4.6479-2.4992-6.9719
		c-0.0369-0.0922-0.0738-0.1107-0.166-0.1107c-0.8484,0-1.7061,0-2.5545,0c-0.0922,0-0.1291,0.0369-0.1568,0.1199
		c-0.8761,2.4346-1.743,4.8692-2.6191,7.2946c-0.1107,0.3043-0.2213,0.6179-0.332,0.9314c0.0277,0.0092,0.0277,0.0092,0.0369,0.0092
		c0.8577,0,1.7153,0,2.573,0c0.1014,0,0.1107-0.0553,0.1291-0.1199c0.083-0.2859,0.166-0.581,0.2398-0.8669
		c0.0184-0.083,0.0461-0.1107,0.1383-0.1107c0.83,0,1.6692,0,2.4992,0c0.0922,0,0.1107,0.0369,0.1383,0.1107
		c0.083,0.2951,0.166,0.5902,0.249,0.8761c0.0184,0.0738,0.0461,0.1107,0.1383,0.1107c0.8392,0,1.6876-0.0092,2.5268,0
		C29.8065,13.077,29.7881,13.0401,29.7604,12.9571z M26.1177,10.2366c-0.4888,0-0.9775,0-1.4571,0
		c-0.0553,0-0.1199,0.0277-0.083-0.083c0.2674-0.9222,0.5257-1.8444,0.7839-2.7666c0.0092-0.0184,0.0092-0.0369,0.0277-0.0738
		c0.2767,0.9591,0.5441,1.8813,0.8208,2.8127C26.2376,10.2182,26.2192,10.2458,26.1177,10.2366z"/>
	<path fill="#1B96AB" d="M47.144,11.6752c0-0.332,0-0.6732,0-1.0052c0-0.0553,0.0184-0.1107-0.0738-0.1107
		c-0.1291,0-0.2767-0.0369-0.3873,0.0184c-0.083,0.0369-0.0092,0.1937-0.0369,0.3135c-0.1199-0.1383-0.249-0.2582-0.4058-0.3228
		c-0.6271-0.2767-1.3372,0.0461-1.6046,0.7193c-0.1568,0.3965-0.1568,0.8208-0.0922,1.2358
		c0.0461,0.3228,0.1752,0.5994,0.4519,0.8023c0.4795,0.3597,1.2081,0.3228,1.5677-0.083c0.0277-0.0277,0.0277-0.0738,0.0646-0.0738
		c0,0.1383,0.0092,0.2767,0,0.4058c-0.0184,0.4058-0.1844,0.6455-0.4888,0.747c-0.1752,0.0553-0.3504,0.0553-0.5349,0.0277
		c-0.166-0.0277-0.3504-0.083-0.3965-0.2582c-0.0646-0.2029-0.1844-0.2213-0.3504-0.2029c-0.0461,0.0092-0.0922,0.0092-0.1291,0
		c-0.1014-0.0184-0.1291,0.0277-0.1107,0.1199c0.0461,0.249,0.1568,0.4519,0.3781,0.581c0.2951,0.1844,0.6179,0.2306,0.9499,0.2029
		c0.7285-0.0553,1.1435-0.4795,1.1804-1.2081C47.1624,12.9571,47.144,12.3208,47.144,11.6752z M46.5169,12.6989
		c-0.1568,0.3412-0.4795,0.498-0.8576,0.4334c-0.2859-0.0461-0.5164-0.2951-0.581-0.6363
		c-0.0277-0.1383-0.0369-0.2767-0.0369-0.3597c0-0.2951,0.0184-0.5349,0.1199-0.7562c0.1291-0.2859,0.332-0.4334,0.6548-0.4519
		c0.3412-0.0092,0.5902,0.1291,0.7193,0.4334C46.729,11.8136,46.7198,12.2654,46.5169,12.6989z"/>
	<path fill="#1B96AB" d="M41.0943,7.7743c-0.4888-1.3372-0.9683-2.6744-1.4479-4.0116c-0.0184-0.0646-0.0646-0.0738-0.1199-0.0738
		c-0.1476,0-0.2951,0.0092-0.4427,0c-0.0922-0.0092-0.1291,0.0369-0.1568,0.1107c-0.0922,0.2674-0.1937,0.5257-0.2951,0.7931
		c-0.3873,1.0329-0.7747,2.0657-1.1712,3.0986c-0.0369,0.1014-0.0369,0.1383,0.083,0.1291c0.1199-0.0092,0.2305-0.0092,0.3504,0
		c0.083,0.0092,0.1199-0.0277,0.1476-0.1014c0.1199-0.3412,0.249-0.6732,0.3597-1.0144c0.0277-0.083,0.0646-0.1199,0.166-0.1199
		c0.4519,0.0092,0.9038,0.0092,1.3556,0c0.1014,0,0.1383,0.0369,0.1752,0.1291c0.1107,0.332,0.2213,0.664,0.3412,0.9868
		c0.0184,0.0553,0.0277,0.1199,0.1199,0.1199c0.1752-0.0092,0.3504,0,0.5257,0C41.0943,7.7835,41.0943,7.7835,41.0943,7.7743z
		 M39.8032,6.1143c-0.3873,0-0.7747,0-1.1804,0c0.2121-0.5902,0.4242-1.1712,0.6455-1.7891
		c0.2121,0.5994,0.4058,1.1528,0.5994,1.7153C39.8862,6.1051,39.8586,6.1143,39.8032,6.1143z"/>
	<path fill="#1B96AB" d="M42.0534,12.2009c0.6363,0.0092,1.2634,0,1.8997,0.0092c0.1107,0,0.1383-0.0277,0.1291-0.1383
		c-0.0092-0.1476-0.0092-0.2951-0.0277-0.4334c-0.0646-0.5257-0.3135-0.913-0.83-1.0882c-0.5164-0.1752-0.996-0.1014-1.4018,0.2859
		c-0.3965,0.3781-0.4795,0.8669-0.4611,1.3925c0.0277,0.8208,0.581,1.4847,1.5032,1.4202c0.581-0.0461,1.079-0.4703,1.1712-1.0513
		c-0.1107,0-0.2121,0.0092-0.3135,0c-0.1383-0.0184-0.2029,0.0277-0.2582,0.1568c-0.1291,0.3043-0.3873,0.4427-0.7009,0.4519
		c-0.2767,0.0092-0.5164-0.0738-0.6732-0.3228c-0.1014-0.166-0.1476-0.3412-0.1752-0.5349
		C41.9059,12.2193,41.9427,12.2009,42.0534,12.2009z M41.9243,11.6937c0.0461-0.5994,0.6917-0.9683,1.2173-0.6917
		c0.2213,0.1107,0.4334,0.5072,0.4058,0.7285c-0.0092,0.0738-0.0646,0.0461-0.1014,0.0461c-0.2398,0-0.4795,0-0.7101,0
		c-0.2398,0-0.4795,0-0.7101,0C41.952,11.7951,41.9151,11.7767,41.9243,11.6937z"/>
	<path fill="#1B96AB" d="M55.5453,11.6845c-0.0738-0.747-0.6179-1.245-1.3649-1.2358c-0.5994,0-1.0513,0.3043-1.2634,0.8577
		c-0.1476,0.3873-0.1752,0.7931-0.1014,1.2081c0.0646,0.3597,0.2213,0.6732,0.5164,0.8945
		c0.2859,0.2121,0.6087,0.2582,0.9591,0.2306c0.4427-0.0277,0.7931-0.2121,1.0144-0.6087
		C55.5453,12.6067,55.6006,12.1548,55.5453,11.6845z M54.8628,12.7727c-0.1199,0.2859-0.3504,0.415-0.6363,0.4242
		c-0.2951,0.0092-0.5441-0.0646-0.7193-0.332c-0.2859-0.4427-0.249-1.2819,0.0646-1.7061c0.2767-0.3781,1.0974-0.3873,1.3372,0.166
		c0.0922,0.2121,0.1291,0.4242,0.1199,0.6548C55.038,12.2562,54.9735,12.5237,54.8628,12.7727z"/>
	<path fill="#1B96AB" d="M48.8501,5.8377c-0.0922-0.5533-0.415-0.9314-0.9591-1.079c-0.5441-0.1383-1.0974-0.0092-1.4479,0.4427
		c-0.2674,0.3412-0.3412,0.7378-0.3412,1.162c0,0.0738-0.0092,0.1568,0,0.2306c0.0553,0.6455,0.4427,1.2911,1.2726,1.3095
		c0.6363,0.0184,1.1066-0.1937,1.3649-0.8669C48.8962,6.6584,48.9146,6.2527,48.8501,5.8377z M48.1768,7.0458
		c-0.1199,0.2674-0.332,0.4058-0.6087,0.4242c-0.2951,0.0184-0.5625-0.0461-0.7378-0.3135
		c-0.1568-0.249-0.2029-0.5164-0.2029-0.8023c0-0.2306,0.0369-0.4519,0.1291-0.664c0.1568-0.3689,0.4242-0.5349,0.8115-0.5072
		c0.3781,0.0277,0.6363,0.2398,0.7285,0.6271C48.389,6.225,48.3521,6.64,48.1768,7.0458z"/>
	<path fill="#1B96AB" d="M27.0584,21.2385c0.0461,0.1014,0.1383,0.1014,0.2213,0.083c0.083-0.0184,0.1014-0.0922,0.1014-0.1752
		c0-0.1014-0.0553-0.1476-0.1383-0.1752c-0.0461-0.0184-0.0922-0.0184-0.1476-0.0092c-0.1476,0.0092-0.2582,0.1568-0.3781,0.1476
		c-0.1383-0.0092-0.2767-0.083-0.4242-0.0738c-0.0184,0-0.0369,0-0.0553,0c-0.3504,0.0184-0.6271,0.249-0.6732,0.5718
		c-0.0461,0.2767,0.0738,0.4888,0.3135,0.6363c-0.3689,0.3135-0.3873,0.5441-0.0646,0.7378
		c-0.0369,0.0461-0.0922,0.0461-0.1383,0.0738c-0.1476,0.083-0.2767,0.1844-0.2674,0.3781
		c0.0092,0.1937,0.1383,0.2951,0.2951,0.3689c0.1107,0.0553,0.2213,0.0738,0.3412,0.083c0.3781,0.0369,0.7378,0.0092,1.0421-0.249
		c0.2029-0.1752,0.2859-0.4795,0.1844-0.7193c-0.1014-0.249-0.3135-0.2767-0.5441-0.2767c-0.2029,0-0.3965,0-0.5994,0
		c-0.0369,0-0.0738,0-0.1014,0c-0.0922-0.0184-0.1844-0.0553-0.1568-0.1844c0.0184-0.1107,0.1014-0.1568,0.2213-0.1291
		c0.1844,0.0461,0.3781,0.0369,0.5625-0.0277c0.4334-0.1383,0.6455-0.7285,0.1937-1.1251
		C26.9385,21.1278,27.0123,21.1371,27.0584,21.2385z M26.1362,23.0184c0.1844,0,0.3689,0,0.5533,0
		c0.1383,0,0.2674,0.0277,0.3228,0.1752c0.0553,0.1568-0.0092,0.3228-0.1568,0.4242c-0.166,0.1107-0.3504,0.1383-0.5441,0.1476
		c-0.1107,0-0.2121-0.0092-0.3135-0.0553c-0.1752-0.0738-0.2582-0.2398-0.2121-0.4427
		C25.8134,23.1106,25.9425,23.0184,26.1362,23.0184z M26.6618,21.9855c-0.0369,0.1568-0.1383,0.2398-0.2951,0.249
		c-0.166,0.0092-0.2951-0.0553-0.3412-0.2121c-0.0738-0.2121-0.0738-0.4334-0.0092-0.6455
		c0.0461-0.1476,0.1752-0.2398,0.3228-0.2306c0.1476,0.0092,0.2582,0.0738,0.3043,0.2213c0.0369,0.1107,0.0553,0.2213,0.0553,0.3597
		C26.6987,21.8103,26.6803,21.9025,26.6618,21.9855z"/>
	<path fill="#1B96AB" d="M6.484,22.963c-0.1568-0.0461-0.1844-0.1476-0.1844-0.3043c0.0092-0.8023,0-1.6046,0.0092-2.407
		c0-0.1014-0.0184-0.1291-0.1199-0.1199c-0.1476,0.0184-0.2951,0.0369-0.4519,0.0553c-0.0369,0.0092-0.0922-0.0277-0.1014,0.0369
		c-0.0092,0.0646,0.0461,0.0646,0.083,0.083c0.1476,0.0461,0.2029,0.1476,0.1844,0.3043c-0.0092,0.1107-0.0092,0.2213,0,0.332
		c0.0092,0.1107-0.0184,0.1291-0.1291,0.1014c-0.5164-0.1014-1.0052,0.1383-1.1989,0.581
		c-0.1383,0.3043-0.1383,0.6087-0.0553,0.9222c0.1107,0.4058,0.3597,0.581,0.7747,0.581c0.2213,0,0.415-0.0922,0.6087-0.2121
		c0.0092,0.2306,0.0092,0.2213,0.2306,0.1937c0.1107-0.0184,0.2213-0.0277,0.332-0.0369c0.0369,0,0.0738-0.0092,0.083-0.0369
		C6.5762,22.9907,6.5209,22.9722,6.484,22.963z M5.903,22.05c0,0.2121,0,0.4242,0,0.6455c0,0.0646-0.0184,0.1014-0.083,0.1291
		c-0.4703,0.2398-0.8853,0.0092-0.9222-0.5164c-0.0184-0.2582-0.0277-0.5164,0.0646-0.7654
		c0.1291-0.3597,0.5625-0.498,0.8577-0.2859c0.0553,0.0369,0.083,0.083,0.083,0.1568C5.903,21.635,5.903,21.8472,5.903,22.05z"/>
	<path fill="#1B96AB" d="M18.2974,21.6627c-0.0922-0.4611-0.415-0.6824-0.8853-0.6179c-0.1844,0.0277-0.3504,0.1107-0.5257,0.2213
		c0.0092-0.3504-0.0184-0.6824,0.0184-1.0144c0.0092-0.0922-0.0184-0.1199-0.1107-0.1107
		c-0.1568,0.0184-0.3135,0.0369-0.4611,0.0553c-0.0369,0.0092-0.1014-0.0277-0.1107,0.0369
		c-0.0092,0.0553,0.0461,0.0738,0.083,0.083c0.166,0.0461,0.2029,0.166,0.1937,0.3228c-0.0092,0.747,0,1.5032-0.0092,2.2502
		c0,0.0922,0.0277,0.1383,0.1107,0.1752c0.2767,0.1014,0.5625,0.1107,0.8484,0.0738c0.3412-0.0461,0.5994-0.2306,0.7562-0.5533
		C18.3527,22.2806,18.362,21.9763,18.2974,21.6627z M17.8548,22.5941c-0.1014,0.3689-0.5257,0.5349-0.8484,0.3504
		c-0.083-0.0461-0.1199-0.0922-0.1199-0.1937c0.0092-0.2121,0-0.415,0-0.6271s0-0.4242,0-0.6455
		c0-0.0646,0.0184-0.0922,0.0738-0.1199c0.415-0.1937,0.8669-0.0553,0.9314,0.4703C17.9285,22.0869,17.9285,22.3359,17.8548,22.5941
		z"/>
	<path fill="#1B96AB" d="M20.4738,21.5705c-0.1199-0.415-0.4703-0.6087-0.8945-0.5257c-0.1752,0.0369-0.3228,0.1107-0.4703,0.2029
		c0-0.3228-0.0092-0.6455,0-0.9591c0-0.1199-0.0184-0.1752-0.1476-0.1476c-0.1476,0.0277-0.2859,0.0369-0.4334,0.0553
		c-0.0369,0.0092-0.1014-0.0277-0.1107,0.0369c-0.0092,0.0553,0.0461,0.0738,0.083,0.083c0.166,0.0461,0.1937,0.166,0.1937,0.3228
		c-0.0092,0.747,0,1.5032-0.0092,2.2502c0,0.1014,0.0369,0.1476,0.1199,0.1752c0.2674,0.1014,0.5441,0.1107,0.8208,0.0738
		c0.3873-0.0461,0.664-0.2582,0.8023-0.6271C20.5568,22.1976,20.566,21.884,20.4738,21.5705z M20.0404,22.6218
		c-0.1107,0.3412-0.5349,0.498-0.8484,0.3135c-0.0738-0.0369-0.1014-0.083-0.1014-0.1752c0.0092-0.2121,0-0.4242,0-0.6455
		c0-0.2121,0-0.415,0-0.6271c0-0.0738,0.0184-0.1107,0.083-0.1383c0.4611-0.2121,0.8392-0.0092,0.9222,0.5072
		C20.1418,22.1146,20.1234,22.3728,20.0404,22.6218z"/>
	<path fill="#1B96AB" d="M54.8813,23.0091c-0.2121-0.0277-0.249-0.2029-0.3043-0.3597c-0.2582-0.7101-0.5257-1.4294-0.7747-2.1395
		c-0.0277-0.083-0.0553-0.1383-0.166-0.1383c-0.1199,0-0.1291,0.0646-0.1568,0.1476c-0.2674,0.747-0.5257,1.494-0.7931,2.241
		c-0.0461,0.1199-0.0922,0.2306-0.2398,0.2398c-0.0369,0-0.0738,0.0184-0.0738,0.0553c0,0.0553,0.0461,0.0461,0.083,0.0461
		c0.1937,0,0.3873,0,0.581,0c0.0369,0,0.1014,0.0277,0.1014-0.0461c0-0.0646-0.0553-0.0553-0.0922-0.0646
		c-0.1383-0.0184-0.1937-0.1014-0.166-0.2306c0.0369-0.2029,0.1199-0.3873,0.1752-0.581c0.0184-0.0553,0.0646-0.0369,0.1014-0.0369
		c0.2305,0,0.4611,0,0.6824,0c0.0646,0,0.0922,0.0277,0.1107,0.083c0.0553,0.166,0.1107,0.332,0.166,0.498
		c0.0553,0.1937,0.0461,0.2121-0.1476,0.2767c-0.0369,0.0092-0.0646,0.0184-0.0646,0.0646c0,0.0553,0.0369,0.0461,0.0738,0.0461
		c0.1383,0,0.2859,0,0.4242,0c0.1475,0,0.2951,0,0.4334,0c0.0369,0,0.0738,0,0.0738-0.0461
		C54.9274,23.0368,54.9089,23.0091,54.8813,23.0091z M53.747,22.0039c-0.2029,0-0.4058,0-0.6271,0
		c0.1199-0.3597,0.2398-0.7101,0.3689-1.1066c0.1383,0.3873,0.2582,0.7378,0.3873,1.1066
		C53.83,22.0039,53.7839,22.0039,53.747,22.0039z"/>
	<path fill="#1B96AB" d="M31.9368,21.0725c-0.4334,0.1107-0.7009,0.5164-0.7009,0.9868c0,0.0738,0.0092,0.1107,0.0092,0.1476
		c0.0184,0.6548,0.5902,1.0698,1.2173,0.9038c0.415-0.1107,0.6732-0.4242,0.7193-0.9314
		C33.2648,21.3123,32.6561,20.8973,31.9368,21.0725z M32.6838,22.6587c-0.0738,0.2398-0.2213,0.3412-0.4427,0.3504
		c-0.2213,0-0.3873-0.1107-0.4703-0.3412c-0.0738-0.2029-0.083-0.4058-0.083-0.6179c0-0.1844,0.0092-0.3689,0.0646-0.5441
		c0.0738-0.2213,0.2306-0.332,0.4427-0.332c0.2398,0,0.4058,0.0922,0.4795,0.3228C32.7945,21.884,32.8037,22.2714,32.6838,22.6587z"
		/>
	<path fill="#1B96AB" d="M47.8264,21.9302c-0.0277-0.4703-0.3043-0.7931-0.7562-0.8853s-0.8945,0.1291-1.079,0.5257
		c-0.1014,0.2306-0.1199,0.4611-0.0922,0.7101c0.0738,0.6548,0.6179,0.9683,1.1989,0.83c0.4611-0.1107,0.7378-0.5072,0.7378-1.0605
		C47.8356,22.0316,47.8356,21.9763,47.8264,21.9302z M47.3284,22.6679c-0.0738,0.2213-0.2213,0.332-0.4334,0.3412
		c-0.2213,0.0092-0.3965-0.0922-0.4703-0.3135c-0.1383-0.3965-0.1476-0.8023-0.0184-1.1989
		c0.0646-0.2213,0.2306-0.3228,0.4519-0.3228c0.2305,0,0.3781,0.1014,0.4611,0.3228c0.0738,0.2029,0.083,0.4058,0.083,0.6179
		C47.4022,22.299,47.393,22.4835,47.3284,22.6679z"/>
	<path fill="#1B96AB" d="M39.5911,22.0224c0.3597,0.0092,0.7193,0,1.079,0c0.0369,0,0.1014,0.0277,0.1014-0.0553
		c0-0.6271-0.2859-1.0513-0.9868-0.9038c-0.747,0.1476-1.0329,1.2358-0.498,1.8167c0.332,0.3597,0.996,0.3504,1.411,0.0092
		c0.0461-0.0369,0.0461-0.083,0.0277-0.1476c-0.1014,0.0369-0.1937,0.083-0.2859,0.1107c-0.4611,0.1568-0.83-0.0184-0.9407-0.4427
		c-0.0184-0.083-0.0277-0.1752-0.0369-0.2582C39.4436,22.0316,39.4897,22.0224,39.5911,22.0224z M39.462,21.801
		c0.0277-0.1937,0.0646-0.3781,0.2121-0.5072c0.1291-0.1107,0.2767-0.1383,0.4334-0.0922c0.1476,0.0461,0.1844,0.1937,0.2029,0.332
		c0.0092,0.0646,0.0184,0.1383,0.0277,0.2306c0.0184,0.0553,0,0.083-0.0922,0.083c-0.2306,0.0092-0.4703,0.0277-0.7009,0.0369
		C39.4805,21.884,39.4528,21.8748,39.462,21.801z"/>
	<path fill="#1B96AB" d="M24.0981,22.0224c0.1844,0,0.3597,0,0.5441,0c0.1937,0,0.3873,0,0.581,0
		c0.0461,0,0.0922,0.0092,0.0922-0.0553c0-0.6363-0.2951-1.0421-0.9868-0.9038c-0.498,0.0922-0.7747,0.5257-0.7562,1.0974
		c0.0184,0.6548,0.3965,1.0144,1.0513,0.9868c0.2306-0.0092,0.4334-0.1107,0.6087-0.2398c0.0461-0.0369,0.0646-0.083,0.0369-0.1199
		c-0.0277-0.0461-0.0646,0-0.1014,0.0092c-0.0646,0.0277-0.1291,0.0553-0.1937,0.0738c-0.4611,0.1476-0.8208-0.0184-0.9406-0.4334
		c-0.0277-0.1014-0.0369-0.2029-0.0461-0.3043C23.9874,22.0316,24.0243,22.0224,24.0981,22.0224z M23.9966,21.8379
		c-0.0553-0.3043,0.2213-0.664,0.5164-0.664c0.1752,0,0.2674,0.0646,0.3135,0.2398c0.1199,0.3965,0.0922,0.4334-0.3043,0.4427
		c-0.1476,0-0.2951,0.0184-0.4334,0.0184C24.052,21.8748,24.0059,21.9117,23.9966,21.8379z"/>
	<path fill="#1B96AB" d="M7.231,22.0224c0.3228,0,0.6548,0,0.9775,0c0.249,0,0.2582,0,0.2306-0.249
		c-0.0646-0.5994-0.4242-0.83-0.9868-0.7193c-0.415,0.083-0.7009,0.4427-0.7285,0.8761c-0.0277,0.415,0.0184,0.8115,0.4058,1.0698
		c0.3412,0.2306,0.9591,0.166,1.2542-0.1199c0.0461-0.0461,0.0277-0.083,0.0277-0.1476c-0.166,0.0738-0.3228,0.1383-0.4888,0.166
		c-0.3412,0.0461-0.6087-0.1014-0.7193-0.4058c-0.0461-0.1199-0.0646-0.2398-0.0738-0.3689
		C7.1203,22.0408,7.148,22.0224,7.231,22.0224z M7.1295,21.8195c0.0277-0.1476,0.0461-0.2951,0.1291-0.4242
		c0.1014-0.1476,0.2398-0.2306,0.4334-0.2121c0.1291,0.0092,0.2121,0.0646,0.2582,0.1844c0.0369,0.1107,0.0553,0.2213,0.0646,0.3597
		c0.0184,0.0738-0.0092,0.1199-0.1199,0.1199c-0.2306,0-0.4611,0.0184-0.7009,0.0369C7.1387,21.884,7.1203,21.8748,7.1295,21.8195z"
		/>
</g>
</svg>
