<?xml version="1.0" encoding="utf-8"?>
<!-- Generator: Adobe Illustrator 17.0.0, SVG Export Plug-In . SVG Version: 6.00 Build 0)  -->
<!DOCTYPE svg PUBLIC "-//W3C//DTD SVG 1.1//EN" "http://www.w3.org/Graphics/SVG/1.1/DTD/svg11.dtd">
<svg version="1.1" id="Capa_1" xmlns="http://www.w3.org/2000/svg" xmlns:xlink="http://www.w3.org/1999/xlink" x="0px" y="0px"
	 width="60px" height="24px" viewBox="0 0 60 24" enable-background="new 0 0 60 24" xml:space="preserve">
<g id="AFIRME">
	<path fill="#211915" d="M58.2532,11.421h-0.0508c-0.0085,0.0934-0.0186,0.1706-0.0302,0.2319
		c-0.0085,0.0578-0.0252,0.1239-0.0514,0.1979c0.0745,0.0677,0.1658,0.1286,0.2739,0.1835c0.1108,0.0514,0.2548,0.0772,0.431,0.0772
		c0.1656,0,0.3122-0.0258,0.4401-0.0772c0.1309-0.0548,0.2407-0.1305,0.3288-0.227c0.0916-0.0998,0.1601-0.2156,0.2054-0.3477
		c0.0484-0.1317,0.0725-0.2718,0.0725-0.4199c0-0.177-0.0342-0.3187-0.1026-0.4249c-0.0654-0.1061-0.1476-0.193-0.2477-0.2607
		c-0.0998-0.0674-0.2079-0.1239-0.3242-0.1689c-0.1144-0.0483-0.2211-0.1013-0.3208-0.1593
		c-0.0998-0.0612-0.1838-0.135-0.2517-0.222c-0.066-0.0869-0.0987-0.2061-0.0987-0.3572c0-0.087,0.0131-0.1674,0.0387-0.2414
		c0.0282-0.0742,0.067-0.1368,0.1153-0.1884c0.0514-0.0548,0.1097-0.0967,0.1751-0.1255c0.0681-0.0291,0.1421-0.0435,0.2221-0.0435
		c0.0795,0,0.148,0.0161,0.2049,0.0484c0.0569,0.0289,0.1053,0.0659,0.1455,0.1111c0.0423,0.0451,0.0755,0.0949,0.0982,0.1496
		c0.0256,0.0516,0.0453,0.0998,0.0599,0.1449h0.0508c0.0171-0.0933,0.0342-0.1707,0.0513-0.2319
		c0.0172-0.061,0.0389-0.119,0.0645-0.1737c-0.0856-0.0773-0.1782-0.1337-0.2779-0.1691c-0.0996-0.0385-0.218-0.058-0.3544-0.058
		c-0.1426,0-0.2709,0.0227-0.3847,0.0677c-0.1138,0.0451-0.2121,0.1079-0.2946,0.1883c-0.0801,0.0805-0.141,0.177-0.1838,0.2898
		c-0.0427,0.1093-0.0639,0.2318-0.0639,0.3668c0,0.1899,0.0328,0.3413,0.0982,0.4539c0.0679,0.1126,0.1525,0.2059,0.2517,0.28
		c0.0996,0.0708,0.2064,0.1303,0.3208,0.1785c0.1167,0.0483,0.225,0.1013,0.3248,0.1595c0.0996,0.0579,0.1817,0.1303,0.2476,0.2171
		c0.0685,0.0869,0.1022,0.2045,0.1022,0.3525c0,0.0967-0.0141,0.1882-0.0427,0.2752c-0.0282,0.0836-0.0696,0.1576-0.1235,0.222
		c-0.0518,0.0612-0.1157,0.1109-0.1923,0.1498c-0.074,0.0353-0.158,0.0529-0.2521,0.0529c-0.0912,0-0.1737-0.0143-0.2477-0.0433
		c-0.074-0.0322-0.1394-0.0725-0.1969-0.1207c-0.0539-0.0483-0.1007-0.1015-0.1405-0.1593
		C58.3062,11.5385,58.2764,11.4789,58.2532,11.421L58.2532,11.421z M54.5959,10.3975c0,0.2673-0.0302,0.4989-0.0896,0.6953
		c-0.0599,0.1931-0.144,0.3541-0.2523,0.4827c-0.1051,0.1255-0.2305,0.219-0.376,0.28c-0.1421,0.0612-0.2976,0.0917-0.4653,0.0917
		c-0.1652,0-0.3208-0.0305-0.4657-0.0917c-0.1425-0.061-0.2679-0.1545-0.3762-0.28c-0.1051-0.1286-0.1878-0.2896-0.2477-0.4827
		c-0.0598-0.1963-0.0896-0.428-0.0896-0.6953c0-0.2672,0.0298-0.4971,0.0896-0.6903c0.0599-0.1963,0.1426-0.3573,0.2477-0.4829
		c0.1083-0.1288,0.2337-0.2238,0.3762-0.2849c0.145-0.0612,0.3005-0.0918,0.4657-0.0918c0.1677,0,0.3232,0.0306,0.4653,0.0918
		c0.1455,0.061,0.2709,0.1561,0.376,0.2849c0.1083,0.1256,0.1923,0.2865,0.2523,0.4829
		C54.5657,9.9003,54.5959,10.1303,54.5959,10.3975L54.5959,10.3975z M51.8147,10.3975c0,0.2736,0.0387,0.5181,0.1157,0.7339
		c0.0796,0.2124,0.1893,0.3926,0.3288,0.5407c0.1426,0.1481,0.3117,0.259,0.5086,0.3332c0.1963,0.0708,0.4114,0.1061,0.645,0.1061
		c0.2362,0,0.4526-0.0353,0.649-0.1061c0.1969-0.0742,0.3646-0.1851,0.504-0.3332c0.1425-0.1481,0.2523-0.3283,0.3293-0.5407
		c0.0795-0.2158,0.1199-0.4603,0.1199-0.7339c0-0.2734-0.0404-0.5165-0.1199-0.7291c-0.077-0.2155-0.1868-0.3974-0.3293-0.5454
		c-0.1394-0.1481-0.3071-0.2608-0.504-0.3381c-0.1963-0.0772-0.4128-0.1159-0.649-0.1159c-0.2335,0-0.4486,0.0388-0.645,0.1159
		c-0.1969,0.0772-0.366,0.1899-0.5086,0.3381c-0.1394,0.148-0.2491,0.3299-0.3288,0.5454
		C51.8534,9.881,51.8147,10.124,51.8147,10.3975L51.8147,10.3975z M47.0592,10.2575V9.9823l0.0085-0.5215l0.0171-0.5263
		l0.1667-0.0145c0.0654-0.0064,0.148-0.0097,0.2477-0.0097c0.074,0,0.1495,0.0097,0.2265,0.0291
		c0.077,0.0161,0.148,0.0484,0.2134,0.0966c0.0656,0.0483,0.1184,0.1143,0.1582,0.198c0.0427,0.0804,0.0639,0.1834,0.0639,0.3088
		c0,0.1449-0.0267,0.2656-0.081,0.3623c-0.0508,0.0933-0.1163,0.1689-0.1963,0.2268c-0.0801,0.0548-0.1682,0.0933-0.265,0.1159
		c-0.0941,0.0224-0.1852,0.0336-0.2734,0.0336l-0.158-0.0047C47.1423,10.2736,47.0994,10.2671,47.0592,10.2575L47.0592,10.2575z
		 M46.7092,9.9823v0.8304c0,0.2123-0.0045,0.4217-0.0131,0.6277l-0.0211,0.6083c0.0654-0.0066,0.1349-0.0096,0.2089-0.0096
		c0.0745,0,0.144,0.003,0.2096,0.0096l-0.0258-0.6083l-0.0085-0.6277v-0.3525h0.1626c0.0912,0.1062,0.1908,0.2365,0.2991,0.3911
		c0.1108,0.1513,0.2189,0.3041,0.3248,0.4588l0.2859,0.4344l0.1965,0.3042c0.0402-0.0066,0.081-0.0096,0.1237-0.0096h0.1239h0.1284
		c0.0429,0,0.0856,0.003,0.1279,0.0096l-0.1575-0.1979l-0.2096-0.2849l-0.2305-0.3282l-0.2311-0.3284l-0.2005-0.2898l-0.141-0.2026
		c0.0825-0.0129,0.1737-0.0386,0.2734-0.0773c0.1022-0.0418,0.1979-0.0982,0.286-0.1689c0.0886-0.074,0.1626-0.1658,0.2225-0.2752
		c0.0624-0.1128,0.0937-0.2462,0.0937-0.4007c0-0.1448-0.0243-0.2655-0.0726-0.362c-0.0452-0.0967-0.1097-0.1738-0.1922-0.2319
		c-0.0796-0.061-0.1737-0.1047-0.282-0.1303c-0.1082-0.0258-0.222-0.0387-0.3418-0.0387c-0.0825,0-0.1637,0.0049-0.2432,0.0146
		c-0.0801,0.0064-0.1611,0.0095-0.2437,0.0095l-0.2431-0.0048l-0.2437-0.0194l0.0211,0.6277
		C46.7047,9.5624,46.7092,9.77,46.7092,9.9823L46.7092,9.9823z M42.8762,10.301l-0.004,0.3281
		c-0.003,0.1193-0.0131,0.2383-0.0302,0.3573c-0.0167,0.1193-0.0453,0.2334-0.0857,0.3429
		c-0.0367,0.1093-0.089,0.2059-0.1575,0.2897c-0.0685,0.0836-0.1572,0.1513-0.265,0.2028
		c-0.1057,0.0513-0.2366,0.0772-0.3931,0.0772c-0.1597,0-0.2936-0.0208-0.4014-0.0627c-0.1087-0.0451-0.1984-0.1046-0.2694-0.1788
		c-0.071-0.0772-0.1269-0.1656-0.1666-0.2654c-0.0368-0.1029-0.0639-0.2092-0.0812-0.3187
		c-0.0171-0.1125-0.0271-0.2269-0.0302-0.3427l-0.004-0.3429l0.004-0.5214l0.0131-0.4683l0.0171-0.3861l0.0172-0.2802
		l-0.0942,0.0194l-0.0896,0.0048l-0.1113-0.0048l-0.1108-0.0194l0.0167,0.5312c0.0061,0.2091,0.0091,0.449,0.0091,0.7194
		c0,0.1222-0.0045,0.2429-0.0131,0.3621c-0.0055,0.1158-0.0085,0.2494-0.0085,0.4007c0,0.4732,0.0971,0.8192,0.2905,1.0379
		c0.1939,0.2191,0.5046,0.3283,0.9314,0.3283c0.1939,0,0.3646-0.0307,0.5126-0.0916c0.151-0.0612,0.2775-0.1512,0.3801-0.2705
		c0.1028-0.1189,0.1813-0.2638,0.2352-0.4345c0.0569-0.1705,0.0865-0.3636,0.0896-0.5794l0.0125-0.5454l0.0172-0.5504l0.0216-0.5022
		l0.0256-0.4056c-0.0484,0.0161-0.0911,0.0241-0.1284,0.0241l-0.0856-0.0048l-0.0896-0.0194
		c0.0116,0.0933,0.0186,0.2639,0.0216,0.5119L42.8762,10.301L42.8762,10.301z M37.0398,9.3208h0.0518
		c0.0055-0.061,0.0167-0.1272,0.0338-0.1979c0.0201-0.0708,0.0413-0.1288,0.0639-0.1738l-0.1747-0.0918
		c-0.066-0.0323-0.1425-0.0628-0.2311-0.0918c-0.0852-0.0289-0.1848-0.0515-0.2991-0.0674
		c-0.1108-0.0195-0.2392-0.0292-0.3841-0.0292c-0.2508,0-0.4798,0.0388-0.6878,0.1159c-0.2053,0.0772-0.38,0.1899-0.5255,0.3381
		c-0.1451,0.148-0.2578,0.3299-0.3374,0.5454c-0.0801,0.2126-0.1197,0.4557-0.1197,0.7291c0,0.2833,0.0387,0.5328,0.1152,0.7483
		c0.077,0.2157,0.1868,0.396,0.3293,0.5407c0.1421,0.1447,0.3147,0.2526,0.5166,0.3236c0.2054,0.0675,0.4346,0.1013,0.6878,0.1013
		c0.0825,0,0.1742-0.0081,0.2734-0.0243c0.1028-0.0128,0.2039-0.0287,0.3037-0.0481c0.1021-0.0161,0.1979-0.0369,0.2859-0.0627
		c0.0912-0.0291,0.1667-0.0564,0.2267-0.0821l-0.0041-0.1932v-0.1979l0.0041-0.6276l0.0131-0.3525
		c-0.0288,0.0096-0.059,0.0161-0.0897,0.0192l-0.0947,0.005c-0.0654,0-0.1334-0.0081-0.2049-0.0242l0.0131,0.3234l0.0085,0.3382
		l-0.0045,0.2943l-0.004,0.2896c-0.0372,0.0259-0.0825,0.0484-0.137,0.0677c-0.0508,0.0192-0.1083,0.0353-0.1707,0.0484
		c-0.0599,0.0127-0.1224,0.0223-0.1878,0.0288l-0.1882,0.0096c-0.199,0-0.3786-0.0351-0.5383-0.1061
		c-0.1565-0.0706-0.2905-0.1706-0.4012-0.2993c-0.1083-0.1319-0.1908-0.2929-0.2477-0.4829
		c-0.0575-0.1898-0.0856-0.4023-0.0856-0.6373c0-0.2672,0.0311-0.4971,0.0941-0.6903c0.0654-0.1963,0.1536-0.3573,0.2644-0.4829
		c0.1142-0.1288,0.2466-0.2238,0.3976-0.2849c0.1536-0.0612,0.3187-0.0918,0.4955-0.0918c0.1083,0,0.2094,0.0145,0.3031,0.0435
		c0.0971,0.0257,0.1838,0.0611,0.2608,0.1063c0.0795,0.0417,0.151,0.0916,0.2134,0.1495
		C36.943,9.2051,36.9969,9.2629,37.0398,9.3208L37.0398,9.3208z M29.7213,9.9775v0.8304c0,0.2123-0.0043,0.4216-0.0129,0.6276
		l-0.0212,0.6131c0.131-0.0066,0.2605-0.0096,0.3887-0.0096h0.3888h0.3841c0.1284,0,0.2568,0.003,0.3847,0.0096
		c-0.0085-0.032-0.0127-0.0739-0.0127-0.1257v-0.0723l0.0127-0.0773c-0.0685,0.0161-0.1495,0.029-0.2437,0.0386l-0.2946,0.0192
		l-0.3161,0.005h-0.299l-0.0085-0.2705v-0.4537v-0.2899v-0.1881v-0.1256l0.0043-0.0965l0.205,0.0048l0.2774,0.0049
		c0.0998,0,0.1984,0.0032,0.2951,0.0096l0.2608,0.0242c-0.0085-0.0484-0.0131-0.0966-0.0131-0.1447
		c0-0.0515,0.0045-0.1016,0.0131-0.1498l-0.2009,0.0194l-0.2267,0.0145l-0.2734,0.0097l-0.3374,0.0046l-0.0043-0.2703V9.572
		l0.0043-0.3188l0.0128-0.2944c0.1393,0,0.2592,0.0031,0.3589,0.0096l0.2734,0.0144l0.2392,0.0194l0.2521,0.0194
		c-0.0085-0.0483-0.0131-0.0967-0.0131-0.1449c0-0.0484,0.0045-0.0966,0.0131-0.1449l-0.3801,0.0194l-0.3806,0.0048l-0.3843-0.0048
		l-0.3801-0.0194l0.0212,0.6181C29.717,9.5559,29.7213,9.765,29.7213,9.9775L29.7213,9.9775z M24.7563,11.421h-0.0512
		c-0.0085,0.0934-0.0187,0.1706-0.03,0.2319c-0.0086,0.0578-0.0256,0.1239-0.0511,0.1979c0.074,0.0677,0.165,0.1286,0.2734,0.1835
		c0.1111,0.0514,0.2548,0.0772,0.4315,0.0772c0.1651,0,0.3117-0.0258,0.4399-0.0772c0.131-0.0548,0.2407-0.1305,0.3289-0.227
		c0.0913-0.0998,0.1595-0.2156,0.2051-0.3477c0.0484-0.1317,0.0728-0.2718,0.0728-0.4199c0-0.177-0.0342-0.3187-0.1026-0.4249
		c-0.0654-0.1061-0.1481-0.193-0.2477-0.2607c-0.0997-0.0674-0.2079-0.1239-0.3248-0.1689
		c-0.1139-0.0483-0.2207-0.1013-0.3205-0.1593c-0.0994-0.0612-0.1836-0.135-0.2519-0.222
		c-0.0656-0.0869-0.0983-0.2061-0.0983-0.3572c0-0.087,0.0129-0.1674,0.0384-0.2414c0.0285-0.0742,0.067-0.1368,0.1153-0.1884
		c0.0514-0.0548,0.1097-0.0967,0.1753-0.1255c0.0681-0.0291,0.1424-0.0435,0.222-0.0435c0.0797,0,0.1482,0.0161,0.2051,0.0484
		c0.057,0.0289,0.1053,0.0659,0.1451,0.1111c0.0428,0.0451,0.0756,0.0949,0.0984,0.1496c0.0256,0.0516,0.0456,0.0998,0.0598,0.1449
		h0.0513c0.0169-0.0933,0.0341-0.1707,0.051-0.2319c0.0173-0.061,0.0385-0.119,0.0643-0.1737
		c-0.0856-0.0773-0.1781-0.1337-0.2777-0.1691c-0.0996-0.0385-0.218-0.058-0.3547-0.058c-0.1424,0-0.2706,0.0227-0.3846,0.0677
		c-0.1139,0.0451-0.212,0.1079-0.2947,0.1883c-0.0798,0.0805-0.1409,0.177-0.1837,0.2898
		c-0.0428,0.1093-0.0641,0.2318-0.0641,0.3668c0,0.1899,0.0326,0.3413,0.0983,0.4539c0.0683,0.1126,0.1523,0.2059,0.252,0.28
		c0.0996,0.0708,0.2064,0.1303,0.3205,0.1785c0.1166,0.0483,0.2248,0.1013,0.3245,0.1595c0.0997,0.0579,0.1823,0.1303,0.2477,0.2171
		c0.0683,0.0869,0.1026,0.2045,0.1026,0.3525c0,0.0967-0.0145,0.1882-0.0428,0.2752c-0.0286,0.0836-0.0697,0.1576-0.1239,0.222
		c-0.0513,0.0612-0.1154,0.1109-0.1923,0.1498c-0.0739,0.0353-0.158,0.0529-0.2519,0.0529c-0.0911,0-0.1739-0.0143-0.248-0.0433
		c-0.074-0.0322-0.1394-0.0725-0.1963-0.1207c-0.0543-0.0483-0.1013-0.1015-0.1411-0.1593
		C24.8091,11.5385,24.7793,11.4789,24.7563,11.421L24.7563,11.421z"/>
	<path fill="#211915" d="M28.5124,15.3047l0.1564,0.4026c0.2309,0.5812,0.4614,1.1535,0.6922,1.7168
		c0.2309,0.5572,0.4551,1.0877,0.6735,1.5909c0.2181,0.5032,0.4176,0.9289,0.5983,1.2763c-0.1495-0.012-0.2929-0.0181-0.4299-0.0181
		h-0.393h-0.4021c-0.1308,0-0.2619,0.0061-0.3929,0.0181l-0.3085-0.8986c-0.1061-0.3057-0.2183-0.6114-0.3368-0.917l-0.5988-0.0091
		l-0.5985-0.009l-0.4863,0.009l-0.4864,0.0091c-0.1246,0.3056-0.2402,0.6112-0.346,0.917
		c-0.1061,0.3056-0.2025,0.6052-0.2899,0.8986c-0.0749-0.012-0.1496-0.0181-0.2247-0.0181H25.124h-0.2247
		c-0.0747,0-0.156,0.0061-0.2431,0.0181l0.2992-0.6469l0.4116-0.935l0.4769-1.1145c0.1747-0.4015,0.3463-0.806,0.5147-1.2133
		c0.1561-0.3646,0.3073-0.7243,0.4535-1.0793L28.5124,15.3047L28.5124,15.3047z M31.958,15.3047
		c0.0116,0.3801,0.0176,0.8132,0.0176,1.3012v1.2226c0,0.4974-0.0061,0.9408-0.0186,1.3302
		c-0.0127,0.3837-0.0313,0.761-0.0559,1.1326c0.1062-0.012,0.221-0.0181,0.346-0.0181h0.4209h0.4208
		c0.125,0,0.2402,0.0061,0.346,0.0181c-0.0247-0.3716-0.0438-0.7489-0.0559-1.1326c-0.0125-0.3894-0.0186-0.8328-0.0186-1.3302
		v-0.4584c0.7044,0,1.4123,0.0271,2.1233,0.081c-0.0127-0.0959-0.0252-0.168-0.0378-0.2158l-0.0091-0.1528
		c0-0.0599,0.003-0.117,0.0091-0.1709l0.0378-0.2337l-1.0291,0.0451c-0.3238,0.0118-0.6888,0.0209-1.0942,0.027v-0.9798
		c0.003-0.1549,0.008-0.3104,0.0152-0.4665L31.958,15.3047L31.958,15.3047z M37.0544,15.3047
		c0.012,0.3801,0.018,0.8132,0.018,1.3012v1.2226c0,0.4974-0.0061,0.9408-0.0186,1.3302c-0.0125,0.3837-0.0311,0.761-0.0564,1.1326
		c0.1062-0.012,0.2216-0.0181,0.3464-0.0181h0.4209h0.4209c0.1243,0,0.2402,0.0061,0.3458,0.0181
		c-0.0247-0.3716-0.0438-0.7489-0.0559-1.1326c-0.0125-0.3894-0.0186-0.8328-0.0186-1.3302v-1.2226
		c0-0.488,0.0056-0.9211,0.0176-1.2994L37.0544,15.3047L37.0544,15.3047z M40.5078,15.3047c0.012,0.3801,0.018,0.8132,0.018,1.3012
		v1.2226c0,0.4974-0.0061,0.9408-0.0186,1.3302c-0.0125,0.3837-0.0311,0.761-0.0558,1.1326c0.1057-0.012,0.221-0.0181,0.3458-0.0181
		h0.4209h0.4209c0.1248,0,0.2402,0.0061,0.3458,0.0181c-0.0247-0.3716-0.0438-0.7489-0.0558-1.1326
		c-0.0127-0.3894-0.0187-0.8328-0.0187-1.3302v-0.3683h0.0842l1.6741,2.8311c0.1434-0.012,0.2834-0.0181,0.4209-0.0181h0.4304
		h0.4209c0.137,0,0.2769,0.0061,0.4209,0.0181l-1.0291-1.5012c-0.3429-0.5093-0.6641-1.0185-0.9633-1.5278
		c0.4678-0.1138,0.8263-0.3086,1.0754-0.5843c0.2493-0.2757,0.3742-0.6322,0.3742-1.0696c0-0.1071-0.0091-0.2078-0.0267-0.3024
		l-1.4516-0.0012c0.0311,0.1363,0.0473,0.304,0.0473,0.5013c0,0.4315-0.1093,0.7552-0.3272,0.971
		c-0.2185,0.2097-0.5332,0.3147-0.9451,0.3147h-0.1026l-0.1028-0.0182c0-0.5893,0.0051-1.1786,0.0146-1.7679L40.5078,15.3047
		L40.5078,15.3047z M47.4439,15.3047c-0.0871,0.6407-0.1793,1.2796-0.276,1.9126c-0.156,1.0188-0.3337,2.0436-0.5332,3.074
		c0.0751-0.012,0.1466-0.0181,0.2151-0.0181h0.2246h0.2149c0.075,0,0.1495,0.0061,0.2246,0.0181l0.1495-2.0132
		c0.0499-0.6712,0.1248-1.3514,0.2246-2.0406c0.3741,0.6892,1.7209,3.3829,2.0577,4.0538l0.0842-0.0181h0.0936h0.0842l0.0936,0.0181
		c0.3369-0.6891,0.6768-1.375,1.0196-2.0582l1.0477-2.0855c0.0931,0.7072,0.1652,1.4204,0.2337,2.1394
		c0.075,0.7192,0.1279,1.3871,0.1591,2.0044c0.1309-0.012,0.2618-0.0181,0.3927-0.0181h0.3836h0.3741
		c0.1309,0,0.2589,0.0061,0.3832,0.0181c-0.0558-0.2995-0.1184-0.695-0.1867-1.1865c-0.0685-0.4911-0.1375-1.0188-0.206-1.5819
		l-0.2149-1.7439l-0.0559-0.4743h-1.5009c-0.1631,0.3323-0.3303,0.668-0.501,1.0047c-0.368,0.7311-0.7391,1.4321-1.1132,2.1034
		l-0.5332-1.0065l-0.5518-1.0787l-0.5065-1.0229H47.4439L47.4439,15.3047z M55.9312,15.3047
		c0.0121,0.3801,0.0176,0.8132,0.0176,1.3012v1.2226c0,0.4974-0.0061,0.9408-0.0181,1.3302
		c-0.0127,0.3837-0.0313,0.761-0.0565,1.1326l0.1777-0.0181h0.3183h0.5608h0.9265h1.01l0.6269,0.0181
		c-0.0125-0.036-0.0222-0.0807-0.0282-0.1346c-0.0065-0.0541-0.0095-0.129-0.0095-0.2249c0-0.0959,0.003-0.1707,0.0095-0.2246
		l0.0282-0.1799c-0.362,0.042-0.7205,0.0721-1.076,0.0898c-0.3555,0.0182-0.711,0.0273-1.0659,0.0273
		c-0.0192-0.3595-0.0282-0.7341-0.0282-1.1236v-0.5753c0.0061-0.1918,0.0091-0.3836,0.0091-0.5754
		c0.7049,0,1.4123,0.0271,2.1233,0.081c-0.0125-0.0959-0.0252-0.168-0.0372-0.2158l-0.0096-0.1528
		c0-0.0599,0.0036-0.117,0.0096-0.1709l0.0372-0.2337L58.428,16.723c-0.3242,0.0118-0.6892,0.0209-1.0946,0.027v-0.9798
		c0.003-0.1549,0.0081-0.3104,0.0157-0.4665L55.9312,15.3047L55.9312,15.3047z M27.3219,15.8059
		c-0.162,0.3598-0.3149,0.7162-0.4581,1.0696c-0.1436,0.3476-0.2838,0.7045-0.4211,1.0699h1.7116
		c-0.137-0.3654-0.2744-0.7223-0.4114-1.0699C27.6118,16.5221,27.4715,16.1657,27.3219,15.8059L27.3219,15.8059z"/>
	<path fill="#211915" d="M26.8122,15.3047c0.0172-0.0442,0.0342-0.0861,0.0516-0.1279c0.168-0.3954,0.321-0.764,0.4581-1.1054
		l0.1777,0.0361c0.0561,0.0058,0.1154,0.0088,0.1776,0.0088c0.0624,0,0.1217-0.003,0.1777-0.0088l0.1779-0.0361l0.4795,1.2333
		H26.8122L26.8122,15.3047z M33.3758,15.3047c0.0076-0.1711,0.0182-0.3424,0.0307-0.5142l0.3464,0.0087l0.5423,0.0273l0.6268,0.036
		l0.5987,0.036l-0.0277-0.1799c-0.0065-0.0539-0.0095-0.1287-0.0095-0.2246c0-0.1558,0.0125-0.2816,0.0372-0.3775
		c-0.1243,0.012-0.368,0.0241-0.7296,0.036c-0.3555,0.0061-0.7637,0.0091-1.2249,0.0091c-0.2809,0-0.5584-0.0061-0.8328-0.0182
		l-0.8324-0.0269c0.0247,0.3894,0.0433,0.779,0.0559,1.1686c0.0006,0.007,0.0006,0.0143,0.001,0.0216L33.3758,15.3047
		L33.3758,15.3047z M38.4747,15.3047c0.0005-0.0055,0.0005-0.0128,0.001-0.0198c0.0121-0.3895,0.0313-0.7792,0.0559-1.1686
		l-0.3458,0.036c-0.125,0.0061-0.2654,0.0091-0.4209,0.0091c-0.1561,0-0.2961-0.003-0.4209-0.0091l-0.3464-0.036
		c0.0252,0.3894,0.0438,0.779,0.0564,1.1686c0,0.007,0.0006,0.0143,0.0006,0.0216L38.4747,15.3047L38.4747,15.3047z
		 M41.9251,15.3047c0.0036-0.2247,0.0081-0.4506,0.0131-0.6761c0.2559,0,0.4744,0.012,0.655,0.036
		c0.1868,0.0241,0.3369,0.0777,0.4492,0.1619c0.1184,0.078,0.2054,0.1948,0.2612,0.3504c0.0142,0.0393,0.0267,0.0816,0.0373,0.1272
		l1.4516,0.0007c-0.0267-0.143-0.074-0.2728-0.1415-0.3884c-0.1062-0.1979-0.2527-0.3625-0.4401-0.4944
		c-0.0805-0.0541-0.1681-0.0988-0.2618-0.1348c-0.0871-0.042-0.1933-0.075-0.3177-0.0989
		c-0.1182-0.0238-0.2618-0.0417-0.4304-0.0539c-0.1682-0.0121-0.3711-0.0181-0.6078-0.0181c-0.3181,0-0.586,0.009-0.8045,0.0269
		c-0.2119,0.0121-0.4018,0.0182-0.5704,0.0182c-0.1561,0-0.2961-0.003-0.4209-0.0091l-0.3458-0.036
		c0.0247,0.3894,0.0433,0.779,0.0558,1.1686c0.0006,0.007,0.0006,0.0143,0.0006,0.0216L41.9251,15.3047L41.9251,15.3047z
		 M48.9247,15.3047l-0.0453-0.0916l-0.5237-1.0968l-0.1963,0.036l-0.1777,0.0091c-0.0685,0-0.1339-0.003-0.1963-0.0091
		l-0.1872-0.036c-0.0499,0.397-0.1007,0.7917-0.154,1.1844L48.9247,15.3047L48.9247,15.3047z M53.6313,15.3047l-0.1404-1.1884
		c-0.1561,0.0302-0.287,0.0451-0.3932,0.0451c-0.1123,0-0.2458-0.0149-0.4018-0.0451c-0.1828,0.3937-0.3716,0.7891-0.5655,1.1865
		L53.6313,15.3047L53.6313,15.3047z M57.3491,15.3047c0.0074-0.1711,0.018-0.3424,0.0311-0.5142l0.3458,0.0087l0.5429,0.0273
		l0.6264,0.036l0.5991,0.036l-0.0282-0.1799c-0.0065-0.0539-0.0095-0.1287-0.0095-0.2246c0-0.1558,0.0125-0.2816,0.0378-0.3775
		c-0.1248,0.012-0.368,0.0241-0.7301,0.036c-0.3549,0.0061-0.7637,0.0091-1.2249,0.0091c-0.2809,0-0.5584-0.0061-0.8324-0.0182
		l-0.8328-0.0269c0.0252,0.3894,0.0438,0.779,0.0565,1.1686c0,0.007,0,0.0143,0.0004,0.0216L57.3491,15.3047L57.3491,15.3047z"/>
	<polygon fill="#009D29" points="24.276,13.1165 59.9601,13.1165 59.9601,13.6619 24.276,13.6619 	"/>
	<path fill="#009D29" d="M14.1415,7.4578l-2.5564-3.9381L0.0399,20.4803H5.074l4.6529-6.7018c0,0-0.9364,0.5719-1.8894-0.2382
		c-0.953-0.81-0.0953-2.2394-0.0953-2.2394l4.1066-6.2361l1.9591,2.7744L14.1415,7.4578L14.1415,7.4578z M17.2387,11.7771
		l-2.7159-3.795L6.027,20.4803h5.1293l2.3825-3.3832c0,0-1.2388,0.5076-2.0012-0.4763c-0.7626-0.9841-0.2382-1.794,0.0951-2.2704
		c0.3336-0.4766,3.2664-4.843,3.2664-4.843l1.9538,2.6993L17.2387,11.7771L17.2387,11.7771z M23.1781,20.4803L17.62,12.3492
		l-5.5582,8.1311h9.7822l-0.6672-0.9052h-3.7951c0,0-3.0495-0.255-1.5246-2.6207l2.0487-2.9376l4.5576,6.4635H23.1781
		L23.1781,20.4803z"/>
</g>
</svg>
