<?xml version="1.0" encoding="utf-8"?>
<!-- Generator: Adobe Illustrator 17.0.0, SVG Export Plug-In . SVG Version: 6.00 Build 0)  -->
<!DOCTYPE svg PUBLIC "-//W3C//DTD SVG 1.1//EN" "http://www.w3.org/Graphics/SVG/1.1/DTD/svg11.dtd">
<svg version="1.1" id="Capa_1" xmlns="http://www.w3.org/2000/svg" xmlns:xlink="http://www.w3.org/1999/xlink" x="0px" y="0px"
	 width="60px" height="24px" viewBox="0 0 60 24" enable-background="new 0 0 60 24" xml:space="preserve">
<g id="AIG">
	<path fill="#6EA2D6" d="M18.5694,5.2675l-6.4717,13.4721h2.2613l1.5489-3.2724h5.9515l1.4597,3.2724h2.296L19.3718,5.2675H18.5694z
		 M18.9418,8.9758l2.0628,4.5809H16.781L18.9418,8.9758z"/>
	<rect x="27.8005" y="5.2672" fill="#6EA2D6" width="2.0986" height="13.4728"/>
	<path fill="#6EA2D6" d="M40.9036,11.7239h5.7451v0.4454c0,1.0115-0.1221,1.9081-0.3687,2.6866
		c-0.2399,0.7218-0.6456,1.3962-1.2154,2.0251c-1.2911,1.4083-2.9329,2.1107-4.9256,2.1107c-1.9461,0-3.6114-0.6798-4.998-2.0404
		c-1.3872-1.3677-2.0806-3.0082-2.0806-4.9216c0-1.954,0.706-3.6123,2.1166-4.973c1.411-1.3678,3.1268-2.0506,5.1499-2.0506
		c1.0878,0,2.1017,0.2142,3.0444,0.6424c0.9003,0.4285,1.786,1.1246,2.6562,2.0886l-1.4949,1.3867
		c-1.1401-1.4717-2.5308-2.2072-4.169-2.2072c-1.4705,0-2.7048,0.4916-3.7012,1.4751c-0.9958,0.9656-1.4948,2.1746-1.4948,3.6283
		c0,1.5016,0.5559,2.7377,1.6666,3.7092c1.0386,0.902,2.1639,1.3524,3.3761,1.3524c1.0328,0,1.9601-0.3367,2.7832-1.0093
		c0.8219-0.6789,1.2813-1.4918,1.3778-2.437h-3.4677V11.7239z"/>
	<path fill="#6EA2D6" d="M7.1004,24h45.7992V0H7.1004V24z M9.0051,1.8508h41.9894v20.2992H9.0051V1.8508z"/>
</g>
</svg>
