<?xml version="1.0" encoding="utf-8"?>
<!-- Generator: Adobe Illustrator 17.0.0, SVG Export Plug-In . SVG Version: 6.00 Build 0)  -->
<!DOCTYPE svg PUBLIC "-//W3C//DTD SVG 1.1//EN" "http://www.w3.org/Graphics/SVG/1.1/DTD/svg11.dtd">
<svg version="1.1" id="Capa_1" xmlns="http://www.w3.org/2000/svg" xmlns:xlink="http://www.w3.org/1999/xlink" x="0px" y="0px"
	 width="60px" height="24px" viewBox="0 0 60 24" enable-background="new 0 0 60 24" xml:space="preserve">
<g id="ANA">
	<g>
		<circle fill="#DB2455" cx="45.1586" cy="3.7289" r="3.7832"/>
		<path fill="#DB2455" d="M22.8119,10.8547c3.2573-0.7955,13.912-1.4734,21.4904,0.4931c1.2273,0.3185,4.2131,1.1886,4.4663,3.1741
			c0,0,0.4128,1.4672-3.2233,3.2084c-3.626,1.7364-6.6631,2.7678-9.1101,3.4936c-2.3387,0.6938-6.6157,1.8458-8.0326,2.1107
			c-1.1978,0.224-3.7193,0.7526-5.0303,0.7182c-0.9255-0.0243-0.3623-0.4896,0.2667-0.8547
			c1.1445-0.6645,4.3557-1.7544,6.0366-2.3084c1.6809-0.554,7.007-2.4241,8.156-2.8556c1.371-0.5148,3.9375-1.6501,4.6936-2.1618
			c0.9008-0.6099,1.9512-1.5467,0.9124-2.1454c-0.9114-0.5253-1.791-0.6342-3.7533-0.9073
			c-1.9389-0.2698-6.5194-0.4469-7.7932-0.4584c-1.2612-0.0115-4.0284-0.1234-4.7943-0.1337
			c-0.5351-0.0072-4.4128-0.2403-4.9398-0.5816C21.787,11.4059,21.8061,11.1003,22.8119,10.8547z"/>
		<path fill="#DB2455" d="M15.4941,13.8605h-2.2509l-1.966,5.5621h2.1368l0.1616-0.7028h1.5101l0.1995,0.7028h2.1369
			L15.4941,13.8605z M13.8986,17.4188l0.4511-1.9091l0.4227,1.9091H13.8986z"/>
		<path fill="#DB2455" d="M29.6739,13.8605H27.423l-1.966,5.5621h2.1368l0.1616-0.7028h1.5101l0.1994,0.7028h2.137L29.6739,13.8605z
			 M28.0783,17.4188l0.4511-1.9091l0.4227,1.9091H28.0783z"/>
		<polygon fill="#DB2455" points="18.7496,19.4226 18.7496,13.8605 20.6719,13.8605 22.3883,16.7236 22.3883,13.8605 
			24.3095,13.8605 24.3095,19.4226 22.3883,19.4226 20.6719,16.5452 20.6719,19.4226 		"/>
		<g>
			<path fill="#DB2455" d="M11.0582,21.0199h0.3047c-0.0005,0.051,0.0099,0.0837,0.031,0.0983
				c0.0151,0.0097,0.0347,0.0153,0.0586,0.0171c0.024,0.0018,0.0994,0.0032,0.2265,0.0042c0.1331-0.0005,0.213-0.0014,0.2397-0.0026
				c0.0268-0.0013,0.0479-0.0052,0.0635-0.0118c0.0232-0.0096,0.0348-0.0355,0.0348-0.0779c0-0.0308-0.0082-0.0513-0.0246-0.0616
				c-0.0164-0.0104-0.0498-0.016-0.1002-0.0171c-0.0388,0-0.1209-0.003-0.2465-0.0091c-0.1285-0.0061-0.2122-0.0096-0.251-0.0106
				c-0.0756-0.0025-0.1337-0.0097-0.1742-0.0216c-0.0406-0.0119-0.0723-0.0311-0.0949-0.0578
				c-0.0388-0.0444-0.0582-0.1184-0.0582-0.2223c0-0.1164,0.0222-0.1986,0.0665-0.2465c0.0338-0.0373,0.0857-0.0612,0.1558-0.0714
				c0.07-0.0104,0.2125-0.0156,0.4272-0.0156c0.1517,0,0.2583,0.0043,0.3198,0.0129c0.0948,0.0132,0.1598,0.0395,0.195,0.0791
				c0.0353,0.0396,0.053,0.1062,0.053,0.1999c0,0.0086-0.0003,0.0247-0.0008,0.0484h-0.3047
				c-0.001-0.0288-0.0034-0.0484-0.0072-0.059c-0.0038-0.0106-0.0112-0.0191-0.0223-0.0258
				c-0.0136-0.008-0.0376-0.0132-0.0718-0.0155c-0.0343-0.0022-0.1069-0.0034-0.2178-0.0034c-0.1336,0-0.215,0.0042-0.2442,0.0125
				c-0.0293,0.0083-0.0439,0.0314-0.0439,0.0692c0,0.0363,0.0146,0.0585,0.0439,0.0666c0.0242,0.0066,0.1353,0.0129,0.3334,0.0189
				c0.1668,0.005,0.2784,0.0109,0.3346,0.0178c0.0562,0.0068,0.1009,0.0198,0.1342,0.0389
				c0.0378,0.0227,0.0645,0.0538,0.0802,0.0934c0.0156,0.0395,0.0234,0.0964,0.0234,0.1705c0,0.0972-0.0131,0.1696-0.0393,0.217
				c-0.0197,0.0348-0.047,0.0608-0.082,0.0779c-0.0351,0.0172-0.0843,0.0288-0.1478,0.0348c-0.068,0.006-0.1948,0.009-0.3803,0.009
				c-0.1552,0-0.2699-0.004-0.344-0.012c-0.0741-0.0081-0.1298-0.0224-0.167-0.0431c-0.0389-0.0222-0.0657-0.0514-0.0805-0.0878
				c-0.0149-0.0363-0.0224-0.0914-0.0224-0.1655L11.0582,21.0199L11.0582,21.0199z"/>
			<path fill="#DB2455" d="M13.1459,20.3296h1.1432v0.2427h-0.8332v0.149h0.7909v0.2268h-0.7909v0.1656h0.8393v0.248h-1.1492
				C13.1459,21.3617,13.1459,20.3296,13.1459,20.3296z"/>
			<path fill="#DB2455" d="M15.7356,20.7765h0.719c0.001,0.0166,0.0015,0.0259,0.0015,0.028c0,0.1456-0.0037,0.2553-0.0114,0.3288
				c-0.0121,0.119-0.0796,0.191-0.2026,0.2163c-0.0529,0.0106-0.1135,0.0178-0.1818,0.0215
				c-0.0683,0.0039-0.1725,0.0056-0.3126,0.0056c-0.1774,0-0.3029-0.0048-0.3765-0.0144c-0.0736-0.0096-0.1318-0.0287-0.1746-0.0575
				c-0.0293-0.0196-0.0517-0.0448-0.0673-0.0755c-0.0157-0.0308-0.0265-0.0714-0.0326-0.1218
				c-0.006-0.0469-0.0091-0.1395-0.0091-0.2782c0-0.0943,0.0025-0.1653,0.0076-0.2133c0.0051-0.0479,0.0149-0.0907,0.0295-0.1285
				c0.0297-0.0797,0.093-0.128,0.1897-0.1452c0.1059-0.0186,0.2684-0.028,0.4877-0.028c0.13,0,0.2329,0.0033,0.3085,0.0098
				c0.0756,0.0066,0.1378,0.0174,0.1867,0.0325c0.0792,0.0247,0.127,0.0781,0.1437,0.1603
				c0.0081,0.0408,0.0124,0.0971,0.0129,0.1686h-0.3145c-0.0005-0.0292-0.0023-0.049-0.0053-0.0593
				c-0.003-0.0104-0.0093-0.0191-0.0189-0.0261c-0.0177-0.0126-0.0544-0.0205-0.1104-0.0235
				c-0.0529-0.003-0.1295-0.0046-0.2299-0.0046c-0.1089,0-0.1866,0.0026-0.2333,0.0076c-0.0466,0.0051-0.0785,0.0145-0.0956,0.028
				c-0.0172,0.0141-0.0288,0.0372-0.0348,0.0692c-0.0061,0.0321-0.0091,0.0869-0.0091,0.1644c0,0.0872,0.003,0.1481,0.0091,0.1826
				c0.006,0.0346,0.0176,0.0589,0.0348,0.073c0.0172,0.0136,0.0394,0.0218,0.0669,0.0246c0.0275,0.0028,0.1143,0.0052,0.2605,0.0072
				c0.1431-0.0009,0.2301-0.0024,0.2609-0.0042c0.0307-0.0018,0.0554-0.0065,0.0741-0.014
				c0.0152-0.0066,0.0258-0.0172,0.0321-0.0321c0.0063-0.0149,0.0095-0.0372,0.0095-0.0669c0-0.0046-0.0003-0.0141-0.0008-0.0287
				h-0.4136V20.7765z"/>
			<path fill="#DB2455" d="M17.2902,20.3296h0.3145v0.4741c0.0015,0.1089,0.0053,0.1776,0.0113,0.2064
				c0.0081,0.0404,0.0342,0.0668,0.0783,0.0794c0.0441,0.0126,0.1332,0.0189,0.2673,0.0189c0.1089,0,0.1843-0.0032,0.2265-0.0094
				c0.0421-0.0064,0.072-0.0188,0.0896-0.0375c0.0116-0.0131,0.0198-0.029,0.0246-0.0477c0.0048-0.0187,0.0084-0.0506,0.011-0.096
				c0.0025-0.0463,0.0037-0.0844,0.0037-0.1141v-0.4741h0.3145v0.4741c-0.0035,0.1648-0.0088,0.2727-0.0159,0.3236
				c-0.0126,0.0867-0.054,0.1502-0.124,0.1906c-0.0399,0.0232-0.096,0.0388-0.1686,0.0469c-0.0726,0.0081-0.1918,0.012-0.3576,0.012
				c-0.1245,0-0.2206-0.0022-0.2881-0.0068c-0.0676-0.0046-0.1263-0.0126-0.1762-0.0242c-0.1104-0.0262-0.1749-0.0928-0.1935-0.1996
				c-0.0071-0.0408-0.0115-0.0779-0.0132-0.1111c-0.0018-0.0333-0.0032-0.1104-0.0042-0.2314V20.3296z"/>
			<path fill="#DB2455" d="M19.4867,21.3617v-1.0321h0.7599c0.1784,0.0005,0.2853,0.0024,0.3205,0.0058
				c0.0353,0.0033,0.0693,0.015,0.1021,0.0352c0.0393,0.0237,0.0662,0.0563,0.0809,0.0979c0.0146,0.0416,0.0219,0.107,0.0219,0.1962
				c0,0.0751-0.0047,0.1303-0.014,0.1655c-0.0093,0.0353-0.0268,0.0635-0.0525,0.0846c-0.0278,0.0227-0.0696,0.0384-0.1255,0.047
				c0.0661,0.005,0.1134,0.0239,0.1422,0.0567c0.0166,0.0197,0.0272,0.0435,0.0317,0.0715
				c0.0046,0.0279,0.0068,0.0865,0.0068,0.1757v0.096h-0.31v-0.0552c0-0.0575-0.0022-0.0985-0.0064-0.1228
				c-0.0043-0.0245-0.0123-0.0432-0.0238-0.0564c-0.0116-0.0121-0.0276-0.0198-0.048-0.0231
				c-0.0205-0.0033-0.0631-0.0049-0.1282-0.0049h-0.443v0.2624H19.4867z M19.8013,20.8415h0.4423
				c0.0771-0.0014,0.1231-0.0028,0.138-0.0042c0.0149-0.0013,0.0276-0.0051,0.0382-0.0117
				c0.0137-0.0086,0.0232-0.0213,0.0288-0.0382c0.0056-0.0169,0.0083-0.0424,0.0083-0.0767c0-0.0338-0.0032-0.0591-0.0095-0.0756
				c-0.0063-0.0167-0.0173-0.0288-0.0329-0.0364c-0.0111-0.005-0.0244-0.0081-0.0397-0.009
				c-0.0154-0.001-0.0594-0.0019-0.1319-0.0023h-0.4415V20.8415z"/>
			<path fill="#DB2455" d="M22.2881,20.3145c0.2228,0,0.376,0.0055,0.4597,0.0167c0.1205,0.0161,0.1943,0.0733,0.2216,0.1716
				c0.0186,0.0675,0.028,0.1817,0.028,0.3425c0,0.1613-0.0094,0.2757-0.028,0.3433c-0.0272,0.0983-0.1011,0.1555-0.2216,0.1716
				c-0.0837,0.0111-0.2359,0.0166-0.4567,0.0166c-0.2248,0-0.379-0.0055-0.4627-0.0166c-0.1205-0.0161-0.1943-0.0733-0.2215-0.1716
				c-0.0187-0.0676-0.028-0.184-0.028-0.3494c0-0.1572,0.0094-0.2694,0.028-0.3364c0.0272-0.0983,0.101-0.1555,0.2215-0.1716
				C21.9116,20.32,22.0648,20.3145,22.2881,20.3145z M22.2889,20.5829c-0.1668,0-0.2672,0.0043-0.3009,0.0129
				c-0.0388,0.0101-0.0643,0.0327-0.0764,0.0677c-0.0121,0.035-0.0182,0.1047-0.0182,0.209c0,0.0631,0.0033,0.1086,0.0099,0.1369
				c0.0126,0.0524,0.0507,0.0823,0.1142,0.0899c0.0469,0.0061,0.1378,0.0091,0.2729,0.0091c0.1265,0,0.2107-0.0022,0.2525-0.0068
				s0.0729-0.0147,0.093-0.0303c0.0182-0.0141,0.0305-0.0349,0.0371-0.0623c0.0065-0.0275,0.0098-0.0725,0.0098-0.135
				c0-0.074-0.0025-0.1285-0.0076-0.1632c-0.0051-0.0348-0.0141-0.061-0.0272-0.0787c-0.0167-0.0222-0.0441-0.0359-0.0824-0.0412
				S22.4351,20.5829,22.2889,20.5829z"/>
			<path fill="#DB2455" d="M23.8004,21.0199h0.3047c-0.0005,0.051,0.0099,0.0837,0.031,0.0983
				c0.0152,0.0097,0.0347,0.0153,0.0586,0.0171c0.0239,0.0018,0.0994,0.0032,0.2264,0.0042
				c0.1331-0.0005,0.213-0.0014,0.2397-0.0026c0.0267-0.0013,0.0479-0.0052,0.0635-0.0118
				c0.0232-0.0096,0.0348-0.0355,0.0348-0.0779c0-0.0308-0.0082-0.0513-0.0246-0.0616c-0.0164-0.0104-0.0498-0.016-0.1002-0.0171
				c-0.0389,0-0.121-0.003-0.2465-0.0091c-0.1285-0.0061-0.2122-0.0096-0.251-0.0106c-0.0756-0.0025-0.1337-0.0097-0.1742-0.0216
				c-0.0406-0.0119-0.0722-0.0311-0.0949-0.0578c-0.0388-0.0444-0.0582-0.1184-0.0582-0.2223c0-0.1164,0.0222-0.1986,0.0666-0.2465
				c0.0338-0.0373,0.0857-0.0612,0.1557-0.0714c0.0701-0.0104,0.2125-0.0156,0.4272-0.0156c0.1517,0,0.2583,0.0043,0.3198,0.0129
				c0.0948,0.0132,0.1598,0.0395,0.1951,0.0791c0.0353,0.0396,0.0529,0.1062,0.0529,0.1999c0,0.0086-0.0002,0.0247-0.0007,0.0484
				h-0.3047c-0.001-0.0288-0.0034-0.0484-0.0072-0.059c-0.0038-0.0106-0.0113-0.0191-0.0223-0.0258
				c-0.0136-0.008-0.0376-0.0132-0.0719-0.0155c-0.0343-0.0022-0.1068-0.0034-0.2178-0.0034c-0.1335,0-0.215,0.0042-0.2442,0.0125
				c-0.0293,0.0083-0.0439,0.0314-0.0439,0.0692c0,0.0363,0.0146,0.0585,0.0439,0.0666c0.0242,0.0066,0.1353,0.0129,0.3334,0.0189
				c0.1669,0.005,0.2784,0.0109,0.3346,0.0178c0.0562,0.0068,0.101,0.0198,0.1342,0.0389c0.0378,0.0227,0.0645,0.0538,0.0802,0.0934
				c0.0156,0.0395,0.0234,0.0964,0.0234,0.1705c0,0.0972-0.0131,0.1696-0.0393,0.217c-0.0196,0.0348-0.047,0.0608-0.082,0.0779
				c-0.035,0.0172-0.0843,0.0288-0.1478,0.0348c-0.0681,0.006-0.1948,0.009-0.3803,0.009c-0.1553,0-0.2699-0.004-0.344-0.012
				c-0.0741-0.0081-0.1298-0.0224-0.1671-0.0431c-0.0389-0.0222-0.0657-0.0514-0.0805-0.0878
				c-0.0149-0.0363-0.0223-0.0914-0.0223-0.1655V21.0199z"/>
		</g>
	</g>
</g>
</svg>
