<?xml version="1.0" encoding="utf-8"?>
<!-- Generator: Adobe Illustrator 17.0.0, SVG Export Plug-In . SVG Version: 6.00 Build 0)  -->
<!DOCTYPE svg PUBLIC "-//W3C//DTD SVG 1.1//EN" "http://www.w3.org/Graphics/SVG/1.1/DTD/svg11.dtd">
<svg version="1.1" id="Capa_1" xmlns="http://www.w3.org/2000/svg" xmlns:xlink="http://www.w3.org/1999/xlink" x="0px" y="0px"
	 width="60px" height="24px" viewBox="0 0 60 24" enable-background="new 0 0 60 24" xml:space="preserve">
<g id="ATLAS">
	<g>
		<g>
			<path fill="#C31F39" d="M38.2473,10.0262c-0.0077-0.0208-0.0278-0.0346-0.0499-0.0346h-1.247
				c-0.0223,0-0.0423,0.0138-0.05,0.0347l-2.4939,6.7617c-0.0061,0.0166-0.0036,0.0347,0.0063,0.0491
				c0.0099,0.0144,0.0263,0.0228,0.0437,0.0228h1.1337c0.0224,0,0.0425-0.0141,0.0501-0.0355l0.5231-1.4572h2.7386l0.5231,1.4572
				c0.0076,0.0213,0.0277,0.0355,0.0502,0.0355h1.2469c0.0176,0,0.0339-0.0087,0.0439-0.0231
				c0.0099-0.0141,0.0122-0.0327,0.0061-0.0489L38.2473,10.0262z M37.5278,11.4694c0.0728,0.2992,0.1567,0.5734,0.2693,0.8682
				l0.7665,2.0516h-2.0722l0.7561-2.0216C37.359,12.0676,37.4563,11.761,37.5278,11.4694z M37.847,12.3189L37.847,12.3189
				L37.847,12.3189L37.847,12.3189z"/>
			<path fill="#C31F39" d="M43.9102,11.7746h-1.2968V9.9547c0-0.0166-0.0077-0.0321-0.0208-0.0423
				c-0.0131-0.0102-0.0303-0.0134-0.0461-0.0093l-1.0924,0.2905c-0.0234,0.0062-0.0397,0.0273-0.0397,0.0515v1.5294l-0.9258,0.0001
				c-0.014,0-0.0278,0.0057-0.0377,0.0156c-0.0099,0.0099-0.0156,0.0237-0.0156,0.0377v0.8315c0,0.0139,0.0057,0.0278,0.0156,0.0377
				c0.0099,0.0099,0.0237,0.0156,0.0377,0.0156h0.9258v2.6615c0.0004,0.5602,0.0816,0.9548,0.3152,1.2139
				c0.2351,0.2587,0.609,0.3618,1.1604,0.3618c0.3452,0,0.7289-0.0506,1.0307-0.1111c0.0248-0.005,0.0426-0.027,0.0426-0.0523
				v-0.8816c0-0.0161-0.0076-0.0317-0.0205-0.0419c-0.0129-0.0099-0.03-0.0136-0.0459-0.0097
				c-0.1903,0.0486-0.4346,0.0786-0.6566,0.0784c-0.2532-0.0008-0.3963-0.0481-0.4851-0.1706
				c-0.091-0.1237-0.1323-0.3502-0.1317-0.7177v-2.3309l1.2866,0.0002c0.0139,0,0.0276-0.0057,0.0376-0.0156
				c0.0099-0.0099,0.0156-0.0238,0.0156-0.0377V11.828c0-0.014-0.0057-0.0278-0.0156-0.0377
				C43.9378,11.7803,43.9241,11.7746,43.9102,11.7746z"/>
			<path fill="#C31F39" d="M46.0628,9.4406h-1.1027c-0.014,0-0.0278,0.0057-0.0377,0.0156
				c-0.0099,0.0099-0.0156,0.0236-0.0156,0.0377v7.3126c0,0.0139,0.0057,0.0278,0.0156,0.0377
				c0.0099,0.0099,0.0237,0.0154,0.0377,0.0154h1.1027c0.0143,0,0.0275-0.0055,0.0377-0.0154
				c0.01-0.0102,0.0156-0.0236,0.0156-0.0377V9.494c0-0.0141-0.0057-0.0278-0.0156-0.0377
				C46.0906,9.4463,46.0768,9.4406,46.0628,9.4406z"/>
			<path fill="#C31F39" d="M51.208,13.4106c0.0001-0.5173-0.1097-0.9555-0.4285-1.263c-0.319-0.3068-0.8343-0.4731-1.624-0.4731
				c-0.6672,0.0001-1.3116,0.1416-1.8224,0.334c-0.0229,0.0086-0.0368,0.0315-0.0341,0.0558l0.103,0.9116
				c0.002,0.0181,0.013,0.0337,0.0294,0.0417c0.0164,0.0082,0.0355,0.0072,0.051-0.002c0.4208-0.2539,1.034-0.3936,1.4978-0.3931
				c0.3958,0,0.6486,0.0796,0.8008,0.2234c0.1523,0.1433,0.2175,0.3608,0.2177,0.6649v0.2676
				c-0.9047,0.0065-1.6489,0.1716-2.1751,0.4804c-0.5367,0.3137-0.8454,0.7856-0.8444,1.3759
				c-0.0004,0.4079,0.145,0.7432,0.4058,0.9726c0.2608,0.2299,0.6325,0.3526,1.0799,0.3526c0.0001,0,0.0002,0,0.0002,0
				c0.7249,0,1.3182-0.3417,1.6292-0.834c-0.0182,0.216-0.0234,0.4511-0.0234,0.6807c0,0.0139,0.0057,0.0278,0.0156,0.0377
				c0.0099,0.0099,0.0237,0.0156,0.0377,0.0156h1.0614c0.0146,0,0.0285-0.006,0.0387-0.0166
				c0.0102-0.0107,0.0154-0.0248,0.0146-0.0392c-0.0206-0.4196-0.0309-0.9302-0.0309-1.36V13.4106z M49.9987,14.6062v0.0466
				c0.0001,0.343-0.1223,0.685-0.3342,0.9389c-0.2122,0.2539-0.5107,0.4201-0.8698,0.4204c-0.2068,0-0.3683-0.0573-0.4775-0.1533
				c-0.109-0.0962-0.1695-0.2319-0.17-0.4045c0.0017-0.2011,0.0764-0.402,0.3502-0.5667
				C48.7659,14.7274,49.2318,14.6109,49.9987,14.6062z"/>
			<path fill="#C31F39" d="M55.3303,14.3614c-0.3334-0.315-0.8191-0.4412-1.2144-0.5825c-0.1976-0.0702-0.3725-0.1441-0.493-0.2391
				c-0.1204-0.0962-0.1879-0.2058-0.1888-0.3695c0.0009-0.1766,0.0662-0.311,0.2031-0.4099c0.1373-0.0985,0.3533-0.158,0.6506-0.158
				c0.3242,0,0.681,0.0496,0.9847,0.1381c0.0156,0.0047,0.0329,0.0017,0.046-0.0079c0.0134-0.0097,0.0216-0.0251,0.0221-0.0412
				l0.031-0.8716c0.001-0.0269-0.0183-0.0502-0.0448-0.0544c-0.3111-0.0505-0.6635-0.0909-0.9669-0.0909
				c-0.7042,0-1.2446,0.1722-1.611,0.4595c-0.3667,0.2872-0.5555,0.6909-0.555,1.1366c-0.0007,0.4419,0.1464,0.7457,0.3674,0.9563
				c0.3313,0.3157,0.8134,0.4283,1.2049,0.56c0.1958,0.0652,0.3687,0.1352,0.4874,0.2289c0.1185,0.095,0.186,0.2061,0.187,0.3784
				c-0.0009,0.1867-0.0905,0.3326-0.2564,0.4397c-0.1657,0.1066-0.4088,0.1684-0.7003,0.1681
				c-0.3851,0.0003-0.7833-0.0692-1.0986-0.1582c-0.0156-0.0045-0.0326-0.0012-0.0458,0.0082
				c-0.0133,0.0099-0.0215,0.025-0.0219,0.0414l-0.031,0.9116c-0.0007,0.0263,0.0176,0.0491,0.0435,0.0541
				c0.3228,0.0605,0.7069,0.1009,1.092,0.1009c0.6939,0,1.2618-0.1721,1.6588-0.4675c0.397-0.2949,0.621-0.716,0.6205-1.1986
				C55.702,14.8685,55.5527,14.5712,55.3303,14.3614z"/>
		</g>
		<g>
			<path fill="#776A57" d="M20.6184,21.5391h-1.241v-2.1885c0-0.0035-0.0015-0.0064-0.0037-0.0089
				c-0.0024-0.0022-0.0057-0.0037-0.0091-0.0037h-0.3385c-0.0032,0-0.0066,0.0015-0.0089,0.0037
				c-0.0024,0.0025-0.0036,0.0055-0.0036,0.0089v2.4988c0,0.0035,0.0012,0.0067,0.0036,0.0089
				c0.0023,0.0025,0.0057,0.0037,0.0089,0.0037h1.5922c0.0034,0,0.0067-0.0012,0.0091-0.0037
				c0.0022-0.0022,0.0037-0.0055,0.0037-0.0089v-0.2976c0-0.0035-0.0015-0.0067-0.0037-0.0089
				C20.6251,21.5403,20.6218,21.5391,20.6184,21.5391z"/>
			<path fill="#776A57" d="M22.6459,21.6192c-0.019,0.0032-0.0367,0.006-0.0534,0.0074c-0.0167,0.0017-0.0316,0.0025-0.0448,0.0025
				c-0.0406,0-0.063-0.0097-0.0719-0.0231c-0.0111-0.0166-0.0174-0.0394-0.0174-0.0697v-1.0493
				c0.0004-0.1758-0.0687-0.3085-0.2048-0.3918c-0.1364-0.0836-0.3127-0.1247-0.5282-0.1247c-0.1866,0-0.3515,0.0446-0.4935,0.1342
				c-0.1443,0.091-0.2187,0.253-0.2243,0.4806c0,0.0032,0.0014,0.0064,0.0036,0.0092c0.0023,0.0022,0.0056,0.0037,0.0092,0.0037
				h0.2857c0.0063,0,0.0118-0.0047,0.0124-0.0112c0.0113-0.0932,0.0355-0.1624,0.0706-0.2073
				c0.0636-0.0826,0.1719-0.125,0.3296-0.1252c0.1368,0,0.2404,0.0238,0.3116,0.0689c0.0699,0.0449,0.1048,0.1153,0.1053,0.2172
				c0,0.0503-0.0069,0.0878-0.0191,0.1121c-0.0221,0.0456-0.0637,0.0724-0.1314,0.0816l-0.488,0.061
				c-0.1732,0.0218-0.3143,0.0801-0.4221,0.1748c-0.1085,0.0952-0.1626,0.2306-0.1624,0.402
				c-0.0001,0.157,0.0551,0.2892,0.1645,0.3938c0.1095,0.1047,0.2512,0.1572,0.4223,0.1572c0.0004,0,0.0006,0,0.0007,0
				c0.1425,0,0.2733-0.0305,0.392-0.0915c0.1074-0.0551,0.1923-0.1195,0.2551-0.1937c0.0107,0.0603,0.027,0.1086,0.0499,0.1448
				c0.0498,0.0789,0.1322,0.1185,0.2404,0.1183c0.0435,0,0.0777-0.0017,0.1038-0.0052c0.0259-0.0037,0.0626-0.0122,0.1106-0.0258
				c0.0055-0.0017,0.0092-0.0067,0.0092-0.0122v-0.2264c0-0.0037-0.0016-0.0072-0.0046-0.0097
				C22.6535,21.6194,22.6496,21.6184,22.6459,21.6192z M22.1267,20.9456v0.2242c-0.0004,0.184-0.0815,0.313-0.248,0.3943
				c-0.0994,0.0491-0.2016,0.0734-0.3074,0.0734c-0.0861,0-0.1593-0.0243-0.2218-0.0734c-0.0616-0.0489-0.0919-0.1136-0.0921-0.1989
				c0.0004-0.1131,0.0448-0.1919,0.1355-0.2435c0.0536-0.0303,0.1357-0.0536,0.2456-0.068l0.1851-0.0238
				c0.0572-0.0069,0.1154-0.0183,0.1748-0.0345C22.0486,20.9818,22.0914,20.9652,22.1267,20.9456z"/>
			<path fill="#776A57" d="M25.501,20.3063c-0.0646-0.0982-0.1583-0.1785-0.2805-0.2398c-0.1223-0.0615-0.2487-0.0925-0.3794-0.0925
				c-0.2575,0-0.4683,0.093-0.6283,0.2782c-0.16,0.1853-0.2398,0.4263-0.2397,0.7212c-0.0001,0.2991,0.079,0.5339,0.2384,0.7018
				c0.1586,0.1674,0.3536,0.2517,0.5823,0.2515c0.093,0,0.1766-0.0094,0.2511-0.0275c0.138-0.0322,0.2544-0.0945,0.3487-0.187
				c0.056-0.0531,0.1068-0.1215,0.1523-0.2046c0.0451-0.0833,0.072-0.1592,0.0803-0.2281c0.0004-0.0037-0.0007-0.0074-0.003-0.0099
				c-0.0025-0.0027-0.0061-0.0045-0.0096-0.0045h-0.3012c-0.0057,0-0.0107,0.004-0.0123,0.0094
				c-0.0216,0.0794-0.058,0.1488-0.1097,0.2086c-0.0921,0.1032-0.2144,0.1545-0.3703,0.1545
				c-0.1673-0.0003-0.2874-0.0543-0.3658-0.1627c-0.0774-0.1066-0.12-0.2485-0.1273-0.426h1.3123
				c0.0032,0,0.0064-0.0012,0.0088-0.0035c0.0025-0.0025,0.0037-0.0057,0.0037-0.0089c0-0.1843-0.0091-0.3184-0.0274-0.4042
				C25.604,20.5089,25.563,20.3998,25.501,20.3063z M24.3341,20.7802c0.0078-0.148,0.0567-0.2691,0.1462-0.3655
				c0.0925-0.0992,0.2052-0.148,0.3416-0.1483c0.1915,0.0008,0.3241,0.0714,0.4056,0.2145c0.042,0.0746,0.0702,0.1743,0.083,0.2993
				H24.3341z"/>
			<path fill="#776A57" d="M27.994,19.974c-0.1166,0-0.2218,0.0241-0.3156,0.0719c-0.0884,0.0456-0.1662,0.1138-0.2326,0.2044
				c-0.0388-0.0717-0.0818-0.127-0.1294-0.1662c-0.0913-0.0737-0.2114-0.1101-0.3585-0.1101c-0.1306,0-0.2477,0.0355-0.3508,0.1061
				c-0.0543,0.0377-0.1132,0.0945-0.1773,0.1709v-0.2234c0-0.0035-0.0014-0.0064-0.0038-0.0089
				c-0.0026-0.0025-0.0057-0.0037-0.0089-0.0037h-0.3029c-0.0032,0-0.0064,0.0012-0.0089,0.0037
				c-0.0023,0.0025-0.0037,0.0054-0.0037,0.0089v1.8218c0,0.0035,0.0014,0.0067,0.0037,0.0089
				c0.0025,0.0025,0.0057,0.0037,0.0089,0.0037h0.3062c0.0033,0,0.0069-0.0012,0.0091-0.0037
				c0.0023-0.0022,0.0038-0.0055,0.0038-0.0089v-0.9662c-0.0002-0.2331,0.0471-0.3918,0.1381-0.4774
				c0.0928-0.0878,0.1944-0.1307,0.3068-0.1307c0.1243,0.0003,0.2048,0.0404,0.2491,0.121
				c0.0278,0.0528,0.0427,0.1416,0.0427,0.2641v1.1891c0,0.0035,0.0015,0.0067,0.0037,0.0089
				c0.0025,0.0025,0.0057,0.0037,0.0091,0.0037h0.3113c0.0034,0,0.0063-0.0012,0.0087-0.0037
				c0.0025-0.0022,0.004-0.0055,0.004-0.0089v-1.0597c0-0.1865,0.043-0.3169,0.126-0.3938
				c0.0846-0.0786,0.1844-0.1173,0.3018-0.1176c0.0851,0.0003,0.1561,0.0221,0.2141,0.0655
				c0.0563,0.0419,0.0861,0.1205,0.0861,0.2401v1.2655c0,0.0035,0.0014,0.0067,0.0038,0.0089
				c0.0024,0.0025,0.0056,0.0037,0.0088,0.0037h0.3183c0.0032,0,0.0065-0.0012,0.0087-0.0037
				c0.0025-0.0022,0.0038-0.0055,0.0038-0.0089v-1.2127c0-0.1624-0.0239-0.2924-0.0728-0.3904
				C28.4147,20.0647,28.2415,19.9735,27.994,19.974z"/>
			<path fill="#776A57" d="M29.9432,19.9705c-0.1417,0-0.2661,0.0347-0.3717,0.1044c-0.065,0.0404-0.1259,0.096-0.1818,0.1657
				v-0.2044c0-0.0035-0.0012-0.0067-0.0035-0.0092c-0.0023-0.0022-0.0059-0.0037-0.0093-0.0037h-0.299
				c-0.0036,0-0.0068,0.0015-0.0091,0.0037c-0.0027,0.0025-0.0038,0.0057-0.0038,0.0092v2.5395
				c0,0.0032,0.0014,0.0067,0.0038,0.0089c0.0022,0.0025,0.0055,0.0037,0.0091,0.0037h0.3059c0.0036,0,0.0067-0.0012,0.0091-0.0037
				c0.0026-0.0022,0.0037-0.0055,0.0037-0.0089v-0.8955c0.059,0.0692,0.1131,0.1195,0.1631,0.151
				c0.0958,0.0615,0.2141,0.092,0.3536,0.092c0.1778,0,0.3349-0.0548,0.4691-0.1644c0.212-0.1734,0.3172-0.4615,0.3172-0.8603
				c0-0.2956-0.0728-0.5253-0.2201-0.6864C30.3333,20.0516,30.1534,19.9705,29.9432,19.9705z M30.3595,20.9275
				c0,0.2366-0.0474,0.4124-0.1397,0.5285c-0.0932,0.1173-0.2078,0.1746-0.3474,0.1748c-0.2081-0.0007-0.3468-0.0903-0.4254-0.2745
				c-0.0413-0.0967-0.062-0.2145-0.062-0.3541c0-0.1734,0.0209-0.3162,0.0622-0.4275c0.0779-0.2083,0.2166-0.3093,0.4252-0.31
				c0.2073,0.0007,0.3462,0.0962,0.4251,0.2931C30.3388,20.6602,30.3595,20.7834,30.3595,20.9275z"/>
			<path fill="#776A57" d="M32.0241,19.9827c-0.0334-0.0035-0.0564-0.0057-0.0701-0.0069c-0.014-0.001-0.0238-0.0015-0.03-0.0015
				c-0.1246-0.0003-0.2355,0.0451-0.3306,0.1351c-0.0707,0.067-0.1219,0.1265-0.1534,0.1791v-0.2609
				c0-0.0035-0.0017-0.0067-0.0038-0.0089c-0.0024-0.0025-0.0055-0.0037-0.0091-0.0037h-0.2909
				c-0.0032,0-0.0062,0.0012-0.0091,0.0037c-0.0021,0.0022-0.0035,0.0054-0.0035,0.0089v1.8218
				c0,0.0035,0.0014,0.0067,0.0035,0.0089c0.0028,0.0025,0.0058,0.0037,0.0091,0.0037h0.3063c0.0033,0,0.0064-0.0012,0.0088-0.0037
				c0.0025-0.0022,0.0038-0.0055,0.0038-0.0089v-1.0478c0.0002-0.1265,0.0402-0.2376,0.1213-0.3345
				c0.0804-0.0962,0.1939-0.1443,0.3458-0.1446c0.0177,0,0.0342,0.0007,0.049,0.0017c0.0151,0.0012,0.0311,0.0035,0.049,0.0067
				c0.0038,0.0007,0.0072-0.0003,0.0103-0.0027c0.0029-0.0025,0.0048-0.0062,0.0048-0.0094v-0.3234
				C32.0354,19.9889,32.0304,19.9834,32.0241,19.9827z"/>
			<path fill="#776A57" d="M33.7865,20.3063c-0.0646-0.0982-0.1583-0.1785-0.2807-0.2398
				c-0.1223-0.0615-0.2484-0.0925-0.3791-0.0925c-0.2578,0-0.4685,0.093-0.6283,0.2782c-0.1603,0.1853-0.2401,0.4263-0.2398,0.7212
				c-0.0002,0.2991,0.079,0.5339,0.2383,0.7018c0.1588,0.1674,0.3539,0.2517,0.5823,0.2515c0.0931,0,0.177-0.0094,0.2513-0.0275
				c0.1379-0.0322,0.2547-0.0945,0.3485-0.187c0.0559-0.0531,0.1065-0.1215,0.1519-0.2046
				c0.0455-0.0833,0.0725-0.1592,0.0807-0.2281c0.0002-0.0037-0.0007-0.0074-0.0032-0.0099
				c-0.0022-0.0027-0.0057-0.0045-0.0094-0.0045h-0.3009c-0.0057,0-0.0108,0.004-0.0123,0.0094
				c-0.0217,0.0794-0.058,0.1488-0.1097,0.2086c-0.0923,0.1032-0.2143,0.1545-0.3704,0.1545
				c-0.1673-0.0003-0.2873-0.0543-0.3659-0.1627c-0.0774-0.1066-0.12-0.2485-0.1271-0.426h1.3121
				c0.0028,0,0.0063-0.0012,0.0087-0.0035c0.0025-0.0025,0.0036-0.0057,0.0036-0.0089c0-0.1843-0.0089-0.3184-0.0271-0.4042
				C33.8895,20.5089,33.8485,20.3998,33.7865,20.3063z M32.6196,20.7802c0.0078-0.148,0.0565-0.2691,0.1463-0.3655
				c0.0923-0.0992,0.2051-0.148,0.3414-0.1483c0.1917,0.0008,0.3243,0.0714,0.4055,0.2145
				c0.0424,0.0746,0.0703,0.1743,0.0833,0.2993H32.6196z"/>
			<path fill="#776A57" d="M35.638,20.9424c-0.0791-0.0516-0.23-0.1029-0.4547-0.1567l-0.2062-0.0491
				c-0.0892-0.0213-0.1565-0.0461-0.2009-0.0732c-0.0774-0.0466-0.1138-0.1044-0.1139-0.1791
				c0.0001-0.0687,0.028-0.1222,0.0861-0.1644c0.0577-0.0417,0.1448-0.0637,0.2618-0.0635
				c0.1762-0.0002,0.2969,0.0397,0.3648,0.1156c0.0422,0.0541,0.0662,0.1141,0.072,0.1805
				c0.0006,0.0064,0.0058,0.0117,0.0126,0.0117h0.2892c0.0066,0,0.0124-0.0057,0.0124-0.0124c0-0.0037,0.0001-0.0069,0.0001-0.0104
				c0-0.1171-0.0386-0.2267-0.1148-0.3276c-0.1261-0.1652-0.3316-0.2468-0.6117-0.2468c-0.2145,0-0.3874,0.0541-0.5158,0.1632
				c-0.1285,0.1086-0.1934,0.2527-0.1934,0.428c-0.0002,0.1503,0.0701,0.2703,0.2067,0.3544
				c0.0768,0.0489,0.1943,0.0917,0.3529,0.1307l0.2471,0.0613c0.1319,0.0327,0.2205,0.062,0.263,0.0858
				c0.0671,0.0392,0.0987,0.093,0.0988,0.1674c-0.0001,0.0994-0.0408,0.1699-0.1251,0.2177
				c-0.0858,0.0481-0.1856,0.0724-0.2994,0.0724c-0.1924,0-0.3246-0.0489-0.3998-0.1433c-0.0408-0.0516-0.0663-0.1275-0.0755-0.2279
				c-0.0006-0.0067-0.0063-0.0114-0.0127-0.0114h-0.2944c-0.0035,0-0.0066,0.0012-0.0091,0.0037
				c-0.0025,0.0025-0.0037,0.006-0.0037,0.0094c0.0084,0.184,0.0708,0.3395,0.187,0.4647c0.1182,0.127,0.3161,0.1885,0.5922,0.1887
				c0.2568,0,0.4501-0.0595,0.578-0.1805c0.1265-0.1198,0.1913-0.2639,0.191-0.4293C35.8229,21.1515,35.7611,21.0227,35.638,20.9424
				z"/>
			<path fill="#776A57" d="M37.8644,21.6192c-0.0191,0.0032-0.0367,0.006-0.0536,0.0074c-0.0166,0.0017-0.0314,0.0025-0.0445,0.0025
				c-0.0403,0-0.0631-0.0097-0.0719-0.0231c-0.0114-0.0166-0.0176-0.0394-0.0176-0.0697v-1.0493
				c0.0005-0.1758-0.0687-0.3085-0.2047-0.3918c-0.1364-0.0836-0.3125-0.1247-0.5285-0.1247c-0.1861,0-0.3512,0.0446-0.4933,0.1342
				c-0.1443,0.091-0.2186,0.253-0.2241,0.4806c-0.0003,0.0032,0.0011,0.0064,0.0035,0.0092
				c0.0022,0.0022,0.0058,0.0037,0.0091,0.0037h0.2858c0.0062,0,0.012-0.0047,0.0126-0.0112
				c0.0112-0.0932,0.035-0.1624,0.0702-0.2073c0.0636-0.0826,0.1722-0.125,0.3298-0.1252c0.1365,0,0.2403,0.0238,0.3112,0.0689
				c0.0699,0.0449,0.105,0.1153,0.1053,0.2172c0,0.0503-0.0066,0.0878-0.0191,0.1121c-0.0217,0.0456-0.0636,0.0724-0.1312,0.0816
				l-0.4882,0.061c-0.1732,0.0218-0.3143,0.0801-0.422,0.1748c-0.1084,0.0952-0.1627,0.2306-0.1627,0.402
				c0,0.157,0.0553,0.2892,0.1647,0.3938c0.1096,0.1047,0.2512,0.1572,0.4225,0.1572c0.0002,0,0.0005,0,0.0007,0
				c0.1425,0,0.2732-0.0305,0.3918-0.0915c0.1071-0.0551,0.1923-0.1195,0.2552-0.1937c0.0104,0.0603,0.027,0.1086,0.0499,0.1448
				c0.0497,0.0789,0.1322,0.1185,0.2403,0.1183c0.0434,0,0.078-0.0017,0.1038-0.0052c0.0259-0.0037,0.0626-0.0122,0.1107-0.0258
				c0.0052-0.0015,0.0091-0.0067,0.0091-0.0122v-0.2264c0-0.0037-0.0017-0.0072-0.0046-0.0097
				C37.8719,21.6194,37.8682,21.6184,37.8644,21.6192z M37.3454,20.9456v0.2242c-0.0006,0.184-0.0816,0.313-0.2481,0.3943
				c-0.0997,0.0491-0.2017,0.0734-0.3071,0.0734c-0.0863,0-0.16-0.0243-0.2221-0.0734c-0.0616-0.0489-0.0921-0.1136-0.0924-0.1989
				c0.0006-0.1131,0.045-0.1919,0.136-0.2435c0.0532-0.0303,0.1355-0.0536,0.2453-0.068l0.1853-0.0238
				c0.0569-0.0069,0.1154-0.0183,0.1747-0.0345C37.2671,20.9818,37.3099,20.9652,37.3454,20.9456z"/>
			<path fill="#776A57" d="M40.9441,21.6192c-0.0192,0.0032-0.0367,0.006-0.0536,0.0074c-0.0167,0.0017-0.0317,0.0025-0.0448,0.0025
				c-0.0405,0-0.063-0.0097-0.0718-0.0231c-0.0112-0.0166-0.0176-0.0394-0.0179-0.0697l0.0003-1.0493
				c0.0004-0.1758-0.0683-0.3085-0.2046-0.3918c-0.1364-0.0836-0.3126-0.1247-0.5282-0.1247c-0.1869,0-0.3513,0.0446-0.4936,0.1342
				c-0.1443,0.091-0.2187,0.253-0.2242,0.4806c0,0.0032,0.0014,0.0064,0.0035,0.0092c0.0025,0.0022,0.0056,0.0037,0.0091,0.0037
				h0.2859c0.0063,0,0.0118-0.0047,0.0123-0.0112c0.0115-0.0932,0.0353-0.1624,0.0707-0.2073
				c0.0635-0.0826,0.172-0.125,0.3296-0.1252c0.1364,0,0.2405,0.0238,0.3114,0.0689c0.0702,0.0449,0.1049,0.1153,0.1051,0.2172
				c0,0.0503-0.0066,0.0878-0.0191,0.1121c-0.0217,0.0456-0.0634,0.0724-0.1309,0.0816l-0.4884,0.061
				c-0.1731,0.0218-0.3142,0.0801-0.4218,0.1748c-0.1085,0.0952-0.1627,0.2306-0.1624,0.402
				c-0.0003,0.157,0.0549,0.2892,0.1644,0.3938c0.1095,0.1047,0.2512,0.1572,0.4222,0.1572c0.0005,0,0.0005,0,0.0008,0
				c0.1426,0,0.2735-0.0305,0.3921-0.0915c0.1074-0.0553,0.1922-0.1195,0.2548-0.1937c0.0107,0.0603,0.0273,0.1086,0.0501,0.1448
				c0.0501,0.0789,0.1321,0.1185,0.2403,0.1183c0.0434,0,0.0779-0.0017,0.1038-0.0052c0.0263-0.0037,0.0629-0.0122,0.1109-0.0258
				c0.0053-0.0015,0.0092-0.0067,0.0092-0.0122v-0.2264c0-0.0037-0.0019-0.0072-0.0046-0.0097
				C40.9515,21.6194,40.9478,21.6184,40.9441,21.6192z M40.4248,20.9456v0.2242c-0.0003,0.184-0.0812,0.313-0.248,0.3943
				c-0.0994,0.0491-0.2016,0.0734-0.3073,0.0734c-0.086,0-0.1593-0.0243-0.2218-0.0734c-0.0616-0.0489-0.0919-0.1136-0.0921-0.1989
				c0.0002-0.1131,0.0446-0.1919,0.1354-0.2435c0.0536-0.0303,0.1358-0.0536,0.2458-0.068l0.185-0.0238
				c0.057-0.0069,0.1154-0.0183,0.1748-0.0345C40.3468,20.9818,40.3896,20.9652,40.4248,20.9456z M40.2848,20.7467L40.2848,20.7467
				L40.2848,20.7467L40.2848,20.7467z"/>
			<path fill="#776A57" d="M44.2673,19.974c-0.1162,0-0.2217,0.0241-0.3152,0.0719c-0.0886,0.0456-0.1661,0.1138-0.2326,0.2044
				c-0.0391-0.0717-0.082-0.1272-0.1297-0.1662c-0.0911-0.0737-0.2113-0.1101-0.3583-0.1101c-0.1303,0-0.248,0.0355-0.3508,0.1061
				c-0.0544,0.0377-0.1133,0.0945-0.1774,0.1709v-0.2234c0-0.0035-0.0015-0.0067-0.004-0.0089
				c-0.0021-0.0025-0.0055-0.0037-0.0087-0.0037h-0.3029c-0.0035,0-0.0066,0.0012-0.0091,0.0037
				c-0.0022,0.0022-0.0035,0.0054-0.0035,0.0089v1.8218c0,0.0035,0.0012,0.0067,0.0035,0.0089
				c0.0025,0.0025,0.0056,0.0037,0.0091,0.0037h0.3061c0.0034,0,0.0065-0.0012,0.0092-0.0037
				c0.0023-0.0022,0.0036-0.0055,0.0036-0.0089v-0.9662c-0.0003-0.2331,0.0475-0.3918,0.138-0.4774
				c0.0929-0.0878,0.1945-0.1307,0.3068-0.1307c0.1246,0.0003,0.2051,0.0404,0.2491,0.121c0.0279,0.0531,0.043,0.1416,0.043,0.2641
				l-0.0003,1.1891c0,0.0035,0.0015,0.0067,0.0036,0.0092c0.0023,0.0022,0.0058,0.0035,0.0092,0.0035h0.3114
				c0.0033,0,0.0064-0.0012,0.0088-0.0037c0.0025-0.0022,0.0038-0.0055,0.0038-0.0089v-1.0597c0-0.1865,0.0429-0.3169,0.1259-0.3938
				c0.0849-0.0786,0.1848-0.1173,0.3019-0.1176c0.0851,0.0003,0.1561,0.0221,0.2144,0.0655c0.0559,0.0419,0.086,0.1205,0.086,0.2401
				v1.2655c0,0.0035,0.0014,0.0067,0.0036,0.0089c0.0024,0.0025,0.0056,0.0037,0.0091,0.0037h0.3179
				c0.0036,0,0.0068-0.0012,0.0091-0.0037c0.0022-0.0022,0.0037-0.0055,0.0037-0.0089v-1.2127c0-0.1624-0.024-0.2924-0.0729-0.3904
				C44.6883,20.0647,44.5148,19.9735,44.2673,19.974z"/>
			<path fill="#776A57" d="M45.6881,20.0233H45.377c-0.0036,0-0.0067,0.0012-0.0092,0.0037
				c-0.0021,0.0022-0.0035,0.0057-0.0035,0.0092v1.8131c0,0.0035,0.0014,0.0067,0.0035,0.0089
				c0.0025,0.0025,0.0056,0.0037,0.0092,0.0037h0.3111c0.0033,0,0.0066-0.0012,0.0089-0.0037
				c0.0024-0.0022,0.0036-0.0055,0.0036-0.0089v-1.8131c0-0.0035-0.0012-0.0067-0.0036-0.0092
				C45.6946,20.0248,45.6914,20.0233,45.6881,20.0233z"/>
			<path fill="#776A57" d="M45.377,19.7101h0.3111c0.0033,0,0.0066-0.0012,0.0089-0.0037c0.0024-0.0022,0.0036-0.0055,0.0036-0.0089
				v-0.3469c0-0.0032-0.0012-0.0064-0.0034-0.0089c-0.0026-0.0022-0.0058-0.004-0.0092-0.004H45.377
				c-0.0036,0-0.0067,0.0017-0.0092,0.004c-0.0021,0.0025-0.0035,0.0055-0.0035,0.0089v0.3469c0,0.0035,0.0014,0.0067,0.0035,0.0089
				C45.3703,19.7089,45.3734,19.7101,45.377,19.7101z"/>
			<path fill="#776A57" d="M49.1724,19.974c-0.1161,0-0.2215,0.0238-0.3151,0.0719c-0.0887,0.0456-0.1662,0.1136-0.2326,0.2044
				c-0.0389-0.0717-0.0822-0.127-0.1297-0.1662c-0.0914-0.0739-0.2114-0.1101-0.3585-0.1101c-0.1306,0-0.2477,0.0355-0.3508,0.1061
				c-0.0541,0.0377-0.1132,0.0945-0.1776,0.1709v-0.2234c0-0.0035-0.0014-0.0064-0.0033-0.0089
				c-0.0025-0.0025-0.006-0.0037-0.0093-0.0037H47.293c-0.0034,0-0.0068,0.0012-0.0092,0.0037
				c-0.0021,0.0022-0.0037,0.0054-0.0037,0.0089v1.8218c0,0.0035,0.0016,0.0067,0.0037,0.0089
				c0.0024,0.0025,0.0058,0.0037,0.0092,0.0037h0.3059c0.0035,0,0.0066-0.0012,0.0093-0.0037
				c0.0021-0.0022,0.0035-0.0055,0.0035-0.0089v-0.9662c-0.0002-0.2334,0.0475-0.3918,0.1378-0.4774
				c0.0935-0.0878,0.1948-0.1307,0.3071-0.1307c0.1241,0.0003,0.2053,0.0404,0.2492,0.121
				c0.0279,0.0531,0.0425,0.1416,0.0425,0.2641v1.1891c0,0.0035,0.0012,0.0067,0.0037,0.0089
				c0.0026,0.0025,0.0057,0.0037,0.0091,0.0037h0.3113c0.0035,0,0.0066-0.0012,0.0089-0.0037
				c0.0024-0.0022,0.0036-0.0055,0.0036-0.0089v-1.0597c0-0.1865,0.0433-0.3169,0.1261-0.3938
				c0.0848-0.0786,0.1843-0.1173,0.3021-0.1176c0.0849,0,0.1557,0.0221,0.2143,0.0655c0.0559,0.0419,0.0857,0.1205,0.0857,0.2401
				v1.2655c0,0.0035,0.0016,0.0067,0.004,0.0089c0.0021,0.0025,0.0055,0.0037,0.0086,0.0037h0.3183
				c0.0033,0,0.0065-0.0012,0.0089-0.0037c0.0025-0.0022,0.0038-0.0055,0.0038-0.0089v-1.2127
				c-0.0003-0.1624-0.0241-0.2924-0.0729-0.3904C49.5935,20.0647,49.4204,19.9735,49.1724,19.974z"/>
			<path fill="#776A57" d="M51.6932,20.3063c-0.0645-0.0985-0.1582-0.1785-0.2801-0.2398
				c-0.1226-0.0615-0.2491-0.0925-0.3797-0.0925c-0.2574,0-0.4685,0.093-0.6284,0.2782c-0.1599,0.1853-0.2398,0.4263-0.2398,0.7212
				c0,0.2991,0.0794,0.5339,0.2387,0.7018c0.1586,0.1674,0.3538,0.2517,0.582,0.2515c0.0934,0,0.1769-0.0094,0.2515-0.0275
				c0.1379-0.032,0.2547-0.0945,0.3484-0.187c0.056-0.0531,0.1068-0.1215,0.1524-0.2046c0.0451-0.0833,0.0722-0.1592,0.0802-0.2281
				c0.0005-0.0037-0.0009-0.0074-0.003-0.0099c-0.0022-0.0027-0.0058-0.0045-0.0097-0.0045h-0.3007
				c-0.0061,0-0.011,0.004-0.0123,0.0094c-0.0217,0.0794-0.0582,0.1488-0.1101,0.2086c-0.092,0.1032-0.2143,0.1545-0.37,0.1545
				c-0.1673-0.0003-0.2874-0.0543-0.3659-0.1627c-0.0773-0.1066-0.1202-0.2485-0.1273-0.426h1.3121
				c0.0031,0,0.0066-0.0012,0.0087-0.0035c0.0024-0.0025,0.0039-0.0057,0.0039-0.0089c0-0.1843-0.0088-0.3184-0.0273-0.4042
				C51.7963,20.5089,51.7552,20.3998,51.6932,20.3063z M51.0142,20.2664c0.1915,0.0008,0.3243,0.0714,0.4056,0.2148
				c0.0423,0.0744,0.0699,0.1741,0.0832,0.2991h-0.9766c0.0079-0.148,0.0567-0.2691,0.1463-0.3655
				C50.7651,20.3155,50.8779,20.2666,51.0142,20.2664z"/>
			<path fill="#776A57" d="M53.7862,19.3292h-0.294c-0.0034,0-0.0067,0.0015-0.0088,0.004c-0.0026,0.0022-0.004,0.0055-0.004,0.0089
				v0.8851c-0.0604-0.0714-0.1153-0.1228-0.1652-0.1543c-0.0965-0.0605-0.2151-0.0903-0.3559-0.0903
				c-0.2538-0.0005-0.4525,0.0992-0.589,0.2971c-0.1368,0.1967-0.2047,0.4295-0.2047,0.6969c0,0.2857,0.0747,0.5166,0.2249,0.6897
				c0.1498,0.1729,0.3288,0.2604,0.535,0.2604c0.1269,0,0.2403-0.0253,0.3395-0.0764c0.089-0.0454,0.167-0.1168,0.2341-0.2128
				v0.2118c0,0.0035,0.0011,0.0067,0.0036,0.0089c0.0025,0.0025,0.0055,0.0037,0.0088,0.0037h0.2755
				c0.0036,0,0.0068-0.0012,0.0092-0.0037c0.0021-0.0022,0.0038-0.0055,0.0038-0.0089v-2.5072c0-0.0035-0.0017-0.0067-0.0038-0.0089
				C53.793,19.3307,53.7895,19.3292,53.7862,19.3292z M52.5128,20.9598c0-0.2274,0.0476-0.3978,0.1402-0.5126
				c0.0934-0.1151,0.2131-0.1719,0.3634-0.1721c0.1343,0.0003,0.2453,0.0531,0.3374,0.1612
				c0.0905,0.1071,0.1373,0.2743,0.137,0.5029c0.0003,0.2264-0.0449,0.3985-0.1335,0.5171
				c-0.0892,0.1195-0.2001,0.1778-0.3373,0.1781c-0.1789-0.0005-0.3054-0.0637-0.3855-0.1914
				C52.5536,21.3139,52.5128,21.1532,52.5128,20.9598z"/>
			<path fill="#776A57" d="M54.6424,20.0233h-0.3112c-0.0033,0-0.0068,0.0015-0.009,0.0037
				c-0.0022,0.0022-0.0037,0.0057-0.0037,0.0092v1.8131c0,0.0035,0.0015,0.0067,0.0037,0.0089
				c0.0022,0.0025,0.0057,0.0037,0.009,0.0037h0.3112c0.0031,0,0.0068-0.0012,0.0089-0.0037
				c0.0025-0.0022,0.0036-0.0055,0.0036-0.0089v-1.8131c0-0.0035-0.0011-0.0067-0.0036-0.0092
				C54.6492,20.0248,54.6455,20.0233,54.6424,20.0233z"/>
			<path fill="#776A57" d="M54.3311,19.7101h0.3112c0.0033,0,0.0066-0.0012,0.0089-0.0035
				c0.0025-0.0025,0.0036-0.0057,0.0036-0.0092v-0.3469c0-0.0032-0.0011-0.0064-0.0036-0.0089
				c-0.0021-0.0022-0.0058-0.0037-0.0089-0.0037h-0.3112c-0.0033,0-0.0068,0.0015-0.009,0.0037
				c-0.0022,0.0025-0.0036,0.0057-0.0036,0.0089v0.3469c0,0.0035,0.0014,0.0067,0.0036,0.0092
				C54.3243,19.7089,54.3278,19.7101,54.3311,19.7101z"/>
			<path fill="#776A57" d="M56.6722,19.3292h-0.2945c-0.0032,0-0.0066,0.0012-0.0091,0.004
				c-0.0022,0.0022-0.0035,0.0055-0.0035,0.0089v0.8851c-0.0608-0.0714-0.1153-0.1228-0.1657-0.1543
				c-0.096-0.0605-0.2145-0.0903-0.3555-0.0903c-0.2541-0.0005-0.4522,0.0992-0.5891,0.2971
				c-0.1364,0.1967-0.2049,0.4295-0.2046,0.6969c-0.0003,0.2857,0.0745,0.5163,0.2248,0.6897
				c0.1495,0.1729,0.3291,0.2604,0.5347,0.2604c0.1272,0,0.2409-0.0253,0.3399-0.0761c0.0891-0.0456,0.1673-0.1168,0.234-0.2128
				v0.2115c0,0.0035,0.0014,0.0067,0.004,0.0089c0.0021,0.0025,0.0052,0.0037,0.0089,0.0037h0.2756
				c0.0034,0,0.0062-0.0012,0.0088-0.0037c0.0024-0.0022,0.0036-0.0055,0.0036-0.0089v-2.5072c0-0.0035-0.0012-0.0067-0.0036-0.0089
				C56.6784,19.3307,56.6755,19.3292,56.6722,19.3292z M55.3986,20.9598c0-0.2274,0.0472-0.3978,0.1405-0.5126
				c0.093-0.1151,0.2129-0.1719,0.3628-0.1721c0.1345,0.0003,0.2456,0.0531,0.3377,0.1612
				c0.0905,0.1071,0.1374,0.2743,0.1374,0.5029c0,0.2264-0.0454,0.3985-0.1335,0.5173c-0.0895,0.1193-0.2004,0.1776-0.3378,0.1778
				c-0.1787-0.0005-0.305-0.064-0.3855-0.1914C55.4394,21.3139,55.3986,21.1532,55.3986,20.9598z"/>
			<path fill="#776A57" d="M58.863,21.6219c-0.003-0.0025-0.0067-0.0035-0.0105-0.0027c-0.0191,0.0032-0.0367,0.006-0.0533,0.0074
				c-0.017,0.0017-0.0317,0.0025-0.0446,0.0025c-0.0408,0.0002-0.0635-0.0097-0.072-0.0233
				c-0.0113-0.0164-0.0176-0.0392-0.0176-0.0692v-1.0495c0.0005-0.1758-0.0685-0.3085-0.2045-0.3918
				c-0.1365-0.0836-0.3127-0.1247-0.5283-0.1247c-0.187,0-0.3513,0.0446-0.4936,0.1342c-0.1441,0.091-0.2186,0.253-0.2242,0.4806
				c0,0.0032,0.0012,0.0064,0.0039,0.0092c0.0022,0.0025,0.0054,0.0037,0.0088,0.0037h0.2858c0.0063,0,0.0119-0.0047,0.0125-0.0112
				c0.0112-0.0932,0.035-0.1624,0.0706-0.2073c0.0634-0.0826,0.1719-0.125,0.3295-0.1252c0.1368,0,0.2404,0.0236,0.3112,0.0689
				c0.0704,0.0451,0.1051,0.1153,0.1055,0.2172c0,0.0503-0.0071,0.0878-0.0191,0.1121c-0.0221,0.0456-0.0636,0.0724-0.1313,0.0816
				l0,0l-0.4882,0.061c-0.1732,0.0218-0.3144,0.0801-0.422,0.1748c-0.1083,0.0952-0.1627,0.2306-0.1624,0.402
				c-0.0003,0.157,0.0552,0.2892,0.1647,0.3938c0.1094,0.1047,0.251,0.1572,0.422,0.1572c0.0006,0,0.0009,0,0.0009,0
				c0.1425,0,0.2734-0.0305,0.3921-0.0915c0.1074-0.0553,0.1926-0.1195,0.2548-0.1937c0.0107,0.0603,0.027,0.1086,0.0501,0.1448
				c0.0498,0.0789,0.132,0.1185,0.2403,0.1183c0.0435,0,0.0781-0.0017,0.1039-0.0052c0.0262-0.0037,0.0628-0.0122,0.1105-0.0258
				c0.0053-0.0015,0.0092-0.0067,0.0092-0.0122v-0.2264C58.8673,21.6278,58.8659,21.6244,58.863,21.6219z M58.3335,20.9456v0.2242
				c-0.0006,0.184-0.0816,0.313-0.2479,0.3943c-0.0996,0.0491-0.2019,0.0734-0.3076,0.0734c-0.0859,0-0.1592-0.0243-0.2217-0.0734
				c-0.0617-0.0489-0.0919-0.1136-0.0923-0.1989c0.0007-0.1131,0.0449-0.1919,0.1356-0.2435
				c0.0533-0.0305,0.1355-0.0536,0.2458-0.068l0.1849-0.0238c0.057-0.0069,0.1154-0.0183,0.1748-0.0345
				C58.2554,20.9818,58.2982,20.9652,58.3335,20.9456z"/>
		</g>
		<g>
			<path fill="#776A57" d="M3.7696,13.6715c-0.4615-0.4084-1.1431-0.6019-1.7052-0.8476c-0.5643-0.2475-0.9962-0.5357-0.9963-1.1263
				c0.0021-0.7197,0.5354-1.1932,1.5575-1.1967c0.3965,0,0.8345,0.0697,1.2115,0.1887c0.0104,0.0032,0.0217,0.0016,0.0308-0.0045
				c0.0089-0.0062,0.0146-0.0161,0.0154-0.027l0.04-0.6011c0.0012-0.0181-0.0113-0.0342-0.0291-0.0373
				C3.5023,9.9493,3.1092,9.8988,2.6756,9.8988c-0.7276,0-1.3097,0.1972-1.7108,0.5303c-0.4011,0.3332-0.6192,0.803-0.619,1.3385
				c-0.0005,0.5351,0.2061,0.9046,0.513,1.1752c0.46,0.4057,1.1395,0.5982,1.6997,0.8476c0.5621,0.2512,0.9928,0.5466,0.9932,1.1529
				c-0.0006,0.4816-0.1892,0.8055-0.4894,1.0153c-0.3006,0.2096-0.7169,0.3018-1.1682,0.3018c-0.4654,0-0.9735-0.1094-1.3708-0.2485
				c-0.0105-0.0037-0.0221-0.0022-0.0314,0.0037c-0.0093,0.0062-0.0151,0.0164-0.0159,0.0275l-0.04,0.6411
				c-0.001,0.0166,0.0095,0.0315,0.0254,0.0362c0.3752,0.1116,0.8588,0.1719,1.3725,0.1721v-0.0002
				c0.7528,0.0002,1.3651-0.2071,1.79-0.5667c0.4251-0.3598,0.6603-0.8722,0.66-1.4723
				C4.2846,14.3158,4.0774,13.9438,3.7696,13.6715z"/>
			<path fill="#776A57" d="M7.3934,11.682c-0.6861-0.0004-1.2366,0.2809-1.612,0.7497c-0.3757,0.4687-0.5776,1.1229-0.5777,1.8706
				c0,0.8816,0.199,1.5299,0.5905,1.9587c0.3913,0.4285,0.9713,0.6314,1.7177,0.6314c0.0005,0,0.0011,0,0.0016,0
				c0.6253,0,1.1709-0.1109,1.6261-0.2931c0.0149-0.0057,0.0238-0.0208,0.0221-0.0367l-0.06-0.561
				c-0.0012-0.0117-0.0081-0.0218-0.0182-0.0273c-0.0103-0.0057-0.0226-0.006-0.033-0.0007
				c-0.3543,0.1776-0.9122,0.3172-1.4268,0.3169c-0.5491-0.0002-0.9657-0.1483-1.2479-0.4719
				C6.0933,15.495,5.942,14.9888,5.942,14.2637c0-0.0573,0.001-0.1161,0.0029-0.1763h3.342c0.0176,0,0.0326-0.0129,0.0351-0.0305
				c0.0205-0.1428,0.0205-0.2654,0.0205-0.3355c-0.0001-0.5421-0.1417-1.0515-0.4579-1.4267
				C8.5683,11.919,8.0775,11.6816,7.3934,11.682z M7.3533,12.2339c0.7779,0.0025,1.2448,0.519,1.2474,1.2801
				c0,0.0037,0,0.0077,0,0.0114H5.9933C6.1432,12.7294,6.6433,12.2351,7.3533,12.2339z"/>
			<path fill="#776A57" d="M14.8296,11.7622h-1.69c-0.2594-0.05-0.4624-0.0802-0.7245-0.0802c-0.6739,0-1.2194,0.2208-1.596,0.5757
				c-0.3767,0.3549-0.5836,0.8432-0.5834,1.3734c-0.0009,0.6356,0.228,1.1477,0.7038,1.459
				c-0.3245,0.1696-0.5041,0.4595-0.5034,0.7851c-0.0006,0.314,0.1763,0.5654,0.4604,0.7222
				c-0.4625,0.2606-0.8413,0.7214-0.8412,1.3518c-0.0006,0.4811,0.2096,0.8603,0.5777,1.1135
				c0.3679,0.2537,0.8907,0.3844,1.5216,0.3846c0.7525-0.0003,1.4056-0.1942,1.8726-0.5225
				c0.467-0.3278,0.7479-0.7923,0.7477-1.3263c0.0004-0.4337-0.1516-0.7918-0.4434-1.0378
				c-0.2914-0.2463-0.7186-0.3804-1.2651-0.3804h-1.0219c-0.3079,0.0003-0.5343-0.0352-0.6783-0.1054
				c-0.1438-0.0712-0.2066-0.1667-0.2079-0.3097c0.0006-0.1719,0.1042-0.3358,0.3579-0.4437
				c0.1941,0.0496,0.4795,0.0883,0.7287,0.0885c0.7279,0,1.2788-0.2103,1.6472-0.557c0.3686-0.3467,0.5524-0.8283,0.5523-1.362
				c0-0.4871-0.1722-0.9-0.4574-1.1569h0.8427c0.0094,0,0.0183-0.0035,0.0252-0.0104c0.0066-0.0064,0.0104-0.0156,0.0104-0.0251
				v-0.5008c0-0.0094-0.0038-0.0186-0.0104-0.0252C14.8481,11.7661,14.8389,11.7622,14.8296,11.7622z M12.3751,12.244
				c0.4344,0.0003,0.7721,0.123,1.0021,0.3467c0.2296,0.2239,0.3546,0.5513,0.3549,0.9701
				c-0.0002,0.4184-0.1369,0.7373-0.3777,0.9543c-0.2409,0.2168-0.5897,0.3328-1.0194,0.3328c-0.445,0-0.7911-0.1138-1.0255-0.3288
				c-0.2342-0.2153-0.3614-0.5342-0.3617-0.9583C10.9503,12.7971,11.4687,12.2465,12.3751,12.244z M10.7577,17.8388
				c-0.0004-0.4203,0.2951-0.7891,0.7445-1.0264h1.3939c0.396,0,0.6888,0.0821,0.88,0.2294
				c0.191,0.1473,0.2862,0.3593,0.2867,0.6368c-0.0005,0.344-0.1628,0.6314-0.469,0.8382
				c-0.3061,0.2063-0.7577,0.3286-1.3289,0.3283c-0.431,0.0002-0.8107-0.087-1.0793-0.2562
				C10.917,18.4191,10.7582,18.1725,10.7577,17.8388z"/>
			<path fill="#776A57" d="M19.8716,11.7622h-0.6311c-0.0094,0-0.0186,0.0037-0.0252,0.0104
				c-0.0066,0.0066-0.0104,0.0157-0.0104,0.0251v2.3844c0.0001,0.62-0.1638,1.1561-0.4414,1.5356
				c-0.278,0.3794-0.6671,0.6026-1.1259,0.6029c-0.3892-0.0008-0.6263-0.1185-0.7734-0.3338
				c-0.1474-0.216-0.2032-0.5401-0.203-0.953v-3.236c0-0.0093-0.0038-0.0185-0.0104-0.0251
				c-0.0066-0.0067-0.0158-0.0104-0.0251-0.0104h-0.6313c-0.0094,0-0.0185,0.0037-0.0252,0.0104
				c-0.0066,0.0066-0.0103,0.0157-0.0103,0.0251v3.4664c0,0.4501,0.088,0.859,0.3271,1.1581
				c0.2391,0.2991,0.6283,0.4809,1.2111,0.4804c0.0009,0,0.0017,0,0.0026,0c0.8186,0,1.4379-0.4213,1.7544-1.0857
				c-0.0397,0.3021-0.0593,0.6827-0.0593,0.96c0,0.0094,0.0037,0.0186,0.0103,0.0251c0.0067,0.0067,0.0158,0.0104,0.0252,0.0104
				h0.6412c0.0093,0,0.0185-0.0037,0.0252-0.0104c0.0066-0.0064,0.0104-0.0156,0.0104-0.0251v-4.9791
				c0-0.0093-0.0038-0.0185-0.0104-0.0251C19.8901,11.766,19.8809,11.7622,19.8716,11.7622z"/>
			<path fill="#776A57" d="M23.8849,11.6824c-0.0825-0.0099-0.1619-0.0146-0.2383-0.0146c-0.8037-0.0001-1.2651,0.5242-1.4965,1.103
				c0.0502-0.3497,0.073-0.7066,0.073-0.9731c0-0.0093-0.0038-0.0185-0.0104-0.0251c-0.0066-0.0067-0.0157-0.0104-0.0252-0.0104
				h-0.6411c-0.0093,0-0.0185,0.0037-0.0252,0.0104c-0.0066,0.0066-0.0103,0.0157-0.0103,0.0251v4.9791
				c0,0.0094,0.0037,0.0184,0.0103,0.0251c0.0068,0.0067,0.0157,0.0104,0.0252,0.0104h0.6311c0.0094,0,0.0185-0.0037,0.0251-0.0104
				c0.0068-0.0067,0.0105-0.0156,0.0105-0.0251v-1.9837c-0.0003-0.7909,0.1137-1.4076,0.3412-1.8223
				c0.2284-0.4141,0.5631-0.6282,1.0252-0.6292c0.0842,0,0.1726,0.0072,0.2655,0.0221c0.0099,0.0015,0.0201-0.0012,0.0279-0.0074
				c0.0079-0.0065,0.0126-0.0159,0.0131-0.0258l0.03-0.6112C23.917,11.7007,23.9033,11.6845,23.8849,11.6824z"/>
			<path fill="#776A57" d="M26.5512,11.6821c-0.756-0.0005-1.3511,0.3028-1.7542,0.7828c-0.4032,0.4796-0.6156,1.1341-0.6156,1.8374
				c0,0.8769,0.2117,1.5252,0.5951,1.9547c0.3834,0.4295,0.9363,0.6359,1.6044,0.6354v0.0002c0.0004,0,0.0007,0,0.0011,0
				c0.7405,0,1.3377-0.3035,1.7467-0.7906c0.4094-0.4871,0.6319-1.1564,0.6319-1.89c0.0003-0.9327-0.2549-1.5673-0.6616-1.9676
				C27.6922,11.8443,27.1383,11.6819,26.5512,11.6821z M28.0384,14.2421c-0.003,1.4508-0.7462,2.0561-1.5475,2.0584
				c-0.5073-0.0005-0.8974-0.1855-1.1652-0.5322c-0.2677-0.347-0.4123-0.8598-0.4122-1.516
				c0.0026-1.3793,0.7656-1.9862,1.5674-1.9882c0.5176,0.0005,0.9024,0.1855,1.1628,0.5233
				C27.904,13.1254,28.0384,13.6209,28.0384,14.2421z"/>
			<path fill="#776A57" d="M32.2664,14.3892c-0.366-0.2941-0.9023-0.3893-1.3426-0.5337c-0.2202-0.0717-0.4156-0.1555-0.5535-0.2765
				c-0.1374-0.1215-0.2202-0.2773-0.2207-0.5089c0.0005-0.2515,0.095-0.4511,0.2825-0.5927
				c0.188-0.1416,0.4732-0.2234,0.8541-0.2232c0.3458-0.0003,0.7136,0.0692,1.0416,0.1686c0.0104,0.0032,0.0218,0.0012,0.0308-0.005
				c0.0089-0.0062,0.0144-0.0164,0.015-0.0273l0.0301-0.5609c0.0007-0.0174-0.0109-0.0329-0.028-0.0366
				c-0.3233-0.0707-0.6857-0.111-0.9994-0.111c-0.6217,0-1.1058,0.1541-1.4356,0.4145c-0.3302,0.2602-0.5037,0.628-0.5033,1.0436
				c-0.0006,0.4563,0.1623,0.7561,0.4057,0.9585c0.3647,0.3036,0.8993,0.397,1.338,0.5367c0.2195,0.0694,0.4141,0.15,0.5512,0.2681
				c0.1368,0.1185,0.219,0.2711,0.2196,0.5007c-0.0005,0.274-0.1277,0.4888-0.3512,0.6406
				c-0.2237,0.1513-0.5451,0.2358-0.9255,0.2356c-0.3865,0-0.7949-0.0694-1.1125-0.159c-0.0107-0.003-0.0218-0.0007-0.0305,0.0057
				c-0.0089,0.0064-0.0143,0.0164-0.0146,0.0273l-0.0201,0.6011c-0.0005,0.0169,0.0109,0.032,0.0275,0.036
				c0.3047,0.0709,0.6873,0.1009,1.0698,0.1012c0.6475-0.0002,1.1666-0.1746,1.5249-0.46c0.3584-0.285,0.5548-0.682,0.5545-1.1185
				C32.6749,14.8747,32.5107,14.5853,32.2664,14.3892z"/>
		</g>
	</g>
	<g>
		<g>
			
				<radialGradient id="SVGID_1_" cx="378.7015" cy="-487.6292" r="2.731" gradientTransform="matrix(1 0 0 -1 -325 -485)" gradientUnits="userSpaceOnUse">
				<stop  offset="0" style="stop-color:#D99183"/>
				<stop  offset="0.7418" style="stop-color:#C64045"/>
			</radialGradient>
			<path fill="url(#SVGID_1_)" d="M52.8965,5.1279c0.3664-0.1009,0.7537-0.3234,1.1752-0.657
				c0.1149-0.0909,0.2345-0.174,0.3575-0.2509l0.9096-1.1466l0.4159,0.5157c0.2583-0.0926,0.5036-0.1585,0.7378-0.1893
				c0.6247-0.0822,1.2,0.1478,1.7205,0.6478c-0.3869-1.5954-1.4085-2.4761-3.0594-2.4011
				c-1.0126,0.0458-1.8285,0.6493-2.4403,1.5881c-0.2527,0.3877-0.4476,0.8772-0.4285,1.4541
				C52.2977,5.0822,52.5629,5.2197,52.8965,5.1279z"/>
			<g>
				<g>
					<path fill="#C31F39" d="M58.0559,6.9556C57.699,7.2307,57.2201,7.4894,56.87,7.6672l-0.0359,0.018L55.324,5.7714l-1.4786,1.905
						l-0.0348-0.0163c-0.0024-0.0022-0.7533-0.3459-1.1895-0.7482l-0.7197,0.9068c0.5343,0.5977,1.33,1.1516,2.4802,1.4173
						l0.9627-1.2299l0.9739,1.2306c0.9816-0.1978,1.9272-0.8001,2.4554-1.3777L58.0559,6.9556z"/>
				</g>
				<g>
					
						<radialGradient id="SVGID_2_" cx="380.3092" cy="-490.5132" r="4.5289" gradientTransform="matrix(1 0 0 -1 -325 -485)" gradientUnits="userSpaceOnUse">
						<stop  offset="0" style="stop-color:#F4F2EE"/>
						<stop  offset="1" style="stop-color:#D0C9BE"/>
					</radialGradient>
					<path fill="url(#SVGID_2_)" d="M58.0559,6.9556C57.699,7.2307,57.2201,7.4894,56.87,7.6672l-0.0359,0.018L55.324,5.7714
						l-1.4786,1.905l-0.0348-0.0163c-0.0024-0.0022-0.7533-0.3459-1.1895-0.7482l-0.7197,0.9068
						c0.5343,0.5977,1.33,1.1516,2.4802,1.4173l0.9627-1.2299l0.9739,1.2306c0.9816-0.1978,1.9272-0.8001,2.4554-1.3777
						L58.0559,6.9556z"/>
				</g>
				<g>
					<path fill="#E6A540" d="M55.324,5.7714l-1.5048,1.8928l-0.8248,1.0363c0.5859,0.332,0.9267,0.4226,1.39,0.5357l0.96-1.2299
						l0.9764,1.2307c0.5327-0.1057,1.0679-0.3458,1.3459-0.5096l-0.828-1.0441l-0.0043,0.002L55.324,5.7714z"/>
				</g>
				<g>
					
						<radialGradient id="SVGID_3_" cx="380.3304" cy="-492.5042" r="2.0567" gradientTransform="matrix(1 0 0 -1 -325 -485)" gradientUnits="userSpaceOnUse">
						<stop  offset="0" style="stop-color:#FAF0EC"/>
						<stop  offset="1" style="stop-color:#E0A597"/>
					</radialGradient>
					<path fill="url(#SVGID_3_)" d="M55.324,5.7714l-1.5048,1.8928l-0.8248,1.0363c0.5859,0.332,0.9267,0.4226,1.39,0.5357
						l0.96-1.2299l0.9764,1.2307c0.5327-0.1057,1.0679-0.3458,1.3459-0.5096l-0.828-1.0441l-0.0043,0.002L55.324,5.7714z"/>
				</g>
				
					<radialGradient id="SVGID_4_" cx="379.0265" cy="-487.2125" r="3.9862" gradientTransform="matrix(1 0 0 -1 -325 -485)" gradientUnits="userSpaceOnUse">
					<stop  offset="0" style="stop-color:#D99183"/>
					<stop  offset="0.5" style="stop-color:#C31F39"/>
					<stop  offset="1" style="stop-color:#C31F39"/>
				</radialGradient>
				<path fill="url(#SVGID_4_)" d="M55.3389,3.0733l2.7859,3.455c0.3392-0.5195,0.5367-1.1401,0.5367-1.8069
					c0-1.828-1.4819-3.3097-3.31-3.3097c-1.828,0-3.3095,1.4818-3.3095,3.3097c0,0.6724,0.2006,1.2979,0.545,1.82L55.3389,3.0733z"
					/>
				<g>
					<path fill="#E6A540" d="M55.324,5.7741l-1.5048,1.8901c0.4507,0.2299,0.9844,0.3421,1.5252,0.3421
						c0.5322,0,1.0485-0.0999,1.4942-0.323L55.324,5.7741z"/>
				</g>
				<g>
					<path fill="#E6A540" d="M55.324,5.7741l-1.5048,1.8901c0.4507,0.2299,0.9844,0.3421,1.5252,0.3421
						c0.5322,0,1.0485-0.0999,1.4942-0.323L55.324,5.7741z"/>
				</g>
				<g>
					
						<linearGradient id="SVGID_5_" gradientUnits="userSpaceOnUse" x1="380.0818" y1="-492.6254" x2="382.0829" y2="-490.8299" gradientTransform="matrix(1 0 0 -1 -325 -485)">
						<stop  offset="0" style="stop-color:#FAF0EC"/>
						<stop  offset="0.3198" style="stop-color:#F4E1D9"/>
						<stop  offset="0.9488" style="stop-color:#E7BDB0"/>
						<stop  offset="1" style="stop-color:#E6B9AC"/>
					</linearGradient>
					<path fill="url(#SVGID_5_)" d="M55.324,5.7741l-1.5048,1.8901c0.4507,0.2299,0.9844,0.3421,1.5252,0.3421
						c0.5322,0,1.0485-0.0999,1.4942-0.323L55.324,5.7741z"/>
				</g>
			</g>
		</g>
		
			<radialGradient id="SVGID_6_" cx="378.7052" cy="-487.63" r="2.7247" gradientTransform="matrix(1 0 0 -1 -325 -485)" gradientUnits="userSpaceOnUse">
			<stop  offset="0" style="stop-color:#D99183"/>
			<stop  offset="0.7418" style="stop-color:#C64045"/>
		</radialGradient>
		<path opacity="0.4" fill="url(#SVGID_6_)" enable-background="new    " d="M52.9021,5.123
			c0.3655-0.1007,0.7519-0.3227,1.1725-0.6555c0.1148-0.0906,0.2341-0.1735,0.3566-0.2503l0.9077-1.1439l0.4149,0.5145
			c0.2576-0.0923,0.5024-0.1581,0.7361-0.1888c0.6232-0.082,1.1971,0.1474,1.7164,0.6463c-0.3859-1.5917-1.405-2.4704-3.0522-2.3956
			c-1.0102,0.0458-1.8242,0.6479-2.4345,1.5845c-0.2521,0.3868-0.4466,0.8752-0.4275,1.4508
			C52.3048,5.0774,52.5693,5.2145,52.9021,5.123z"/>
	</g>
	<g>
		<path fill="#776A57" d="M58.6725,15.2726c0.1649,0,0.3259,0.0424,0.4831,0.127c0.157,0.0847,0.2794,0.2057,0.367,0.3633
			c0.0877,0.1575,0.1316,0.3218,0.1316,0.4928c0,0.1693-0.0432,0.3321-0.1296,0.4883c-0.0863,0.1562-0.2075,0.2775-0.3632,0.3638
			c-0.1559,0.0864-0.3188,0.1296-0.4889,0.1296c-0.1701,0-0.3331-0.0431-0.4889-0.1296c-0.1558-0.0863-0.2771-0.2076-0.3639-0.3638
			c-0.0868-0.1562-0.1302-0.319-0.1302-0.4883c0-0.171,0.0441-0.3353,0.1322-0.4928c0.0882-0.1576,0.2107-0.2786,0.3678-0.3633
			C58.3465,15.315,58.5076,15.2726,58.6725,15.2726z M58.6725,15.4354c-0.138,0-0.2723,0.0353-0.403,0.1061
			c-0.1306,0.0707-0.2329,0.1719-0.3065,0.3033c-0.0739,0.1316-0.1107,0.2685-0.1107,0.4108c0,0.1415,0.0362,0.2771,0.1087,0.4068
			c0.0724,0.1298,0.1739,0.2309,0.3041,0.3034c0.1302,0.0724,0.266,0.1086,0.4074,0.1086c0.1415,0,0.2773-0.0362,0.4075-0.1086
			c0.1302-0.0725,0.2314-0.1736,0.3034-0.3034c0.072-0.1297,0.108-0.2654,0.108-0.4068c0-0.1423-0.0366-0.2793-0.11-0.4108
			c-0.0733-0.1314-0.1756-0.2326-0.3067-0.3033C58.9437,15.4708,58.8096,15.4354,58.6725,15.4354z M58.2415,16.7985v-1.0572h0.3633
			c0.1241,0,0.2139,0.0098,0.2696,0.0294c0.0554,0.0195,0.0997,0.0536,0.1327,0.1022c0.033,0.0486,0.0496,0.1003,0.0496,0.1549
			c0,0.0774-0.0276,0.1446-0.0827,0.2019c-0.0552,0.0573-0.1283,0.0894-0.2194,0.0963c0.0372,0.0156,0.0672,0.0343,0.0898,0.0559
			c0.0425,0.0417,0.0946,0.1116,0.1562,0.2097l0.129,0.2069h-0.2083l-0.0937-0.1667c-0.0739-0.1309-0.1333-0.213-0.1784-0.246
			c-0.0312-0.0243-0.0768-0.0365-0.1368-0.0365h-0.1002v0.4491H58.2415z M58.4121,16.2036h0.2071
			c0.099,0,0.1664-0.0148,0.2024-0.0443c0.0361-0.0295,0.0541-0.0686,0.0541-0.1172c0-0.0312-0.0087-0.0593-0.026-0.0839
			c-0.0174-0.0248-0.0414-0.0432-0.0723-0.0554c-0.0307-0.012-0.0879-0.0181-0.1712-0.0181h-0.1939V16.2036z"/>
	</g>
</g>
</svg>
