<?xml version="1.0" encoding="utf-8"?>
<!-- Generator: Adobe Illustrator 17.0.0, SVG Export Plug-In . SVG Version: 6.00 Build 0)  -->
<!DOCTYPE svg PUBLIC "-//W3C//DTD SVG 1.1//EN" "http://www.w3.org/Graphics/SVG/1.1/DTD/svg11.dtd">
<svg version="1.1" id="Capa_1" xmlns="http://www.w3.org/2000/svg" xmlns:xlink="http://www.w3.org/1999/xlink" x="0px" y="0px"
	 width="60px" height="24px" viewBox="0 0 60 24" enable-background="new 0 0 60 24" xml:space="preserve">
<g id="AXA">
	<rect x="18.0012" y="0" fill="#004B92" width="23.9976" height="24"/>
	<polyline fill="#E1033C" points="32.8742,11.8509 41.9988,0 40.6558,0 31.4971,11.8509 32.8742,11.8509 	"/>
	<path fill="#FFFFFF" d="M28.0763,19.9683l0.6583-0.9046c-0.0654-0.0668-0.4314-1.194-0.4314-1.194l-0.6395,0.8308L28.0763,19.9683
		 M24.4656,14.3821c-0.2575,0.5525-1.7709,2.3964-1.7709,2.3964h2.3951c0,0-0.4627-1.4321-0.5427-1.7535
		c-0.0689-0.2589-0.0501-0.5845-0.0501-0.629L24.4656,14.3821 M33.6758,14.3821c-0.2568,0.5525-1.773,2.3964-1.773,2.3964h2.4
		c0,0-0.4683-1.4321-0.5463-1.7535c-0.0619-0.2589-0.0459-0.5845-0.0459-0.629L33.6758,14.3821 M36.3416,17.1418
		c0.414,1.1718,1.2817,4.2168,1.624,4.4589h-2.2628c0,0-0.007-0.4467-0.1093-0.7988c-0.1009-0.3465-0.9115-2.9796-0.9115-2.9796
		h-3.5982l-0.565,0.8003c0,0,0.6777,2.1251,0.7209,2.2281c0.0723,0.1879,0.3973,0.7501,0.3973,0.7501h-2.1662
		c0,0-0.0578-0.3214-0.0779-0.4578c-0.0195-0.1099-0.2087-0.707-0.2087-0.707s-0.4926,0.5372-0.6242,0.7863
		c-0.1356,0.2505-0.1948,0.3785-0.1948,0.3785h-1.6965c0,0-0.0578-0.3214-0.08-0.4578c-0.0167-0.1099-0.222-0.7557-0.222-0.7557
		s-0.4774,0.5762-0.6131,0.8253c-0.1322,0.2505-0.1893,0.3883-0.1893,0.3883h-1.6784c0,0,0.4739-0.4509,0.6353-0.6471
		c0.2804-0.3243,1.3235-1.6868,1.3235-1.6868l-0.4175-1.4446h-3.5648c0,0-2.034,2.6734-2.1153,2.7556
		c-0.0828,0.0793-0.6757,0.9324-0.6861,1.0229h-1.0598v-0.6708l0.0417-0.0431c0.0341-0.0223,1.5427-1.8955,2.9281-3.745
		c1.2455-1.6075,2.4174-3.1758,2.5182-3.3262c0.2477-0.3591,0.6061-1.1401,0.6061-1.1401h1.8468c0,0,0.0571,0.7184,0.1092,0.8883
		c0.0494,0.1573,1.1718,3.8438,1.1962,3.8842l0.62-0.7988l-1.0605-3.2649c0,0-0.2484-0.6141-0.3305-0.7087h2.1558
		c0,0-0.0154,0.3163,0.0709,0.5849c0.0877,0.2699,0.5497,1.9345,0.5497,1.9345s1.4668-1.8385,1.556-1.9734
		c0.1586-0.2213,0.1809-0.5459,0.1809-0.5459h1.7946c0,0-0.3263,0.2411-0.9039,0.969c-0.1935,0.2422-2.0882,2.6539-2.0882,2.6539
		s0.1628,0.5622,0.2428,0.8434c0.0223,0.0807,0.039,0.1364,0.039,0.142c0,0.0027,0.0403-0.0488,0.1141-0.142
		c0.485-0.6165,2.7138-3.5335,2.8515-3.7854c0.1058-0.2018,0.2658-0.4342,0.3584-0.6809h1.7515c0,0,0.0417,0.5208,0.0946,0.6669
		L36.3416,17.1418z"/>
</g>
</svg>
