<?xml version="1.0" encoding="utf-8"?>
<!-- Generator: Adobe Illustrator 17.0.0, SVG Export Plug-In . SVG Version: 6.00 Build 0)  -->
<!DOCTYPE svg PUBLIC "-//W3C//DTD SVG 1.1//EN" "http://www.w3.org/Graphics/SVG/1.1/DTD/svg11.dtd">
<svg version="1.1" id="Capa_1" xmlns="http://www.w3.org/2000/svg" xmlns:xlink="http://www.w3.org/1999/xlink" x="0px" y="0px"
	 width="60px" height="24px" viewBox="0 0 60 24" enable-background="new 0 0 60 24" xml:space="preserve">
<g id="BANORTE">
	<g>
		<path fill="#C12127" d="M60.152,13.0601c-0.0534,0.0028-0.1068,0.0081-0.1602,0.0081c-19.9945,0.0004-39.989,0.0004-59.9835,0
			c-0.0534,0-0.1068-0.0053-0.1602-0.0081c0-0.161,0-0.3221,0-0.4831c20.1013,0,40.2026,0,60.3039,0
			C60.152,12.738,60.152,12.8991,60.152,13.0601z"/>
		<path d="M2.5586,5.6798c0.1188,0.0177,0.2379,0.0334,0.3563,0.0535c0.2175,0.0371,0.4248,0.1059,0.6176,0.214
			c0.0581,0.0326,0.1149,0.0703,0.1646,0.1144C3.8081,6.16,3.8458,6.2827,3.7924,6.4249C3.7689,6.4874,3.7399,6.5482,3.7087,6.6073
			C3.6317,6.7525,3.5521,6.8962,3.458,7.069C3.4381,7.0375,3.422,7.007,3.4012,6.98C3.3165,6.8704,3.2375,6.7553,3.1435,6.6543
			c-0.3162-0.3398-0.8366-0.442-1.2587-0.2497C1.6199,6.5252,1.4474,6.724,1.3946,7.0164c-0.0328,0.1817,0.0191,0.3454,0.112,0.4984
			c0.1093,0.18,0.264,0.3148,0.4421,0.4221c0.1415,0.0853,0.2876,0.1632,0.4329,0.2421C2.6722,8.3369,2.9682,8.4854,3.2529,8.653
			C3.4018,8.7407,3.5428,8.849,3.668,8.9683c0.4007,0.3816,0.5456,0.8596,0.4888,1.4023c-0.0144,0.1372-0.04,0.2749-0.077,0.4077
			c-0.145,0.52-0.4601,0.9046-0.9487,1.1363c-0.9464,0.4488-1.893,0.4195-2.836-0.0151c-0.0155-0.0071-0.0285-0.0197-0.0515-0.0359
			c0.1136-0.3925,0.227-0.7841,0.3485-1.2039c0.041,0.0654,0.0636,0.1072,0.0916,0.1452c0.1242,0.1688,0.2363,0.3492,0.3778,0.5022
			c0.394,0.4257,0.9459,0.4619,1.4084,0.2854c0.3432-0.131,0.4944-0.4121,0.5369-0.7571c0.0394-0.3195-0.0777-0.5837-0.3396-0.7693
			C2.4964,9.945,2.3122,9.8415,2.1288,9.7396c-0.1639-0.0911-0.3345-0.1701-0.503-0.253C1.3186,9.3354,1.0354,9.1501,0.7984,8.9005
			C0.4361,8.519,0.2365,8.0697,0.2838,7.5387c0.0536-0.6015,0.3159-1.0932,0.829-1.434C1.4668,5.8695,1.859,5.745,2.28,5.7045
			c0.0573-0.0055,0.1142-0.0163,0.1712-0.0247C2.4871,5.6798,2.5228,5.6798,2.5586,5.6798z"/>
		<path fill="#C12127" d="M26.8198,18.3202c-0.0017-0.0535-0.0049-0.1071-0.005-0.1606c-0.0003-1.1709-0.0002-2.3418-0.0002-3.5127
			c0-0.0569,0-0.1137,0-0.1775c0.0554-0.0036,0.0944-0.0083,0.1334-0.0083c1.0234-0.0001,2.0468-0.0023,3.0702,0.0016
			c0.5563,0.0021,1.0171,0.3801,1.1303,0.9243c0.0689,0.3312-0.0019,0.6386-0.1895,0.9195
			c-0.0197,0.0296-0.0393,0.0592-0.0641,0.0965c0.1095,0.137,0.1933,0.2884,0.2389,0.4584c0.166,0.6198-0.1997,1.2537-0.8196,1.4222
			c-0.0382,0.0104-0.0753,0.0243-0.113,0.0366C29.0741,18.3202,27.9469,18.3202,26.8198,18.3202z M27.5915,17.5586
			c0.0677,0,0.1208,0,0.1738,0c0.7378,0,1.4756,0,2.2135-0.0001c0.0358,0,0.0716,0.0009,0.1073-0.0009
			c0.1468-0.0075,0.2113-0.0689,0.2189-0.2146c0.0044-0.0847,0.0013-0.1699,0.0012-0.2548c-0.0002-0.2699-0.0417-0.3124-0.31-0.3125
			c-0.7512-0.0004-1.5025-0.0003-2.2537,0.0001c-0.0479,0-0.0958,0.0041-0.151,0.0067
			C27.5915,17.0412,27.5915,17.2893,27.5915,17.5586z M27.5897,15.9897c0.0327,0.0048,0.05,0.0095,0.0674,0.0095
			c0.8092,0.0004,1.6185,0.0015,2.4277-0.0006c0.1519-0.0004,0.2153-0.0695,0.2206-0.2252
			c0.0034-0.0982,0.0015-0.1967,0.0006-0.2951c-0.0018-0.1989-0.0576-0.2584-0.2549-0.2587
			c-0.7824-0.0014-1.5648-0.0008-2.3472-0.0002c-0.038,0-0.076,0.0073-0.1142,0.0112
			C27.5897,15.4898,27.5897,15.7346,27.5897,15.9897z"/>
		<path fill="#C12127" d="M43.0833,18.3202c-0.0729-0.0184-0.1456-0.0376-0.2188-0.0552c-0.891-0.2148-1.4971-1.024-1.468-1.9604
			c0.0274-0.8831,0.7038-1.6583,1.5851-1.812c0.1139-0.0199,0.2309-0.0293,0.3465-0.0303c0.4112-0.0036,0.8224-0.003,1.2336-0.001
			c0.9177,0.0044,1.6919,0.6313,1.8888,1.5272c0.2324,1.0574-0.4804,2.1171-1.5483,2.3025
			c-0.0345,0.006-0.0676,0.0193-0.1014,0.0292C44.2284,18.3202,43.6558,18.3202,43.0833,18.3202z M43.9389,17.4677
			c0.1922,0,0.3844,0.0008,0.5767-0.0005c0.058-0.0004,0.1168-0.001,0.1737-0.0107c0.5547-0.0951,0.9338-0.5698,0.906-1.1104
			c-0.0301-0.5855-0.487-1.0251-1.0631-1.0325c-0.3933-0.0051-0.7868-0.0055-1.1801,0.0001
			c-0.5915,0.0084-1.0591,0.4865-1.0601,1.076c-0.001,0.5963,0.4701,1.0714,1.0703,1.0777
			C43.5544,17.4693,43.7466,17.4676,43.9389,17.4677z"/>
		<path fill="#C12127" d="M46.9747,18.3202c-0.0014-0.0446-0.0039-0.0893-0.0039-0.1339c-0.0002-1.1804-0.0002-2.3609-0.0002-3.5413
			c0-0.0486,0-0.0972,0-0.1551c0.0424-0.0061,0.076-0.0151,0.1097-0.0151c1.0418-0.0007,2.0837-0.0077,3.1254,0.0022
			c0.6459,0.0061,1.1524,0.5377,1.1376,1.1651c-0.0128,0.5448-0.3646,0.9788-0.9007,1.1113
			c-0.0343,0.0085-0.0689,0.0157-0.1127,0.0256c0.0073,0.0246,0.0089,0.0469,0.0195,0.0631
			c0.3238,0.4931,0.6484,0.9857,0.9729,1.4783c-0.331,0-0.662,0-0.993,0c-0.3159-0.4808-0.6329-0.9609-0.9462-1.4434
			c-0.0437-0.0673-0.0915-0.0945-0.1725-0.0939c-0.4506,0.0037-0.9011,0.0016-1.3517,0.0021c-0.0348,0-0.0697,0.0047-0.1205,0.0085
			c0,0.058,0,0.1106,0,0.1631c0,0.4015,0.0004,0.803-0.0006,1.2045c-0.0001,0.053-0.0076,0.1061-0.0117,0.1591
			C47.4757,18.3202,47.2252,18.3202,46.9747,18.3202z M47.7405,16.0034c0.0294,0.006,0.0424,0.011,0.0554,0.011
			c0.8182,0.0007,1.6363,0.0019,2.4545,0.0003c0.135-0.0003,0.2036-0.0718,0.2094-0.2093c0.0045-0.1071,0.0022-0.2146,0.0011-0.3219
			c-0.0019-0.185-0.0663-0.2509-0.2504-0.2511c-0.7869-0.0008-1.5737-0.0005-2.3606,0.0001c-0.0341,0-0.0683,0.0067-0.1094,0.011
			C47.7405,15.4997,47.7405,15.7479,47.7405,16.0034z"/>
		<path fill="#C12127" d="M36.5618,18.3202c0.0023-0.0534,0.0065-0.1069,0.0066-0.1603c0.0004-1.1711,0.0003-2.3422,0.0003-3.5133
			c0-0.0534,0-0.1068,0-0.1713c0.0392-0.0051,0.0727-0.013,0.1063-0.0133c0.1788-0.0013,0.3578,0.0049,0.5363-0.0028
			c0.098-0.0042,0.1673,0.0312,0.2389,0.0929c0.8908,0.767,1.7838,1.5315,2.6764,2.2965c0.0394,0.0337,0.0808,0.0651,0.1442,0.1161
			c0-0.8462,0-1.6651,0-2.4935c0.2634,0,0.5104,0,0.773,0c0,1.2863,0,2.5677,0,3.8491c-0.2594,0-0.5189,0-0.7783,0
			c-0.2807-0.2427-0.5607-0.4862-0.8423-0.7279c-0.6481-0.5565-1.2967-1.1124-1.9463-1.6672
			c-0.0373-0.0319-0.067-0.0841-0.1368-0.0777c0,0.8275,0,1.6501,0,2.4728C37.0806,18.3202,36.8212,18.3202,36.5618,18.3202z"/>
		<path fill="#C12127" d="M56.2605,18.3202c0.001-0.2101,0.0028-0.4201,0.0028-0.6302c0.0003-1.0147,0.0001-2.0294,0.0001-3.0441
			c0-0.0534,0-0.1068,0-0.1786c0.0582-0.0019,0.1096-0.0051,0.161-0.0051c1.189-0.0003,2.3781-0.0001,3.5671-0.0005
			c0.0535,0,0.107-0.004,0.1604-0.0061c0,0.2594,0,0.5189,0,0.7783c-1.0009-0.0004-2.0019-0.001-3.0028-0.0008
			c-0.0343,0-0.0685,0.0067-0.106,0.0107c0,0.2558,0,0.5032,0,0.7669c0.8423,0,1.6753,0,2.505,0
			c0.0288,0.1579,0.0243,0.6573-0.0074,0.7694c-0.4109,0-0.8257-0.0001-1.2404,0c-0.4181,0.0002-0.8362-0.0008-1.2511,0.0007
			c-0.028,0.19-0.0212,0.6677,0.0103,0.7686c0.0372,0,0.0771,0,0.117,0c0.9518,0,1.9036,0.0001,2.8554-0.0003
			c0.04,0,0.08-0.0046,0.12-0.0071c0,0.2594,0,0.5189,0,0.7783C58.8548,18.3202,57.5577,18.3202,56.2605,18.3202z"/>
		<path fill="#C12127" d="M31.2211,18.3202c0.4147-0.8213,0.8292-1.6427,1.2442-2.4638c0.2176-0.4305,0.4386-0.8593,0.6523-1.2918
			c0.04-0.0811,0.0866-0.1075,0.1749-0.1059c0.2989,0.0055,0.598,0.0021,0.9027,0.0021c0.0288,0.0546,0.0564,0.1051,0.0824,0.1565
			c0.6063,1.1949,1.2124,2.39,1.8187,3.5849c0.0202,0.0398,0.0419,0.0787,0.063,0.118c-0.3042,0-0.6083,0-0.9125,0
			c-0.004-0.017-0.0047-0.0355-0.0123-0.0506c-0.1694-0.335-0.3422-0.6683-0.5076-1.0053
			c-0.0376-0.0766-0.0905-0.0848-0.1616-0.0847c-0.5858,0.0013-1.1716,0.0027-1.7573-0.0014
			c-0.0899-0.0006-0.135,0.0293-0.1739,0.1091c-0.1508,0.3092-0.3099,0.6145-0.4643,0.922
			c-0.0173,0.0344-0.0243,0.0738-0.0361,0.1109C31.8294,18.3202,31.5253,18.3202,31.2211,18.3202z M34.2829,16.3916
			c-0.2018-0.3952-0.3929-0.7698-0.5972-1.17c-0.2062,0.4047-0.3973,0.78-0.596,1.17
			C33.4938,16.3916,33.8725,16.3916,34.2829,16.3916z"/>
		<path fill="#C12127" d="M53.3621,18.3202c-0.0025-0.0579-0.0072-0.1158-0.0072-0.1737c-0.0005-0.9029-0.0003-1.8057-0.0003-2.7086
			c0-0.057,0-0.1141,0-0.187c-0.5104,0-1.0043,0-1.5078,0c0-0.259,0-0.5023,0-0.7479c0.001-0.0012,0.0037-0.0049,0.007-0.0079
			c0.0031-0.0028,0.007-0.007,0.0105-0.0071c1.2512-0.0028,2.5025-0.0054,3.7537-0.0076c0.0354-0.0001,0.0708,0.0034,0.1162,0.0058
			c0,0.2475,0,0.4912,0,0.7525c-0.0424,0.0033-0.0889,0.0099-0.1354,0.01c-0.3978,0.0008-0.7956,0.0005-1.1934,0.0005
			c-0.0477,0-0.0953,0-0.1576,0c0,1.0355,0,2.0533,0,3.071C53.9525,18.3202,53.6573,18.3202,53.3621,18.3202z"/>
		<path fill="#C12127" d="M21.3717,18.3202c-0.1343-0.0278-0.2684-0.056-0.4028-0.0832c-0.2983-0.0604-0.5927-0.1356-0.8697-0.2638
			c-0.1251-0.0579-0.247-0.1259-0.3613-0.2027c-0.0765-0.0514-0.1457-0.1197-0.2032-0.1923
			c-0.1398-0.1764-0.1444-0.382,0.0003-0.5532c0.085-0.1005,0.1918-0.1877,0.3023-0.2602c0.2375-0.1558,0.506-0.2439,0.7783-0.318
			c0.494-0.1344,0.9994-0.1904,1.5093-0.2129c0.0396-0.0018,0.0794-0.0002,0.1422-0.0002
			c-0.2573,0.7053-0.5093,1.3959-0.7612,2.0865C21.4612,18.3202,21.4165,18.3202,21.3717,18.3202z"/>
		<path fill="#C12127" d="M22.9283,18.3202c0-0.6918,0-1.3836,0-2.089c0.1078,0.0092,0.2001,0.0156,0.2921,0.0251
			c0.455,0.047,0.9041,0.1267,1.3298,0.2983c0.181,0.0729,0.3545,0.1697,0.5203,0.2733c0.0881,0.0551,0.1637,0.14,0.2254,0.2255
			c0.1175,0.1628,0.1074,0.3489-0.0111,0.5115c-0.0889,0.122-0.2096,0.2065-0.3389,0.2796
			c-0.2632,0.1489-0.5475,0.245-0.8412,0.3056c-0.2883,0.0595-0.5814,0.0963-0.8722,0.1438
			c-0.0392,0.0064-0.0776,0.0174-0.1163,0.0263C23.0536,18.3202,22.9909,18.3202,22.9283,18.3202z"/>
		<path d="M20.946,10.0606c0.0102-0.4487,0.1094-0.8697,0.3562-1.2484c0.2778-0.4261,0.6693-0.7046,1.1527-0.8473
			c0.6179-0.1824,1.2384-0.1686,1.8452,0.0454c0.7291,0.2571,1.1396,0.7876,1.2595,1.5457c0.0557,0.3521,0.0507,0.7046-0.042,1.0507
			c-0.1936,0.7227-0.6569,1.1988-1.3612,1.4293c-0.6534,0.2139-1.3152,0.1972-1.9619-0.0291
			c-0.6804-0.238-1.0687-0.7368-1.195-1.4405C20.9696,10.4,20.9632,10.2293,20.946,10.0606z M24.6097,9.9289
			c-0.0238-0.1812-0.0367-0.3646-0.0738-0.543c-0.0727-0.3492-0.2267-0.658-0.4987-0.8985
			c-0.4228-0.3737-1.1262-0.4386-1.5936,0.1017c-0.1212,0.1401-0.2173,0.2959-0.2863,0.4666
			c-0.1935,0.4781-0.2602,0.9742-0.1881,1.4854c0.0385,0.2726,0.1255,0.53,0.2846,0.759c0.389,0.56,1.1517,0.676,1.6903,0.2569
			c0.2101-0.1635,0.3541-0.3768,0.4572-0.6189C24.538,10.6167,24.5919,10.2786,24.6097,9.9289z"/>
		<path d="M18.5195,10.4761c0,0.5377,0,1.0415,0,1.5543c-0.3202,0-0.6302,0-0.9494,0c0-1.3638,0-2.724,0-4.0924
			c0.0388-0.0028,0.0732-0.0076,0.1077-0.0075c0.4961,0.0002,0.9923-0.0007,1.4884,0.0031
			c0.1202,0.0009,0.2411,0.0121,0.3602,0.0289c0.4788,0.0673,0.7559,0.3527,0.8249,0.8328
			c0.0686,0.4778-0.1048,0.8372-0.5124,1.0905c-0.1208,0.0751-0.2361,0.159-0.3688,0.249c0.3879,0.6264,0.7698,1.2432,1.1576,1.8696
			c-0.2781,0.0832-0.5443,0.1274-0.8171,0.0558c-0.1884-0.0494-0.3426-0.1572-0.45-0.3186
			c-0.0737-0.1108-0.1369-0.2304-0.1901-0.3525c-0.1393-0.3199-0.3351-0.5997-0.5763-0.8495
			C18.5798,10.5246,18.5624,10.5123,18.5195,10.4761z M18.5163,8.3396c-0.0255,0.2166-0.0167,1.4252,0.0115,1.5253
			c0.1924-0.0033,0.3793-0.0353,0.5526-0.1273c0.1625-0.0863,0.2711-0.2182,0.3109-0.3986c0.0564-0.2559,0.0342-0.506-0.0785-0.7444
			c-0.0689-0.1458-0.1846-0.2416-0.3417-0.2768C18.8209,8.2841,18.6701,8.2945,18.5163,8.3396z"/>
		<path d="M10.9797,10.3239c0.2964,0,0.572,0,0.8434,0c0.0082,0.0147,0.0161,0.0223,0.0161,0.0298
			c-0.0006,0.4157-0.0034,0.8315-0.0023,1.2472c0.0004,0.1584-0.0704,0.2744-0.1981,0.3578
			c-0.0397,0.0259-0.0888,0.0492-0.1349,0.0518c-0.6113,0.0348-1.2224,0.0975-1.8354,0.0535
			c-0.1997-0.0143-0.4031-0.0363-0.5949-0.0903c-0.6288-0.1768-1.0145-0.6049-1.166-1.2301
			c-0.129-0.5325-0.1005-1.0663,0.0962-1.5825C8.1974,8.654,8.5497,8.2977,9.0539,8.0946c0.7643-0.3079,1.5412-0.316,2.3253-0.0874
			c0.0885,0.0258,0.1755,0.0689,0.2522,0.1202c0.1212,0.0811,0.1582,0.201,0.1197,0.3414
			c-0.0298,0.1086-0.0815,0.2065-0.1613,0.3018c-0.0506-0.0333-0.098-0.0649-0.1457-0.0958
			c-0.2636-0.1707-0.5366-0.3202-0.8444-0.399C10.1854,8.1696,9.821,8.2618,9.5029,8.5428c-0.382,0.3376-0.59,0.7676-0.6638,1.2671
			c-0.0472,0.3193-0.0247,0.6337,0.0793,0.9398c0.1748,0.5147,0.5182,0.8355,1.0675,0.9124
			c0.2124,0.0297,0.426,0.0511,0.6379,0.0835c0.0937,0.0143,0.1535-0.019,0.203-0.093c0.073-0.109,0.137-0.2216,0.14-0.3568
			c0.0058-0.2635,0.0089-0.5271,0.0127-0.7907C10.9804,10.448,10.9797,10.3909,10.9797,10.3239z"/>
		<path d="M16.5628,7.9881c0,0.1357,0.0053,0.2519-0.0009,0.3675c-0.0329,0.6205-0.0646,1.2412-0.1053,1.8612
			c-0.0173,0.2628-0.0456,0.5258-0.0861,0.7861c-0.095,0.6103-0.4495,0.9834-1.0607,1.1114
			c-0.5024,0.1052-1.0057,0.0871-1.5001-0.0506c-0.1442-0.0401-0.2857-0.1064-0.4138-0.1847
			c-0.2927-0.1791-0.4479-0.458-0.5018-0.7894c-0.0322-0.1978-0.0514-0.3999-0.0525-0.6002c-0.0046-0.8093,0-1.6186,0.0016-2.4278
			c0.0001-0.0259,0.005-0.0518,0.0085-0.086c0.3033,0,0.6006,0,0.9153,0c0.0018,0.0505,0.005,0.102,0.0052,0.1536
			c0.002,0.8048,0.0009,1.6097,0.0077,2.4144c0.0013,0.1598,0.0207,0.3217,0.0523,0.4785c0.0726,0.3605,0.2908,0.5937,0.6463,0.6979
			c0.214,0.0627,0.4309,0.0892,0.6488,0.0389c0.4291-0.0992,0.6638-0.3915,0.7377-0.8086c0.0419-0.2362,0.0536-0.4802,0.0549-0.7208
			c0.0038-0.693-0.0046-1.3861-0.0081-2.0791c-0.0002-0.0483,0-0.0966,0-0.1619C16.1386,7.9868,16.3538,7.9868,16.5628,7.9881z"/>
		<path d="M5.0054,7.9419c0.0338-0.0034,0.0514-0.0067,0.0689-0.0067C5.6376,7.9365,6.201,7.9304,6.764,7.9427
			C7.0962,7.9499,7.0358,7.911,7.2418,8.1985c0.0463,0.0647,0.0923,0.1297,0.1502,0.2111c-0.174,0.0172-0.3324,0.006-0.4901,0.0081
			C6.7455,8.4199,6.589,8.4182,6.4325,8.4182c-0.16,0-0.32,0-0.4891,0c0,0.4169,0,0.8216,0,1.2456
			c0.0497,0,0.1013-0.0004,0.1529,0.0001c0.2368,0.002,0.4735,0.0075,0.7102,0.0051c0.1361-0.0014,0.2398,0.0534,0.3294,0.15
			c0.0298,0.0322,0.0695,0.0552,0.1086,0.0854c-0.136,0.1614-0.2657,0.2773-0.4728,0.2711
			c-0.2142-0.0064-0.4288,0.0005-0.6433,0.0015c-0.0574,0.0003-0.1147,0-0.1812,0c0,0.485,0,0.9611,0,1.4542
			c0.0438,0.0019,0.0909,0.0057,0.1379,0.0058c0.3219,0.0005,0.6438,0.0038,0.9656-0.0017
			c0.1049-0.0018,0.1813,0.0285,0.2385,0.1293c-0.0652,0.0739-0.1313,0.1516-0.2006,0.2265
			c-0.0474,0.0512-0.1073,0.0738-0.1788,0.0784c-0.599,0.039-1.1975,0.0196-1.7959-0.0101
			c-0.035-0.0017-0.0696-0.0106-0.1086-0.0168C5.0054,10.6752,5.0054,9.3135,5.0054,7.9419z"/>
		<path d="M26.0509,11.9792c0.0525-0.2427,0.0996-0.4599,0.1508-0.6965c0.0568,0.0382,0.1001,0.0661,0.1421,0.0959
			c0.1277,0.0904,0.2502,0.189,0.3831,0.2709c0.298,0.1837,0.7135,0.1282,0.9636-0.1186c0.0762-0.0752,0.108-0.1647,0.0887-0.2683
			c-0.0462-0.2476-0.1618-0.4656-0.3215-0.6548c-0.0593-0.0703-0.1621-0.1067-0.2491-0.1505
			c-0.1554-0.0782-0.3203-0.1394-0.4689-0.2283c-0.1253-0.0749-0.2423-0.1695-0.3472-0.2717
			c-0.2842-0.277-0.3791-0.6216-0.3148-1.0075c0.1129-0.6783,0.5966-1.087,1.2838-1.0969c0.1983-0.0029,0.3926,0.0202,0.5826,0.0768
			c0.162,0.0483,0.3233,0.0988,0.4988,0.1525c-0.0616,0.2007-0.1201,0.3913-0.1787,0.5825
			c-0.0898,0.0232-0.1484-0.0037-0.1991-0.0745c-0.0839-0.1173-0.1863-0.2172-0.3153-0.286
			c-0.3211-0.1713-0.7211-0.059-0.8961,0.3624c-0.0144,0.0346-0.0063,0.0918,0.0136,0.1251c0.19,0.3184,0.4101,0.6065,0.7593,0.7717
			c0.153,0.0724,0.3004,0.1595,0.4425,0.2519c0.5156,0.3352,0.6565,0.7424,0.4637,1.327c-0.1773,0.5377-0.5255,0.8949-1.0896,1.0198
			c-0.2855,0.0632-0.5701,0.0421-0.8509-0.0249C26.4153,12.0951,26.2424,12.0358,26.0509,11.9792z"/>
		<path fill="#C12127" d="M22.9211,16.0904c0-0.5263,0-1.0376,0-1.5489c-0.0106-0.0022-0.0211-0.0044-0.0317-0.0066
			c-0.1967,0.5131-0.3748,1.0333-0.5745,1.5614c-0.0942-0.0111-0.1862-0.0195-0.2774-0.033c-0.3634-0.054-0.72-0.1356-1.0624-0.2714
			c-0.1835-0.0727-0.3596-0.1599-0.5137-0.2855c-0.336-0.2737-0.3353-0.5892,0.003-0.862c0.1833-0.1478,0.3952-0.243,0.6148-0.3219
			c0.3933-0.1414,0.8008-0.2193,1.2149-0.2657c0.4945-0.0554,0.9899-0.0669,1.4863-0.0276c0.541,0.0428,1.075,0.1235,1.583,0.3233
			c0.157,0.0618,0.3086,0.1421,0.4526,0.2304c0.0894,0.0549,0.1702,0.1325,0.2366,0.2146c0.1485,0.1839,0.1457,0.3992-0.0152,0.5733
			c-0.0894,0.0968-0.1996,0.1798-0.3131,0.2479c-0.2394,0.1435-0.5052,0.2245-0.775,0.2914
			c-0.6205,0.1538-1.252,0.1992-1.8888,0.1934C23.021,16.1033,22.9816,16.0963,22.9211,16.0904z"/>
	</g>
</g>
</svg>
