<?xml version="1.0" encoding="utf-8"?>
<!-- Generator: Adobe Illustrator 17.0.0, SVG Export Plug-In . SVG Version: 6.00 Build 0)  -->
<!DOCTYPE svg PUBLIC "-//W3C//DTD SVG 1.1//EN" "http://www.w3.org/Graphics/SVG/1.1/DTD/svg11.dtd">
<svg version="1.1" id="Capa_1" xmlns="http://www.w3.org/2000/svg" xmlns:xlink="http://www.w3.org/1999/xlink" x="0px" y="0px"
	 width="60px" height="24px" viewBox="0 0 60 24" enable-background="new 0 0 60 24" xml:space="preserve">
<g id="BX_x2B_">
	<path fill="#949699" d="M17.5087,12.9637c-0.5469-0.6579-1.3001-1.2254-2.2437-1.6915c1.249-0.9882,1.8812-2.2552,1.8812-3.7744
		c0-0.9116-0.1796-1.7145-0.5338-2.3865c-0.3547-0.6718-0.8572-1.2324-1.4937-1.6664c-0.6214-0.4232-1.3634-0.7392-2.2055-0.9392
		c-0.8232-0.1953-1.7338-0.2944-2.7064-0.2944H0.0537v19.5774h10.635c1.0585,0,2.0602-0.1079,2.9773-0.3205
		c0.9337-0.2162,1.77-0.557,2.4855-1.013c0.7336-0.4676,1.3185-1.0759,1.7385-1.808c0.4233-0.7374,0.6379-1.6219,0.6379-2.6287
		C18.5279,14.8056,18.185,13.7779,17.5087,12.9637z M11.8273,9.2425c-0.4878,0.3464-1.152,0.522-1.9741,0.522H4.5811V5.9297h5.3685
		c0.8464,0,1.5141,0.1196,1.9842,0.3556c0.1376,0.0691,0.5564,0.2794,0.5564,1.2125C12.4902,8.3547,12.2733,8.9254,11.8273,9.2425z
		 M4.5811,13.483h6.2362c1.1886,0,2.061,0.1822,2.5933,0.5416c0.4836,0.3264,0.7186,0.8731,0.7186,1.6714
		c0,0.7407-0.2547,1.303-0.7786,1.7189c-0.5479,0.435-1.4543,0.6556-2.694,0.6556H4.5811V13.483z"/>
	<g>
		<polygon fill="#BFCD26" points="59.9463,9.3089 52.9916,9.3089 52.9916,2.3543 47.9144,2.3543 47.9144,9.3089 40.9597,9.3089 
			40.9597,14.3863 47.9144,14.3863 47.9144,21.3408 52.9916,21.3408 52.9916,14.3863 59.9463,14.3863 		"/>
	</g>
	<g>
		<polygon fill="#BFCD26" points="38.8294,6.0944 35.2392,2.5042 29.486,8.2573 23.7328,2.5041 20.1426,6.0943 25.8958,11.8475 
			20.1426,17.6007 23.7328,21.191 29.486,15.4378 35.2392,21.1911 38.8294,17.6009 33.0762,11.8475 		"/>
	</g>
</g>
</svg>
