<?xml version="1.0" encoding="utf-8"?>
<!-- Generator: Adobe Illustrator 17.0.0, SVG Export Plug-In . SVG Version: 6.00 Build 0)  -->
<!DOCTYPE svg PUBLIC "-//W3C//DTD SVG 1.1//EN" "http://www.w3.org/Graphics/SVG/1.1/DTD/svg11.dtd">
<svg version="1.1" id="Capa_1" xmlns="http://www.w3.org/2000/svg" xmlns:xlink="http://www.w3.org/1999/xlink" x="0px" y="0px"
	 width="60px" height="24px" viewBox="0 0 60 24" enable-background="new 0 0 60 24" xml:space="preserve">
<g id="ELAGUILA">
	<path fill="#223C7E" d="M8.6956,17.011h5.0519c0.0266-0.6248,0.1329-1.4491,0.2393-1.9809l-0.4387-0.0532
		c-0.2659,0.6115-0.6647,1.6219-1.6618,1.6219h-0.5185c-0.2925,0-0.4919-0.0266-0.4919-0.2659v-2.2202
		c0-0.1196,0.0798-0.1994,0.3324-0.1994h0.2393c0.7445,0,0.7844,0.359,0.8376,0.9971h0.4254c-0.0532-0.5451-0.0532-1.8479,0-2.2866
		h-0.3988c-0.0532,0.4653-0.1064,0.8774-0.8508,0.8774h-0.2393c-0.2526,0-0.3324-0.0665-0.3324-0.1994v-1.8612
		c0-0.1994,0.0665-0.2659,0.3324-0.2659h0.6514c0.8774,0,1.13,0.2792,1.4624,1.2763h0.4121
		c-0.0532-0.4653-0.0665-1.2763-0.0532-1.6884H8.6956v0.4121c0.3722,0.0133,0.7312,0.0133,0.7312,0.3191v4.786
		c0,0.3058-0.3722,0.3058-0.7312,0.3191C8.6956,16.5989,8.6956,17.011,8.6956,17.011z"/>
	<path fill="#223C7E" d="M14.2926,17.011h3.5895l0.2925-1.1034h-0.3058c-0.0532,1.0237-1.5156,0.8508-1.5156,0.8508
		c-0.359,0-0.4121-0.1329-0.4121-0.2792v-3.656c0-0.2127,0.0399-0.2393,0.4653-0.226v-0.2127h-2.0606v0.2127
		c0.2659,0,0.4919-0.0133,0.5318,0.226v3.7357c0,0.226-0.3191,0.2659-0.585,0.2792C14.2926,16.8382,14.2926,17.011,14.2926,17.011z"
		/>
	<path fill="#223C7E" d="M16.8717,19.1115h2.3132l0.0532-0.4121c-0.6115-0.0266-0.8376-0.1064-0.8508-0.3324
		c-0.0133-0.1994,0.1861-0.5717,0.3988-0.8641c0.0399-0.0532,0.0931-0.0931,0.1728-0.0931h2.1537
		c0.0931,0,0.1861,0.0266,0.226,0.1728l0.0532,0.2925c0.0133,0.1329,0.0532,0.3589,0.0532,0.3988
		c0.0266,0.2526,0.0133,0.3855-0.811,0.4121l-0.0532,0.4121h3.2704l0.0532-0.4121c-0.7046-0.0133-0.904-0.0266-1.0901-0.9705
		l-0.9705-4.8791h-0.8376c-0.0532,0.1462-0.1197,0.3324-0.2393,0.5185l-2.4462,4.0282c-0.7578,1.2364-0.904,1.2896-1.3826,1.2896
		L16.8717,19.1115z M21.1392,16.5856c0.0266,0.1462,0.0532,0.2526,0.0532,0.3324c0,0.0532-0.0266,0.0931-0.1728,0.0931h-1.7283
		c-0.1197,0-0.1728-0.0133-0.1728-0.0931c0-0.0399,0.0266-0.1064,0.0665-0.1728l1.5023-2.4595L21.1392,16.5856z"/>
	<path fill="#223C7E" d="M26.2709,17.3833c0.4653,0,0.6381,0.0798,0.6381,0.2792c0,0.1196-0.1994,1.0104-0.1994,1.0104
		c-0.2526,0.226-0.8907,0.2526-1.1433,0.1861c-0.6115-0.1728-0.9705-0.6248-1.0503-1.5555
		c-0.1329-1.4358,0.9439-2.619,1.8745-2.6456c0.4387-0.0133,1.5555,0.0532,1.4757,1.13h0.3058
		c0.0931-0.5451,0.1196-0.6115,0.1861-1.13c0.0532-0.1994-0.1329-0.1595-0.1329-0.1595c-0.0798,0.0266-0.0665,0.1595-0.2792,0.0931
		c0,0-1.0636-0.4653-2.3132-0.1994c0,0-2.0739,0.3058-2.2335,2.4595c0,0-0.1994,2.2202,2.3265,2.3531
		c0.7844,0.0399,1.4491-0.2127,1.8612-0.4121l0.1595-0.7977c0.0931-0.6115,0.2925-0.6248,0.6514-0.6381l0.0133-0.2393h-2.1404
		V17.3833z"/>
	<path fill="#223C7E" d="M29.1957,16.9445c-0.0532,0.3988-0.0665,0.7312-0.0399,0.9971c0.0931,0.9439,0.9838,1.2763,1.808,1.2763
		c1.1965,0,1.7283-0.4254,1.9809-2.1271l0.2127-1.356c0.1329-0.8907,0.1728-1.1167,0.6913-1.1167l0.0399-0.226h-1.5953
		l-0.0399,0.226c0.4919,0.0266,0.5983,0.1994,0.6248,0.4653c0.0133,0.1462-0.0532,0.452-0.1196,0.8508l-0.1595,1.0237
		c-0.2393,1.5687-0.7046,1.8612-1.3959,1.8612c-0.5318,0-0.9306-0.2792-0.9705-0.7844c-0.0133-0.1595,0-0.3722,0.0266-0.6115
		l0.3457-2.3664c0.0133-0.0931,0.0399-0.1861,0.0931-0.2127c0.0931-0.0665,0.3058-0.1994,0.6381-0.226l0.0399-0.226h-2.619
		l-0.0399,0.226c0.7046,0.0266,0.7445,0.2127,0.7445,0.3058c0,0.0399-0.0133,0.1595-0.0266,0.3058L29.1957,16.9445z"/>
	<path fill="#223C7E" d="M33.7025,19.1115h2.4196l0.0399-0.3191h-0.2659c-0.3058,0-0.4121-0.0931-0.4254-0.2659
		c-0.0133-0.0798,0.0133-0.226,0.0133-0.2659l0.5052-3.204c0.0266-0.1462,0.0532-0.1994,0.0931-0.2393
		c0.0665-0.0931,0.2925-0.0931,0.5451-0.0931l0.0399-0.3191H34.221l-0.0399,0.3191c0.2925,0.0133,0.4919,0.0532,0.5584,0.0931
		c0.0532,0.0399,0.0665,0.0931,0.0798,0.1728c0.0133,0.0798-0.0266,0.3589-0.0665,0.6913l-0.2925,1.8213
		c-0.0532,0.3457-0.1462,0.7711-0.1595,0.8641c-0.1064,0.3988-0.1462,0.4387-0.4254,0.4387h-0.1197L33.7025,19.1115z"/>
	<path fill="#223C7E" d="M36.4013,19.1115h4.108c0.0399-0.452,0.1462-0.9439,0.2792-1.4358l-0.4121-0.0266
		c-0.4653,1.037-0.6248,1.1566-1.4092,1.1566c-0.6913,0-0.7711-0.0532-0.7844-0.1994c-0.0133-0.1196,0.0399-0.5717,0.1197-1.0636
		l0.4387-2.5658c0.0133-0.0532,0.0266-0.1064,0.0665-0.1595c0.0665-0.0798,0.2925-0.0931,0.6115-0.0931l0.0399-0.3191h-2.5259
		l-0.0399,0.3191c0.2925,0.0133,0.4919,0.0532,0.5584,0.0931c0.0532,0.0399,0.0665,0.0931,0.0798,0.1728
		c0,0.0798-0.0266,0.3589-0.0665,0.6913l-0.2925,1.8213c-0.0532,0.3457-0.1462,0.7711-0.1595,0.8641
		c-0.1064,0.3988-0.1462,0.4387-0.4254,0.4387h-0.1196L36.4013,19.1115z"/>
	<path fill="#223C7E" d="M40.7353,19.1115h1.7815l0.0399-0.3191c-0.4653-0.0266-0.6381-0.0798-0.6514-0.2659
		c-0.0133-0.1595,0.1462-0.4387,0.3058-0.6647c0.0266-0.0399,0.0665-0.0665,0.1329-0.0665h1.6618
		c0.0798,0,0.1462,0.0266,0.1728,0.1329l0.0399,0.226c0.0133,0.1064,0.0399,0.2792,0.0399,0.3058
		c0.0133,0.1861,0.0133,0.3058-0.6248,0.3191l-0.0399,0.3191h2.5127l0.0399-0.3191c-0.5451-0.0133-0.7046-0.0266-0.8376-0.7445
		l-0.7445-3.7623h-0.6381c-0.0399,0.1196-0.0931,0.2526-0.1861,0.3988l-1.8745,3.1109c-0.585,0.9572-0.6913,0.9971-1.0636,0.9971
		L40.7353,19.1115z M44.019,17.1705c0.0266,0.1064,0.0399,0.1994,0.0399,0.2526c0,0.0399-0.0266,0.0798-0.1329,0.0798h-1.3294
		c-0.0931,0-0.1329-0.0133-0.1329-0.0665c0-0.0399,0.0133-0.0798,0.0532-0.1329l1.1433-1.9011L44.019,17.1705z"/>
	<path fill="#223C7E" d="M16.8318,21.9034c0.1329-0.1861,0.3058-0.2659,0.5185-0.2659c0.2792,0,0.4786,0.1196,0.6115,0.3589
		c0.0665,0.1329,0.1064,0.2792,0.1196,0.4121h-0.3457c-0.0266-0.1064-0.0532-0.1861-0.0798-0.2393
		c-0.0665-0.0931-0.1595-0.1462-0.2792-0.1462c-0.1329,0-0.226,0.0665-0.2925,0.1994c-0.0798,0.1329-0.1064,0.3324-0.1064,0.5717
		c0,0.2526,0.0399,0.4387,0.1196,0.5584s0.1728,0.1861,0.2925,0.1861s0.2127-0.0532,0.2792-0.1595
		c0.0399-0.0532,0.0665-0.1462,0.0931-0.2526h0.3457c-0.0266,0.2393-0.1064,0.4387-0.226,0.585
		c-0.1196,0.1462-0.2792,0.226-0.4786,0.226c-0.2393,0-0.4254-0.1064-0.5584-0.3058c-0.1329-0.1994-0.1994-0.4919-0.1994-0.8376
		C16.6058,22.4086,16.6856,22.1161,16.8318,21.9034"/>
	<path fill="#223C7E" d="M19.4508,23.3525c0.0798-0.1329,0.1196-0.3324,0.1196-0.5717c0-0.2526-0.0399-0.4387-0.1196-0.5717
		c-0.0798-0.1329-0.1861-0.1994-0.3191-0.1994c-0.1329,0-0.2526,0.0665-0.3324,0.1994c-0.0798,0.1329-0.1197,0.3324-0.1197,0.5717
		c0,0.2526,0.0399,0.4387,0.1197,0.5717c0.0798,0.1329,0.1861,0.1994,0.3324,0.1994
		C19.2647,23.5519,19.3711,23.4854,19.4508,23.3525 M19.6636,23.6848c-0.1196,0.1728-0.3058,0.2526-0.5451,0.2526
		s-0.4121-0.0931-0.5451-0.2526c-0.1728-0.2127-0.2526-0.5185-0.2526-0.9173s0.0798-0.7046,0.2526-0.9173
		c0.1196-0.1728,0.3058-0.2526,0.5451-0.2526c0.2393,0,0.4121,0.0798,0.5451,0.2526c0.1728,0.1994,0.2526,0.5052,0.2526,0.9173
		C19.9161,23.1663,19.8364,23.4721,19.6636,23.6848"/>
	<path fill="#223C7E" d="M21.3387,21.6774h0.4919v2.2069h-0.3191v-1.489c0-0.0399,0-0.1064,0-0.1861c0-0.0798,0-0.1329,0-0.1728
		l-0.3191,1.8612h-0.3324l-0.3058-1.8612c0,0.0399,0,0.1064,0,0.1728c0,0.0798,0,0.1329,0,0.1861v1.489h-0.3191v-2.2069h0.5052
		l0.3058,1.7416L21.3387,21.6774z"/>
	<path fill="#223C7E" d="M23.0802,22.1294c-0.0399-0.0532-0.1064-0.0798-0.1861-0.0798H22.575v0.6514h0.3191
		c0.0798,0,0.1462-0.0266,0.1861-0.0798c0.0399-0.0532,0.0665-0.1329,0.0665-0.2526
		C23.1467,22.2623,23.1201,22.1826,23.0802,22.1294 M23.3461,22.927c-0.0931,0.1064-0.2393,0.1595-0.4254,0.1595H22.575v0.7977
		h-0.3457v-2.2069h0.7179c0.1728,0,0.3058,0.0532,0.3988,0.1728c0.1064,0.1196,0.1462,0.2925,0.1462,0.5318
		C23.4924,22.6346,23.4392,22.8207,23.3461,22.927"/>
	<path fill="#223C7E" d="M24.0906,23.0467h0.4254l-0.2127-0.8641L24.0906,23.0467z M24.1039,21.6774h0.3855l0.585,2.2069h-0.3722
		l-0.1064-0.452h-0.6115l-0.1196,0.452h-0.3589L24.1039,21.6774z"/>
	<path fill="#223C7E" d="M25.3403,21.6774h0.3589l0.6647,1.5422v-1.5422h0.3191v2.2069h-0.3457l-0.678-1.5687v1.5687h-0.3191
		V21.6774z M25.9385,21.1057c0.0133,0,0.0399,0.0133,0.0532,0.0266l0.1064,0.0532c0.0266,0.0133,0.0532,0.0266,0.0665,0.0266
		c0.0133,0,0.0266,0,0.0266,0c0.0399,0,0.0665-0.0133,0.0798-0.0399c0.0133-0.0266,0.0266-0.0532,0.0266-0.0931h0.1462
		c-0.0133,0.1064-0.0399,0.1994-0.0798,0.2659c-0.0399,0.0665-0.0931,0.1064-0.1728,0.1064c-0.0266,0-0.0532,0-0.0931-0.0266
		c-0.0266-0.0133-0.0532-0.0133-0.0665-0.0266l-0.0931-0.0399c-0.0133,0-0.0266-0.0133-0.0399-0.0133c-0.0133,0-0.0266,0-0.0399,0
		c-0.0266,0-0.0532,0.0133-0.0665,0.0399c-0.0133,0.0266-0.0266,0.0532-0.0399,0.0931h-0.1462
		c0.0133-0.1064,0.0399-0.1861,0.0665-0.2393c0.0532-0.0931,0.1196-0.1462,0.2127-0.1462
		C25.912,21.0924,25.9252,21.0924,25.9385,21.1057"/>
	<rect x="27.042" y="21.6774" fill="#223C7E" width="0.3457" height="2.2069"/>
	<path fill="#223C7E" d="M28.2119,23.0467h0.4254l-0.2127-0.8641L28.2119,23.0467z M28.2385,21.6774h0.3855l0.585,2.2069h-0.3722
		l-0.1064-0.452h-0.6115l-0.1196,0.452h-0.3589L28.2385,21.6774z"/>
	<path fill="#223C7E" d="M30.4321,22.0496v1.4358h0.3191c0.1595,0,0.2792-0.1064,0.3457-0.3191
		c0.0399-0.1196,0.0532-0.2659,0.0532-0.4254c0-0.226-0.0266-0.3988-0.0798-0.5185c-0.0532-0.1196-0.1595-0.1861-0.3191-0.1861
		h-0.3191V22.0496z M31.0569,21.7172c0.1196,0.0532,0.2127,0.1462,0.2792,0.2792c0.0532,0.1064,0.0931,0.226,0.1196,0.359
		c0.0266,0.1329,0.0266,0.2526,0.0266,0.3722c0,0.2925-0.0399,0.5451-0.1329,0.7445c-0.1196,0.2792-0.3058,0.4121-0.5584,0.4121
		h-0.7179v-2.2069h0.7179C30.9107,21.6774,30.9904,21.6907,31.0569,21.7172"/>
	<polygon fill="#223C7E" points="33.0378,22.0629 32.1604,22.0629 32.1604,22.5282 32.958,22.5282 32.958,22.9137 32.1604,22.9137 
		32.1604,23.4854 33.0777,23.4854 33.0777,23.8842 31.8147,23.8842 31.8147,21.6774 33.0378,21.6774 	"/>
	<path fill="#223C7E" d="M34.3406,23.1929c0.0133,0.1064,0.0266,0.1728,0.0665,0.226c0.0532,0.0931,0.1595,0.1329,0.2925,0.1329
		c0.0798,0,0.1462-0.0133,0.1994-0.0399c0.0931-0.0399,0.1462-0.1329,0.1462-0.2526c0-0.0798-0.0266-0.1329-0.0665-0.1728
		c-0.0532-0.0399-0.1196-0.0798-0.226-0.1064l-0.1728-0.0532c-0.1728-0.0532-0.2925-0.1064-0.3589-0.1728
		c-0.1064-0.1064-0.1728-0.2659-0.1728-0.4786c0-0.1994,0.0532-0.3589,0.1595-0.4919c0.1064-0.1329,0.2659-0.1994,0.4786-0.1994
		c0.1728,0,0.3191,0.0665,0.452,0.1861c0.1196,0.1196,0.1861,0.3058,0.1994,0.5318h-0.3324c0-0.1329-0.0532-0.226-0.1329-0.2792
		c-0.0532-0.0399-0.1196-0.0532-0.1994-0.0532c-0.0931,0-0.1595,0.0266-0.2127,0.0665c-0.0532,0.0532-0.0798,0.1196-0.0798,0.1994
		s0.0266,0.1329,0.0798,0.1728c0.0399,0.0266,0.1064,0.0532,0.2127,0.0931l0.2925,0.0931c0.1196,0.0399,0.226,0.0931,0.2792,0.1595
		c0.0931,0.1064,0.1462,0.2526,0.1462,0.452s-0.0532,0.3722-0.1728,0.5052c-0.1196,0.1329-0.2792,0.1994-0.4919,0.1994
		s-0.3855-0.0665-0.5052-0.1994c-0.1197-0.1329-0.1861-0.3058-0.1861-0.5451h0.3058V23.1929z"/>
	<polygon fill="#223C7E" points="36.9065,22.0629 36.029,22.0629 36.029,22.5282 36.84,22.5282 36.84,22.9137 36.029,22.9137 
		36.029,23.4854 36.9464,23.4854 36.9464,23.8842 35.6967,23.8842 35.6967,21.6774 36.9065,21.6774 	"/>
	<path fill="#223C7E" d="M38.3955,22.3554c-0.0266-0.1462-0.0931-0.2526-0.1861-0.3191c-0.0532-0.0399-0.1197-0.0532-0.1861-0.0532
		c-0.1329,0-0.2393,0.0665-0.3324,0.1994c-0.0798,0.1329-0.1329,0.3324-0.1329,0.6115c0,0.2659,0.0399,0.4653,0.1462,0.5717
		c0.0931,0.1064,0.1994,0.1728,0.3191,0.1728s0.2127-0.0399,0.2792-0.1329c0.0798-0.0931,0.1196-0.2127,0.1329-0.3457h-0.3855
		v-0.3722h0.6913v1.1832h-0.2393l-0.0399-0.2792c-0.0665,0.1064-0.1329,0.1728-0.1861,0.226
		c-0.0931,0.0798-0.1994,0.1064-0.3324,0.1064c-0.226,0-0.3988-0.1064-0.5451-0.3058s-0.2127-0.4786-0.2127-0.8376
		c0-0.3589,0.0798-0.6381,0.226-0.8641c0.1462-0.2127,0.3457-0.3191,0.585-0.3191c0.2127,0,0.3855,0.0665,0.5052,0.2127
		c0.1329,0.1462,0.1994,0.3191,0.2127,0.5318h-0.3191V22.3554z"/>
	<path fill="#223C7E" d="M39.1266,21.6774h0.3457v1.356c0,0.1462,0.0133,0.2659,0.0399,0.3324
		c0.0399,0.1196,0.1329,0.1861,0.2792,0.1861s0.226-0.0665,0.2792-0.1861c0.0266-0.0665,0.0399-0.1861,0.0399-0.3324v-1.356h0.3457
		v1.356c0,0.2393-0.0266,0.4121-0.0798,0.5451c-0.1064,0.2393-0.2925,0.3589-0.585,0.3589c-0.2792,0-0.4786-0.1196-0.585-0.3589
		c-0.0532-0.1329-0.0798-0.3058-0.0798-0.5451C39.1267,23.0334,39.1267,21.6774,39.1266,21.6774z"/>
	<path fill="#223C7E" d="M41.1873,22.0496v0.5983h0.3855c0.0798,0,0.1329-0.0133,0.1728-0.0399
		c0.0665-0.0399,0.1064-0.1196,0.1064-0.2526c0-0.1329-0.0399-0.226-0.1064-0.2659c-0.0399-0.0266-0.0931-0.0399-0.1728-0.0399
		H41.1873z M41.9318,21.7305c0.0665,0.0399,0.1196,0.0931,0.1595,0.1595c0.0399,0.0532,0.0665,0.1196,0.0798,0.1861
		c0.0266,0.0665,0.0266,0.1462,0.0266,0.226c0,0.1064-0.0133,0.2127-0.0665,0.3058c-0.0399,0.1064-0.1064,0.1728-0.1994,0.2127
		c0.0798,0.0399,0.1329,0.1064,0.1595,0.1728c0.0266,0.0798,0.0532,0.1861,0.0532,0.3457v0.1462c0,0.1064,0,0.1728,0.0133,0.2127
		c0.0133,0.0532,0.0266,0.0931,0.0665,0.1196v0.0532h-0.3855c-0.0133-0.0532-0.0133-0.0931-0.0266-0.1196
		c-0.0133-0.0665-0.0133-0.1196-0.0133-0.1861v-0.2127c0-0.1462-0.0266-0.2393-0.0532-0.2792
		c-0.0399-0.0399-0.1064-0.0665-0.2127-0.0665H41.174v0.8641h-0.3324v-2.2069h0.811
		C41.7722,21.6774,41.8653,21.6907,41.9318,21.7305"/>
	<path fill="#223C7E" d="M43.6202,23.3525c0.0798-0.1329,0.1196-0.3324,0.1196-0.5717c0-0.2526-0.0399-0.4387-0.1196-0.5717
		c-0.0798-0.1329-0.1861-0.1994-0.3324-0.1994c-0.1329,0-0.2526,0.0665-0.3324,0.1994c-0.0798,0.1329-0.1196,0.3324-0.1196,0.5717
		c0,0.2526,0.0399,0.4387,0.1196,0.5717c0.0798,0.1329,0.1861,0.1994,0.3324,0.1994S43.5404,23.4854,43.6202,23.3525
		 M43.8329,23.6848c-0.1197,0.1728-0.3058,0.2526-0.5451,0.2526c-0.2393,0-0.4121-0.0931-0.5451-0.2526
		c-0.1728-0.2127-0.2526-0.5185-0.2526-0.9173s0.0798-0.7046,0.2526-0.9173c0.1196-0.1728,0.3058-0.2526,0.5451-0.2526
		c0.2393,0,0.4121,0.0798,0.5451,0.2526c0.1595,0.1994,0.2526,0.5052,0.2526,0.9173
		C44.0855,23.1663,44.0057,23.4721,43.8329,23.6848"/>
	<path fill="#223C7E" d="M44.6571,23.1929c0.0133,0.1064,0.0266,0.1728,0.0665,0.226c0.0532,0.0931,0.1462,0.1329,0.2925,0.1329
		c0.0798,0,0.1462-0.0133,0.1994-0.0399c0.0931-0.0399,0.1462-0.1329,0.1462-0.2526c0-0.0798-0.0266-0.1329-0.0665-0.1728
		c-0.0532-0.0399-0.1197-0.0798-0.226-0.1064l-0.1728-0.0532c-0.1728-0.0532-0.2925-0.1064-0.359-0.1728
		c-0.1064-0.1064-0.1728-0.2659-0.1728-0.4786c0-0.1994,0.0532-0.3589,0.1595-0.4919c0.1064-0.1329,0.2659-0.1994,0.4786-0.1994
		c0.1728,0,0.3191,0.0665,0.452,0.1861c0.1196,0.1196,0.1861,0.3058,0.1994,0.5318h-0.3324c0-0.1329-0.0532-0.226-0.1329-0.2792
		c-0.0532-0.0399-0.1197-0.0532-0.1994-0.0532c-0.0931,0-0.1595,0.0266-0.2127,0.0665c-0.0532,0.0532-0.0798,0.1196-0.0798,0.1994
		s0.0266,0.1329,0.0798,0.1728c0.0399,0.0266,0.1064,0.0532,0.2127,0.0931l0.2925,0.0931c0.1196,0.0399,0.226,0.0931,0.2792,0.1595
		c0.0931,0.1064,0.1462,0.2526,0.1462,0.452s-0.0532,0.3722-0.1728,0.5052c-0.1197,0.1329-0.2792,0.1994-0.4919,0.1994
		s-0.3855-0.0665-0.5052-0.1994c-0.1196-0.1329-0.1861-0.3058-0.1861-0.5451h0.3058V23.1929z"/>
	<path fill="#B51745" d="M10.065,4.1553c0,0,1.5687-0.8243,6.3282-2.167c0,0,4.4403-1.2763,10.024-1.7549
		c0,0,3.43-0.4254,7.1923,0.0665c0,0,3.0976,0.2526,2.9248,2.8849c0,0-0.1861,1.4757-1.1433,2.8184c0,0-0.4919,0.811-0.5185,1.2896
		c0,0-0.2659,0.7312,0.5983,0.6381c0,0,4.7328-0.9572,9.8778-0.8508c0,0,1.3427-0.1462,2.1803,0.7445
		c0,0,0.4387,0.7312,1.2896,0.7312c0,0,2.4329,0.0266,2.4861,1.3294c0,0-0.1196,1.0104-0.9572,1.6751
		c0,0-0.1462-0.3988-1.7815-0.4387c0,0-3.2173-0.1728-5.2779,1.3693c0,0-0.0665,0.0399-0.0931-0.0133
		c0,0-0.0133-0.0532,0.0532-0.1329c0,0,1.6751-1.8479,5.7033-1.7815c0,0,0.6248,0.0133,1.2098,0.1064
		c0,0,0.4254-0.5983-0.0798-1.0237c0,0-0.3988-0.3457-1.6485-0.4786c0,0-1.2231-0.0665-1.582-0.5318c0,0-0.1994-0.585-0.8774-0.6514
		c0,0-1.0104-0.1462-3.3502-0.0532c0,0-3.0311,0.1462-5.9958,0.6647c0,0-1.4624,0.2127-1.9942,0.2925
		c0,0-0.678,0.0931-0.7977-0.3855c0,0-0.1861-0.5451,0.3191-1.4225c0,0,0.3058-0.6248,0.8376-1.5555c0,0,0.5451-0.9971,0.678-1.9942
		c0,0,0.4121-1.8213-3.1774-2.1005c0,0-1.4624-0.1595-4.5866-0.2393c0,0-3.8288,0.0532-7.0859,0.6248
		c0,0-4.5334,0.7844-7.3385,1.5289c0,0-2.1537,0.5451-3.3369,0.9306c0,0-0.1861,0.0665-0.2127,0
		C9.932,4.2882,9.932,4.2217,10.065,4.1553"/>
	<polygon fill="#B51745" points="44.1387,13.1556 44.1254,12.6637 44.1254,12.6637 44.2184,13.1556 44.3381,13.1556 
		44.4444,12.6637 44.4444,12.6637 44.4311,13.1556 44.5641,13.1556 44.5641,12.5308 44.3647,12.5308 44.2849,12.903 44.2849,12.903 
		44.2051,12.5308 43.9924,12.5308 43.9924,13.1556 	"/>
	<path fill="#B51745" d="M44.8433,12.6371c0.0665,0,0.1064,0,0.1064,0.0798c0,0.0399-0.0133,0.0798-0.0532,0.0798h-0.0532V12.6371z
		 M44.8433,12.9163h0.0532c0.0399,0,0.0532,0.0266,0.0532,0.0665s0,0.0931,0,0.1462c0,0.0133,0,0.0266,0.0133,0.0399h0.1595v-0.0133
		c-0.0133,0-0.0133-0.0133-0.0133-0.0266c-0.0133-0.0399-0.0133-0.1462-0.0133-0.1994c0-0.0399-0.0266-0.0665-0.0798-0.0798l0,0
		c0.0665-0.0266,0.0798-0.0798,0.0798-0.1462c0-0.1196-0.0665-0.1728-0.1861-0.1728H44.697v0.6381h0.1462V12.9163z"/>
</g>
</svg>
