<?xml version="1.0" encoding="utf-8"?>
<!-- Generator: Adobe Illustrator 17.0.0, SVG Export Plug-In . SVG Version: 6.00 Build 0)  -->
<!DOCTYPE svg PUBLIC "-//W3C//DTD SVG 1.1//EN" "http://www.w3.org/Graphics/SVG/1.1/DTD/svg11.dtd">
<svg version="1.1" id="Capa_1" xmlns="http://www.w3.org/2000/svg" xmlns:xlink="http://www.w3.org/1999/xlink" x="0px" y="0px"
	 width="60px" height="24px" viewBox="0 0 60 24" enable-background="new 0 0 60 24" xml:space="preserve">
<g>
	<path fill="#D4D3D5" d="M32.4889,8.8085l1.4188-7.9982H31.543l-1.1201,7.0772c-0.5117,1.4508-2.7471,1.7111-2.6884-0.0747
		L28.78,0.8103h-2.2653l-1.2197,7.9484C25.334,11.7365,30.9361,12.764,32.4889,8.8085z"/>
	<path fill="#D4D3D5" d="M35.6253,11.3837l0.3501-2.4552c0.0413-0.1973,0.1166-0.3134,0.4295,0.1376l1.4109,2.3176h2.8377
		L38.9359,8.567c-0.1488-0.1691-0.1376-0.4651,0.1244-0.6343c2.2835-1.2241,3.291-3.0507,2.6984-4.9854
		c-0.3803-1.2415-1.2532-2.0258-2.6628-2.1321C36.5987,0.6268,34.6276,2.6167,34.306,4.81l-1.0454,6.5737H35.6253z M36.7097,5.4077
		c0.0082-3.2612,3.8009-2.4241,2.3811-0.3355c-0.1561,0.2297-0.3589,0.4323-0.5603,0.5925
		c-0.1547,0.1231-0.2403,0.2025-0.4355,0.2025h-0.9307h-0.4546V5.4077z"/>
	<path fill="#D4D3D5" d="M13.8852,2.3882l0.2515-1.5779H9.7875c-0.7759,0.0034-1.205,0.6804-1.4188,1.7752l-1.0953,7.5174
		c-0.0998,0.8733,0.2502,1.3003,0.921,1.2808h4.2565l0.3087-1.9778H9.6381l0.4725-2.6129h3.0719l0.2624-1.6187h-2.9854
		l0.3734-2.7861H13.8852z"/>
	<path fill="#D4D3D5" d="M21.0634,10.8745c2.0589-1.0656,3.1995-2.6211,3.5098-4.4805h-2.5141h-1.5184h-2.2403v1.5184h3.7587
		c-2.0204,2.2558-7.18,2.329-5.7326-2.732c0.6293-2.0245,4.7759-3.7317,6.4009-0.5538h2.0201
		c-0.8232-3.51-3.6027-4.7265-7.2187-3.0866c-3.4278,1.8764-4.6871,6.3795-1.9665,8.8616
		C17.0102,11.474,18.819,11.6908,21.0634,10.8745z"/>
	<path fill="#D4D3D5" d="M46.4756,11.3837c2.8209,0,5.5168-2.3673,6.0198-5.2865c0.5033-2.9196-1.3767-5.2869-4.1975-5.2869
		s-5.5167,2.3673-6.0197,5.2869C41.775,9.0163,43.6549,11.3837,46.4756,11.3837z M44.1639,6.097
		c0.3172-1.8418,2.0181-3.3353,3.7976-3.3353c1.7797,0,2.9656,1.4935,2.6482,3.3353c-0.3174,1.8417-2.0182,3.3352-3.7978,3.3352
		S43.8464,7.9387,44.1639,6.097z"/>
	<path fill="#D4D3D5" d="M1.2246,10.9243c0.9678,0.4843,2.6917,0.7162,4.0079,0c1.4973-0.944,1.6966-2.8728,0.9207-3.7836
		L3.1662,4.328c-0.6423-0.6808-0.512-1.7737,0.2987-2.1159c0.9884-0.2276,1.5723,0.0993,1.6678,1.0952H7.05
		c-0.1339-0.866-0.4627-1.5935-1.2204-2.0162c-1.3321-0.7214-2.5274-0.561-3.6605,0C0.5933,2.2802,0.3394,4.4015,1.349,5.2489
		l2.7879,2.5888C4.9279,8.6174,4.5096,9.8063,3.44,9.9535C2.2775,10.1588,1.8022,9.402,1.7971,7.987h-1.8198
		C-0.1045,9.0065,0.0076,10.0718,1.2246,10.9243z"/>
	<path fill="#D4D3D5" d="M58.9016,1.291c-1.304-0.7214-2.5055-0.561-3.6605,0c-1.6144,0.9891-1.9509,3.1104-0.9743,3.9578
		l2.687,2.5888c0.7606,0.7797,0.296,1.9686-0.7794,2.1158c-1.1703,0.2053-1.6163-0.5515-1.5662-1.9664h-1.8199
		c-0.1216,1.0195-0.0509,2.0848,1.1328,2.9373c0.9489,0.4843,2.6638,0.7162,4.0079,0c1.5341-0.944,1.8086-2.8728,1.0682-3.7836
		L56.1199,4.328c-0.6158-0.6808-0.4429-1.7736,0.3811-2.1159c0.9974-0.2276,1.5685,0.0993,1.6251,1.0952h1.9173
		C59.9433,2.4412,59.6428,1.7138,58.9016,1.291z"/>
	<path fill="#BD1A23" d="M22.1584,13.3309h-3.1891H18.773c-0.5892,0.0674-1.0903,0.5125-1.2175,1.3434l-1.4154,8.5218h2.2403
		l1.3142-8.3101l2.0473-0.0057c1.1253,0.2017,0.5766,2.3997-0.2697,2.5393h-1.9749l-0.0239,1.2724h2.3201
		C24.1834,18.4617,25.6456,13.6718,22.1584,13.3309z"/>
	<path fill="#BD1A23" d="M45.3512,13.3329c-2.6313,0-5.1462,2.2083-5.6155,4.9318c-0.4693,2.7231,1.2843,4.9314,3.9155,4.9314
		c2.6315,0,5.1464-2.2083,5.6156-4.9314C49.7362,15.5412,47.9826,13.3329,45.3512,13.3329z M47.5076,18.2645
		c-0.296,1.7179-1.8825,3.1111-3.5427,3.1111c-1.66,0-2.7663-1.3933-2.4702-3.1111c0.2961-1.7181,1.8827-3.1113,3.5427-3.1113
		C46.6976,15.1532,47.8039,16.5464,47.5076,18.2645z"/>
	<path fill="#BD1A23" d="M52.812,16.617c-0.5882-0.6353-0.4231-1.6552,0.364-1.9747c0.9527-0.2121,1.4982,0.0928,1.5522,1.0224
		h1.8312c-0.0956-0.8083-0.3827-1.4872-1.0905-1.8818c-1.2454-0.6733-2.3929-0.5235-3.496,0
		c-1.5418,0.9231-1.8633,2.9029-0.9306,3.6937l2.5662,2.416c0.7265,0.7277,0.2827,1.8371-0.7444,1.9746
		c-1.1179,0.1914-1.5437-0.5147-1.4958-1.8353h-1.738c-0.1161,0.9515-0.0487,1.9456,1.0819,2.7413
		c0.9063,0.4519,2.5441,0.6684,3.8277,0c1.4653-0.881,1.7274-2.6811,1.0202-3.5311L52.812,16.617z"/>
	<path fill="#BD1A23" d="M57.4946,14.8476l-1.2838,8.3485h2.2403l1.5165-9.8632H58.845
		C58.1138,13.2931,57.6967,13.8622,57.4946,14.8476z"/>
	<path fill="#BD1A23" d="M29.8292,13.3329c-2.6313,0-5.1462,2.2083-5.6154,4.9318c-0.4694,2.7231,1.2843,4.9314,3.9155,4.9314
		c2.6315,0,5.1463-2.2083,5.6155-4.9314C34.2142,15.5412,32.4606,13.3329,29.8292,13.3329z M31.9856,18.2645
		c-0.296,1.7179-1.8826,3.1111-3.5427,3.1111c-1.66,0-2.7664-1.3933-2.4702-3.1111c0.2961-1.7181,1.8827-3.1113,3.5426-3.1113
		C31.1755,15.1532,32.2818,16.5464,31.9856,18.2645z"/>
	<path fill="#BD1A23" d="M9.7851,13.3309H7.5448l-1.3102,8.5217c-0.1386,0.8311,0.2202,1.276,0.7878,1.3435h0.1963h3.5735
		l0.372-1.9519H8.5684L9.7851,13.3309z"/>
	<path fill="#BD1A23" d="M6.1926,14.8048l0.2346-1.4719H2.37c-0.7238,0.0031-1.1241,0.6347-1.3235,1.656l-1.0217,7.0125
		c-0.093,0.8146,0.2334,1.213,0.8591,1.1947h3.9707l0.2879-1.8449H2.2307l0.4408-2.4374h2.8656l0.2447-1.51H2.997l0.3482-2.599
		H6.1926z"/>
	<path fill="#BD1A23" d="M40.8331,14.1028l0.118-0.7595l-2.1991-0.0054l0.0007-0.005H37.63
		c-0.0575-0.0031-0.1129-0.0025-0.1665,0.0018l-0.7305-0.0018l-0.0004,0.0031l-1.1533-0.0032
		c-0.6878,0.0332-1.1167,0.2556-1.1666,0.7545l-0.118,0.7595l1.9844,0.0048l-1.2831,8.3445h2.2404l1.2826-8.342l1.1476,0.0031
		C40.3543,14.824,40.7832,14.6016,40.8331,14.1028z"/>
</g>
</svg>
