<?xml version="1.0" encoding="utf-8"?>
<!-- Generator: Adobe Illustrator 17.0.0, SVG Export Plug-In . SVG Version: 6.00 Build 0)  -->
<!DOCTYPE svg PUBLIC "-//W3C//DTD SVG 1.1//EN" "http://www.w3.org/Graphics/SVG/1.1/DTD/svg11.dtd">
<svg version="1.1" id="Capa_1" xmlns="http://www.w3.org/2000/svg" xmlns:xlink="http://www.w3.org/1999/xlink" x="0px" y="0px"
	 width="60px" height="24px" viewBox="0 0 60 24" enable-background="new 0 0 60 24" xml:space="preserve">
<g id="GENERALDESEGUROS">
	<path fill="#073E89" d="M22.3188,9.7137h0.877c0.7047,0,1.0336,0.3915,1.0336,1.4564v1.0649c0,1.2215-0.3445,1.5816-1.2841,1.5816
		h-0.6421L22.3188,9.7137L22.3188,9.7137z M21.6455,14.396h1.2058c0.9239,0,1.4564-0.2192,1.7382-0.6734
		c0.2192-0.3445,0.3289-1.0022,0.3289-2.1297c0-0.1723-0.0157-1.2215-0.2349-1.6599c-0.2662-0.5638-0.7517-0.7987-1.4094-0.7987
		h-1.6286L21.6455,14.396L21.6455,14.396z M28.8647,14.396v-0.5794h-2.0828v-1.8322h1.8948v-0.5794h-1.8948V9.7137h2.0514V9.1342
		h-2.7248v5.2774L28.8647,14.396L28.8647,14.396z M34.4709,12.9553c0-1.6599-2.2237-1.566-2.2237-2.5682
		c0-0.3602,0.2192-0.5638,0.5638-0.5638c0.4385,0,0.5168,0.4072,0.5168,0.7987h1.0805c0.0783-1.0962-0.4541-1.5816-1.5347-1.5816
		c-1.3468,0-1.7382,0.6577-1.7382,1.4877c0,1.566,2.2237,1.6286,2.2237,2.5839c0,0.3602-0.1879,0.5951-0.5481,0.5951
		c-0.6107,0-0.6264-0.4228-0.6264-0.9239h-1.0962c-0.0626,0.9083,0.2036,1.7226,1.566,1.7226
		C33.4687,14.4899,34.4709,14.3333,34.4709,12.9553L34.4709,12.9553z M38.2449,14.396v-0.8143h-1.8322V12.047h1.6286v-0.8143
		h-1.6286V9.9329h1.7696V9.1186h-2.8814v5.2774H38.2449L38.2449,14.396z M42.5044,10.7472
		c0.0626-1.0962-0.6107-1.7069-1.6913-1.7069c-1.8009,0-1.8635,1.3467-1.8635,2.6778c0,2.0045,0.2192,2.7718,2.0671,2.7718
		c0.4385,0,1.1902-0.1096,1.4877-0.1723v-2.6778h-1.7069v0.8143h0.5951v1.1745c-0.1723,0.0626-0.3602,0.1096-0.5481,0.1096
		c-0.6264,0-0.783-0.2975-0.783-1.9418c0-1.0179,0-1.9575,0.689-1.9575c0.5794,0,0.6577,0.4385,0.6577,0.9239h1.0962V10.7472z
		 M45.9339,9.1186v3.6644c0,0.5794-0.2192,0.9083-0.7047,0.9083c-0.4072,0-0.6734-0.2506-0.6734-0.9083V9.1186h-1.0962v3.7427
		c0,0.9866,0.5794,1.6286,1.8009,1.6286c1.3467,0,1.7852-0.83,1.7852-1.6286V9.1186H45.9339L45.9339,9.1186z M49.0972,9.9329h0.4855
		c0.3445,0,0.5638,0.1879,0.5638,0.689c0,0.3289-0.1253,0.7673-0.5638,0.7673h-0.4855V9.9329L49.0972,9.9329z M49.0972,12.2192
		h0.2819c0.8456,0,0.783,0.5324,0.783,1.1588c0,0.3445-0.0313,0.7047,0.1096,1.0179h1.0805
		c-0.1096-0.2192-0.1253-1.2058-0.1253-1.5503c0-0.9553-0.7204-1.0022-0.9553-1.0336v-0.0157
		c0.7204-0.1096,0.9866-0.6264,0.9866-1.2998c0-0.8926-0.4855-1.3781-1.2371-1.3781h-2.0358v5.2774h1.0962L49.0972,12.2192
		L49.0972,12.2192z M53.8892,13.6913c-0.6264,0-0.7047-0.5794-0.7047-1.9418s0.0783-1.9418,0.7047-1.9418
		s0.7047,0.5794,0.7047,1.9418S54.5155,13.6913,53.8892,13.6913L53.8892,13.6913z M53.8892,14.4899
		c1.8165,0,1.8165-1.3468,1.8165-2.7248c0-1.3937,0-2.7248-1.8165-2.7248s-1.8165,1.3311-1.8165,2.7248
		C52.0726,13.1432,52.0726,14.4899,53.8892,14.4899L53.8892,14.4899z M59.9339,12.9553c0-1.6599-2.2237-1.566-2.2237-2.5682
		c0-0.3602,0.2192-0.5638,0.5638-0.5638c0.4385,0,0.5168,0.4072,0.5168,0.7987h1.0805c0.0783-1.0962-0.4541-1.5816-1.5347-1.5816
		c-1.3468,0-1.7383,0.6577-1.7383,1.4877c0,1.566,2.2237,1.6286,2.2237,2.5839c0,0.3602-0.1879,0.5951-0.5481,0.5951
		c-0.6107,0-0.6264-0.4228-0.6264-0.9239h-1.0962c-0.0626,0.9083,0.2036,1.7226,1.566,1.7226
		C58.9316,14.4899,59.9339,14.3333,59.9339,12.9553L59.9339,12.9553z M19.0459,3.6376c0.0626-1.0962-0.6107-1.7069-1.6913-1.7069
		c-1.8009,0-1.8635,1.3468-1.8635,2.6778c0,2.0045,0.2192,2.7718,2.0671,2.7718c0.4385,0,1.1902-0.1096,1.4877-0.1723V4.5302H17.339
		v0.8143h0.5951V6.519c-0.1723,0.0626-0.3602,0.1096-0.5481,0.1096c-0.6264,0-0.783-0.2975-0.783-1.9418
		c0-1.0179,0-1.9575,0.689-1.9575c0.5794,0,0.6577,0.4385,0.6577,0.9239L19.0459,3.6376L19.0459,3.6376z M22.9609,7.2864V6.4721
		h-1.8322V4.9374h1.6443V4.1231h-1.6286V2.8233h1.7696V2.0247h-2.8814V7.302h2.9284V7.2864z M24.8088,7.2864V3.434h0.0157
		l1.4407,3.8523h1.4564V2.0247h-1.0336v3.6488h-0.0157l-1.4094-3.6488h-1.4877V7.302h1.0336V7.2864z M31.6521,7.2864V6.4721h-1.8322
		V4.9374h1.6286V4.1231h-1.6286V2.8233h1.7696V2.0247h-2.8814V7.302h2.9441V7.2864z M33.547,2.8233h0.4855
		c0.3445,0,0.5638,0.1879,0.5638,0.689c0,0.3289-0.1253,0.7673-0.5638,0.7673H33.547V2.8233L33.547,2.8233z M33.547,5.1097h0.2819
		c0.8456,0,0.783,0.5324,0.783,1.1588c0,0.3445-0.0313,0.7047,0.1096,1.0179h1.0805c-0.1096-0.2192-0.1253-1.2058-0.1253-1.5503
		c0-0.9553-0.7204-1.0022-0.9553-1.0336V4.6868c0.7204-0.1096,0.9866-0.6264,0.9866-1.2998c0-0.8926-0.4855-1.3781-1.2371-1.3781
		h-2.0358v5.2774h1.0962L33.547,5.1097L33.547,5.1097z M37.5089,7.2864l0.2975-1.1745h1.5033l0.2975,1.1745h1.1588L39.3411,2.009
		h-1.4564l-1.4564,5.2774H37.5089L37.5089,7.2864z M39.0749,5.3132h-1.0492l0.5011-2.2863h0.0157L39.0749,5.3132L39.0749,5.3132z
		 M44.2427,7.2864v-0.877h-1.6443V2.0247h-1.0962V7.302h2.7405V7.2864z"/>
	<g>
		<polygon fill="#5799D1" points="14.3636,7.7875 9.603,3.0112 4.8267,7.7875 		"/>
		<polygon fill="#073E89" points="0.0661,12.5481 9.603,22.0693 19.1242,12.5481 		"/>
		<polygon fill="#72BC2A" points="9.603,12.5481 19.1242,12.5481 14.3636,7.7875 		"/>
		<polygon fill="#0762A6" points="4.8267,7.7875 0.0661,12.5481 9.5873,12.5481 14.3636,7.7875 		"/>
	</g>
</g>
</svg>
