<?xml version="1.0" encoding="utf-8"?>
<!-- Generator: Adobe Illustrator 17.0.0, SVG Export Plug-In . SVG Version: 6.00 Build 0)  -->
<!DOCTYPE svg PUBLIC "-//W3C//DTD SVG 1.1//EN" "http://www.w3.org/Graphics/SVG/1.1/DTD/svg11.dtd">
<svg version="1.1" id="Capa_1" xmlns="http://www.w3.org/2000/svg" xmlns:xlink="http://www.w3.org/1999/xlink" x="0px" y="0px"
	 width="60px" height="24px" viewBox="0 0 60 24" enable-background="new 0 0 60 24" xml:space="preserve">
<g id="GNP">
	<g>
		<path fill="#004988" d="M26.9165,11.5011c0-0.6242,0.1114-0.8471-0.587-1.2187l0,0l-0.4829-0.2376v-0.431h4.8147v0.431
			l-0.4904,0.1932l0,0c-0.7282,0.2972-0.7282,0.3789-0.7133,1.2631l0,0L29.465,15.06l-0.1784,0.1708l0,0
			c-0.8395,0.2155-2.8011,0.7504-4.5695,0.7504c-4.0568,0-6.0554-2.1027-6.0554-6.6498c0-4.8891,2.8234-7.0066,6.5309-7.0066
			c0.9956,0,2.8012,0,4.0568,1.0625c0.4161,0.3493,0.4533,0.7431,0.4533,0.8991c0,0.2972-0.0594,0.3566-0.1188,0.4755l0,0
			l-0.899,1.7462h-0.3344l0,0c0-0.8619-1.003-3.1578-3.611-3.1578c-3.024,0-3.1726,2.1101-3.1726,5.6765
			c0,3.1207,0.3269,5.9292,3.938,5.9292c1.1664,0,1.3819-0.6166,1.4117-1.3076C26.9165,13.6483,26.9165,11.8503,26.9165,11.5011
			L26.9165,11.5011L26.9165,11.5011z"/>
		<path fill="#004988" d="M31.8649,15.2902l0.862-0.3492l0,0c0.7058-0.2749,0.7058-0.7876,0.7058-1.9244l0,0V4.8213l0,0
			c0-0.6315-0.1782-0.9436-0.6686-1.2779l0,0l-0.7877-0.5276V2.5849h3.5741l0.2154,0.1337l0,0
			c0.3937,0.5276,1.2111,1.9467,2.3107,3.4327l0,0l3.7893,5.1565l0,0c0.1561,0.2154,0.2378,0.3121,0.3121,0.3121
			c0.1561,0,0.1561-0.1932,0.1561-0.5498l0,0V4.8362l0,0c0-0.8991-0.0149-1.0774-0.7802-1.3894l0,0l-1.1219-0.431V2.5849h4.4951
			v0.4309l-0.5721,0.2154l0,0c-0.8395,0.3344-1.0029,0.5276-1.0029,1.8204l0,0v7.7274l0,0c0,1.1813,0.0223,2.3775,0.0223,2.7861l0,0
			l-0.1337,0.1561h-1.0996l-0.2155-0.1561l0,0c-0.1784-0.2154-1.1963-1.6494-2.2365-3.0389l0,0L35.097,6.3891l0,0
			c-0.2526-0.3344-0.3715-0.5127-0.4681-0.5127c-0.1782,0-0.1782,0.2005-0.1782,0.4755l0,0v7.014l0,0
			c0,0.9435,0,1.2408,0.8247,1.5157l0,0l1.159,0.4086v0.431h-4.5695V15.2902L31.8649,15.2902z"/>
		<path fill="#004988" d="M46.0787,15.2902l0.8619-0.2897l0,0c0.6465-0.2155,0.6686-0.5721,0.6686-1.8055l0,0V4.7174l0,0
			c0-0.9362,0-1.174-0.6686-1.3894l0,0l-0.8619-0.3121V2.5849h6.5012l0,0c2.2737,0,4.5026,0.4904,4.5026,3.4698
			c0,2.7269-2.0357,4.4135-5.2159,4.4135c-0.1338,0-0.3119-0.0223-0.4309-0.0223l0,0L51.146,9.74l0.156-0.1561l0,0
			c1.4267-0.037,3.1578-0.6241,2.9127-3.3806c-0.1932-2.1474-0.8175-2.5485-2.5782-2.5485c-1.1963,0-1.2781,0.1783-1.2781,0.6687
			l0,0v8.8715l0,0c0,1.3151-0.0221,1.59,0.7653,1.8055l0,0l1.018,0.2897v0.431h-6.0629V15.2902L46.0787,15.2902z"/>
		<polygon fill="#004988" points="59.9838,17.7572 18.6617,17.7572 18.6617,17.4823 59.9838,17.4823 		"/>
		<path fill="#D88D35" d="M10.5927,9.0863c0,1.2109-0.9808,2.1918-2.1993,2.1918c-1.2111,0-2.1918-0.9809-2.1918-2.1918
			c0-1.2112,0.9807-2.192,2.1918-2.192C9.6118,6.8943,10.5927,7.875,10.5927,9.0863L10.5927,9.0863L10.5927,9.0863z"/>
		<path fill="#D88D35" d="M4.7452,5.4231H0.0048L0.9633,8.358H3.326V8.3506l0,0c2.3926,0,4.3317-1.9392,4.3392-4.3392l0,0l0,0l0,0
			V1.6561L4.7452,0.6976V5.4231L4.7452,5.4231z"/>
		<path fill="#D88D35" d="M4.7304,12.7418v4.733l2.9349-0.951V14.161H7.6577l0,0c0-2.3925-1.9392-4.3318-4.3391-4.3393l0,0l0,0l0,0
			H0.9633l-0.9584,2.9201H4.7304L4.7304,12.7418z"/>
		<path fill="#D88D35" d="M12.0489,12.7493h4.7404l-0.966-2.9276h-2.3552h-0.0075l0,0c-2.3924,0.0075-4.3317,1.9468-4.3317,4.3393
			l0,0l0,0v0.0075v2.3478l2.92,0.9584V12.7493L12.0489,12.7493z"/>
		<path fill="#D88D35" d="M12.0564,5.438V0.7051l-2.9274,0.951v2.3627l0,0l0,0c0.0074,2.3926,1.9467,4.3318,4.3392,4.3392l0,0
			h0.0074l0,0h2.3478l0.966-2.92H12.0564L12.0564,5.438z"/>
		<path fill="#004988" d="M58.903,2.8003c0.4531,0,0.8246,0.3641,0.8246,0.8842c0,0.5127-0.3715,0.8842-0.8246,0.8842v0.208
			c0.6017,0,1.0921-0.4903,1.0921-1.0922c0-0.6092-0.4904-1.0996-1.0921-1.0996V2.8003L58.903,2.8003z M58.903,3.8479v-0.26h0.0074
			l0,0c0.1411,0,0.2525-0.0223,0.2525-0.1857c0-0.1487-0.1337-0.171-0.2453-0.171l0,0H58.903V3.053h0.037l0,0
			c0.2972,0,0.4606,0.104,0.4606,0.3641c0,0.2154-0.1262,0.3195-0.3269,0.3344l0,0l0.3344,0.5498h-0.2378L58.903,3.8479z
			 M58.903,4.5687c-0.4606,0-0.8322-0.3715-0.8322-0.8842c0-0.5201,0.3716-0.8842,0.8322-0.8842l0,0V2.5849l0,0
			c-0.6094,0-1.0998,0.4904-1.0998,1.0996c0,0.6018,0.4904,1.0922,1.0998,1.0922l0,0l0,0l0,0V4.5687L58.903,4.5687L58.903,4.5687
			L58.903,4.5687L58.903,4.5687z M58.903,3.053v0.1783h-0.1932l0,0v0.3566h0.1932v0.26l-0.0522-0.0817h-0.1411v0.535h-0.2304l0,0
			V3.053H58.903z"/>
		<g>
			<path fill="#004988" d="M19.658,23.3024c-0.4644,0-0.7521-0.1313-0.8581-0.1919c-0.0959-0.111-0.1615-0.4744-0.1615-0.8177
				c0.0353-0.0656,0.1514-0.0707,0.1918-0.0152c0.1009,0.3281,0.4391,0.7925,0.8682,0.7925c0.3735,0,0.5451-0.2575,0.5451-0.5099
				c0-0.4087-0.3836-0.6512-0.6865-0.8026c-0.3635-0.1817-0.7622-0.4845-0.7622-0.9844c-0.0051-0.5703,0.4392-0.9641,1.1711-0.9641
				c0.1666,0,0.3735,0.0201,0.5754,0.0807c0.0656,0.0202,0.1111,0.0303,0.1716,0.0404c0.0404,0.1112,0.0909,0.3837,0.0909,0.7219
				c-0.0252,0.0606-0.1514,0.0657-0.1969,0.0153c-0.0858-0.2576-0.3029-0.626-0.6663-0.626c-0.3332,0-0.5149,0.217-0.5149,0.4695
				c0,0.2321,0.207,0.4441,0.4594,0.5753l0.3332,0.1767c0.313,0.1666,0.7118,0.4593,0.7118,1.0146
				C20.9302,22.8986,20.4203,23.3024,19.658,23.3024z"/>
			<path fill="#004988" d="M25.0493,21.2024c0,0.1415,0.005,0.1514,0.1413,0.1514h0.3483c0.2625,0,0.323-0.0351,0.3735-0.2776
				l0.0253-0.1262c0.0353-0.0402,0.1616-0.0402,0.1868,0.0051c-0.0101,0.1616-0.0152,0.3433-0.0152,0.5351
				c0,0.1919,0.005,0.3736,0.0152,0.5351c-0.0252,0.0455-0.1515,0.0506-0.1868,0.005l-0.0253-0.1261
				c-0.0504-0.2423-0.111-0.2827-0.3735-0.2827h-0.3483c-0.1363,0-0.1413,0.005-0.1413,0.1565v0.6006
				c0,0.2323,0.0202,0.3939,0.0807,0.4795c0.0656,0.0909,0.1616,0.1313,0.5301,0.1313c0.4392,0,0.6108-0.0152,0.8884-0.5855
				c0.0404-0.0557,0.1666-0.0354,0.1868,0.0252c-0.0202,0.2624-0.1413,0.6713-0.212,0.8077
				c-0.2676-0.0102-0.7521-0.0153-1.1661-0.0153H24.701c-0.2423,0-0.4897,0.0051-0.8682,0.0153
				c-0.0404-0.0303-0.0404-0.1514,0-0.1767l0.2372-0.0353c0.2272-0.0354,0.2575-0.0656,0.2575-0.5301v-1.8829
				c0-0.4593-0.0303-0.4896-0.2575-0.5351l-0.1262-0.0253c-0.0455-0.0302-0.0404-0.1463,0.0101-0.1766
				c0.2372,0.0102,0.4846,0.0152,0.7269,0.0152h1.0702c0.323,0,0.6108-0.005,0.6764-0.0152
				c0.005,0.0807,0.0404,0.4443,0.0656,0.7825c-0.0202,0.0555-0.1363,0.0656-0.1868,0.0201
				c-0.0555-0.1766-0.1262-0.328-0.1918-0.3987c-0.0959-0.096-0.2474-0.1565-0.4946-0.1565h-0.4038
				c-0.1666,0-0.1666,0.0101-0.1666,0.1969V21.2024z"/>
			<path fill="#004988" d="M32.7677,22.6512c0,0.212,0.0101,0.313,0.1059,0.3332c0.0202,0.0201,0.0152,0.1059-0.0152,0.1211
				c-0.0857,0.0152-0.217,0.0303-0.3532,0.0758c-0.1767,0.0555-0.6108,0.1211-0.8935,0.1211c-0.3433,0-0.636-0.0354-0.9945-0.1767
				c-0.5907-0.2372-0.9945-0.7975-0.9945-1.5243c0-0.6311,0.2827-1.1864,0.8884-1.5246c0.3433-0.1868,0.7522-0.2675,1.1813-0.2675
				c0.5603,0,0.838,0.1211,0.9995,0.1211c0.0152,0.1514,0.0202,0.5049,0.0707,0.8128c-0.0202,0.0555-0.1565,0.0606-0.1918,0.0102
				c-0.1616-0.4746-0.4795-0.7118-0.949-0.7118c-0.8026,0-1.1914,0.6662-1.1914,1.4638c0,0.7219,0.2474,1.1509,0.5754,1.3731
				c0.2423,0.1615,0.5049,0.1918,0.6917,0.1918c0.2876,0,0.3483-0.0555,0.3483-0.3837v-0.318c0-0.2726-0.0303-0.3029-0.2726-0.3383
				L31.5511,22c-0.0555-0.0303-0.0555-0.1463,0-0.1767c0.3585,0.0102,0.6057,0.0153,0.8532,0.0153
				c0.2423,0,0.4896-0.0051,0.6611-0.0153c0.0405,0.0304,0.0405,0.1464,0,0.1767l-0.116,0.0203
				c-0.1514,0.0252-0.1817,0.0756-0.1817,0.3483V22.6512z"/>
			<path fill="#004988" d="M36.3516,20.6169c0-0.4695-0.0303-0.4998-0.2575-0.5453l-0.1262-0.0252
				c-0.0404-0.0302-0.0453-0.1413,0.0101-0.1716c0.2423,0.0102,0.4947,0.0152,0.737,0.0152c0.2474,0,0.4947-0.005,0.737-0.0152
				c0.0404,0.0303,0.0404,0.1415,0,0.1716l-0.1211,0.0202c-0.2272,0.0404-0.2575,0.0807-0.2575,0.5502v1.166
				c0,0.5906,0.0656,1.2419,0.8329,1.2419c0.6462,0,0.843-0.5654,0.843-1.2569v-0.611c0-0.4087-0.0201-0.7925-0.0756-0.9237
				c-0.0455-0.1059-0.1565-0.1362-0.2929-0.1616l-0.1362-0.0252c-0.0404-0.0404-0.0302-0.1413,0-0.1716
				c0.2726,0.0102,0.4695,0.0152,0.6764,0.0152c0.1869,0,0.3736-0.005,0.5655-0.0152c0.0302,0.0303,0.0402,0.1313,0,0.1716
				l-0.0911,0.0202c-0.1311,0.0303-0.227,0.0606-0.2725,0.1666c-0.0555,0.1311-0.0756,0.5149-0.0756,0.9237v0.5654
				c0,0.4746-0.0455,0.9087-0.3232,1.2167c-0.2221,0.2372-0.5906,0.3634-0.9995,0.3634c-0.3837,0-0.727-0.0606-0.9995-0.2827
				c-0.2626-0.217-0.3736-0.5906-0.3736-1.1409V20.6169z"/>
			<path fill="#004988" d="M42.7878,20.7077c0-0.5048-0.0102-0.5603-0.2222-0.5906l-0.1362-0.0201
				c-0.0506-0.0253-0.0506-0.1514,0.0101-0.1767c0.3786-0.0253,0.7723-0.0455,1.252-0.0455c0.429,0,0.7975,0.0657,0.9894,0.1818
				c0.2927,0.1715,0.4443,0.424,0.4443,0.7471c0,0.4492-0.3029,0.6411-0.5352,0.7571c-0.0504,0.0252-0.0504,0.0555-0.0252,0.111
				c0.3332,0.6764,0.5402,1.055,0.7823,1.262c0.1313,0.1059,0.2626,0.1362,0.3383,0.1413c0.0453,0.0252,0.0453,0.101,0.0202,0.1313
				c-0.0809,0.0353-0.2423,0.0455-0.3988,0.0455c-0.4645,0-0.7573-0.1666-0.9795-0.5301c-0.1615-0.2675-0.2776-0.5149-0.3936-0.7825
				c-0.0606-0.1362-0.1413-0.1766-0.2675-0.1766c-0.1767,0-0.1868,0.0101-0.1868,0.1109v0.621c0,0.4645,0.0303,0.4997,0.2573,0.5402
				l0.1364,0.0252c0.0354,0.0253,0.0354,0.1464,0,0.1767c-0.2677-0.0102-0.4998-0.0153-0.7421-0.0153
				c-0.2524,0-0.4745,0.0051-0.7369,0.0153c-0.0404-0.0303-0.0404-0.1514,0-0.1767l0.1362-0.0252
				c0.2272-0.0405,0.2575-0.0756,0.2575-0.5402V20.7077z M43.4794,21.3488c0,0.1767,0.0152,0.1919,0.313,0.1919
				c0.1817,0,0.2876-0.0455,0.3837-0.1415c0.0857-0.0858,0.1817-0.2473,0.1817-0.5451c0-0.4543-0.2677-0.7471-0.6614-0.7471
				c-0.2069,0-0.217,0.0152-0.217,0.2573V21.3488z"/>
			<path fill="#004988" d="M51.8639,21.5407c0,1.1004-0.737,1.7617-1.8223,1.7617c-1.0146,0-1.7516-0.6663-1.7516-1.7213
				c0-0.9996,0.7471-1.7719,1.8022-1.7719C51.1421,19.8092,51.8639,20.5159,51.8639,21.5407z M50.0517,20.0415
				c-0.6209,0-0.954,0.5805-0.954,1.4235c0,0.6159,0.2171,1.6052,1.0398,1.6052c0.6614,0,0.9187-0.6461,0.9187-1.4639
				C51.0562,20.7431,50.6777,20.0415,50.0517,20.0415z"/>
			<path fill="#004988" d="M55.8771,23.3024c-0.4644,0-0.752-0.1313-0.8581-0.1919c-0.0959-0.111-0.1616-0.4744-0.1616-0.8177
				c0.0354-0.0656,0.1515-0.0707,0.1919-0.0152c0.101,0.3281,0.4392,0.7925,0.8682,0.7925c0.3736,0,0.5451-0.2575,0.5451-0.5099
				c0-0.4087-0.3835-0.6512-0.6863-0.8026c-0.3635-0.1817-0.7624-0.4845-0.7624-0.9844c-0.005-0.5703,0.4392-0.9641,1.1711-0.9641
				c0.1667,0,0.3736,0.0201,0.5756,0.0807c0.0654,0.0202,0.111,0.0303,0.1715,0.0404c0.0405,0.1112,0.0909,0.3837,0.0909,0.7219
				c-0.0252,0.0606-0.1514,0.0657-0.197,0.0153c-0.0856-0.2576-0.3028-0.626-0.6662-0.626c-0.3331,0-0.5148,0.217-0.5148,0.4695
				c0,0.2321,0.2069,0.4441,0.4593,0.5753l0.3331,0.1767c0.313,0.1666,0.7118,0.4593,0.7118,1.0146
				C57.1491,22.8986,56.6393,23.3024,55.8771,23.3024z"/>
		</g>
	</g>
</g>
</svg>
