<?xml version="1.0" encoding="utf-8"?>
<!-- Generator: Adobe Illustrator 17.0.0, SVG Export Plug-In . SVG Version: 6.00 Build 0)  -->
<!DOCTYPE svg PUBLIC "-//W3C//DTD SVG 1.1//EN" "http://www.w3.org/Graphics/SVG/1.1/DTD/svg11.dtd">
<svg version="1.1" id="Capa_1" xmlns="http://www.w3.org/2000/svg" xmlns:xlink="http://www.w3.org/1999/xlink" x="0px" y="0px"
	 width="60px" height="24px" viewBox="0 0 60 24" enable-background="new 0 0 60 24" xml:space="preserve">
<g id="HDI">
	<rect x="17.7935" y="0.0198" fill="#20A520" width="2.9857" height="9.0168"/>
	<rect x="23.7846" y="0" fill="#20A520" width="3.0057" height="9.0168"/>
	<g>
		<g>
			<path fill="#20A520" d="M32.8415,0H29v9h3.0849C38.5142,10,40.3454,0,32.8415,0z M33,6.7478V2.15C35,1.7119,36,6.9867,33,6.7478z
				"/>
		</g>
		<g>
			<rect x="39.5492" y="0.04" fill="#20A520" width="3.0057" height="8.9966"/>
		</g>
		<g>
			<rect x="20.7793" y="3.0853" fill="#D31C09" width="3.0056" height="3.0056"/>
		</g>
		<g>
			<path d="M19.6709,13.2703c-0.1408-0.0791-0.4113-0.1917-0.7663-0.1917c-0.5128,0-0.7269,0.2987-0.7269,0.575
				c0,0.3662,0.2423,0.5466,0.7889,0.783c0.6931,0.3045,1.0255,0.6819,1.0255,1.2736c0,0.7213-0.5353,1.2624-1.5045,1.2624
				c-0.4058,0-0.834-0.1185-1.0425-0.2593l0.1465-0.5466c0.231,0.1408,0.5804,0.2536,0.9355,0.2536
				c0.5128,0,0.8002-0.2648,0.8002-0.6539c0-0.3662-0.22-0.5915-0.7327-0.8054c-0.6423-0.2593-1.0763-0.6481-1.0763-1.2344
				c0-0.6816,0.5466-1.1945,1.4033-1.1945c0.4112,0,0.7212,0.1013,0.9073,0.1972L19.6709,13.2703z"/>
		</g>
		<g>
			<path d="M23.678,16.7866c-0.2196,0.1013-0.5635,0.1859-0.986,0.1859c-0.9355,0-1.4766-0.6257-1.4766-1.5721
				c0-0.9244,0.5187-1.6624,1.3976-1.6624c0.8735,0,1.2229,0.7268,1.2229,1.4932c0,0.1071-0.0056,0.1974-0.0172,0.276h-1.9721
				c0.0169,0.6986,0.4508,0.9638,0.9412,0.9638c0.3436,0,0.5802-0.0621,0.7833-0.1467L23.678,16.7866z M23.216,15.0396
				c0.0056-0.3717-0.1464-0.8339-0.6481-0.8339c-0.479,0-0.6817,0.4732-0.7156,0.8339H23.216z"/>
		</g>
		<g>
			<path d="M27.8092,13.8056c-0.017,0.2199-0.0282,0.479-0.0282,0.8958v1.7697c0,0.6197-0.0508,1.7636-1.5214,1.7636
				c-0.3606,0-0.7381-0.0789-0.9804-0.2256l0.1464-0.5071c0.1918,0.1128,0.4902,0.2201,0.8396,0.2201
				c0.5072,0,0.8679-0.2818,0.8679-0.9863v-0.2985h-0.0112c-0.158,0.2648-0.4621,0.4565-0.8623,0.4565
				c-0.7325,0-1.2339-0.6479-1.2339-1.5162c0-1.0535,0.6366-1.6395,1.3129-1.6395c0.462,0,0.7213,0.2366,0.8507,0.4845h0.0116
				l0.0279-0.4168C27.2287,13.8056,27.8092,13.8056,27.8092,13.8056z M27.1275,15.0059c0-0.4113-0.2705-0.7495-0.6707-0.7495
				c-0.4508,0-0.7663,0.4283-0.7663,1.0932c0,0.6087,0.2762,1.0425,0.7607,1.0425c0.3382,0,0.6763-0.2591,0.6763-0.7775
				L27.1275,15.0059L27.1275,15.0059z"/>
		</g>
		<g>
			<path d="M31.8897,16.0202c0,0.3494,0.017,0.6424,0.0282,0.8905h-0.5748l-0.0339-0.451h-0.017
				c-0.1293,0.2139-0.434,0.5129-0.9352,0.5129c-0.5353,0-1.0033-0.3324-1.0033-1.3243v-1.8482h0.6539v1.7411
				c0,0.5353,0.1522,0.8905,0.5801,0.8905c0.2987,0,0.6481-0.2371,0.6481-0.7045v-1.9215h0.6539L31.8897,16.0202L31.8897,16.0202z"
				/>
		</g>
		<g>
			<path d="M35.0404,14.3804c-0.0564-0.0112-0.1183-0.017-0.1917-0.017c-0.4395,0-0.7156,0.3604-0.7156,0.9015v1.6455h-0.6537
				v-2.1584c0-0.3604-0.0057-0.6592-0.0229-0.9464h0.5695l0.0225,0.5691h0.0225c0.141-0.3944,0.4677-0.6369,0.8059-0.6369
				c0.0621,0,0.1071,0.0057,0.1635,0.0172C35.0404,13.7549,35.0404,14.3804,35.0404,14.3804z"/>
		</g>
		<g>
			<path d="M38.974,15.3328c0,1.1606-0.755,1.6398-1.4538,1.6398c-0.8057,0-1.4199-0.5917-1.4199-1.5948
				c0-1.0482,0.6422-1.6398,1.465-1.6398C38.4162,13.738,38.974,14.3802,38.974,15.3328 M37.5429,14.2282
				c-0.558,0-0.7722,0.5973-0.7722,1.1328c0,0.6085,0.2875,1.1211,0.7665,1.1211c0.4734,0,0.7665-0.5127,0.7665-1.1324
				C38.3036,14.8369,38.0894,14.2282,37.5429,14.2282"/>
		</g>
		<g>
			<path d="M41.9164,14.3916c-0.124-0.0791-0.338-0.1747-0.5917-0.1747c-0.293,0-0.4508,0.169-0.4508,0.3774
				c0,0.2144,0.141,0.3214,0.5184,0.4847c0.5129,0.2086,0.7834,0.4904,0.7834,0.9412c0,0.5975-0.4565,0.9522-1.1608,0.9522
				c-0.3269,0-0.6369-0.0846-0.8453-0.2084l0.1465-0.4845c0.1575,0.0956,0.4452,0.2084,0.7101,0.2084
				c0.3494,0,0.5184-0.169,0.5184-0.4056c0-0.2368-0.1295-0.3664-0.5014-0.5241c-0.5523-0.2199-0.7947-0.5296-0.7947-0.8905
				c0-0.5184,0.4223-0.9297,1.0762-0.9297c0.3045,0,0.5693,0.0844,0.7383,0.1804L41.9164,14.3916z"/>
		</g>
	</g>
</g>
</svg>
