<?xml version="1.0" encoding="utf-8"?>
<!-- Generator: Adobe Illustrator 17.0.0, SVG Export Plug-In . SVG Version: 6.00 Build 0)  -->
<!DOCTYPE svg PUBLIC "-//W3C//DTD SVG 1.1//EN" "http://www.w3.org/Graphics/SVG/1.1/DTD/svg11.dtd">
<svg version="1.1" id="Capa_1" xmlns="http://www.w3.org/2000/svg" xmlns:xlink="http://www.w3.org/1999/xlink" x="0px" y="0px"
	 width="60px" height="24px" viewBox="0 0 60 24" enable-background="new 0 0 60 24" xml:space="preserve">
<g id="INBURSA">
	<path fill="#0D1E3A" d="M3.8877,5.2177c1.172-0.7212,2.5542-1.0817,3.9213-1.0518c0,1.2921,0,2.5692,0,3.8613
		C6.8325,8.1024,5.8409,8.4028,5.1498,9.124c-0.6611,0.616-1.1268,1.4573-1.202,2.3739C3.8577,9.3945,3.9178,7.3061,3.8877,5.2177z"
		/>
	<path fill="#0D1E3A" d="M8.1847,8.0573c2.1485-0.0601,4.312,0,6.4605-0.0301c0.3906,0.7813,0.7662,1.5775,0.8864,2.4489
		c0.1052,0.4658,0.0751,0.9466,0.1803,1.4123c-1.3071,0.0751-2.6142,0.015-3.9213,0.0301
		c-0.0601-0.4958-0.1053-0.9916-0.3005-1.4424C10.9191,9.1841,9.6421,8.1624,8.1847,8.0573z"/>
	<path fill="#0D1E3A" d="M48.3146,8.2827c0.9766-0.0602,1.9684-0.0751,2.9449-0.015c0.4058,0.015,0.8413,0.1953,1.0666,0.5558
		c0.1503,0.2705,0.1353,0.601,0.1654,0.9015c-0.4807,0-0.9615,0.0301-1.4424,0c-0.0149-0.1803-0.0301-0.4207-0.2705-0.4056
		c-0.7512-0.0751-1.5023-0.0301-2.2535,0.015c-0.0603,0.03-0.1954,0.0901-0.2555,0.1202c0,0.1652,0,0.3155,0,0.4808
		c0.3306,0.1953,0.7512,0.1201,1.1269,0.1352c0.8714,0.03,1.7579-0.0902,2.6143,0.1502c0.2554,0.0601,0.4206,0.2855,0.5708,0.4808
		c0.0149,0.1202,0.045,0.2404,0.09,0.3456c0.0302,0.586,0.1053,1.3672-0.4956,1.6978c-0.8413,0.3455-1.7879,0.2253-2.6744,0.2554
		c-0.7362-0.0301-1.5025,0.0902-2.1935-0.2253c-0.4958-0.2404-0.4207-0.8414-0.4207-1.2921c0.4659,0,0.9466,0,1.4123,0
		c0,0.0751,0,0.2253,0,0.3156c0.1353,0.0751,0.2856,0.1802,0.4508,0.1652c0.6761,0.015,1.3373,0.015,2.0132,0
		c0.1652,0,0.3155-0.0751,0.4657-0.1352c0-0.1503,0-0.3155,0-0.4657c-0.0301-0.0301-0.1053-0.1052-0.1353-0.1352
		c-0.8111-0.1051-1.6225,0-2.4189-0.0751c-0.6009-0.0149-1.3972,0.0301-1.7129-0.601c-0.1802-0.5558-0.1953-1.2319,0.0903-1.7578
		C47.3232,8.3578,47.864,8.3277,48.3146,8.2827z"/>
	<path fill="#0D1E3A" d="M17.4998,12.9553c0.015-1.5626-0.0151-3.1251,0.015-4.6876c0.4807,0.015,0.9615,0,1.4423,0
		c0,1.5625-0.015,3.125,0,4.6876C18.4764,12.9402,17.9806,12.9402,17.4998,12.9553z"/>
	<path fill="#0D1E3A" d="M19.7233,8.2676c0.7512,0.015,1.5175-0.015,2.2688,0.015c0.9165,1.1568,1.878,2.2836,2.7494,3.4706
		c0.0601-1.1569,0.0149-2.3138,0.0149-3.4857c0.4508,0,0.9015,0.015,1.3672,0c0.015,1.5625,0,3.125,0.015,4.6876
		c-0.7663,0-1.5325,0-2.2986,0c-0.9015-1.172-1.833-2.2988-2.7345-3.4556c-0.0301,1.1568-0.015,2.3138-0.015,3.4706
		c-0.4507,0-0.9165-0.0149-1.3672,0C19.7535,11.3927,19.7384,9.8302,19.7233,8.2676z"/>
	<path fill="#0D1E3A" d="M33.5908,8.2676c0.4809-0.015,0.9617,0,1.4575,0c0.0151,0.9465,0,1.9081,0,2.8546
		c-0.0149,0.2854,0.1352,0.631,0.4506,0.6761c0.6011,0.0751,1.202,0.045,1.8181,0.045c0.2253,0,0.4355-0.0601,0.6459-0.1352
		c0.1652-0.2253,0.2104-0.5107,0.2104-0.7812c0.0151-0.8865,0-1.7729,0.0151-2.6593c0.4958,0.045,0.9916-0.0601,1.4723,0.06
		c-0.1503,1.202,0.0603,2.449-0.1201,3.651c-0.1202,0.2554-0.2406,0.5258-0.4958,0.6761c-0.6311,0.4207-1.4425,0.3005-2.1637,0.3306
		c-0.8564-0.0301-1.7579,0.1051-2.5842-0.2253c-0.4958-0.2255-0.6761-0.8114-0.7062-1.3222
		C33.5758,10.3861,33.6059,9.3344,33.5908,8.2676z"/>
	<path fill="#0D1E3A" d="M5.8709,9.1841c1.0066-0.7212,2.4039-0.8263,3.4856-0.2403c0.5109,0.1802,0.8715,0.6009,1.187,1.0065
		c0.7512,0.9316,0.9165,2.3138,0.3906,3.3955c-0.4357,1.0668-1.4724,1.8331-2.6142,1.9833
		c-1.4424,0.2703-2.9449-0.6011-3.5458-1.9081c-0.3606-0.6911-0.4358-1.4875-0.2705-2.2387
		C4.7291,10.3861,5.2399,9.7099,5.8709,9.1841z"/>
	<path fill="#0D1E3A" d="M59.8985,12.76c-0.7962-1.5176-1.6225-3.005-2.434-4.5074c-0.631,0.015-1.277,0.015-1.9231,0
		c-0.2555,0.4808-0.5258,0.9465-0.7963,1.4273c-0.571,1.1118-1.2621,2.1485-1.7879,3.2754
		c0.5258-0.0151,1.0517-0.0151,1.5626-0.0151c0.1503-0.2705,0.3005-0.5559,0.4508-0.8263c1.0065,0,2.0131,0,3.0048,0
		c0.1352,0.2704,0.2854,0.5409,0.3905,0.8263c0.4958,0,1.0067,0.0151,1.5174,0c0.0452-0.0299,0.1204-0.1051,0.1503-0.1352
		C60.0187,12.7899,59.9435,12.7749,59.8985,12.76z M55.4814,11.0622c0.3907-0.4959,0.631-1.0817,0.9315-1.6377
		c0.0301-0.0149,0.0902-0.045,0.1202-0.045c0.3156,0.5708,0.6009,1.1569,0.9315,1.7278
		C56.8034,11.0921,56.1273,11.1673,55.4814,11.0622z"/>
	<path fill="#0D1E3A" d="M46.3016,10.1907c0-0.4808,0.09-1.0216-0.2105-1.4424c-0.2403-0.3756-0.7211-0.4357-1.1116-0.4807
		c-1.5176-0.015-3.035,0.03-4.5525-0.0301c0,1.5626,0.0151,3.1401,0,4.7026c0.4808-0.0149,0.9765,0,1.4573,0
		c0-0.4056,0-0.7962,0-1.2019c0.9315,0.03,1.8781-0.0902,2.7946,0.0751c0.0299,0.045,0.1051,0.1502,0.1352,0.2103
		c0.0301,0.3004,0.0301,0.601,0.0151,0.9165c0.4958,0.0151,0.9766,0,1.4724,0.0151c-0.0452-0.4808,0.09-0.9917-0.1202-1.4274
		c-0.1503-0.3154-0.541-0.2854-0.8264-0.3756c0.2554-0.0601,0.5107-0.1503,0.7361-0.2854
		C46.1662,10.6414,46.3016,10.4311,46.3016,10.1907z M44.739,10.5363c-0.1352,0.0149-0.2705,0.045-0.4058,0.0751
		c-0.8264,0.0149-1.6526,0-2.4639,0.0149c-0.0151-0.4056-0.0151-0.8113-0.0151-1.2169c0.9615,0.0451,1.9382-0.1052,2.8999,0.1051
		c0.0299,0.0601,0.09,0.1803,0.1201,0.2404C44.9043,10.0254,44.9043,10.3109,44.739,10.5363z"/>
	<path fill="#0D1E3A" d="M32.9447,11.1373c-0.0599-0.3606-0.4506-0.4808-0.7661-0.5258c0.0149-0.0301,0.0301-0.0751,0.045-0.1052
		c0.571-0.1352,0.6461-0.7963,0.5861-1.2771c-0.0603-0.1803-0.1204-0.3757-0.2105-0.556c-0.3153-0.3004-0.7661-0.3756-1.2018-0.3905
		c-1.4875-0.015-2.9599,0.0149-4.4473-0.015c0,1.5625,0.015,3.125,0,4.6876c1.5174,0,3.05,0,4.5673,0
		c0.4508-0.0151,0.9766-0.0601,1.2621-0.4508C33.035,12.0988,33.005,11.588,32.9447,11.1373z M28.4075,9.3043
		c0.8413,0.015,1.6677,0,2.509,0.015c0.1503,0,0.2854,0.0751,0.4357,0.1201c0.0601,0.2855,0.0301,0.616-0.3156,0.6761
		c-0.8563-0.03-1.7126,0.015-2.569-0.03c-0.0301-0.015-0.0902-0.0602-0.1352-0.0751C28.3924,9.7851,28.3924,9.5447,28.4075,9.3043z
		 M31.4724,11.7984c-1.0067,0.1953-2.0434,0.0301-3.0649,0.0901c0-0.2854-0.0151-0.5559,0-0.8413c0.8263,0,1.6677,0,2.509,0
		c0.1953,0,0.4056,0,0.5708,0.1201C31.6227,11.3476,31.5174,11.588,31.4724,11.7984z"/>
	<path fill="#0D1E3A" d="M-0.0337,11.9335c1.3071,0,2.6143,0,3.9063,0c0.0751,0.7512,0.1953,1.5175,0.631,2.1636
		c0.4057,0.541,0.9316,0.9765,1.4724,1.3672c0.3456,0.1652,0.7213,0.2705,1.0668,0.4056c-2.0283,0-4.0566-0.0149-6.0849,0.0151
		c-0.3906-0.9315-0.7812-1.8781-0.9165-2.8848C0.0415,12.6396-0.0186,12.2941-0.0337,11.9335z"/>
	<path fill="#0D1E3A" d="M11.0843,14.2172c0.3156-0.5107,0.541-1.0666,0.6461-1.6526c0,2.0884,0.015,4.1618,0,6.2502
		c-0.2254,0.09-0.4507,0.1953-0.6611,0.3155c-1.0217,0.4357-2.1334,0.7812-3.2603,0.6912c0.0151-0.2706,0.0301-0.541-0.015-0.8114
		c0.0452-0.2404,0.0301-0.4958,0.015-0.7362c0.0301-0.5258,0.0301-1.0517,0-1.5775c0.0301-0.2705,0.0301-0.541,0.0151-0.8113
		c0.2403,0,0.4958,0,0.7361-0.0151c0.2404-0.1051,0.4808-0.1802,0.7212-0.2554C9.9876,15.3441,10.5886,14.8033,11.0843,14.2172z"/>
</g>
</svg>
