<?xml version="1.0" encoding="utf-8"?>
<!-- Generator: Adobe Illustrator 17.0.0, SVG Export Plug-In . SVG Version: 6.00 Build 0)  -->
<!DOCTYPE svg PUBLIC "-//W3C//DTD SVG 1.1//EN" "http://www.w3.org/Graphics/SVG/1.1/DTD/svg11.dtd">
<svg version="1.1" id="Capa_1" xmlns="http://www.w3.org/2000/svg" xmlns:xlink="http://www.w3.org/1999/xlink" x="0px" y="0px"
	 width="60px" height="24px" viewBox="0 0 60 24" enable-background="new 0 0 60 24" xml:space="preserve">
<g id="LALATINO">
	<g>
		<path fill="#2C4473" d="M23.3933,4.3125"/>
		<path fill="#2C4473" d="M24.2666,3.6956c0.0036-0.0106,0.006-0.0218,0.006-0.0337V0.3208c0-0.0583-0.0472-0.1055-0.1055-0.1055
			c-0.0583,0-0.1055,0.0473-0.1055,0.1055v3.3411c0,0.013,0.0027,0.0252,0.0069,0.0367l-0.6752,0.6139H6.9728v0.334h16.4909
			l0.7033-0.5979l0.8089,0.5979v-0.334L24.2666,3.6956z"/>
		<polygon fill="#2C4473" points="24.2035,4.3648 25.1104,5.1002 25.1104,5.3438 24.1879,4.6465 23.2655,5.3438 6.9728,5.3438 
			6.9728,5.048 23.2829,5.048 		"/>
		<polygon fill="#2C4473" points="24.2035,4.979 25.6472,5.9876 25.6472,6.3181 24.2035,5.3583 23.0113,6.0893 6.9728,6.0893 
			6.9728,5.7848 23.0102,5.7848 		"/>
		<polygon fill="#2C4473" points="24.2035,5.6486 25.6472,6.597 25.6472,6.9219 24.2035,5.9936 22.8013,6.9219 6.9728,6.9219 
			6.9728,6.5738 22.8129,6.5738 22.8942,6.4113 		"/>
		<polyline fill="#2C4473" points="24.2035,6.2852 26.0735,7.3977 26.0735,7.711 24.2035,6.655 22.4068,7.6181 6.9728,7.6181 
			6.9728,7.3397 22.4068,7.328 		"/>
		<path fill="#2C4473" d="M21.2116,23.5498l0.3249-0.1392l2.6669,0.3742l3.2741-0.3742V23.132l-2.2974,0.2542
			c0,0-0.6944,0.1371-0.8356-0.2542l-2.8057-0.1331c0,0-0.1678,0.2583-0.4648,0.2583H6.9728v0.2969L21.2116,23.5498z"/>
		<path fill="#2C4473" d="M6.9728,22.5402v0.3017h20.5047V22.485h-2.692c0,0-0.4294,0.0436-0.4294-0.1653h-2.8312
			c0,0-0.2669,0.2611-0.6962,0.2611L6.9728,22.5402z"/>
		<path fill="#2C4473" d="M6.9728,21.7491v0.3731h20.5047v-0.3731h-2.4573c0,0-0.5328,0.0455-0.6349-0.238H21.551l-0.4422,0.3055
			L6.9728,21.7491z"/>
		<path fill="#2C4473" d="M6.9728,21.2871h20.5047v-0.3133l-2.4019-0.0696c0,0-0.3945,0.0812-0.6846-0.3017l-2.8428,0.1625
			c0,0-0.2205,0.2552-0.5802,0.2552H6.9728V21.2871z"/>
		<path fill="#2C4473" d="M6.9728,20.5561l20.5047-0.1392v-0.2901h-2.4483c0,0-0.5667,0.0349-0.6962-0.3597l-2.8197,0.232
			l-0.3945,0.232H6.9728V20.5561z"/>
		<path fill="#2C4473" d="M6.9728,19.7671H22.307l1.8964-0.3007l2.5486,0.2437v-0.2958l-1.8086-0.1008c0,0-0.74-0.0134-0.74-0.3631
			l-2.1552,0.293l-0.2512,0.2515H6.9728V19.7671z"/>
		<path fill="#2C4473" d="M6.9728,18.685v0.322h15.0568l2.1738-0.2872l2.5486,0.2872v-0.2176l-1.8853-0.3133
			c0,0-0.6042-0.0348-0.6633-0.3133l-2.139,0.3046l-0.2176,0.235L6.9728,18.685z"/>
		<path fill="#2C4473" d="M21.7783,17.9327l0.321-0.1441l0.0116-0.0018l2.0926-0.3289c0.3288,0.3481,0.9243,0.3307,0.9243,0.3307
			l1.6243,0.1218v0.3829l-2.5486-0.3829l-1.9649,0.3481L6.9728,18.2934v-0.3829L21.7783,17.9327z"/>
		<path fill="#2C4473" d="M24.2035,6.9219c0,0,0.2701,0.2915,0.4823,0.3977l1.3878,0.7427v0.3789l-1.87-1.0459l-1.7458,0.9701
			H6.9728V8.1078l15.4543,0.0454V7.9259L24.2035,6.9219z"/>
		<path fill="#2C4473" d="M24.2035,7.711c0,0,0.2091,0.3664,0.588,0.4574l1.282,0.6512v0.3597l-1.87-0.964l-1.7589,1.0024H6.9728
			V8.8713h15.3875L22.43,8.6508L24.2035,7.711z"/>
		<path fill="#2C4473" d="M24.2035,8.4643c0,0,0.1759,0.3258,0.6285,0.4999l1.2416,0.5686v0.3829l-1.87-0.8935l-1.8199,0.8935
			H6.9728V9.5791h15.3295l0.0696-0.1392L24.2035,8.4643z"/>
		<path fill="#2C4473" d="M24.9991,9.9157C24.559,9.7485,24.2035,9.377,24.2035,9.377l-1.7921,0.8044l-0.1846,0.2119H6.9728v0.2662
			h15.1425h0.1114h0.2756l1.7011-0.8499l1.87,0.8499v-0.2662L24.9991,9.9157z"/>
		<path fill="#2C4473" d="M6.9728,11.1247v0.3317h15.0286h0.2253l1.9767-0.7664l1.87,0.7817v-0.4553l-1.2793-0.4553
			c-0.4022-0.1442-0.5907-0.3718-0.5907-0.3718l-1.7543,0.698l-0.2224,0.2352L6.9728,11.1247z"/>
		<path fill="#2C4473" d="M24.8208,11.3516c-0.481-0.1813-0.6173-0.4392-0.6173-0.4392l-1.9767,0.9131l-0.0342,0.0511H6.9728v0.2855
			h15.2539l1.9767-0.7199l1.87,0.739v-0.3276L24.8208,11.3516z"/>
		<path fill="#2C4473" d="M24.9454,12.1811c-0.6005-0.2065-0.7419-0.481-0.7419-0.481l-1.9767,0.9262H6.9728v0.3529h15.1619h0.092
			h0.2215l0,0l0.0081-0.0128l1.7471-0.7236l1.87,0.6931v-0.324L24.9454,12.1811z"/>
		<path fill="#2C4473" d="M24.9016,12.9238c-0.6005-0.1653-0.6981-0.4177-0.6981-0.4177l-1.73,0.644l-0.2407,0.2292h-15.26v0.2911
			h15.5071V13.668l1.7236-0.6397l1.87,0.6421v-0.3462L24.9016,12.9238z"/>
		<path fill="#2C4473" d="M24.9973,13.768c-0.731-0.2263-0.7938-0.4525-0.7938-0.4525l-1.7038,0.644l-0.2728,0.1566l0.006,0.0063
			H6.9728v0.2824h15.5361v-0.0031l1.6946-0.5417l1.87,0.5447v-0.3408L24.9973,13.768z"/>
		<path fill="#2C4473" d="M24.9048,14.504c-0.5446-0.1263-0.7013-0.3157-0.7013-0.3157l-1.6777,0.4951l-0.3481,0.274l0,0.0001
			H6.9728v0.2211h15.2539l1.9767-0.4952l1.87,0.4951v-0.3746L24.9048,14.504z"/>
		<path fill="#2C4473" d="M24.771,15.2997c-0.4873-0.1305-0.5675-0.2959-0.5675-0.2959l-1.6342,0.5004l-0.3425,0.161H6.9728v0.3394
			h15.2539h0.2467l1.8537-0.5483l1.7463,0.4525v-0.3046C26.0735,15.6042,25.2584,15.4302,24.771,15.2997z"/>
		<path fill="#2C4473" d="M25.006,16.9109c-0.731-0.0944-0.8025-0.3544-0.8025-0.3544l-1.7909,0.4488l-0.1858,0.2599H6.9728v0.2211
			h15.2539l1.9767-0.4114l1.87,0.3009v-0.3183L25.006,16.9109z"/>
		<path fill="#2C4473" d="M24.2035,15.8072l-1.7514,0.3676l-0.2443,0.2324H6.9728v0.3225h15.2539l1.9767-0.3901l1.87,0.3151v-0.3
			C24.8048,16.2872,24.2035,15.8072,24.2035,15.8072z"/>
		<path fill="#C7C7C6" d="M27.9185,14.1884l0.1392,0.2164v2.325l-0.1392,0.2917h1.7173l0.2321-0.4649
			c0,0-0.9283,0.4081-1.3692,0.1732v-2.325l0.1392-0.2164H27.9185z"/>
		<path fill="#C7C7C6" d="M30.4016,15.3345l0.2321-0.3307c0,0,1.1371-0.418,1.1371,0.8034v0.7494c0,0,0.0696,0.2864,0.3713,0.2864
			l-0.1856,0.1785c0,0-0.5106,0.1074-0.5106-0.4649v-0.5744c0,0-0.9283,0.1256-0.9283,0.5744s0.7542,0.3096,0.7542,0.3096
			l-0.2204,0.1634c-0.9688,0.3461-1.0066-0.5115-1.0066-0.5115s-0.087-0.5135,0.8006-0.644
			C31.7331,15.7435,31.3415,15.0821,30.4016,15.3345z"/>
		<path fill="#878684" d="M33.1476,12.2337l0.2403,0.3734v4.0112l-0.2403,0.5034h2.9628l0.4004-0.8021
			c0,0-1.6016,0.7041-2.3623,0.2987v-4.0112l0.2403-0.3734H33.1476z"/>
		<path fill="#878684" d="M37.4316,14.2111l0.4005-0.5706c0,0,1.9618-0.7211,1.9618,1.3862v1.2929c0,0,0.1201,0.4941,0.6406,0.4941
			l-0.3202,0.3081c0,0-0.8809,0.1851-0.8809-0.8021v-0.9911c0,0-1.6015,0.2168-1.6015,0.9911s1.3012,0.5341,1.3012,0.5341
			l-0.3803,0.2819c-1.6715,0.5972-1.7368-0.8824-1.7368-0.8824s-0.1501-0.8858,1.3813-1.1111
			C39.7288,14.9167,39.0532,13.7757,37.4316,14.2111z"/>
		<path fill="#878684" d="M40.4347,13.9652c0,0,1.06-0.1161,1.1063-1.3924h0.232V13.71h0.9283v0.6266
			c0,0-0.1624-0.1392-0.4409-0.1392h-0.5105v1.8798c0,0-0.0233,0.9051,0.9514,0.7658L42.33,17.2775c0,0-1.3228,0.1688-1.3228-0.9683
			s0.0232-2.0422,0.0232-2.0422h-0.5957V13.9652z"/>
		<path fill="#878684" d="M43.3743,13.6868c0,0,0.6962,0.0173,0.8123-0.1654v3.0662c0,0,0.0232,0.5674,0.3017,0.6898h-1.2532
			c0,0,0.3249-0.3416,0.3249-0.5969v-2.4832C43.56,14.1973,43.5367,13.8957,43.3743,13.6868z"/>
		<path fill="#878684" d="M45.022,13.71c0,0,0.232,0.3481,0.232,0.7658v2.2047c0,0-0.116,0.4873-0.232,0.4873h1.2299
			c0,0-0.3017-0.0465-0.3017-0.7891l0.0232-1.4492c0,0,0.0464-0.7787,0.9051-0.7787c0,0,0.7891,0.0257,0.7891,0.7787v1.4724
			c0,0,0.0464,0.7658-0.1857,0.7658h1.2067c0,0-0.3017-0.0232-0.3017-0.7658v-1.6013c0,0-0.0233-1.2794-1.23-1.2794
			c0,0-0.8355-0.1131-1.2532,0.6528l-0.0207-0.5823L45.022,13.71z"/>
		<path fill="#878684" d="M51.0784,13.6172c-1.0762,0-1.9487,0.8214-1.9487,1.8346c0,1.0132,0.8725,1.8346,1.9487,1.8346
			c1.0763,0,1.9488-0.8213,1.9488-1.8346C53.0272,14.4386,52.1547,13.6172,51.0784,13.6172z M51.1022,16.7965
			c-0.6664,0-1.2067-0.613-1.2067-1.3692c0-0.7562,0.5403-1.3692,1.2067-1.3692s1.2067,0.613,1.2067,1.3692
			C52.309,16.1835,51.7687,16.7965,51.1022,16.7965z"/>
		<path fill="#C2C2BF" d="M49.7251,19.1311c-0.531,0-0.9615,0.4053-0.9615,0.9052c0,0.5,0.4305,0.9053,0.9615,0.9053
			c0.5311,0,0.9616-0.4053,0.9616-0.9053C50.6866,19.5363,50.2562,19.1311,49.7251,19.1311z M49.7368,20.6998
			c-0.3288,0-0.5954-0.3024-0.5954-0.6756c0-0.3731,0.2666-0.6756,0.5954-0.6756c0.3289,0,0.5955,0.3025,0.5955,0.6756
			C50.3323,20.3974,50.0658,20.6998,49.7368,20.6998z"/>
		<path fill="#C2C2BF" d="M41.0756,18.8429v-0.3758c0,0-1.4656-0.3257-1.4656,0.5511c0,0-0.1252,0.4885,0.7328,0.7766
			c0.858,0.2881,0.5073,0.6514,0.5073,0.6514s-0.4885,0.5762-1.3153,0l0.0626,0.3758c0,0,1.4907,0.5137,1.6785-0.5887
			c0,0,0.1879-0.3758-0.7766-0.8017c0,0-0.6388-0.1503-0.4384-0.6137C40.2614,18.3543,41.0756,18.8429,41.0756,18.8429z"/>
		<path fill="#C2C2BF" d="M52.1185,19.4323v-0.2702c0,0-1.178-0.2343-1.178,0.3963c0,0-0.1006,0.3513,0.589,0.5585
			c0.6897,0.2072,0.4078,0.4684,0.4078,0.4684s-0.3926,0.4144-1.0572,0l0.0503,0.2703c0,0,1.1982,0.3694,1.3492-0.4234
			c0,0,0.151-0.2703-0.6243-0.5766c0,0-0.5135-0.108-0.3523-0.4413C51.4641,19.081,52.1185,19.4323,52.1185,19.4323z"/>
		<path fill="#C2C2BF" d="M45.5979,19.3314v1.132c0,0,0.0627,0.4895,0.6514,0.4895s0.5762-0.3062,0.5762-0.3062l0.0125,0.3062
			h0.3508v-0.256c0,0-0.0627-0.0286-0.0627-0.2335v-1.3323l-0.4509,0.0626c0,0,0.1002,0.0251,0.1002,0.2881v0.7518
			c0,0,0.0377,0.4508-0.382,0.4508c0,0-0.4572,0.0751-0.4572-0.5136v-1.0397l-0.4385,0.0752
			C45.4977,19.2063,45.5979,19.2812,45.5979,19.3314z"/>
		<path fill="#C2C2BF" d="M47.5521,19.2313l0.2881-0.1002c0,0,0.1754-0.0502,0.1253,0.2004c0,0,0.3257-0.263,0.5637-0.2004v0.3257
			c0,0-0.5512-0.1002-0.5512,0.4635v0.7892c0,0,0.0502,0.1879,0.1253,0.1879H47.502c0,0,0.1503-0.1628,0.1503-0.2631v-1.2025
			C47.6523,19.4317,47.6273,19.2313,47.5521,19.2313z"/>
		<path fill="#C2C2BF" d="M42.4018,20.6718c0,0-0.3867-0.0501-0.4618-0.6639h1.2951c0,0,0.158-0.952-0.8316-0.952
			c-0.9896,0-0.8355,0.952-0.8355,0.952s0.0339,0.8528,0.8355,0.9337c0.8017,0.0809,0.8364-0.2948,0.8316-0.37
			C43.2351,20.5715,42.7884,20.7971,42.4018,20.6718z M42.4035,19.3314c0.4635,0,0.4635,0.4134,0.4635,0.4134H41.94
			C41.94,19.7448,41.94,19.3314,42.4035,19.3314z"/>
		<path fill="#C2C2BF" d="M44.7085,20.5715c0,0-0.451,0.0626-0.5387,0c0,0-0.1272-0.1628,0.3185-0.2255
			c0,0,0.5709-0.0752,0.621-0.6013c0,0,0-0.2756-0.2756-0.4134c-0.2756-0.1377,0.4259,0,0.4259,0s0.1503-0.0124,0.0877-0.2004
			h-1.1649c0,0-0.6764,0.0626-0.6764,0.6889c0,0,0.0375,0.3758,0.4885,0.5386c0,0-0.5011,0.3382,0.0125,0.3883
			c0,0,1.1649,0.0251,1.0397,0.451c-0.1252,0.4259-0.6764,0.3633-0.6764,0.3633s-1.0046-0.0891-0.5086-0.6082
			c0,0-0.4936-0.0932-0.5311,0.3452s1.1649,0.7206,1.7161,0.2663S45.2722,20.6968,44.7085,20.5715z M43.9067,19.7825
			c0-0.249,0.1989-0.451,0.4445-0.451c0.2454,0,0.4444,0.202,0.4444,0.451c0,0.2491-0.199,0.4511-0.4444,0.4511
			C44.1057,20.2336,43.9067,20.0316,43.9067,19.7825z"/>
	</g>
	<circle fill="#878684" cx="43.8352" cy="12.7097" r="0.4665"/>
</g>
</svg>
