<?xml version="1.0" encoding="utf-8"?>
<!-- Generator: Adobe Illustrator 17.0.0, SVG Export Plug-In . SVG Version: 6.00 Build 0)  -->
<!DOCTYPE svg PUBLIC "-//W3C//DTD SVG 1.1//EN" "http://www.w3.org/Graphics/SVG/1.1/DTD/svg11.dtd">
<svg version="1.1" id="Capa_1" xmlns="http://www.w3.org/2000/svg" xmlns:xlink="http://www.w3.org/1999/xlink" x="0px" y="0px"
	 width="60px" height="24px" viewBox="0 0 60 24" enable-background="new 0 0 60 24" xml:space="preserve">
<g id="QUALITAS">
	<g>
		<g>
			<rect x="11.5644" y="21.4743" fill="#762480" width="0.4107" height="0.4504"/>
			<rect x="7.3674" y="21.4743" fill="#762480" width="0.4108" height="0.4504"/>
			<rect x="10.1654" y="21.4743" fill="#762480" width="0.4108" height="0.4504"/>
			<rect x="5.9684" y="21.4743" fill="#762480" width="0.4108" height="0.4504"/>
			<rect x="0.3725" y="21.4743" fill="#762480" width="0.4107" height="0.4504"/>
			<rect x="4.5695" y="21.4743" fill="#762480" width="0.4107" height="0.4504"/>
			<rect x="1.7716" y="21.4743" fill="#762480" width="0.4107" height="0.4504"/>
			<rect x="3.1705" y="21.4743" fill="#762480" width="0.4106" height="0.4504"/>
			<rect x="8.7664" y="21.4743" fill="#762480" width="0.4107" height="0.4504"/>
			<path fill="#762480" d="M3.1787,14.3817c0.2312,0.1268,1.526,0.7607,2.4971,1.3187c0.9711,0.558,3.3525,2.1557,4.4161,2.9672
				c1.0636,0.8117,1.5953,0.3298,1.8034,0.1523c0.2081-0.1776,0.9942-1.0652,1.341-1.471s1.5492-1.268,1.7341-1.5724
				c0.1849-0.3043,0.1387-0.6086-0.3006-0.6086c-0.4394,0-0.4162,0.4058-2.0116,0.8876c-1.5953,0.4818-3.0057,0.0761-3.6762-0.0253
				c-0.6705-0.1015-4.393-1.902-5.0173-2.2318c-0.6243-0.3297-0.8324-0.355-0.9943-0.0254
				C2.8087,14.1027,2.9475,14.2549,3.1787,14.3817z"/>
			<path fill="#762480" d="M8.9475,14.4325c3.241,0,5.8843-2.3924,5.8843-5.3257c0-2.9333-2.6433-5.3258-5.8843-5.3258
				c-3.2411,0-5.8844,2.3924-5.8844,5.3258C3.0631,12.04,5.7065,14.4325,8.9475,14.4325z M5.7451,8.1093
				c0.0001-1.9108,1.4255-3.4744,3.1676-3.4744c1.7421,0,3.1675,1.5635,3.1675,3.4744v1.8513c0,1.911-1.4254,3.4744-3.1675,3.4744
				c-1.7421,0-3.1676-1.5635-3.1676-3.4744V8.1093z"/>
			<rect x="12.9634" y="21.4743" fill="#762480" width="0.4107" height="0.4504"/>
			<path fill="#762480" d="M0.1114,2.0753v18.662h17.7593V2.0753H0.1114z M17.3024,20.1138H0.6799V2.6988h16.6224V20.1138z"/>
			<rect x="14.3623" y="21.4743" fill="#762480" width="0.4107" height="0.4504"/>
			<rect x="15.7613" y="21.4743" fill="#762480" width="0.4107" height="0.4504"/>
			<rect x="17.1603" y="21.4743" fill="#762480" width="0.4106" height="0.4504"/>
		</g>
		<g>
			<path fill="none" d="M27.3935,9.9178c0-3.1045-1.0414-5.0506-2.6347-5.0506s-2.6217,2.0499-2.6217,5.0506
				c0,3.0006,1.0285,5.0504,2.6217,5.0504S27.3935,13.022,27.3935,9.9178z"/>
			<path fill="#179C95" d="M34.6666,14.3542c-0.3401-0.0701-0.3488-0.1792-0.3686-0.6381c-0.0198-0.459,0-5.665,0-5.665
				s-0.0396-0.3763-0.3961-0.416c-0.3565-0.0396-0.7725,0-0.9508,0c-0.1782,0-0.3565,0.1386-0.3168,0.2971
				C32.674,8.0907,32.872,8.1303,33.07,8.2689c0.1981,0.1386,0.2576,0.317,0.2576,0.5941c0,0.2774,0,3.9814,0,3.9814
				s0.0198,0.733-0.2972,1.2083c-0.3169,0.4754-0.652,0.6537-1.1291,0.6537c-0.4768,0-1.0497-0.3763-1.0695-1.4262
				c-0.0198-1.0495-0.0793-1.3865-0.0793-1.3865v-3.823c0,0,0.0005-0.4123-0.3563-0.4259
				c-0.2435-0.0094-0.6795-0.0099-1.0358,0.0008c-0.1753,0.0054-0.3181,0.0782-0.3115,0.2073
				c0.0198,0.3765,0.1585,0.2578,0.2972,0.3171c0.1386,0.0593,0.4358-0.0593,0.4358,0.4556c0,0.5149,0,4.3179,0,4.3179
				s-0.0198,1.0102,0.3961,1.7232c0.416,0.713,1.03,0.9311,1.5252,0.9311c0.4952,0,0.9311-0.416,1.03-0.5548
				c0.0991-0.1386,0.5468-0.6318,0.5866-0.1565c0.0396,0.4754,0.0062,0.612,0.2454,0.6913c0.2391,0.0793,0.1811-0.1416,0.4831-0.346
				c0.302-0.2042,0.4478-0.3275,0.6262-0.367C34.8527,14.8252,35.0068,14.4242,34.6666,14.3542z"/>
			<path fill="#179C95" d="M39.9711,14.3959c-0.0886,0.1416-0.4422,0.2299-0.4776-0.2299c-0.0745-0.9679,0.024-4.8765-0.0748-5.6184
				c0,0-0.1729-1.1206-1.0218-1.2092c-0.8491-0.0883-1.5389,0.1769-2.0695,0.8314c-0.5308,0.6545-0.6899,0.9374-0.7607,1.1321
				c-0.0708,0.1945-0.2653,0.6015,0.1237,0.8137c0.3892,0.2122,0.6899-0.3362,0.8314-0.6722
				c0.1415-0.3361,0.3184-1.0258,0.4953-1.1673c0.1769-0.1415,0.4246-0.4776,1.0081-0.407c0.5838,0.0709,0.407,0.92,0.407,1.1143
				c0,0.1947,0,1.7336,0,1.7336s-1.0791,0.7959-1.4152,1.026c-0.3361,0.2299-1.0082,0.8489-1.3267,1.4855
				c-0.3183,0.6369-0.3891,1.6626,0.1769,2.0341c0.5662,0.3714,1.0259,0.4423,1.6981-0.0353
				c0.6721-0.4776,0.7961-0.8489,1.0081-0.4421c0.2123,0.4066,0.2123,0.7429,0.6899,0.7252
				c0.4776-0.0178,0.7251-0.3714,0.8314-0.513c0.106-0.1415,0.4244-0.5836,0.2653-0.7429
				C40.201,14.0952,40.0595,14.2544,39.9711,14.3959z M38.4324,12.8395c0,0.3184-0.0532,0.6721-0.1769,1.0081
				c-0.1239,0.3361-0.2477,0.6545-0.9198,0.7782c-0.6721,0.1237-0.8314-0.513-0.796-1.0436
				c0.0354-0.5307,0.1223-0.7944,0.6369-1.2912c0.5144-0.4969,0.8775-0.7006,1.2558-0.9728
				C38.4324,11.3183,38.4324,12.5211,38.4324,12.8395z"/>
			<path fill="#179C95" d="M39.1667,5.1909c0,0,0.6351-0.6097,0.5844-0.9145c-0.0508-0.305-0.3304-0.5589-0.4828-0.4573
				c-0.1525,0.1016-0.8383,1.0415-1.0415,1.3717c-0.2033,0.3303-0.9908,1.4736-0.9908,1.4736l0.3049,0.1778L39.1667,5.1909z"/>
			<ellipse fill="#179C95" cx="45.1494" cy="4.7211" rx="0.5969" ry="0.9019"/>
			<path fill="#179C95" d="M30.5598,16.6569c-0.4379,0.2814-0.918,0.4818-1.6887,0.4692c-0.7709-0.0128-1.68-0.2819-2.2399-0.5943
				c-0.5599-0.3124-1.0134-0.6236-1.2116-0.8907c1.963-0.466,3.2454-2.9732,3.2454-5.6921c0-3.015-1.5452-5.7699-3.9094-5.7699
				c-2.3642,0-3.9529,3.0612-3.8903,5.7699c0.0622,2.695,1.5425,5.7382,3.8552,5.7689c0.2964,0.4061,0.8093,1.3031,1.7264,1.8205
				c0.9172,0.5174,1.6619,0.9044,2.7773,0.7759c1.1157-0.1285,1.7734-0.813,2.1173-1.2197c0.3439-0.4065,0.5004-0.688,0.2502-0.9382
				C31.3416,15.9064,30.9976,16.3755,30.5598,16.6569z M22.1371,9.9178c0-3.0007,1.0285-5.0506,2.6217-5.0506
				s2.6347,1.9461,2.6347,5.0506c0,3.1042-1.0414,5.0504-2.6347,5.0504S22.1371,12.9184,22.1371,9.9178z"/>
			<path fill="#179C95" d="M55.2007,14.3959c-0.0883,0.1416-0.4421,0.2299-0.4774-0.2299
				c-0.0745-0.9679,0.0238-4.8765-0.0748-5.6184c0,0-0.1729-1.1206-1.022-1.2092c-0.849-0.0883-1.5389,0.1769-2.0695,0.8314
				c-0.5306,0.6545-0.6899,0.9374-0.7605,1.1321c-0.0708,0.1945-0.2653,0.6015,0.1237,0.8137
				c0.3891,0.2122,0.6898-0.3362,0.8312-0.6722c0.1415-0.3361,0.3184-1.0258,0.4953-1.1673
				c0.1769-0.1415,0.4244-0.4776,1.0081-0.407c0.5838,0.0709,0.4069,0.92,0.4069,1.1143c0,0.1947,0,1.7336,0,1.7336
				s-1.0789,0.7959-1.415,1.026c-0.3361,0.2299-1.0081,0.8489-1.3266,1.4855c-0.3183,0.6369-0.3891,1.6626,0.1769,2.0341
				c0.566,0.3714,1.026,0.4423,1.6981-0.0353c0.6722-0.4776,0.7959-0.8489,1.0081-0.4421c0.2123,0.4066,0.2123,0.7429,0.6898,0.7252
				c0.4776-0.0178,0.7252-0.3714,0.8314-0.513c0.1062-0.1415,0.4244-0.5836,0.2653-0.7429
				C55.4308,14.0952,55.2893,14.2544,55.2007,14.3959z M53.6619,12.8395c0,0.3184-0.0532,0.6721-0.1769,1.0081
				c-0.1237,0.3361-0.2475,0.6545-0.9196,0.7782c-0.6722,0.1237-0.8314-0.513-0.796-1.0436
				c0.0354-0.5307,0.1222-0.7944,0.6367-1.2912c0.3979-0.3842,0.7053-0.5933,0.9992-0.794
				c0.1146-0.0705,0.2619-0.0175,0.2567,0.1101C53.6619,11.9837,53.6619,12.6207,53.6619,12.8395z"/>
			<path fill="#179C95" d="M58.417,10.6896c-1.3284-0.8501-1.3107-1.0803-1.2929-1.842c0.0178-0.7616,0.5313-1.0449,0.9917-1.0271
				c0.4604,0.0177,0.8148,0.4604,0.8678,0.7969c0.0532,0.3365,0.2125,0.673,0.4074,0.673c0.1949,0,0.1595-0.6375,0.1775-1.0625
				c0.0176-0.425-0.3721-0.7083-0.6554-0.8322c-0.2834-0.1241-1.0627-0.195-1.7888,0.2833
				c-0.7261,0.478-0.8678,1.2221-0.9032,1.7709c-0.0354,0.5491,0.0707,0.9388,0.4959,1.5054
				c0.4251,0.5668,1.5231,1.0449,1.9305,1.47c0.4073,0.4251,0.4427,1.6649,0.0885,2.1607c-0.3544,0.4959-0.921,0.5312-1.4168,0.4427
				c-0.4959-0.0886-0.6553-1.2929-0.7085-1.6649c-0.0532-0.3718-0.1593-0.602-0.301-0.602c-0.1417,0-0.2303,0.2302-0.248,0.4074
				c-0.0176,0.1771-0.0176,0.62-0.0176,1.1688c0,0.549,0.1061,0.8146,0.7792,1.0804c0.6729,0.2654,1.4168,0.301,2.1959-0.3012
				c0.7792-0.6022,0.8856-1.7356,0.8678-2.1783C59.8692,12.4962,59.7452,11.5397,58.417,10.6896z"/>
			<path fill="#179C95" d="M42.9422,14.679c-0.2128-0.0982-0.2128-0.36-0.2128-0.36s0-10.2454,0-10.4086
				c0-0.1633,0.0473-0.4708-0.1962-0.5034c-0.2435-0.0324-0.3344,0.2168-0.6085,0.408c-0.2611,0.1819-0.933,0.0671-0.8602,0.5276
				c0.0444,0.281,0.1762,0.168,0.4217,0.2493c0.2453,0.081,0.1799,0.2921,0.1799,0.2921s0,8.8646,0,9.075
				c0,0.2106-0.049,0.6053-0.1799,0.7037c-0.1308,0.0981-0.6053,0.0652-0.6053,0.3925c0,0.3272,0.4746,0.2454,0.7199,0.2126
				c0.2454-0.0326,0.5725-0.0654,0.818-0.0654c0.2454,0,0.4908,0.1145,0.7197,0.1145c0.229,0,0.3436-0.2455,0.3436-0.3435
				C43.4821,14.8752,43.1548,14.7769,42.9422,14.679z"/>
			<path fill="#179C95" d="M45.9313,14.679c-0.2126-0.0982-0.2126-0.36-0.2126-0.36s0-6.2489,0-6.4133
				c0-0.1643-0.0164-0.4745-0.1963-0.5071c-0.18-0.0327-0.2454,0.1635-0.3927,0.3599c-0.1472,0.1962-0.3434,0.3272-0.6543,0.5562
				c-0.3108,0.229-0.4743,0.2453-0.409,0.4744c0.0656,0.229,0.1636,0.131,0.4089,0.2128c0.2453,0.0817,0.1799,0.2943,0.1799,0.2943
				s0,4.4501,0,4.6627c0,0.2126-0.049,0.6053-0.1799,0.7037c-0.1308,0.0981-0.6053,0.0652-0.6053,0.3925
				c0,0.3272,0.4746,0.2454,0.7199,0.2126c0.2454-0.0326,0.5727-0.0654,0.818-0.0654c0.2454,0,0.4908,0.1145,0.7199,0.1145
				c0.229,0,0.3434-0.2455,0.3434-0.3435C46.4711,14.8752,46.1439,14.7769,45.9313,14.679z"/>
			<path fill="#179C95" d="M49.9485,14.2995c-0.2419,0.2661-0.5326,0.4356-0.7988,0.4114
				c-0.2663-0.0242-0.4841-0.1935-0.4841-0.9681c0-0.7746,0-5.3493,0-5.3493h0.9443c0,0,0.4652-0.0293,0.4381-0.4381
				c-0.027-0.409-0.2934-0.3121-0.4627-0.3363c-0.1695-0.0244-0.896,0-0.896,0V6.4086c0,0-0.169-0.5807-0.411-0.1451
				c-0.2421,0.4357-0.3148,0.6293-0.5084,0.9439c-0.1934,0.3148-0.6775,0.6294-0.7017,0.9198
				c-0.0244,0.2906,0.1694,0.2663,0.2904,0.2663c0.1209,0,0.2432,0,0.2432,0v5.3735c0,0-0.0738,1.0893,0.5071,1.4765
				c0.5811,0.3874,1.0893,0.4356,1.5976,0c0.5083-0.4357,0.5809-0.7503,0.5809-0.9198
				C50.2875,14.1544,50.1906,14.0335,49.9485,14.2995z"/>
		</g>
	</g>
	<g>
		<path fill="#4D4D4D" d="M21.5551,19.8411c0,0.1835,0.0239,0.3429,0.0715,0.4782c0.0476,0.1354,0.1097,0.2475,0.1868,0.3364
			c0.077,0.0889,0.1649,0.1551,0.2634,0.1988c0.0985,0.0436,0.1982,0.0654,0.2991,0.0654c0.1054,0,0.2005-0.0189,0.2854-0.0569
			c0.0849-0.0379,0.1588-0.0881,0.2217-0.1504c0.0628-0.0623,0.1144-0.1336,0.1545-0.214c0.0402-0.0804,0.0688-0.1625,0.0858-0.2463
			h0.2617c-0.0238,0.1245-0.0632,0.241-0.118,0.3491c-0.055,0.1082-0.1248,0.2027-0.2099,0.2837
			c-0.0848,0.081-0.1842,0.1447-0.2982,0.1912c-0.1138,0.0465-0.2415,0.0697-0.3831,0.0697c-0.1642,0-0.3129-0.0298-0.446-0.0892
			c-0.133-0.0595-0.2463-0.1452-0.3398-0.2574c-0.0934-0.1121-0.1656-0.2492-0.2166-0.4111s-0.0765-0.3454-0.0765-0.5505
			c0-0.1054,0.0108-0.2093,0.0323-0.3118c0.0215-0.1024,0.0533-0.1996,0.0951-0.2914c0.0418-0.0918,0.0938-0.1764,0.1554-0.254
			c0.0617-0.0775,0.1322-0.1447,0.2115-0.2014c0.0793-0.0567,0.1676-0.1008,0.2651-0.1325c0.0974-0.0317,0.2027-0.0476,0.316-0.0476
			c0.1438,0,0.2718,0.019,0.384,0.0569c0.1121,0.038,0.21,0.0907,0.2939,0.158c0.0838,0.0674,0.1538,0.1477,0.2099,0.2412
			c0.056,0.0934,0.0999,0.1951,0.1317,0.3049h-0.2718c-0.0634-0.1801-0.1558-0.3142-0.2769-0.4026
			c-0.1212-0.0883-0.2781-0.1325-0.4706-0.1325c-0.1201,0-0.2302,0.0275-0.3305,0.0823c-0.1002,0.055-0.1863,0.1288-0.2583,0.2217
			c-0.0719,0.0929-0.128,0.2008-0.1682,0.3237C21.5752,19.5757,21.5551,19.7051,21.5551,19.8411z"/>
		<path fill="#4D4D4D" d="M23.7535,20.2131c0-0.1235,0.0173-0.2395,0.0518-0.3482c0.0346-0.1088,0.0849-0.2039,0.1512-0.2854
			c0.0662-0.0815,0.148-0.1459,0.2454-0.1929c0.0974-0.0469,0.209-0.0705,0.3347-0.0705s0.2379,0.0236,0.3364,0.0705
			c0.0985,0.047,0.1812,0.1113,0.248,0.1929c0.0668,0.0815,0.1178,0.1766,0.1529,0.2854c0.0352,0.1088,0.0527,0.2248,0.0527,0.3482
			s-0.0176,0.2396-0.0527,0.3483c-0.0352,0.1087-0.0861,0.2032-0.1529,0.2837s-0.1495,0.1442-0.248,0.1912
			c-0.0985,0.047-0.2106,0.0705-0.3364,0.0705s-0.2373-0.0236-0.3347-0.0705c-0.0974-0.0469-0.1792-0.1107-0.2454-0.1912
			c-0.0663-0.0804-0.1167-0.175-0.1512-0.2837C23.7709,20.4526,23.7535,20.3365,23.7535,20.2131z M24.0067,20.2131
			c0,0.0917,0.0122,0.1784,0.0365,0.26c0.0244,0.0815,0.0595,0.1523,0.1054,0.2123c0.0459,0.06,0.1017,0.1076,0.1674,0.1427
			c0.0657,0.0352,0.1394,0.0527,0.2209,0.0527c0.0815,0,0.1551-0.0176,0.2209-0.0527s0.1214-0.0827,0.1674-0.1427
			c0.0459-0.06,0.0812-0.1308,0.1061-0.2123c0.0249-0.0815,0.0375-0.1683,0.0375-0.26s-0.0126-0.1783-0.0375-0.2599
			c-0.0249-0.0815-0.0603-0.1529-0.1061-0.214c-0.0459-0.0612-0.1017-0.1094-0.1674-0.1444s-0.1394-0.0526-0.2209-0.0526
			c-0.0815,0-0.1551,0.0175-0.2209,0.0526c-0.0658,0.0352-0.1214,0.0833-0.1674,0.1444c-0.0459,0.0612-0.0809,0.1325-0.1054,0.214
			C24.0189,20.0347,24.0067,20.1213,24.0067,20.2131z"/>
		<path fill="#4D4D4D" d="M25.6988,19.3466h0.2547v0.2718c0.0362-0.0543,0.0767-0.1005,0.1215-0.1385
			c0.0447-0.0379,0.0909-0.0691,0.1385-0.0935c0.0476-0.0243,0.0954-0.0422,0.1435-0.0535c0.0481-0.0113,0.0943-0.017,0.1385-0.017
			c0.043,0,0.0852,0.0056,0.1266,0.017c0.0413,0.0113,0.0812,0.0294,0.1197,0.0543c0.0385,0.0249,0.0757,0.0575,0.1113,0.0977
			c0.0356,0.0402,0.0693,0.0892,0.1011,0.1469c0.0328-0.0567,0.0714-0.105,0.1155-0.1452c0.0442-0.0401,0.0911-0.0733,0.141-0.0994
			s0.1008-0.0451,0.153-0.0569c0.052-0.012,0.1024-0.0178,0.1511-0.0178c0.0793,0,0.152,0.0133,0.2183,0.0399
			c0.0662,0.0267,0.1235,0.0635,0.1716,0.1105c0.0482,0.047,0.0858,0.1025,0.113,0.1665c0.0272,0.0641,0.0408,0.1334,0.0408,0.2081
			v1.2385h-0.2548v-1.1654c0-0.0725-0.0102-0.1321-0.0306-0.1792c-0.0204-0.0469-0.047-0.0847-0.0799-0.113
			c-0.0329-0.0284-0.0693-0.0481-0.1096-0.0594c-0.0402-0.0113-0.0807-0.017-0.1215-0.017c-0.0533,0-0.1067,0.0119-0.1605,0.0356
			c-0.0539,0.0238-0.1022,0.0567-0.1453,0.0985c-0.0431,0.0418-0.0781,0.0914-0.1053,0.1486
			c-0.0272,0.0573-0.0408,0.1193-0.0408,0.1861v1.0652h-0.2532v-1.1654c0-0.0725-0.0104-0.1321-0.0315-0.1792
			c-0.0209-0.0469-0.0473-0.0847-0.079-0.113c-0.0318-0.0284-0.0665-0.0481-0.1045-0.0594c-0.0379-0.0113-0.0745-0.017-0.1096-0.017
			c-0.0669,0-0.1295,0.0156-0.1877,0.0467c-0.0583,0.0312-0.1091,0.0708-0.152,0.1189c-0.0431,0.0482-0.0771,0.1008-0.102,0.158
			c-0.025,0.0573-0.0375,0.1119-0.0375,0.164v1.0465h-0.2547v-1.7293H25.6988z"/>
		<path fill="#4D4D4D" d="M28.4409,19.3466h0.2532v0.2617c0.0294-0.0476,0.0646-0.09,0.1054-0.1274
			c0.0408-0.0374,0.084-0.0688,0.13-0.0944c0.0459-0.0254,0.0929-0.0447,0.141-0.0577c0.0482-0.013,0.0948-0.0195,0.1402-0.0195
			c0.1167,0,0.2212,0.0236,0.3135,0.0705c0.0923,0.047,0.1699,0.1111,0.2327,0.192c0.0629,0.081,0.111,0.1758,0.1444,0.2845
			c0.0334,0.1088,0.0501,0.2254,0.0501,0.35s-0.0161,0.2416-0.0484,0.3509c-0.0322,0.1094-0.0798,0.2048-0.1427,0.2863
			c-0.0628,0.0815-0.1398,0.1459-0.2311,0.1928c-0.0911,0.0469-0.1951,0.0705-0.3117,0.0705c-0.0442,0-0.0906-0.0062-0.1394-0.0186
			c-0.0487-0.0125-0.0963-0.0309-0.1427-0.0552c-0.0465-0.0243-0.0904-0.0549-0.1317-0.0917
			c-0.0414-0.0368-0.0779-0.079-0.1096-0.1266v0.9718h-0.2532v-2.4397H28.4409z M28.6941,20.2334
			c0.0022,0.0895,0.0161,0.1736,0.0417,0.2523c0.0254,0.0788,0.0603,0.1472,0.1045,0.2056
			c0.0442,0.0583,0.0965,0.1046,0.1572,0.1386c0.0606,0.034,0.1277,0.0509,0.2014,0.0509c0.0748,0,0.1427-0.0176,0.2039-0.0527
			c0.0611-0.0352,0.1132-0.0832,0.1563-0.1444c0.0429-0.0612,0.0762-0.1328,0.0993-0.2149
			c0.0233-0.0821,0.0349-0.1696,0.0349-0.2625s-0.0116-0.1801-0.0349-0.2617c-0.0232-0.0815-0.0564-0.1526-0.0993-0.2132
			c-0.0431-0.0606-0.0951-0.1085-0.1563-0.1435c-0.0612-0.0351-0.1291-0.0526-0.2039-0.0526c-0.0748,0-0.1431,0.0175-0.2048,0.0526
			c-0.0617,0.0352-0.115,0.0831-0.1597,0.1435c-0.0448,0.0607-0.0793,0.1317-0.1037,0.2132
			c-0.0243,0.0815-0.0365,0.1688-0.0365,0.2617L28.6941,20.2334L28.6941,20.2334z"/>
		<path fill="#4D4D4D" d="M30.3659,19.8105c0.0045-0.0849,0.0277-0.1585,0.0696-0.2209c0.0418-0.0624,0.0948-0.1138,0.1589-0.1546
			c0.064-0.0408,0.1351-0.0707,0.2132-0.09c0.0782-0.0193,0.1557-0.0289,0.2327-0.0289c0.085,0,0.1676,0.0093,0.2481,0.028
			c0.0803,0.0186,0.1517,0.0484,0.2139,0.0892c0.0623,0.0408,0.1122,0.0938,0.1495,0.1588
			c0.0375,0.0651,0.0561,0.1435,0.0561,0.2354v0.9106c0,0.0181,0.0034,0.0362,0.0102,0.0543s0.0159,0.0343,0.0272,0.0484
			c0.0113,0.0142,0.0246,0.0255,0.0399,0.034c0.0153,0.0086,0.0315,0.0128,0.0484,0.0128c0.0125,0,0.0252-0.0014,0.0383-0.0043
			c0.013-0.0028,0.028-0.007,0.045-0.0128v0.2089c-0.0362,0.0102-0.0671,0.0178-0.0925,0.0229
			c-0.0255,0.0052-0.0535,0.0077-0.0841,0.0077c-0.0736,0-0.1344-0.0272-0.1826-0.0815c-0.0481-0.0543-0.0757-0.1382-0.0824-0.2514
			c-0.0543,0.0714-0.1081,0.1288-0.1614,0.1725c-0.0533,0.0436-0.1062,0.0774-0.1588,0.1012
			c-0.0527,0.0238-0.106,0.0396-0.1597,0.0476c-0.0539,0.0079-0.1085,0.0119-0.164,0.0119c-0.0714,0-0.1382-0.0113-0.2005-0.034
			s-0.1164-0.0552-0.1622-0.0977c-0.0459-0.0426-0.0822-0.0938-0.1088-0.1538c-0.0267-0.06-0.04-0.1269-0.04-0.2005
			c0-0.0736,0.0162-0.1368,0.0484-0.1894c0.0323-0.0527,0.075-0.0977,0.1283-0.1351s0.1138-0.0691,0.1818-0.0951
			c0.068-0.0261,0.137-0.0493,0.2073-0.0697c0.0702-0.0203,0.1394-0.0396,0.2073-0.0577c0.0679-0.0181,0.1285-0.0385,0.1818-0.0612
			c0.0532-0.0227,0.0959-0.049,0.1283-0.079c0.0322-0.03,0.0484-0.0665,0.0484-0.1096c0-0.1008-0.0368-0.1735-0.1105-0.2183
			c-0.0736-0.0447-0.1762-0.0671-0.3075-0.0671c-0.0509,0-0.0993,0.0051-0.1452,0.0153c-0.0459,0.0102-0.0864,0.0261-0.1214,0.0476
			s-0.0646,0.0493-0.0883,0.0833s-0.0391,0.0748-0.0459,0.1223C30.6326,19.8105,30.3659,19.8105,30.3659,19.8105z M31.4515,20.0993
			c-0.0352,0.0374-0.0813,0.0685-0.1386,0.0934c-0.0572,0.0249-0.1183,0.0473-0.1835,0.0671
			c-0.065,0.0199-0.1308,0.0389-0.1971,0.057c-0.0662,0.0181-0.126,0.0399-0.1792,0.0653c-0.0533,0.0255-0.0965,0.0564-0.13,0.0926
			c-0.0334,0.0362-0.0501,0.0815-0.0501,0.1359c0,0.0499,0.0086,0.0921,0.0254,0.1266c0.017,0.0346,0.0396,0.0632,0.068,0.0858
			c0.0284,0.0227,0.0604,0.0391,0.096,0.0492c0.0357,0.0102,0.0716,0.0153,0.1079,0.0153c0.1064,0,0.2104-0.0319,0.3118-0.096
			c0.1013-0.064,0.1911-0.1628,0.2693-0.2965L31.4515,20.0993L31.4515,20.0993z"/>
		<path fill="#4D4D4D" d="M33.2216,21.0762v-1.1133c0-0.0534-0.0029-0.1072-0.0087-0.1618
			c-0.0058-0.0545-0.0186-0.1044-0.0383-0.1497c-0.0198-0.0452-0.0476-0.0823-0.0836-0.1113s-0.083-0.0435-0.1409-0.0435
			c-0.058,0-0.1096,0.0157-0.1548,0.0469c-0.0453,0.0314-0.0836,0.0743-0.1148,0.1287c-0.0314,0.0545-0.0557,0.1171-0.0731,0.1879
			c-0.0174,0.0707-0.0261,0.1444-0.0261,0.221v0.995h-0.2296v-1.2909c0-0.0371-0.0006-0.0771-0.0018-0.1201
			c-0.0013-0.0428-0.0023-0.0846-0.0035-0.1252c-0.0013-0.0406-0.0023-0.0777-0.0035-0.1113
			c-0.0013-0.0336-0.0029-0.0598-0.0053-0.0783h0.2227c0.0046,0.0441,0.0081,0.0974,0.0104,0.1601
			c0.0022,0.0626,0.0035,0.1218,0.0035,0.1775h0.007c0.0324-0.116,0.0857-0.2105,0.1601-0.2836
			c0.0741-0.0731,0.167-0.1096,0.2784-0.1096c0.0927,0,0.1675,0.0198,0.2244,0.0592c0.0568,0.0394,0.1004,0.0911,0.1305,0.1548
			c0.0302,0.0639,0.0504,0.1357,0.0609,0.2157c0.0104,0.08,0.0157,0.1595,0.0157,0.2384v1.1133h-0.2297V21.0762z M33.3329,18.6927
			c-0.007,0.1137-0.0319,0.1989-0.0749,0.2557c-0.0429,0.0569-0.098,0.0853-0.1653,0.0853c-0.0371,0-0.0714-0.0057-0.1026-0.0174
			c-0.0313-0.0116-0.0702-0.0335-0.1166-0.0661c-0.0534-0.0348-0.0911-0.0575-0.1131-0.0678
			c-0.022-0.0104-0.0459-0.0157-0.0713-0.0157c-0.0372,0-0.0639,0.0151-0.08,0.0452s-0.029,0.072-0.0383,0.1253h-0.1287
			c0.007-0.1044,0.0314-0.1891,0.0731-0.2541c0.0418-0.0649,0.0974-0.0974,0.167-0.0974c0.0418,0,0.0771,0.0064,0.1061,0.0192
			c0.0289,0.0128,0.0666,0.0343,0.1131,0.0644c0.0534,0.0348,0.0915,0.0575,0.1148,0.0678c0.0231,0.0104,0.0475,0.0157,0.073,0.0157
			c0.0371,0,0.0632-0.0122,0.0783-0.0365c0.0151-0.0244,0.0272-0.0655,0.0365-0.1236H33.3329z"/>
		<path fill="#4D4D4D" d="M34.1644,19.0964h-0.1949l0.3132-0.501h0.2506L34.1644,19.0964z M33.9731,21.0762v-1.7258h0.2296v1.7258
			H33.9731z"/>
		<path fill="#4D4D4D" d="M34.7321,19.8105c0.0046-0.0849,0.0277-0.1585,0.0696-0.2209c0.0418-0.0624,0.0948-0.1138,0.1589-0.1546
			c0.064-0.0408,0.1351-0.0707,0.2132-0.09c0.0782-0.0193,0.1557-0.0289,0.2327-0.0289c0.085,0,0.1676,0.0093,0.2481,0.028
			c0.0803,0.0186,0.1517,0.0484,0.2139,0.0892c0.0623,0.0408,0.1122,0.0938,0.1495,0.1588
			c0.0375,0.0651,0.0561,0.1435,0.0561,0.2354v0.9106c0,0.0181,0.0034,0.0362,0.0102,0.0543s0.0159,0.0343,0.0272,0.0484
			c0.0113,0.0142,0.0246,0.0255,0.0399,0.034c0.0153,0.0086,0.0315,0.0128,0.0484,0.0128c0.0125,0,0.0252-0.0014,0.0383-0.0043
			c0.013-0.0028,0.028-0.007,0.045-0.0128v0.2089c-0.0362,0.0102-0.0671,0.0178-0.0925,0.0229
			c-0.0255,0.0052-0.0535,0.0077-0.0841,0.0077c-0.0736,0-0.1344-0.0272-0.1826-0.0815c-0.0481-0.0543-0.0757-0.1382-0.0824-0.2514
			c-0.0543,0.0714-0.1081,0.1288-0.1614,0.1725c-0.0533,0.0436-0.1062,0.0774-0.1588,0.1012
			c-0.0527,0.0238-0.106,0.0396-0.1597,0.0476c-0.0539,0.0079-0.1085,0.0119-0.164,0.0119c-0.0714,0-0.1382-0.0113-0.2005-0.034
			c-0.0623-0.0227-0.1164-0.0552-0.1622-0.0977c-0.0459-0.0426-0.0822-0.0938-0.1088-0.1538c-0.0267-0.06-0.04-0.1269-0.04-0.2005
			c0-0.0736,0.0162-0.1368,0.0484-0.1894c0.0323-0.0527,0.075-0.0977,0.1283-0.1351s0.1138-0.0691,0.1818-0.0951
			c0.068-0.0261,0.137-0.0493,0.2072-0.0697s0.1394-0.0396,0.2073-0.0577c0.0679-0.0181,0.1285-0.0385,0.1818-0.0612
			c0.0532-0.0227,0.0959-0.049,0.1283-0.079c0.0322-0.03,0.0484-0.0665,0.0484-0.1096c0-0.1008-0.0368-0.1735-0.1105-0.2183
			c-0.0736-0.0447-0.1762-0.0671-0.3075-0.0671c-0.0509,0-0.0993,0.0051-0.1452,0.0153c-0.0459,0.0102-0.0864,0.0261-0.1214,0.0476
			c-0.0351,0.0215-0.0646,0.0493-0.0883,0.0833s-0.0391,0.0748-0.0459,0.1223C34.9989,19.8105,34.7321,19.8105,34.7321,19.8105z
			 M35.8178,20.0993c-0.0352,0.0374-0.0813,0.0685-0.1386,0.0934c-0.0572,0.0249-0.1183,0.0473-0.1835,0.0671
			c-0.065,0.0199-0.1308,0.0389-0.1971,0.057c-0.0662,0.0181-0.126,0.0399-0.1792,0.0653c-0.0533,0.0255-0.0965,0.0564-0.13,0.0926
			c-0.0334,0.0362-0.0501,0.0815-0.0501,0.1359c0,0.0499,0.0086,0.0921,0.0254,0.1266c0.017,0.0346,0.0396,0.0632,0.068,0.0858
			c0.0284,0.0227,0.0604,0.0391,0.096,0.0492c0.0357,0.0102,0.0716,0.0153,0.1079,0.0153c0.1064,0,0.2104-0.0319,0.3118-0.096
			c0.1013-0.064,0.1911-0.1628,0.2693-0.2965L35.8178,20.0993L35.8178,20.0993z"/>
		<path fill="#4D4D4D" d="M39.1494,21.0762h-0.2531v-0.2617c-0.06,0.0997-0.1331,0.1748-0.2191,0.2251
			c-0.0862,0.0503-0.1745,0.0757-0.2651,0.0757c-0.1179,0-0.2214-0.0236-0.3109-0.0706c-0.0895-0.0469-0.1645-0.1109-0.2251-0.1919
			c-0.0606-0.0809-0.1064-0.1761-0.1376-0.2854c-0.0312-0.1093-0.0467-0.2263-0.0467-0.3509c0-0.1246,0.015-0.2415,0.045-0.3509
			c0.0301-0.1093,0.075-0.2047,0.1351-0.2862s0.1345-0.1459,0.2235-0.1929c0.0889-0.0469,0.1922-0.0705,0.3101-0.0705
			c0.0418,0,0.0852,0.0071,0.1299,0.0212c0.0448,0.0142,0.0886,0.0337,0.1317,0.0586s0.0844,0.0546,0.1241,0.0891
			c0.0396,0.0346,0.0748,0.0723,0.1054,0.113v-0.9428h0.2531v2.421H39.1494z M38.8963,20.1893
			c-0.0022-0.0895-0.0145-0.1735-0.0365-0.2523c-0.0221-0.0787-0.0533-0.1471-0.0935-0.2056
			c-0.0401-0.0583-0.0891-0.1045-0.1469-0.1385c-0.0576-0.034-0.1235-0.0509-0.1971-0.0509c-0.0748,0-0.1416,0.0175-0.2004,0.0526
			c-0.059,0.0352-0.1085,0.0833-0.1487,0.1444c-0.0401,0.0612-0.0711,0.1328-0.0926,0.2148
			c-0.0215,0.0822-0.0322,0.1696-0.0322,0.2625s0.0107,0.1801,0.0322,0.2617c0.0215,0.0815,0.0525,0.1527,0.0926,0.2132
			c0.0402,0.0607,0.0898,0.1085,0.1487,0.1435c0.0588,0.0352,0.1256,0.0527,0.2004,0.0527c0.0759,0,0.1433-0.0176,0.2023-0.0527
			c0.059-0.0352,0.1085-0.083,0.1486-0.1435c0.0402-0.0606,0.0708-0.1317,0.0917-0.2132c0.021-0.0815,0.0315-0.1688,0.0315-0.2617
			L38.8963,20.1893L38.8963,20.1893z"/>
		<path fill="#4D4D4D" d="M39.7866,20.2589c0.0011,0.0804,0.0153,0.1585,0.0425,0.2345s0.0643,0.143,0.1113,0.2013
			c0.047,0.0583,0.1022,0.1051,0.1657,0.1402c0.0633,0.0352,0.132,0.0527,0.2056,0.0527c0.2492,0,0.414-0.1155,0.4944-0.3466h0.2327
			c-0.0193,0.0906-0.0521,0.1713-0.0985,0.242c-0.0465,0.0708-0.1022,0.1303-0.1674,0.1784
			c-0.065,0.0482-0.137,0.0849-0.2157,0.1104c-0.0788,0.0255-0.1606,0.0383-0.2455,0.0383c-0.1212,0-0.2308-0.0249-0.3288-0.0748
			c-0.098-0.0499-0.1812-0.117-0.2498-0.2014c-0.0685-0.0843-0.1214-0.1823-0.1588-0.2939
			c-0.0374-0.1115-0.0561-0.2296-0.0561-0.3543c0-0.1155,0.0185-0.2259,0.0552-0.3313c0.0368-0.1054,0.0895-0.198,0.158-0.2778
			s0.1514-0.1432,0.2488-0.1903c0.0974-0.0469,0.2067-0.0705,0.328-0.0705c0.1167,0,0.2222,0.0212,0.3169,0.0637
			c0.0946,0.0426,0.175,0.1012,0.2412,0.1759c0.0662,0.0748,0.1171,0.1636,0.1529,0.2667c0.0356,0.103,0.0535,0.2147,0.0535,0.3347
			v0.102C41.0727,20.259,39.7866,20.259,39.7866,20.2589z M40.8093,20.0602c-0.0022-0.0725-0.0155-0.1404-0.0399-0.2039
			c-0.0243-0.0634-0.0589-0.1183-0.1036-0.1648c-0.0448-0.0465-0.0985-0.083-0.1615-0.1096
			c-0.0628-0.0266-0.1339-0.0399-0.2132-0.0399c-0.0714,0-0.1373,0.0141-0.198,0.0425c-0.0606,0.0283-0.1135,0.0666-0.1588,0.1146
			c-0.0453,0.0482-0.081,0.1034-0.107,0.1657c-0.0261,0.0623-0.0397,0.1274-0.0408,0.1953L40.8093,20.0602L40.8093,20.0602z"/>
		<path fill="#4D4D4D" d="M42.7479,20.3252c0.0056,0.0861,0.0252,0.1651,0.0585,0.237c0.0335,0.072,0.0776,0.1343,0.1325,0.1869
			c0.055,0.0527,0.1201,0.0938,0.1954,0.1232s0.1582,0.0442,0.2488,0.0442c0.0804,0,0.1575-0.0087,0.2311-0.0263
			c0.0736-0.0175,0.1386-0.0456,0.1946-0.084c0.0561-0.0385,0.1008-0.0883,0.1343-0.1495c0.0334-0.0612,0.0501-0.1359,0.0501-0.2243
			c0-0.0714-0.0181-0.132-0.0543-0.1818c-0.0362-0.0499-0.0838-0.0931-0.1427-0.13c-0.0589-0.0368-0.126-0.0683-0.2014-0.0943
			c-0.0753-0.0261-0.1515-0.0509-0.2285-0.0748c-0.0964-0.0283-0.1929-0.06-0.2897-0.0951
			c-0.0969-0.0352-0.1841-0.0798-0.2617-0.1342c-0.0776-0.0543-0.1408-0.122-0.1894-0.2031
			c-0.0488-0.0809-0.0731-0.1815-0.0731-0.3016c0-0.0997,0.0195-0.1877,0.0586-0.2642s0.094-0.1407,0.1648-0.1928
			c0.0708-0.0521,0.1552-0.0914,0.2532-0.1181c0.098-0.0266,0.2058-0.0399,0.3237-0.0399c0.1041,0,0.1965,0.0105,0.2769,0.0315
			c0.0804,0.021,0.1509,0.0492,0.2115,0.0849c0.0606,0.0356,0.1115,0.077,0.1529,0.124c0.0413,0.047,0.0753,0.0972,0.102,0.1504
			c0.0266,0.0533,0.0465,0.1079,0.0594,0.164c0.013,0.056,0.0212,0.1101,0.0246,0.1622h-0.2633
			c-0.0068-0.0804-0.0261-0.1511-0.0578-0.2123c-0.0317-0.0612-0.0727-0.1124-0.1231-0.1538
			c-0.0504-0.0413-0.1085-0.0725-0.1741-0.0935c-0.0657-0.0209-0.1354-0.0314-0.2089-0.0314c-0.0669,0-0.1328,0.0068-0.198,0.0204
			c-0.0651,0.0136-0.1232,0.036-0.1742,0.0671c-0.0509,0.0312-0.0923,0.0714-0.124,0.1206
			c-0.0318,0.0493-0.0476,0.1096-0.0476,0.1809c0,0.0736,0.0178,0.1362,0.0535,0.1877c0.0356,0.0516,0.0832,0.0957,0.1427,0.1325
			c0.0594,0.0368,0.1274,0.0688,0.2039,0.096c0.0764,0.0272,0.1554,0.0533,0.237,0.0782c0.0974,0.0294,0.1942,0.0616,0.2905,0.0968
			c0.0963,0.0352,0.1824,0.0793,0.2583,0.1325c0.0759,0.0532,0.1374,0.1193,0.1843,0.198c0.047,0.0788,0.0706,0.1765,0.0706,0.2931
			c0,0.1178-0.0216,0.2212-0.0647,0.31c-0.043,0.0889-0.103,0.1634-0.18,0.2235c-0.0771,0.06-0.1685,0.1051-0.2744,0.1351
			c-0.1059,0.03-0.2216,0.0451-0.3475,0.0451c-0.1133,0-0.2231-0.019-0.3295-0.057c-0.1065-0.0379-0.2014-0.0925-0.2846-0.1639
			s-0.1509-0.1577-0.203-0.2591c-0.0521-0.1014-0.0799-0.2149-0.0832-0.3406L42.7479,20.3252L42.7479,20.3252z"/>
		<path fill="#4D4D4D" d="M44.8835,20.2589c0.0011,0.0804,0.0153,0.1585,0.0425,0.2345s0.0643,0.143,0.1113,0.2013
			c0.047,0.0583,0.1022,0.1051,0.1657,0.1402c0.0633,0.0352,0.132,0.0527,0.2056,0.0527c0.2492,0,0.414-0.1155,0.4944-0.3466h0.2327
			c-0.0193,0.0906-0.0521,0.1713-0.0985,0.242c-0.0465,0.0708-0.1022,0.1303-0.1674,0.1784
			c-0.065,0.0482-0.137,0.0849-0.2157,0.1104c-0.0788,0.0255-0.1606,0.0383-0.2455,0.0383c-0.1212,0-0.2308-0.0249-0.3288-0.0748
			c-0.098-0.0499-0.1812-0.117-0.2498-0.2014c-0.0685-0.0843-0.1214-0.1823-0.1588-0.2939
			c-0.0374-0.1115-0.0561-0.2296-0.0561-0.3543c0-0.1155,0.0185-0.2259,0.0552-0.3313c0.0368-0.1054,0.0895-0.198,0.158-0.2778
			s0.1514-0.1432,0.2488-0.1903c0.0974-0.0469,0.2067-0.0705,0.328-0.0705c0.1167,0,0.2222,0.0212,0.3169,0.0637
			c0.0946,0.0426,0.175,0.1012,0.2412,0.1759c0.0662,0.0748,0.1171,0.1636,0.1529,0.2667c0.0356,0.103,0.0535,0.2147,0.0535,0.3347
			v0.102C46.1695,20.259,44.8835,20.259,44.8835,20.2589z M45.9062,20.0602c-0.0022-0.0725-0.0155-0.1404-0.0399-0.2039
			c-0.0243-0.0634-0.0589-0.1183-0.1036-0.1648c-0.0448-0.0465-0.0985-0.083-0.1615-0.1096
			c-0.0628-0.0266-0.1339-0.0399-0.2132-0.0399c-0.0714,0-0.1373,0.0141-0.198,0.0425c-0.0606,0.0283-0.1135,0.0666-0.1588,0.1146
			c-0.0453,0.0482-0.081,0.1034-0.107,0.1657c-0.0261,0.0623-0.0397,0.1274-0.0408,0.1953L45.9062,20.0602L45.9062,20.0602z"/>
		<path fill="#4D4D4D" d="M48.0401,21.1186c0,0.1189-0.0204,0.2237-0.0612,0.3142c-0.0408,0.0906-0.0951,0.1665-0.1631,0.2277
			s-0.1459,0.1073-0.2336,0.1385c-0.0878,0.0312-0.1787,0.0467-0.2727,0.0467c-0.0815,0-0.158-0.0102-0.2293-0.0306
			c-0.0715-0.0204-0.1371-0.0521-0.1971-0.0951c-0.0601-0.043-0.1134-0.0978-0.1598-0.164
			c-0.0465-0.0663-0.0855-0.1452-0.1171-0.237h0.2566c0.0476,0.1054,0.1075,0.1815,0.18,0.2285
			c0.0725,0.047,0.1615,0.0706,0.2668,0.0706c0.0646,0,0.1254-0.0122,0.1826-0.0366c0.0573-0.0243,0.1073-0.058,0.1504-0.1011
			c0.0431-0.0431,0.077-0.0943,0.102-0.1538c0.0249-0.0594,0.0374-0.1243,0.0374-0.1945v-0.3024
			c-0.06,0.094-0.1328,0.1651-0.2183,0.2132c-0.0855,0.0481-0.173,0.0723-0.2625,0.0723c-0.1178,0-0.2234-0.0238-0.3168-0.0714
			c-0.0935-0.0476-0.1733-0.1124-0.2396-0.1946c-0.0662-0.0821-0.117-0.1781-0.152-0.288
			c-0.0351-0.1099-0.0527-0.2271-0.0527-0.3517c0-0.1245,0.0176-0.2412,0.0527-0.35c0.0352-0.1088,0.0849-0.2032,0.1495-0.2837
			c0.0646-0.0805,0.1421-0.1438,0.2327-0.1903s0.1915-0.0697,0.3025-0.0697c0.0385,0,0.0796,0.0043,0.1231,0.0128
			c0.0436,0.0086,0.0875,0.0233,0.1317,0.0442c0.0443,0.021,0.0875,0.0496,0.13,0.0858c0.0426,0.0362,0.0824,0.0815,0.1198,0.1359
			v-0.248h0.2583v1.7721H48.0401z M47.7819,20.1893c-0.0022-0.0895-0.0142-0.1735-0.0356-0.2523
			c-0.0216-0.0787-0.0522-0.1471-0.0918-0.2056c-0.0396-0.0583-0.0883-0.1045-0.146-0.1385
			c-0.0578-0.034-0.1229-0.0509-0.1954-0.0509c-0.0748,0-0.1438,0.0172-0.2072,0.0517c-0.0634,0.0346-0.1184,0.0822-0.1649,0.1427
			c-0.0465,0.0607-0.0827,0.1315-0.1088,0.2124c-0.0261,0.081-0.0391,0.1679-0.0391,0.2608s0.013,0.1804,0.0391,0.2625
			c0.0261,0.0822,0.0623,0.1541,0.1088,0.2157c0.0465,0.0617,0.1014,0.1105,0.1649,0.1461
			c0.0634,0.0357,0.1325,0.0536,0.2072,0.0536s0.1413-0.0176,0.1996-0.0527c0.0583-0.0352,0.1073-0.083,0.1469-0.1435
			c0.0396-0.0606,0.0699-0.1317,0.0909-0.2132c0.021-0.0815,0.0315-0.1688,0.0315-0.2617L47.7819,20.1893L47.7819,20.1893z"/>
		<path fill="#4D4D4D" d="M49.7901,21.0456h-0.2532v-0.2617c-0.0895,0.103-0.1866,0.1775-0.2914,0.2234
			c-0.1047,0.0459-0.2121,0.0688-0.3219,0.0688c-0.0804,0-0.1526-0.0119-0.2166-0.0356c-0.0641-0.0238-0.1184-0.0583-0.1631-0.1037
			c-0.0448-0.0453-0.079-0.0997-0.1028-0.1631c-0.0237-0.0634-0.0356-0.1353-0.0356-0.2157v-1.242h0.2565v1.2097
			c0,0.06,0.007,0.1105,0.0212,0.1512c0.0141,0.0408,0.0349,0.0741,0.062,0.1002c0.0271,0.0261,0.0603,0.0448,0.0993,0.0561
			c0.0391,0.0113,0.083,0.017,0.1318,0.017c0.0769,0,0.1495-0.0138,0.2175-0.0417c0.068-0.0277,0.1274-0.0646,0.1783-0.1105
			c0.0509-0.0459,0.0911-0.0985,0.1207-0.158c0.0294-0.0595,0.0441-0.1209,0.0441-0.1843V19.316h0.2532L49.7901,21.0456
			L49.7901,21.0456z"/>
		<path fill="#4D4D4D" d="M50.1553,19.3466h0.2531l-0.0102,0.2651c0.0533-0.0963,0.1164-0.1695,0.1894-0.22
			c0.0731-0.0503,0.1583-0.0757,0.2557-0.0757c0.0181,0,0.0383,0.0018,0.0603,0.0052c0.0221,0.0034,0.0417,0.0085,0.0586,0.0153
			v0.2617c-0.0543-0.0193-0.0963-0.0288-0.1257-0.0288c-0.068,0-0.1283,0.0128-0.1809,0.0382
			c-0.0526,0.0255-0.0974,0.0595-0.1342,0.102c-0.0368,0.0426-0.065,0.0917-0.0841,0.1478
			c-0.0193,0.056-0.0288,0.1146-0.0288,0.1758v1.0431h-0.2531L50.1553,19.3466L50.1553,19.3466z"/>
		<path fill="#4D4D4D" d="M51.2375,20.2131c0-0.1235,0.0173-0.2395,0.0518-0.3482c0.0346-0.1088,0.0849-0.2039,0.1512-0.2854
			c0.0662-0.0815,0.148-0.1459,0.2454-0.1929c0.0974-0.0469,0.209-0.0705,0.3347-0.0705s0.2379,0.0236,0.3364,0.0705
			c0.0985,0.047,0.1812,0.1113,0.248,0.1929c0.0668,0.0815,0.1178,0.1766,0.1529,0.2854c0.0352,0.1088,0.0527,0.2248,0.0527,0.3482
			s-0.0176,0.2396-0.0527,0.3483c-0.0351,0.1087-0.0861,0.2032-0.1529,0.2837c-0.0668,0.0805-0.1495,0.1442-0.248,0.1912
			s-0.2106,0.0705-0.3364,0.0705s-0.2373-0.0236-0.3347-0.0705c-0.0974-0.0469-0.1792-0.1107-0.2454-0.1912
			c-0.0663-0.0804-0.1167-0.175-0.1512-0.2837C51.2549,20.4526,51.2375,20.3365,51.2375,20.2131z M51.4907,20.2131
			c0,0.0917,0.0122,0.1784,0.0365,0.26c0.0244,0.0815,0.0595,0.1523,0.1054,0.2123c0.0459,0.06,0.1017,0.1076,0.1674,0.1427
			c0.0657,0.0352,0.1394,0.0527,0.2209,0.0527s0.1551-0.0176,0.2209-0.0527s0.1214-0.0827,0.1674-0.1427
			c0.0459-0.06,0.0812-0.1308,0.1061-0.2123c0.0249-0.0815,0.0375-0.1683,0.0375-0.26s-0.0126-0.1783-0.0375-0.2599
			s-0.0603-0.1529-0.1061-0.214c-0.0459-0.0612-0.1017-0.1094-0.1674-0.1444s-0.1394-0.0526-0.2209-0.0526
			s-0.1552,0.0175-0.2209,0.0526c-0.0658,0.0352-0.1214,0.0833-0.1674,0.1444c-0.0459,0.0612-0.0809,0.1325-0.1054,0.214
			C51.5029,20.0347,51.4907,20.1213,51.4907,20.2131z"/>
		<path fill="#4D4D4D" d="M53.4412,20.541c0.0011,0.0634,0.0121,0.1171,0.0331,0.1614c0.0209,0.0442,0.049,0.0799,0.084,0.1071
			c0.0351,0.0271,0.0767,0.0469,0.1248,0.0594c0.0482,0.0125,0.1005,0.0187,0.1572,0.0187c0.0465,0,0.0948-0.0043,0.1452-0.0128
			c0.0504-0.0085,0.0969-0.0229,0.1394-0.0433c0.0426-0.0204,0.0776-0.0481,0.1054-0.0832
			c0.0278-0.0352,0.0417-0.0799,0.0417-0.1343c0-0.0487-0.0147-0.0906-0.0442-0.1257c-0.0294-0.0351-0.0686-0.0659-0.1172-0.0926
			c-0.0487-0.0266-0.1039-0.0503-0.1656-0.0714c-0.0616-0.0209-0.1248-0.0429-0.1894-0.0662
			c-0.0646-0.0232-0.1278-0.0484-0.1894-0.0757c-0.0617-0.0272-0.1171-0.0597-0.1656-0.0977
			c-0.0488-0.0379-0.0878-0.0827-0.1172-0.1343c-0.0294-0.0515-0.0442-0.1135-0.0442-0.186c0-0.0759,0.0168-0.1421,0.0501-0.1988
			c0.0335-0.0567,0.0779-0.1033,0.1334-0.1402c0.0555-0.0368,0.1195-0.0643,0.1919-0.0824c0.0724-0.0181,0.1478-0.0272,0.226-0.0272
			c0.0883,0,0.1708,0.0093,0.2472,0.028c0.0765,0.0186,0.143,0.0473,0.1996,0.0858c0.0566,0.0385,0.1017,0.0874,0.1352,0.1469
			c0.0334,0.0595,0.0518,0.13,0.0551,0.2115c-0.0215,0-0.0453-0.0005-0.0713-0.0017c-0.0261-0.0012-0.0476-0.0018-0.0647-0.0018
			h-0.1223c-0.0056-0.0465-0.0195-0.0852-0.0416-0.1164c-0.0221-0.0311-0.0499-0.056-0.0833-0.0748
			c-0.0334-0.0186-0.0719-0.0319-0.1155-0.0399c-0.0435-0.0079-0.0897-0.0119-0.1385-0.0119c-0.1121,0-0.1977,0.0206-0.2565,0.0619
			c-0.059,0.0414-0.0883,0.096-0.0883,0.164c0,0.0453,0.0146,0.0847,0.0441,0.118c0.0294,0.0335,0.0686,0.0632,0.1172,0.0892
			c0.0486,0.0261,0.1039,0.0504,0.1656,0.0731c0.0617,0.0227,0.1252,0.0456,0.1903,0.0688
			c0.0651,0.0233,0.1286,0.0484,0.1903,0.0757c0.0617,0.0272,0.117,0.0589,0.1656,0.0951c0.0486,0.0362,0.0878,0.0785,0.1172,0.1266
			c0.0294,0.0482,0.0442,0.1051,0.0442,0.1708c0,0.094-0.0187,0.1741-0.056,0.2404c-0.0375,0.0662-0.0875,0.1206-0.1504,0.1631
			c-0.0629,0.0425-0.1362,0.0733-0.2201,0.0926c-0.0839,0.0193-0.1716,0.0288-0.2633,0.0288c-0.0883,0-0.1722-0.0116-0.2514-0.0349
			c-0.0793-0.0232-0.149-0.0585-0.2089-0.1061c-0.0601-0.0476-0.1082-0.1071-0.1444-0.1784
			c-0.0362-0.0714-0.0561-0.1545-0.0594-0.2497h0.265V20.541z"/>
	</g>
</g>
</svg>
