<?xml version="1.0" encoding="utf-8"?>
<!-- Generator: Adobe Illustrator 17.0.0, SVG Export Plug-In . SVG Version: 6.00 Build 0)  -->
<!DOCTYPE svg PUBLIC "-//W3C//DTD SVG 1.1//EN" "http://www.w3.org/Graphics/SVG/1.1/DTD/svg11.dtd">
<svg version="1.1" id="Capa_1" xmlns="http://www.w3.org/2000/svg" xmlns:xlink="http://www.w3.org/1999/xlink" x="0px" y="0px"
	 width="60px" height="24px" viewBox="0 0 60 24" enable-background="new 0 0 60 24" xml:space="preserve">
<g id="SURA">
	<g>
		<path fill="#0030A6" d="M35.7499,6.5778V6.58h-0.5075c-2.6873,0.0076-5.2113,1.9778-5.3202,5.8326
			c-0.0994,3.5078,1.7253,5.9588,4.8113,5.9588c2.5389,0,3.4284-1.7678,3.4284-1.7678c0.1489,1.1795,0.7843,1.5457,2.0638,1.5457
			V8.2227V6.5778H35.7499z M38.0473,13.3948c0,1.6022-0.9214,3.1238-2.9126,3.1238c-1.7863,0-3.0683-1.1958-2.9807-4.0835
			c0.0773-2.7683,1.4082-3.9844,3.1735-3.9844c0.1368,0,0.2655-0.0042,0.3891-0.0131h2.3306V13.3948z"/>
	</g>
	<g>
		<path fill="#0030A6" d="M17.7672,6.491l0.0094,8.0333c0,1.1659-0.9678,1.7591-2.2468,1.7591
			c-1.3448,0-2.2349-0.5932-2.2349-1.7591l-0.0076-6.0114c-0.0062-1.7127-1.0801-2.0248-2.0212-2.0248v8.528
			c0,2.1498,1.9365,3.2079,4.2011,3.2079c2.1885,0,4.3399-1.0581,4.3399-3.2079l-0.0075-6.2458
			C19.7995,7.0872,19.1735,6.491,17.7672,6.491"/>
	</g>
	<g>
		<path fill="#0030A6" d="M22.7165,10.9168v7.1565l2.0233,0.0014V10.849c0-1.5345,0.8196-2.4589,2.3835-2.4589h0.5996
			c1.7707,0,2.0564-0.913,2.0564-1.9018h-2.8288C24.4406,6.4883,22.7165,7.9409,22.7165,10.9168"/>
	</g>
	<g>
		<path fill="#0030A6" d="M6.0456,11.6756l-2.4787-0.6799c-0.6792-0.1848-1.2985-0.4834-1.2985-1.3158
			c0-0.8647,0.521-1.2898,1.6206-1.2898h2.2c0.9739,0,2.1321-0.3141,2.1321-1.899L4.0809,6.494
			c-2.5478,0.003-4.0064,1.2886-4.0064,3.1318c0,1.7161,1.0869,2.6899,3.0302,3.204l2.1575,0.5684
			c0.8903,0.2391,1.2076,0.795,1.2076,1.3714c0,0.8649-0.5442,1.3867-1.8835,1.4028l-4.1308,0.029v1.8718H4.656
			c2.5495,0,4.0093-1.3679,4.0093-3.1727C8.6653,13.0851,7.9499,12.1958,6.0456,11.6756"/>
	</g>
	<g>
		<path fill="#00ABC3" d="M51.53,20.6845c0.0251,0.0016,0.043,0.0208,0.0347,0.0616c-0.2896,0.6891-0.618,1.2094-1.2604,1.5328
			c-1.1247,0.5622-1.7153,0.2422-1.7938,0.2024c-0.022-0.0106-0.0387-0.0366-0.0369-0.0616
			c0.0036-0.0241,0.0238-0.0477,0.0505-0.0503c0.4893-0.1512,1.966-0.6981,2.9717-1.6771
			C51.5031,20.686,51.5187,20.6834,51.53,20.6845 M51.6653,18.6434c-0.7766,0.4625-2.3667,1.1377-3.7568,1.5308
			c-1.6533,0.4701-2.9805,0.6983-3.8718,0.5677c-0.778-0.1155-1.1675-0.4772-1.2856-0.6117
			c-0.0165-0.0187-0.038-0.0381-0.0305-0.0607c0.004-0.0269,0.029-0.0515,0.0612-0.0555l0.3038-0.0213
			c0.6572-0.0454,1.8424-0.0747,3.2238-0.2734c1.5972-0.2339,4.1605-0.6889,5.336-1.1482
			C51.6705,18.5761,51.6871,18.5956,51.6653,18.6434 M51.7823,19.3361c0.0219,0.0035,0.0401,0.0222,0.0316,0.0636
			c-0.2245,0.2977-0.5961,0.6353-1.0801,0.9785c-0.4781,0.3383-1.0381,0.666-1.6228,0.9483
			c-0.6196,0.2953-1.163,0.5412-1.7329,0.6908c-0.6372,0.1661-1.1952,0.2249-1.657,0.1713
			c-0.3719-0.0418-0.6792-0.1547-0.9135-0.3409c-0.013-0.0128-0.018-0.0314-0.0163-0.0472c0.0033-0.0283,0.0271-0.0484,0.0577-0.056
			c1.4316-0.2304,2.7508-0.5835,3.9745-1.0054C50.0298,20.324,51.0389,19.8428,51.7823,19.3361 M58.0952,13.5764
			c0.0255,0.0054,0.0395,0.0245,0.0255,0.072c-0.5703,0.4791-3.1848,2.6566-4.593,3.8095l-0.0496,0.0428
			c-0.4082,0.3074-0.683,0.3792-0.7277-0.2958c-0.0123-0.1632-0.0342-0.2972-0.0342-0.2972
			c-0.0251-0.1422,0.0177-0.1389,0.0727-0.1715c0.4576-0.2821,1.3367-0.7721,2.0369-1.1904
			C56.0729,14.8013,57.5323,13.9166,58.0952,13.5764 M56.1708,16.4799c0.0258,0.0043,0.0416,0.0246,0.0291,0.0678
			c-0.5653,0.6521-2.6502,2.9438-3.594,3.9505c-0.0976,0.1023-0.1484,0.0551-0.1105-0.0468c0,0,0.1793-0.4482,0.2549-0.794
			c0.0484-0.2115,0.0976-0.3804,0.211-0.4756c1.2256-1.0305,2.3995-2.0525,3.1753-2.6892L56.1708,16.4799z M58.7489,12.446
			c0.018-0.0033,0.0501-0.0069,0.0536,0.0109c0.0028,0.0111,0.0291,0.0336-0.0123,0.0596
			c-0.2655,0.1727-6.1085,2.5835-6.1645,2.6039c-0.3215,0.1105-0.6785,0.1663-0.9386-0.2754
			c-0.1087-0.184-0.2043-0.3333-0.2461-0.4023c-0.0177-0.0281-0.0825-0.0975,0.089-0.1406c0,0,1.6478-0.4415,3.1104-0.811
			C56.3319,13.0676,58.2447,12.5828,58.7489,12.446 M59.3629,11.609c0.0229,0.0024,0.0414,0.0246,0.0392,0.0459
			c-0.0016,0.0165-0.0163,0.0314-0.0359,0.0331c-0.4448,0.0701-8.5676,1.1788-8.6253,1.1873
			c-0.0451,0.0078-0.0936,0.0113-0.1444,0.0127c-0.043,0-0.09,0-0.1354-0.0068c-0.3865-0.0414-0.7621-0.2292-1.099-0.5868
			c-0.1734-0.1833-0.327-0.4744-0.369-0.5918c-0.0102-0.0163-0.0102-0.0373,0.0023-0.0531
			c0.0128-0.0206,0.0361-0.0298,0.0525-0.0335c0,0,2.7291-0.0047,4.4457-0.0023c1.2804,0.0023,2.648,0.0035,3.7589,0.0035
			C58.218,11.6173,58.9851,11.6161,59.3629,11.609 M59.8902,10.8892c0.0215,0.0045,0.0369,0.022,0.0352,0.0446
			c-0.0016,0.0195-0.0213,0.0323-0.048,0.0323c-1.1902-0.0864-11.8745-0.8343-11.8745-0.8343
			c-0.0999-0.0089-0.1786-0.0176-0.2747-0.0486c-0.8467-0.2707-1.3414-0.9223-1.5377-1.5777c-0.0078-0.0263-0.013-0.0493,0-0.0724
			c0.0123-0.0192,0.0416-0.034,0.0661-0.0276C46.2592,8.4055,58.8519,10.6963,59.8902,10.8892 M57.677,8.8158
			c0.0101,0.0522-0.0128,0.0676-0.0531,0.0602c-0.46-0.2352-1.4947-0.7297-2.5342-1.2475c-0.8814-0.4393-6.9026-3.2767-7.311-3.4871
			l-0.7199-0.3689c-0.1066-0.0531-0.2029-0.1145-0.2977-0.1726c-0.2856-0.1721-0.4323-0.2983-0.5871-0.4952
			c-0.1281-0.1605-0.2259-0.3643-0.3054-0.5557c-0.1713-0.4336-0.1625-1.0009-0.1535-1.1039c0-0.0136,0.009-0.0356,0.0309-0.0446
			c0.016-0.0102,0.0352-0.0126,0.0758,0.0025l0.7493,0.459l0.403,0.2474l2.2041,1.3463C52.2536,5.3738,56.557,8.1117,57.677,8.8158
			 M58.984,10.055c0.0191,0.0066,0.03,0.0247,0.0288,0.0405c-0.0061,0.022-0.0239,0.0383-0.0581,0.0341
			c-0.3374-0.0981-1.0504-0.2965-1.9538-0.5439c-2.065-0.5671-9.8663-2.6566-9.9966-2.6941l-0.0357-0.0125
			c-0.4682-0.1459-0.8526-0.3782-1.1469-0.6978c-0.0879-0.0908-0.1659-0.1921-0.2386-0.3038c-0.2611-0.4-0.3256-0.9823-0.339-1.0894
			c0-0.0119,0.0055-0.0339,0.0196-0.0488c0.0146-0.0151,0.0366-0.0213,0.0782-0.0127l1.2755,0.4993
			C49.6448,6.401,57.6782,9.5237,58.984,10.055"/>
	</g>
</g>
</svg>
