<?xml version="1.0" encoding="utf-8"?>
<!-- Generator: Adobe Illustrator 17.0.0, SVG Export Plug-In . SVG Version: 6.00 Build 0)  -->
<!DOCTYPE svg PUBLIC "-//W3C//DTD SVG 1.1//EN" "http://www.w3.org/Graphics/SVG/1.1/DTD/svg11.dtd">
<svg version="1.1" id="Capa_1" xmlns="http://www.w3.org/2000/svg" xmlns:xlink="http://www.w3.org/1999/xlink" x="0px" y="0px"
	 width="60px" height="24px" viewBox="0 0 60 24" enable-background="new 0 0 60 24" xml:space="preserve">
<g id="ZURICH">
	<path fill="#00539D" d="M30.2451,0.0774c-3.5611,0-6.4479,2.887-6.4479,6.448c0,1.4702,0.4924,2.8252,1.3208,3.9099l5.3604-7.0443
		L29.902,3.392h-0.5733c-0.6122,0-1.1857,0.0424-1.5989,0.1234c-0.2514,0.0493-0.4753,0.1405-0.6574,0.268
		c-0.2141,0.1498-0.482,0.4685-0.6563,0.7808c-0.0202,0.0363-0.0494,0.0917-0.0872,0.166L26.0151,4.661l0.5255-2.0243h6.7142
		l-5.3346,7.1334c0.347-0.0306,0.4852-0.0374,0.7659-0.0372c0.2166,0,0.5451,0.0132,0.985,0.0393l0.9478,0.0563
		c0.3424,0.0204,0.6309,0.0309,0.8493,0.0309c0.4897,0,0.8082-0.038,1.1228-0.134c0.2452-0.0748,0.478-0.1875,0.6904-0.334
		c0.3739-0.2579,0.7387-0.674,0.9563-1.0904c0.022-0.042,0.0563-0.1058,0.0969-0.1915l0.2838,0.0735
		c-0.0913,0.3532-0.1412,0.488-0.2829,0.8041c-0.2866,0.6406-0.6099,1.0694-1.0552,1.3988
		c-0.4565,0.3379-0.9631,0.5046-1.5615,0.5138l-0.0909,0.0006c-0.4433,0-0.7864-0.037-1.8472-0.1995
		c-1.0799-0.1656-1.6289-0.2216-2.1716-0.2216c-0.3635,0-0.7013,0.0267-1.0504,0.0832c-0.4633,0.0749-0.6446,0.1289-1.0653,0.3209
		c1.1786,1.2845,2.8711,2.0899,4.7517,2.0899c3.5611,0,6.4479-2.887,6.4479-6.448S33.8062,0.0774,30.2451,0.0774L30.2451,0.0774z"/>
	<path fill="#003B74" d="M18.0821,17.4422h-4.9362l-0.6064,1.3396c0.2023-0.1077,0.2827-0.1458,0.4599-0.2162
		c0.28-0.1118,0.5884-0.199,0.8873-0.2512c0.2587-0.0451,0.4972-0.066,0.8848-0.0771c0.173-0.0049,0.3354-0.0071,0.4871-0.0071
		h0.7308l-3.8402,5.4879h5.4284l0.6263-1.4316c-0.218,0.1249-0.2959,0.1655-0.4622,0.2411
		c-0.3153,0.1424-0.6602,0.2483-1.0142,0.3105c-0.2798,0.0495-0.595,0.0771-0.9868,0.0872c-0.131,0.003-0.2984,0.0049-0.502,0.0049
		h-0.9619L18.0821,17.4422L18.0821,17.4422z"/>
	<path fill="#003B74" d="M34.3969,23.718c-0.0977-0.0854-0.1317-0.1245-0.194-0.2214c-0.0399-0.0619-0.0723-0.126-0.0969-0.1912
		c-0.0539-0.1432-0.087-0.3533-0.087-0.552V22.418v-3.445l0.0026-0.3679c0.0028-0.4201,0.0136-0.5352,0.0669-0.7059
		c0.0212-0.067,0.0512-0.133,0.0896-0.196c0.0651-0.107,0.1094-0.1558,0.2361-0.2609h-2.0158
		c0.132,0.1133,0.1739,0.158,0.2337,0.2482c0.0423,0.0641,0.0749,0.1327,0.0971,0.2039c0.0468,0.1524,0.0613,0.303,0.0645,0.6761
		c0.0017,0.1912,0.0025,0.3172,0.0025,0.3779v3.4596v0.2986c0,0.2199-0.0384,0.4547-0.0994,0.6064
		c-0.0259,0.0641-0.059,0.126-0.0994,0.1837c-0.0477,0.069-0.0803,0.1065-0.1912,0.2214H34.3969L34.3969,23.718z"/>
	<path fill="#003B74" d="M40.7002,17.4992c-0.1547-0.0503-0.2156-0.0663-0.3828-0.1021c-0.3604-0.0764-0.7086-0.1114-1.1032-0.1114
		c-0.6749,0-1.2574,0.108-1.79,0.3328c-0.3157,0.1331-0.606,0.3057-0.8625,0.5121c-0.7736,0.6228-1.1936,1.5255-1.1936,2.565
		c0,1.0089,0.4053,1.8808,1.1465,2.4655c0.6118,0.4827,1.3982,0.7264,2.3451,0.7264c0.5906,0,1.1413-0.0879,1.7609-0.2814
		c0.0227-0.0071,0.0566-0.0179,0.1019-0.0324v-1.1409c-0.1502,0.1006-0.2017,0.1334-0.2933,0.1863
		c-0.1205,0.0701-0.2493,0.1342-0.3852,0.1916c-0.3785,0.1599-0.7234,0.2333-1.0952,0.2333c-0.6502,0-1.2055-0.2319-1.6165-0.6758
		c-0.4066-0.439-0.6265-1.0491-0.6265-1.7387c0-0.6582,0.2041-1.2676,0.5669-1.694c0.1571-0.1845,0.3498-0.3418,0.5691-0.4648
		c0.3548-0.1986,0.7668-0.3007,1.2137-0.3007c0.3839,0,0.7555,0.0746,1.1277,0.2262c0.2319,0.0947,0.3167,0.1412,0.517,0.2836
		V17.4992L40.7002,17.4992z"/>
	<path fill="#003B74" d="M46.2031,20.8697v1.5311c0,0.34-0.0055,0.4637-0.0274,0.6385c-0.0121,0.0965-0.0347,0.1875-0.0671,0.271
		c-0.0454,0.1174-0.1196,0.2248-0.2262,0.3279c-0.0188,0.0183-0.0479,0.0451-0.087,0.0798h2.0058
		c-0.0839-0.0828-0.1142-0.1175-0.169-0.1938c-0.0496-0.0697-0.0889-0.1387-0.1169-0.2065
		c-0.0604-0.1464-0.0764-0.2575-0.0818-0.5665c-0.0034-0.1856-0.0051-0.294-0.0051-0.3257l0.0051-3.4525v-0.3728
		c0-0.2758,0.0222-0.4886,0.0695-0.6634c0.022-0.0812,0.0554-0.1592,0.0993-0.2314c0.0662-0.1081,0.1137-0.1584,0.2487-0.2632
		h-2.0481c0.1178,0.098,0.1586,0.1438,0.2287,0.2557c0.0454,0.0726,0.0802,0.1461,0.1043,0.2188
		c0.0486,0.1472,0.0673,0.3302,0.0673,0.6586v0.388v1.1383h-2.8137v-1.1457c0-0.3466,0.0052-0.574,0.0173-0.7432
		c0.0075-0.1036,0.0241-0.1953,0.0498-0.2736c0.0445-0.1361,0.1577-0.3224,0.2609-0.4297c0.0149-0.0157,0.0382-0.038,0.0697-0.0671
		h-2.0108c0.1202,0.1241,0.1519,0.161,0.2063,0.2411c0.044,0.0641,0.0799,0.1361,0.1068,0.2136
		c0.0556,0.1587,0.0645,0.2449,0.0697,0.6634l0.0049,0.3977v3.435c0,0.35-0.0056,0.5028-0.0248,0.6612
		c-0.0099,0.082-0.0307,0.1654-0.062,0.2486c-0.0516,0.1364-0.1255,0.2445-0.2412,0.353c-0.0151,0.0141-0.0383,0.035-0.0695,0.0622
		h1.9858c-0.0861-0.0898-0.1163-0.1271-0.1665-0.2065c-0.0379-0.0596-0.0712-0.1256-0.0994-0.1961
		c-0.0656-0.1651-0.0853-0.2836-0.0921-0.5493c-0.0031-0.1334-0.0049-0.2587-0.0049-0.3753v-1.5211H46.2031L46.2031,20.8697z"/>
	<path fill="#003B74" d="M18.937,17.4422c0.1244,0.101,0.1671,0.1483,0.2286,0.2534c0.0403,0.0682,0.0704,0.142,0.0897,0.2188
		c0.0236,0.0943,0.0369,0.1908,0.0397,0.2881c0.002,0.069,0.0037,0.1994,0.005,0.3903l0.0024,0.363V20.75
		c0,0.634,0.0049,0.8521,0.0248,1.1063c0.0354,0.4498,0.1782,0.8244,0.44,1.1531c0.2649,0.3329,0.6245,0.583,1.0588,0.7358
		c0.3371,0.1189,0.7163,0.1774,1.1445,0.1774c0.4718,0,0.9326-0.0711,1.2715-0.1971c0.3555-0.132,0.6974-0.3612,0.9346-0.6266
		c0.2895-0.3235,0.4532-0.716,0.507-1.2154c0.0322-0.2986,0.0423-0.5669,0.0423-1.1234v-1.8043l-0.0025-0.3556l-0.0002-0.0503
		c0-0.3164,0.0259-0.5155,0.0569-0.6217c0.0651-0.2218,0.1785-0.3521,0.2813-0.4316c0.0397-0.0306,0.0519-0.0395,0.0717-0.0544
		h-1.8588c0.0763,0.114,0.1009,0.1629,0.1367,0.2732c0.0239,0.0738,0.0413,0.1528,0.0522,0.2363
		c0.0289,0.2229,0.0398,0.5061,0.0398,1.0414v1.9485c0,0.5419-0.0133,0.8133-0.0522,1.0638
		c-0.0261,0.168-0.081,0.3235-0.1617,0.4573c-0.1583,0.2632-0.4352,0.4562-0.7729,0.5393
		c-0.1351,0.0335-0.2846,0.0504-0.4453,0.0504c-0.3237,0-0.6034-0.0671-0.8522-0.2043c-0.1582-0.0872-0.2859-0.1987-0.3728-0.3257
		c-0.172-0.2513-0.2225-0.5044-0.2286-1.1484l-0.0075-0.7902v-1.5908c0-0.5348,0.0111-0.8252,0.0399-1.0414
		c0.0218-0.1651,0.0719-0.312,0.154-0.4525c0.0075-0.0127,0.0191-0.0321,0.0348-0.057H18.937L18.937,17.4422z"/>
	<path fill="#003B74" d="M27.7805,22.4281c0,0.1148,0.0007,0.2199,0.0024,0.3156c0.005,0.29,0.0265,0.4414,0.082,0.5788
		c0.0268,0.0667,0.0627,0.1308,0.107,0.1916c0.0556,0.0764,0.082,0.1074,0.174,0.2039H26.15
		c0.1164-0.1063,0.1524-0.1439,0.2088-0.2188c0.0458-0.0607,0.0826-0.1278,0.1094-0.1987c0.0516-0.1379,0.072-0.3093,0.072-0.6068
		v-0.2657v-3.4849v-0.3679c0-0.3328-0.0181-0.5274-0.0621-0.6683c-0.0247-0.079-0.0615-0.1558-0.1094-0.2289
		c-0.0595-0.0902-0.0995-0.1349-0.2112-0.2359h1.6205c0.2001,0,0.394,0.0022,0.5816,0.0075
		c0.4996,0.013,0.7921,0.0428,1.0737,0.1092c0.4008,0.0943,0.7609,0.2937,1.0192,0.5643c0.2806,0.2941,0.4252,0.6441,0.4252,1.0302
		c0,0.1621-0.0261,0.3254-0.0775,0.4834c-0.0917,0.2833-0.2469,0.508-0.4944,0.7156c-0.2186,0.1837-0.4581,0.3224-0.7731,0.4476
		c-0.1107,0.044-0.1575,0.0604-0.2783,0.0969l0.9743,1.1457c0.1184,0.139,0.2708,0.3101,0.4574,0.5121
		c0.2937,0.3182,0.4897,0.5191,0.711,0.7282c0.0952,0.0903,0.1856,0.1722,0.2708,0.246c0.0812,0.0705,0.1228,0.1047,0.2289,0.189
		h-0.4898h-0.2981c-0.1165,0-0.225-0.0019-0.3258-0.0052c-0.2725-0.0086-0.443-0.0489-0.624-0.1465
		c-0.2104-0.1137-0.4239-0.2829-0.6486-0.5144c-0.0696-0.072-0.1716-0.1845-0.3057-0.3381c-0.1186-0.136-0.2056-0.237-0.261-0.3034
		l-1.1631-1.3943V22.4281L27.7805,22.4281L27.7805,22.4281z M27.8823,20.4903c0.0901,0,0.1999-0.0097,0.3282-0.0283
		c0.3377-0.0492,0.566-0.1234,0.7905-0.2561c0.1166-0.069,0.2154-0.1484,0.2932-0.2363c0.1608-0.1807,0.2439-0.4219,0.2439-0.7071
		c0-0.3276-0.1102-0.5907-0.3234-0.7715c-0.1222-0.104-0.267-0.1808-0.425-0.2262c-0.237-0.0682-0.5364-0.1055-0.8457-0.1055
		c-0.0513,0-0.0846,0.0007-0.1634,0.0034v2.3243C27.8295,20.4896,27.8507,20.4903,27.8823,20.4903L27.8823,20.4903z"/>
</g>
</svg>
