<?xml version="1.0" encoding="utf-8"?>
<!-- Generator: Adobe Illustrator 22.1.0, SVG Export Plug-In . SVG Version: 6.00 Build 0)  -->
<svg version="1.1" id="Capa_1" xmlns="http://www.w3.org/2000/svg" xmlns:xlink="http://www.w3.org/1999/xlink" x="0px" y="0px"
	 viewBox="0 0 1200 1200" style="enable-background:new 0 0 1200 1200;" xml:space="preserve">
<style type="text/css">
	.st0{fill:none;stroke:#44569C;stroke-width:30;stroke-miterlimit:10;}
	.st1{fill:#BF2F66;}
</style>
<g>
	<path class="st0" d="M1163.7,1184.9H39c-11,0-20-9-20-20V40.1c0-11,9-20,20-20h1124.8c11,0,20,9,20,20v1124.8
		C1183.7,1175.9,1174.7,1184.9,1163.7,1184.9z"/>
	<g>
		<path class="st1" d="M1148.4,635.1c-7.7,2-15.4,5.7-23.1,5.7c-63.2,0.5-126.4-0.6-189.6,0.8c-19.4,0.4-25.6-7.5-25.3-30.6
			c0.9-66.3,0.3-132.7,0.3-199.1c0-10.7,0-21.4,0-33.7c-64.3,0-126.3,0-190.2,0c0,76.8-1,152,0.5,227c0.6,29-7.3,37.2-30.5,36.5
			c-61.5-1.8-123.1-1.3-184.7-0.2c-18.3,0.3-24-7.7-23.8-29.2c0.7-77.2,0.3-154.4,0.3-233.7c-63.2,0-125.1,0-190.3,0
			c0,14.1,0,27.5,0,41c0,64.4-0.3,128.8,0.2,193.1c0.1,19.1-3.7,29-21.8,28.8c-64.8-1-129.6-0.8-194.4-0.1
			c-15.7,0.2-21.8-6.2-21.7-25.6c0.5-79.2,0.7-158.5-0.1-237.7C54,353.7,64.4,351,80.2,351.1c61.5,0.5,123.1,0.2,188.4,0.2
			c0-23.6,0-45.9,0-68.3c0-56.5,0.4-112.9-0.2-169.4c-0.2-19.2,5.2-26.2,21.1-26c64.8,0.8,129.6,0.9,194.4-0.1
			c17.4-0.3,22.4,7.7,22.3,27.8c-0.6,77.1-0.2,154.2-0.2,233.6c63.5,0,125.4,0,190.9,0c0-10,0-20.4,0-30.9c0-67.3,0.3-134.7-0.2-202
			c-0.2-19.3,3.6-28.8,21.7-28.5c64.8,1.1,129.6,1,194.4,0c17.9-0.3,21.9,9,21.7,28.5c-0.6,77.1-0.2,154.1-0.2,235.2
			c46.8,0,91.9-0.5,136.9,0.2c25.7,0.4,51.4,2.8,77.2,4.3C1148.4,448.9,1148.4,542,1148.4,635.1z"/>
		<path class="st1" d="M706.3,688.1c28.3,0,51-1.6,73.5,0.8c8.5,0.9,19.1,8.8,23.9,17.5c20.7,37.6,39.5,76.7,60.5,118.2
			c21.4-40.9,41.9-78.7,61-117.5c7.2-14.6,15.4-20.3,29.2-19.4c20,1.3,40.1,0.3,64.9,0.3c-24.9,45.6-47.7,87-70.1,128.7
			c-13.7,25.5-36.9,51.2-37.3,77.2c-0.4,24.5,23.4,49.7,36.7,74.4c25,46.2,50.1,92.2,75.1,138.3c0.8,1.5,1.1,3.5,3.2,10
			c-28.2,0-55.2,1.1-81.9-0.9c-5.9-0.4-12.5-10.9-16.5-18.5c-22-41.2-43.3-82.9-67.1-128.6c-23.9,45-46.5,86.4-67.9,128.7
			c-7.2,14.3-15,20.2-29,19.8c-42.1-1.2-84.2-0.9-126.3-0.1c-12.5,0.2-18.6-4.3-22.4-19.6c-6.2-25.3-9.5-59.2-24.2-71.8
			c-14.9-12.7-42-4.2-63.8-4.3c-21-0.1-47.1-8.3-61.6,3.8c-14.2,11.9-17.4,44.6-23.8,68.8c-4.3,16.3-10.3,24.6-25.6,23.1
			c-18.3-1.8-36.7-0.4-58.8-0.4c18.2-59.2,35-114.4,52.1-169.5c24.3-78.4,49.1-156.6,72.9-235.3c5.1-16.9,11.1-24.7,27.3-24.6
			c59.2,0.3,59.1-0.5,80.1,67.7C624,865.2,657.8,975.1,691.5,1085c2.2,7,4.5,13.9,8.1,25.3c39.6-72.4,77.6-140.9,114.2-210.4
			c2.9-5.5-1.8-20-6-27.8C775.4,812.2,742.2,752.9,706.3,688.1z M483.3,950.1c31.9,0,60,0,91.1,0c-14.7-52.2-28.9-102.3-44.9-159.1
			C512.9,848,498.7,897.2,483.3,950.1z"/>
		<path class="st1" d="M249.8,1115.4c-28.2,0-52.2,0-77.9,0c0-115.9,0-230.3,0-348.6c-35.9,0-70.1,0-105.5,0c0-27.2,0-50.5,0-76.3
			c94.3,0,188.5,0,284.6,0c0,23.6,0,47.7,0,74.4c-32.8,0-65.7,0-101.2,0C249.8,882.5,249.8,997.6,249.8,1115.4z"/>
		<path class="st1" d="M1062.9,689.4c25.5,0,49.5,0,74.6,0c0,142.5,0,283.5,0,426c-25.1,0-49.1,0-74.6,0
			C1062.9,974.2,1062.9,833.2,1062.9,689.4z"/>
	</g>
</g>
</svg>
